G04 #@! TF.GenerationSoftware,KiCad,Pcbnew,8.0.6*
G04 #@! TF.CreationDate,2026-02-10T22:38:48-07:00*
G04 #@! TF.ProjectId,pneumatic Backpack v3.0,706e6575-6d61-4746-9963-204261636b70,rev?*
G04 #@! TF.SameCoordinates,Original*
G04 #@! TF.FileFunction,Soldermask,Bot*
G04 #@! TF.FilePolarity,Negative*
%FSLAX46Y46*%
G04 Gerber Fmt 4.6, Leading zero omitted, Abs format (unit mm)*
G04 Created by KiCad (PCBNEW 8.0.6) date 2026-02-10 22:38:48*
%MOMM*%
%LPD*%
G01*
G04 APERTURE LIST*
G04 Aperture macros list*
%AMRoundRect*
0 Rectangle with rounded corners*
0 $1 Rounding radius*
0 $2 $3 $4 $5 $6 $7 $8 $9 X,Y pos of 4 corners*
0 Add a 4 corners polygon primitive as box body*
4,1,4,$2,$3,$4,$5,$6,$7,$8,$9,$2,$3,0*
0 Add four circle primitives for the rounded corners*
1,1,$1+$1,$2,$3*
1,1,$1+$1,$4,$5*
1,1,$1+$1,$6,$7*
1,1,$1+$1,$8,$9*
0 Add four rect primitives between the rounded corners*
20,1,$1+$1,$2,$3,$4,$5,0*
20,1,$1+$1,$4,$5,$6,$7,0*
20,1,$1+$1,$6,$7,$8,$9,0*
20,1,$1+$1,$8,$9,$2,$3,0*%
G04 Aperture macros list end*
%ADD10R,3.500000X3.500000*%
%ADD11RoundRect,0.750000X1.000000X-0.750000X1.000000X0.750000X-1.000000X0.750000X-1.000000X-0.750000X0*%
%ADD12RoundRect,0.875000X0.875000X-0.875000X0.875000X0.875000X-0.875000X0.875000X-0.875000X-0.875000X0*%
%ADD13RoundRect,0.250000X0.615000X-0.265000X0.615000X0.265000X-0.615000X0.265000X-0.615000X-0.265000X0*%
%ADD14O,1.730000X1.030000*%
%ADD15C,0.800000*%
%ADD16RoundRect,0.102000X-0.565000X0.565000X-0.565000X-0.565000X0.565000X-0.565000X0.565000X0.565000X0*%
%ADD17C,1.334000*%
%ADD18RoundRect,0.102000X0.565000X-0.565000X0.565000X0.565000X-0.565000X0.565000X-0.565000X-0.565000X0*%
%ADD19RoundRect,0.102000X0.565000X0.565000X-0.565000X0.565000X-0.565000X-0.565000X0.565000X-0.565000X0*%
%ADD20R,2.300000X1.500000*%
%ADD21O,2.300000X1.500000*%
%ADD22R,1.700000X1.700000*%
%ADD23O,1.700000X1.700000*%
%ADD24C,2.500000*%
%ADD25RoundRect,0.250000X-0.600000X-0.600000X0.600000X-0.600000X0.600000X0.600000X-0.600000X0.600000X0*%
G04 APERTURE END LIST*
D10*
G04 #@! TO.C,J1*
X117855000Y-123365000D03*
D11*
X117855000Y-129365000D03*
D12*
X122555000Y-126365000D03*
G04 #@! TD*
D13*
G04 #@! TO.C,J3*
X155194000Y-104600000D03*
D14*
X155194000Y-103100000D03*
X155194000Y-101600000D03*
G04 #@! TD*
D15*
G04 #@! TO.C,U9*
X152500000Y-109730000D03*
D16*
X146375000Y-108460000D03*
D17*
X146375000Y-111000000D03*
X146375000Y-113540000D03*
X157625000Y-113540000D03*
X157625000Y-111000000D03*
X157625000Y-108460000D03*
G04 #@! TD*
D15*
G04 #@! TO.C,U10*
X152500000Y-93730000D03*
D16*
X146375000Y-92460000D03*
D17*
X146375000Y-95000000D03*
X146375000Y-97540000D03*
X157625000Y-97540000D03*
X157625000Y-95000000D03*
X157625000Y-92460000D03*
G04 #@! TD*
D15*
G04 #@! TO.C,U5*
X103500000Y-96270000D03*
D18*
X109625000Y-97540000D03*
D17*
X109625000Y-95000000D03*
X109625000Y-92460000D03*
X98375000Y-92460000D03*
X98375000Y-95000000D03*
X98375000Y-97540000D03*
G04 #@! TD*
D15*
G04 #@! TO.C,U1*
X103500000Y-80270000D03*
D18*
X109625000Y-81540000D03*
D17*
X109625000Y-79000000D03*
X109625000Y-76460000D03*
X98375000Y-76460000D03*
X98375000Y-79000000D03*
X98375000Y-81540000D03*
G04 #@! TD*
D15*
G04 #@! TO.C,U6*
X103500000Y-112270000D03*
D18*
X109625000Y-113540000D03*
D17*
X109625000Y-111000000D03*
X109625000Y-108460000D03*
X98375000Y-108460000D03*
X98375000Y-111000000D03*
X98375000Y-113540000D03*
G04 #@! TD*
D15*
G04 #@! TO.C,U11*
X152500000Y-77730000D03*
D16*
X146375000Y-76460000D03*
D17*
X146375000Y-79000000D03*
X146375000Y-81540000D03*
X157625000Y-81540000D03*
X157625000Y-79000000D03*
X157625000Y-76460000D03*
G04 #@! TD*
D15*
G04 #@! TO.C,U7*
X103500000Y-128270000D03*
D18*
X109625000Y-129540000D03*
D17*
X109625000Y-127000000D03*
X109625000Y-124460000D03*
X98375000Y-124460000D03*
X98375000Y-127000000D03*
X98375000Y-129540000D03*
G04 #@! TD*
D15*
G04 #@! TO.C,U12*
X140716000Y-92818000D03*
D19*
X141986000Y-86693000D03*
D17*
X139446000Y-86693000D03*
X136906000Y-86693000D03*
X136906000Y-97943000D03*
X139446000Y-97943000D03*
X141986000Y-97943000D03*
G04 #@! TD*
D15*
G04 #@! TO.C,U8*
X152500000Y-125730000D03*
D16*
X146375000Y-124460000D03*
D17*
X146375000Y-127000000D03*
X146375000Y-129540000D03*
X157625000Y-129540000D03*
X157625000Y-127000000D03*
X157625000Y-124460000D03*
G04 #@! TD*
D20*
G04 #@! TO.C,U4*
X127713500Y-116806000D03*
D21*
X127713500Y-119346000D03*
X127713500Y-121886000D03*
G04 #@! TD*
D20*
G04 #@! TO.C,U3*
X122555000Y-108204000D03*
D21*
X122555000Y-105664000D03*
X122555000Y-103124000D03*
G04 #@! TD*
D22*
G04 #@! TO.C,Bus_D1*
X118012000Y-69818000D03*
D23*
X120552000Y-69818000D03*
X123092000Y-69818000D03*
X125632000Y-69818000D03*
G04 #@! TD*
D22*
G04 #@! TO.C,J11*
X136000000Y-135880000D03*
D23*
X136000000Y-138420000D03*
G04 #@! TD*
D22*
G04 #@! TO.C,J2*
X140000000Y-135880000D03*
D23*
X140000000Y-138420000D03*
G04 #@! TD*
D22*
G04 #@! TO.C,J9*
X146000000Y-70380000D03*
D23*
X143460000Y-70380000D03*
G04 #@! TD*
D24*
G04 #@! TO.C,H3*
X108500000Y-137380000D03*
G04 #@! TD*
G04 #@! TO.C,H1*
X103500000Y-71380000D03*
G04 #@! TD*
D25*
G04 #@! TO.C,J5*
X157353000Y-86106000D03*
G04 #@! TD*
D24*
G04 #@! TO.C,H4*
X147500000Y-137380000D03*
G04 #@! TD*
D22*
G04 #@! TO.C,J4*
X150495000Y-104267000D03*
D23*
X147955000Y-104267000D03*
X145415000Y-104267000D03*
G04 #@! TD*
D24*
G04 #@! TO.C,H2*
X152500000Y-71380000D03*
G04 #@! TD*
M02*
