G04 #@! TF.GenerationSoftware,KiCad,Pcbnew,8.0.6*
G04 #@! TF.CreationDate,2026-02-10T22:38:48-07:00*
G04 #@! TF.ProjectId,pneumatic Backpack v3.0,706e6575-6d61-4746-9963-204261636b70,rev?*
G04 #@! TF.SameCoordinates,Original*
G04 #@! TF.FileFunction,Legend,Top*
G04 #@! TF.FilePolarity,Positive*
%FSLAX46Y46*%
G04 Gerber Fmt 4.6, Leading zero omitted, Abs format (unit mm)*
G04 Created by KiCad (PCBNEW 8.0.6) date 2026-02-10 22:38:48*
%MOMM*%
%LPD*%
G01*
G04 APERTURE LIST*
%ADD10C,0.200000*%
%ADD11C,0.152400*%
G04 APERTURE END LIST*
D10*
X148145500Y-106553000D02*
X150495000Y-106553000D01*
X145415000Y-102489000D02*
X145415000Y-101727000D01*
X148082000Y-105918000D02*
X148082000Y-106553000D01*
X149225000Y-106553000D02*
X149225000Y-107696000D01*
X146685000Y-101727000D02*
X146685000Y-101092000D01*
X147955000Y-101727000D02*
X147955000Y-102489000D01*
X150495000Y-106553000D02*
X150495000Y-105918000D01*
X145415000Y-101727000D02*
X147955000Y-101727000D01*
X111113673Y-74924219D02*
X111113673Y-73924219D01*
X111113673Y-73924219D02*
X111494625Y-73924219D01*
X111494625Y-73924219D02*
X111589863Y-73971838D01*
X111589863Y-73971838D02*
X111637482Y-74019457D01*
X111637482Y-74019457D02*
X111685101Y-74114695D01*
X111685101Y-74114695D02*
X111685101Y-74257552D01*
X111685101Y-74257552D02*
X111637482Y-74352790D01*
X111637482Y-74352790D02*
X111589863Y-74400409D01*
X111589863Y-74400409D02*
X111494625Y-74448028D01*
X111494625Y-74448028D02*
X111113673Y-74448028D01*
X112113673Y-74543266D02*
X112875578Y-74543266D01*
X113923196Y-74828980D02*
X113875577Y-74876600D01*
X113875577Y-74876600D02*
X113732720Y-74924219D01*
X113732720Y-74924219D02*
X113637482Y-74924219D01*
X113637482Y-74924219D02*
X113494625Y-74876600D01*
X113494625Y-74876600D02*
X113399387Y-74781361D01*
X113399387Y-74781361D02*
X113351768Y-74686123D01*
X113351768Y-74686123D02*
X113304149Y-74495647D01*
X113304149Y-74495647D02*
X113304149Y-74352790D01*
X113304149Y-74352790D02*
X113351768Y-74162314D01*
X113351768Y-74162314D02*
X113399387Y-74067076D01*
X113399387Y-74067076D02*
X113494625Y-73971838D01*
X113494625Y-73971838D02*
X113637482Y-73924219D01*
X113637482Y-73924219D02*
X113732720Y-73924219D01*
X113732720Y-73924219D02*
X113875577Y-73971838D01*
X113875577Y-73971838D02*
X113923196Y-74019457D01*
X114542244Y-73924219D02*
X114732720Y-73924219D01*
X114732720Y-73924219D02*
X114827958Y-73971838D01*
X114827958Y-73971838D02*
X114923196Y-74067076D01*
X114923196Y-74067076D02*
X114970815Y-74257552D01*
X114970815Y-74257552D02*
X114970815Y-74590885D01*
X114970815Y-74590885D02*
X114923196Y-74781361D01*
X114923196Y-74781361D02*
X114827958Y-74876600D01*
X114827958Y-74876600D02*
X114732720Y-74924219D01*
X114732720Y-74924219D02*
X114542244Y-74924219D01*
X114542244Y-74924219D02*
X114447006Y-74876600D01*
X114447006Y-74876600D02*
X114351768Y-74781361D01*
X114351768Y-74781361D02*
X114304149Y-74590885D01*
X114304149Y-74590885D02*
X114304149Y-74257552D01*
X114304149Y-74257552D02*
X114351768Y-74067076D01*
X114351768Y-74067076D02*
X114447006Y-73971838D01*
X114447006Y-73971838D02*
X114542244Y-73924219D01*
X115399387Y-74924219D02*
X115399387Y-73924219D01*
X115399387Y-73924219D02*
X115732720Y-74638504D01*
X115732720Y-74638504D02*
X116066053Y-73924219D01*
X116066053Y-73924219D02*
X116066053Y-74924219D01*
G36*
X144296626Y-99581023D02*
G01*
X144360805Y-99645202D01*
X144398720Y-99796861D01*
X144398720Y-100105575D01*
X144360804Y-100257235D01*
X144296628Y-100321413D01*
X144237018Y-100351219D01*
X144093756Y-100351219D01*
X144034146Y-100321414D01*
X143969969Y-100257236D01*
X143932054Y-100105575D01*
X143932054Y-99796862D01*
X143969969Y-99645202D01*
X144034148Y-99581023D01*
X144093756Y-99551219D01*
X144237018Y-99551219D01*
X144296626Y-99581023D01*
G37*
G36*
X147439483Y-99581023D02*
G01*
X147503662Y-99645202D01*
X147541577Y-99796861D01*
X147541577Y-100105575D01*
X147503661Y-100257235D01*
X147439485Y-100321413D01*
X147379875Y-100351219D01*
X147236613Y-100351219D01*
X147177003Y-100321414D01*
X147112826Y-100257236D01*
X147074911Y-100105575D01*
X147074911Y-99796862D01*
X147112826Y-99645202D01*
X147177005Y-99581023D01*
X147236613Y-99551219D01*
X147379875Y-99551219D01*
X147439483Y-99581023D01*
G37*
G36*
X149612672Y-100900425D02*
G01*
X143620943Y-100900425D01*
X143620943Y-100689419D01*
X145732054Y-100689419D01*
X145739706Y-100727679D01*
X145761417Y-100760099D01*
X145793882Y-100781742D01*
X145832159Y-100789314D01*
X145870419Y-100781662D01*
X145902839Y-100759951D01*
X145915259Y-100744784D01*
X146555413Y-99784552D01*
X146874911Y-99784552D01*
X146874911Y-100117885D01*
X146875246Y-100121287D01*
X146875029Y-100122746D01*
X146876108Y-100130043D01*
X146876832Y-100137394D01*
X146877396Y-100138757D01*
X146877897Y-100142139D01*
X146925516Y-100332614D01*
X146932111Y-100351075D01*
X146936536Y-100357047D01*
X146939382Y-100363918D01*
X146951819Y-100379071D01*
X147047057Y-100474311D01*
X147054725Y-100480604D01*
X147056456Y-100482600D01*
X147059463Y-100484493D01*
X147062210Y-100486747D01*
X147064650Y-100487757D01*
X147073047Y-100493043D01*
X147168284Y-100540662D01*
X147186593Y-100547668D01*
X147190176Y-100547922D01*
X147193497Y-100549298D01*
X147213006Y-100551219D01*
X147403482Y-100551219D01*
X147422991Y-100549298D01*
X147426311Y-100547922D01*
X147429895Y-100547668D01*
X147448203Y-100540662D01*
X147543441Y-100493043D01*
X147551836Y-100487758D01*
X147554278Y-100486747D01*
X147557025Y-100484491D01*
X147560031Y-100482600D01*
X147561761Y-100480605D01*
X147569431Y-100474310D01*
X147664669Y-100379071D01*
X147677106Y-100363918D01*
X147679951Y-100357047D01*
X147684377Y-100351075D01*
X147690972Y-100332615D01*
X147738591Y-100142139D01*
X147739091Y-100138757D01*
X147739656Y-100137394D01*
X147740379Y-100130043D01*
X147741459Y-100122746D01*
X147741241Y-100121287D01*
X147741577Y-100117885D01*
X147741577Y-99784552D01*
X147741241Y-99781149D01*
X147741459Y-99779691D01*
X147740379Y-99772393D01*
X147739656Y-99765043D01*
X147739091Y-99763679D01*
X147738591Y-99760298D01*
X147690972Y-99569822D01*
X147684377Y-99551362D01*
X147679950Y-99545387D01*
X147677105Y-99538519D01*
X147664669Y-99523365D01*
X147592523Y-99451219D01*
X147970149Y-99451219D01*
X147970149Y-100451219D01*
X147972070Y-100470728D01*
X147987002Y-100506776D01*
X148014592Y-100534366D01*
X148050640Y-100549298D01*
X148089658Y-100549298D01*
X148125706Y-100534366D01*
X148153296Y-100506776D01*
X148168228Y-100470728D01*
X148170149Y-100451219D01*
X148170149Y-100027409D01*
X148403482Y-100027409D01*
X148422991Y-100025488D01*
X148459039Y-100010556D01*
X148486629Y-99982966D01*
X148501561Y-99946918D01*
X148501561Y-99907900D01*
X148486629Y-99871852D01*
X148459039Y-99844262D01*
X148422991Y-99829330D01*
X148403482Y-99827409D01*
X148170149Y-99827409D01*
X148170149Y-99551219D01*
X148546339Y-99551219D01*
X148565848Y-99549298D01*
X148601896Y-99534366D01*
X148629486Y-99506776D01*
X148644418Y-99470728D01*
X148644418Y-99451219D01*
X148827292Y-99451219D01*
X148827292Y-100451219D01*
X148829213Y-100470728D01*
X148844145Y-100506776D01*
X148871735Y-100534366D01*
X148907783Y-100549298D01*
X148946801Y-100549298D01*
X148982849Y-100534366D01*
X149010439Y-100506776D01*
X149025371Y-100470728D01*
X149027292Y-100451219D01*
X149027292Y-100027409D01*
X149260625Y-100027409D01*
X149280134Y-100025488D01*
X149316182Y-100010556D01*
X149343772Y-99982966D01*
X149358704Y-99946918D01*
X149358704Y-99907900D01*
X149343772Y-99871852D01*
X149316182Y-99844262D01*
X149280134Y-99829330D01*
X149260625Y-99827409D01*
X149027292Y-99827409D01*
X149027292Y-99551219D01*
X149403482Y-99551219D01*
X149422991Y-99549298D01*
X149459039Y-99534366D01*
X149486629Y-99506776D01*
X149501561Y-99470728D01*
X149501561Y-99431710D01*
X149486629Y-99395662D01*
X149459039Y-99368072D01*
X149422991Y-99353140D01*
X149403482Y-99351219D01*
X148927292Y-99351219D01*
X148907783Y-99353140D01*
X148871735Y-99368072D01*
X148844145Y-99395662D01*
X148829213Y-99431710D01*
X148827292Y-99451219D01*
X148644418Y-99451219D01*
X148644418Y-99431710D01*
X148629486Y-99395662D01*
X148601896Y-99368072D01*
X148565848Y-99353140D01*
X148546339Y-99351219D01*
X148070149Y-99351219D01*
X148050640Y-99353140D01*
X148014592Y-99368072D01*
X147987002Y-99395662D01*
X147972070Y-99431710D01*
X147970149Y-99451219D01*
X147592523Y-99451219D01*
X147569431Y-99428127D01*
X147561760Y-99421832D01*
X147560031Y-99419838D01*
X147557023Y-99417944D01*
X147554277Y-99415691D01*
X147551837Y-99414680D01*
X147543441Y-99409395D01*
X147448203Y-99361776D01*
X147429895Y-99354770D01*
X147426311Y-99354515D01*
X147422991Y-99353140D01*
X147403482Y-99351219D01*
X147213006Y-99351219D01*
X147193497Y-99353140D01*
X147190176Y-99354515D01*
X147186593Y-99354770D01*
X147168284Y-99361776D01*
X147073047Y-99409395D01*
X147064648Y-99414681D01*
X147062211Y-99415691D01*
X147059467Y-99417942D01*
X147056456Y-99419838D01*
X147054723Y-99421835D01*
X147047057Y-99428127D01*
X146951819Y-99523365D01*
X146939383Y-99538519D01*
X146936537Y-99545387D01*
X146932111Y-99551362D01*
X146925516Y-99569823D01*
X146877897Y-99760298D01*
X146877396Y-99763679D01*
X146876832Y-99765043D01*
X146876108Y-99772393D01*
X146875029Y-99779691D01*
X146875246Y-99781149D01*
X146874911Y-99784552D01*
X146555413Y-99784552D01*
X146772401Y-99459070D01*
X146781625Y-99441772D01*
X146789196Y-99403495D01*
X146781544Y-99365235D01*
X146759833Y-99332815D01*
X146727368Y-99311171D01*
X146689092Y-99303600D01*
X146650831Y-99311252D01*
X146618411Y-99332963D01*
X146605991Y-99348130D01*
X145748849Y-100633844D01*
X145739626Y-100651142D01*
X145732054Y-100689419D01*
X143620943Y-100689419D01*
X143620943Y-99784552D01*
X143732054Y-99784552D01*
X143732054Y-100117885D01*
X143732389Y-100121287D01*
X143732172Y-100122746D01*
X143733251Y-100130043D01*
X143733975Y-100137394D01*
X143734539Y-100138757D01*
X143735040Y-100142139D01*
X143782659Y-100332614D01*
X143789254Y-100351075D01*
X143793679Y-100357047D01*
X143796525Y-100363918D01*
X143808962Y-100379071D01*
X143904200Y-100474311D01*
X143911868Y-100480604D01*
X143913599Y-100482600D01*
X143916606Y-100484493D01*
X143919353Y-100486747D01*
X143921793Y-100487757D01*
X143930190Y-100493043D01*
X144025427Y-100540662D01*
X144043736Y-100547668D01*
X144047319Y-100547922D01*
X144050640Y-100549298D01*
X144070149Y-100551219D01*
X144260625Y-100551219D01*
X144280134Y-100549298D01*
X144283454Y-100547922D01*
X144287038Y-100547668D01*
X144305346Y-100540662D01*
X144400584Y-100493043D01*
X144408979Y-100487758D01*
X144411421Y-100486747D01*
X144414168Y-100484491D01*
X144417174Y-100482600D01*
X144418904Y-100480605D01*
X144426574Y-100474310D01*
X144521812Y-100379071D01*
X144534249Y-100363918D01*
X144537094Y-100357047D01*
X144541520Y-100351075D01*
X144548115Y-100332615D01*
X144595734Y-100142139D01*
X144596234Y-100138757D01*
X144596799Y-100137394D01*
X144597522Y-100130043D01*
X144598602Y-100122746D01*
X144598384Y-100121287D01*
X144598720Y-100117885D01*
X144598720Y-99784552D01*
X144598384Y-99781149D01*
X144598602Y-99779691D01*
X144597522Y-99772393D01*
X144596799Y-99765043D01*
X144596234Y-99763679D01*
X144595734Y-99760298D01*
X144548115Y-99569822D01*
X144541520Y-99551362D01*
X144537093Y-99545387D01*
X144534248Y-99538519D01*
X144521812Y-99523365D01*
X144449666Y-99451219D01*
X144827292Y-99451219D01*
X144827292Y-100451219D01*
X144829213Y-100470728D01*
X144844145Y-100506776D01*
X144871735Y-100534366D01*
X144907783Y-100549298D01*
X144946801Y-100549298D01*
X144982849Y-100534366D01*
X145010439Y-100506776D01*
X145025371Y-100470728D01*
X145027292Y-100451219D01*
X145027292Y-99827775D01*
X145411896Y-100500833D01*
X145414814Y-100504943D01*
X145415573Y-100506776D01*
X145417439Y-100508642D01*
X145423243Y-100516818D01*
X145433759Y-100524962D01*
X145443163Y-100534366D01*
X145449050Y-100536804D01*
X145454092Y-100540709D01*
X145466924Y-100544208D01*
X145479211Y-100549298D01*
X145485587Y-100549298D01*
X145491736Y-100550975D01*
X145504929Y-100549298D01*
X145518229Y-100549298D01*
X145524117Y-100546858D01*
X145530442Y-100546055D01*
X145541991Y-100539454D01*
X145554277Y-100534366D01*
X145558784Y-100529858D01*
X145564319Y-100526696D01*
X145572463Y-100516179D01*
X145581867Y-100506776D01*
X145584305Y-100500888D01*
X145588210Y-100495847D01*
X145591709Y-100483014D01*
X145596799Y-100470728D01*
X145597781Y-100460750D01*
X145598476Y-100458204D01*
X145598225Y-100456236D01*
X145598720Y-100451219D01*
X145598720Y-99451219D01*
X145596799Y-99431710D01*
X145581867Y-99395662D01*
X145554277Y-99368072D01*
X145518229Y-99353140D01*
X145479211Y-99353140D01*
X145443163Y-99368072D01*
X145415573Y-99395662D01*
X145400641Y-99431710D01*
X145398720Y-99451219D01*
X145398720Y-100074662D01*
X145014116Y-99401605D01*
X145011197Y-99397494D01*
X145010439Y-99395662D01*
X145008572Y-99393795D01*
X145002769Y-99385620D01*
X144992254Y-99377477D01*
X144982849Y-99368072D01*
X144976958Y-99365632D01*
X144971920Y-99361730D01*
X144959091Y-99358231D01*
X144946801Y-99353140D01*
X144940426Y-99353140D01*
X144934277Y-99351463D01*
X144921084Y-99353140D01*
X144907783Y-99353140D01*
X144901894Y-99355579D01*
X144895570Y-99356383D01*
X144884020Y-99362983D01*
X144871735Y-99368072D01*
X144867227Y-99372579D01*
X144861693Y-99375742D01*
X144853550Y-99386256D01*
X144844145Y-99395662D01*
X144841705Y-99401552D01*
X144837803Y-99406591D01*
X144834304Y-99419419D01*
X144829213Y-99431710D01*
X144828230Y-99441687D01*
X144827536Y-99444234D01*
X144827786Y-99446201D01*
X144827292Y-99451219D01*
X144449666Y-99451219D01*
X144426574Y-99428127D01*
X144418903Y-99421832D01*
X144417174Y-99419838D01*
X144414166Y-99417944D01*
X144411420Y-99415691D01*
X144408980Y-99414680D01*
X144400584Y-99409395D01*
X144305346Y-99361776D01*
X144287038Y-99354770D01*
X144283454Y-99354515D01*
X144280134Y-99353140D01*
X144260625Y-99351219D01*
X144070149Y-99351219D01*
X144050640Y-99353140D01*
X144047319Y-99354515D01*
X144043736Y-99354770D01*
X144025427Y-99361776D01*
X143930190Y-99409395D01*
X143921791Y-99414681D01*
X143919354Y-99415691D01*
X143916610Y-99417942D01*
X143913599Y-99419838D01*
X143911866Y-99421835D01*
X143904200Y-99428127D01*
X143808962Y-99523365D01*
X143796526Y-99538519D01*
X143793680Y-99545387D01*
X143789254Y-99551362D01*
X143782659Y-99569823D01*
X143735040Y-99760298D01*
X143734539Y-99763679D01*
X143733975Y-99765043D01*
X143733251Y-99772393D01*
X143732172Y-99779691D01*
X143732389Y-99781149D01*
X143732054Y-99784552D01*
X143620943Y-99784552D01*
X143620943Y-99192489D01*
X149612672Y-99192489D01*
X149612672Y-100900425D01*
G37*
G36*
X109852795Y-69106240D02*
G01*
X109919868Y-69173313D01*
X109955320Y-69244218D01*
X109997291Y-69412099D01*
X109997291Y-69530337D01*
X109955320Y-69698218D01*
X109919867Y-69769124D01*
X109852796Y-69836197D01*
X109747731Y-69871219D01*
X109625863Y-69871219D01*
X109625863Y-69071219D01*
X109747731Y-69071219D01*
X109852795Y-69106240D01*
G37*
G36*
X110942816Y-69101023D02*
G01*
X111006995Y-69165202D01*
X111044910Y-69316861D01*
X111044910Y-69625575D01*
X111006994Y-69777235D01*
X110942818Y-69841413D01*
X110883208Y-69871219D01*
X110739946Y-69871219D01*
X110680336Y-69841414D01*
X110616159Y-69777236D01*
X110578244Y-69625575D01*
X110578244Y-69316862D01*
X110616159Y-69165202D01*
X110680338Y-69101023D01*
X110739946Y-69071219D01*
X110883208Y-69071219D01*
X110942816Y-69101023D01*
G37*
G36*
X114805175Y-69106240D02*
G01*
X114872248Y-69173313D01*
X114907700Y-69244218D01*
X114949671Y-69412099D01*
X114949671Y-69530337D01*
X114907700Y-69698218D01*
X114872247Y-69769124D01*
X114805176Y-69836197D01*
X114700111Y-69871219D01*
X114578243Y-69871219D01*
X114578243Y-69071219D01*
X114700111Y-69071219D01*
X114805175Y-69106240D01*
G37*
G36*
X115689354Y-70182330D02*
G01*
X106790943Y-70182330D01*
X106790943Y-69399790D01*
X106902054Y-69399790D01*
X106902054Y-69542647D01*
X106902389Y-69546049D01*
X106902172Y-69547508D01*
X106903251Y-69554805D01*
X106903975Y-69562156D01*
X106904539Y-69563519D01*
X106905040Y-69566901D01*
X106952659Y-69757376D01*
X106953172Y-69758813D01*
X106953224Y-69759536D01*
X106956332Y-69767660D01*
X106959254Y-69775837D01*
X106959684Y-69776417D01*
X106960230Y-69777844D01*
X107007849Y-69873082D01*
X107013131Y-69881474D01*
X107014144Y-69883918D01*
X107016400Y-69886667D01*
X107018292Y-69889672D01*
X107020286Y-69891401D01*
X107026581Y-69899071D01*
X107121819Y-69994311D01*
X107136972Y-70006747D01*
X107140291Y-70008122D01*
X107143007Y-70010477D01*
X107160907Y-70018468D01*
X107303764Y-70066087D01*
X107313436Y-70068286D01*
X107315878Y-70069298D01*
X107319415Y-70069646D01*
X107322879Y-70070434D01*
X107325513Y-70070246D01*
X107335387Y-70071219D01*
X107430625Y-70071219D01*
X107440498Y-70070246D01*
X107443132Y-70070434D01*
X107446595Y-70069646D01*
X107450134Y-70069298D01*
X107452576Y-70068286D01*
X107462248Y-70066087D01*
X107605104Y-70018468D01*
X107623005Y-70010477D01*
X107625720Y-70008122D01*
X107629040Y-70006747D01*
X107644193Y-69994310D01*
X107691812Y-69946690D01*
X107704249Y-69931537D01*
X107719180Y-69895488D01*
X107719179Y-69856470D01*
X107704248Y-69820422D01*
X107676657Y-69792832D01*
X107640609Y-69777901D01*
X107601591Y-69777902D01*
X107565543Y-69792833D01*
X107550389Y-69805270D01*
X107519462Y-69836197D01*
X107414398Y-69871219D01*
X107351613Y-69871219D01*
X107246548Y-69836197D01*
X107179478Y-69769127D01*
X107144024Y-69698218D01*
X107102054Y-69530337D01*
X107102054Y-69412100D01*
X107144024Y-69244218D01*
X107179477Y-69173312D01*
X107246549Y-69106240D01*
X107351613Y-69071219D01*
X107414398Y-69071219D01*
X107519463Y-69106240D01*
X107550390Y-69137167D01*
X107565543Y-69149604D01*
X107601592Y-69164535D01*
X107640610Y-69164535D01*
X107676658Y-69149604D01*
X107704248Y-69122014D01*
X107719179Y-69085966D01*
X107719179Y-69046948D01*
X107704248Y-69010899D01*
X107691811Y-68995746D01*
X107667285Y-68971219D01*
X107949673Y-68971219D01*
X107949673Y-69971219D01*
X107951594Y-69990728D01*
X107966526Y-70026776D01*
X107994116Y-70054366D01*
X108030164Y-70069298D01*
X108069182Y-70069298D01*
X108105230Y-70054366D01*
X108132820Y-70026776D01*
X108147752Y-69990728D01*
X108149673Y-69971219D01*
X108149673Y-69584069D01*
X108181710Y-69552031D01*
X108541101Y-70031219D01*
X108554343Y-70045674D01*
X108587918Y-70065553D01*
X108626544Y-70071071D01*
X108664341Y-70061388D01*
X108695556Y-70037977D01*
X108715435Y-70004403D01*
X108720953Y-69965777D01*
X108711270Y-69927979D01*
X108701101Y-69911219D01*
X108695755Y-69904091D01*
X108903975Y-69904091D01*
X108903975Y-69943109D01*
X108910438Y-69958712D01*
X108918907Y-69979158D01*
X108918911Y-69979162D01*
X108931343Y-69994311D01*
X108978962Y-70041929D01*
X108994115Y-70054366D01*
X109003118Y-70058095D01*
X109030164Y-70069298D01*
X109069182Y-70069298D01*
X109105230Y-70054366D01*
X109120384Y-70041930D01*
X109168002Y-69994311D01*
X109180439Y-69979158D01*
X109187191Y-69962856D01*
X109195370Y-69943110D01*
X109195371Y-69904092D01*
X109180440Y-69868043D01*
X109168003Y-69852890D01*
X109120384Y-69805270D01*
X109105231Y-69792833D01*
X109083037Y-69783640D01*
X109078964Y-69781953D01*
X109069182Y-69777901D01*
X109030164Y-69777901D01*
X109020382Y-69781953D01*
X108994116Y-69792832D01*
X108994115Y-69792833D01*
X108978961Y-69805270D01*
X108931343Y-69852890D01*
X108918906Y-69868043D01*
X108909948Y-69889672D01*
X108903975Y-69904091D01*
X108695755Y-69904091D01*
X108324567Y-69409174D01*
X108691812Y-69041930D01*
X108704248Y-69026777D01*
X108719179Y-68990728D01*
X108719179Y-68971219D01*
X109425863Y-68971219D01*
X109425863Y-69971219D01*
X109427784Y-69990728D01*
X109442716Y-70026776D01*
X109470306Y-70054366D01*
X109506354Y-70069298D01*
X109525863Y-70071219D01*
X109763958Y-70071219D01*
X109773831Y-70070246D01*
X109776465Y-70070434D01*
X109779928Y-70069646D01*
X109783467Y-70069298D01*
X109785909Y-70068286D01*
X109795581Y-70066087D01*
X109938437Y-70018468D01*
X109956338Y-70010477D01*
X109959053Y-70008122D01*
X109962373Y-70006747D01*
X109977526Y-69994310D01*
X110072764Y-69899071D01*
X110079056Y-69891404D01*
X110081053Y-69889673D01*
X110082946Y-69886665D01*
X110085201Y-69883918D01*
X110086212Y-69881476D01*
X110091496Y-69873082D01*
X110139115Y-69777845D01*
X110139661Y-69776416D01*
X110140091Y-69775837D01*
X110143012Y-69767660D01*
X110146121Y-69759536D01*
X110146172Y-69758815D01*
X110146686Y-69757377D01*
X110194305Y-69566901D01*
X110194805Y-69563519D01*
X110195370Y-69562156D01*
X110196093Y-69554805D01*
X110197173Y-69547508D01*
X110196955Y-69546049D01*
X110197291Y-69542647D01*
X110197291Y-69399790D01*
X110196955Y-69396387D01*
X110197173Y-69394929D01*
X110196093Y-69387631D01*
X110195370Y-69380281D01*
X110194805Y-69378917D01*
X110194305Y-69375536D01*
X110176559Y-69304552D01*
X110378244Y-69304552D01*
X110378244Y-69637885D01*
X110378579Y-69641287D01*
X110378362Y-69642746D01*
X110379441Y-69650043D01*
X110380165Y-69657394D01*
X110380729Y-69658757D01*
X110381230Y-69662139D01*
X110428849Y-69852614D01*
X110435444Y-69871075D01*
X110439869Y-69877047D01*
X110442715Y-69883918D01*
X110455152Y-69899071D01*
X110550390Y-69994311D01*
X110558058Y-70000604D01*
X110559789Y-70002600D01*
X110562796Y-70004493D01*
X110565543Y-70006747D01*
X110567983Y-70007757D01*
X110576380Y-70013043D01*
X110671617Y-70060662D01*
X110689926Y-70067668D01*
X110693509Y-70067922D01*
X110696830Y-70069298D01*
X110716339Y-70071219D01*
X110906815Y-70071219D01*
X110926324Y-70069298D01*
X110929644Y-70067922D01*
X110933228Y-70067668D01*
X110951536Y-70060662D01*
X111046774Y-70013043D01*
X111055169Y-70007758D01*
X111057611Y-70006747D01*
X111060358Y-70004491D01*
X111063364Y-70002600D01*
X111065094Y-70000605D01*
X111072764Y-69994310D01*
X111162982Y-69904091D01*
X111427784Y-69904091D01*
X111427784Y-69943109D01*
X111434247Y-69958712D01*
X111442716Y-69979158D01*
X111442720Y-69979162D01*
X111455152Y-69994311D01*
X111502771Y-70041929D01*
X111517924Y-70054366D01*
X111526927Y-70058095D01*
X111553973Y-70069298D01*
X111592991Y-70069298D01*
X111629039Y-70054366D01*
X111644193Y-70041930D01*
X111691811Y-69994311D01*
X111704248Y-69979158D01*
X111711000Y-69962856D01*
X111719179Y-69943110D01*
X111719180Y-69904092D01*
X111704249Y-69868043D01*
X111691812Y-69852890D01*
X111644193Y-69805270D01*
X111629040Y-69792833D01*
X111606846Y-69783640D01*
X111602773Y-69781953D01*
X111592991Y-69777901D01*
X111553973Y-69777901D01*
X111544191Y-69781953D01*
X111517925Y-69792832D01*
X111517924Y-69792833D01*
X111502770Y-69805270D01*
X111455152Y-69852890D01*
X111442715Y-69868043D01*
X111433757Y-69889672D01*
X111427784Y-69904091D01*
X111162982Y-69904091D01*
X111168002Y-69899071D01*
X111180439Y-69883918D01*
X111183284Y-69877047D01*
X111187710Y-69871075D01*
X111194305Y-69852615D01*
X111241924Y-69662139D01*
X111242424Y-69658757D01*
X111242989Y-69657394D01*
X111243712Y-69650043D01*
X111244792Y-69642746D01*
X111244574Y-69641287D01*
X111244910Y-69637885D01*
X111244910Y-69399790D01*
X111902053Y-69399790D01*
X111902053Y-69542647D01*
X111902388Y-69546049D01*
X111902171Y-69547508D01*
X111903250Y-69554805D01*
X111903974Y-69562156D01*
X111904538Y-69563519D01*
X111905039Y-69566901D01*
X111952658Y-69757376D01*
X111953171Y-69758813D01*
X111953223Y-69759536D01*
X111956331Y-69767660D01*
X111959253Y-69775837D01*
X111959683Y-69776417D01*
X111960229Y-69777844D01*
X112007848Y-69873082D01*
X112013130Y-69881474D01*
X112014143Y-69883918D01*
X112016399Y-69886667D01*
X112018291Y-69889672D01*
X112020285Y-69891401D01*
X112026580Y-69899071D01*
X112121818Y-69994311D01*
X112136971Y-70006747D01*
X112140290Y-70008122D01*
X112143006Y-70010477D01*
X112160906Y-70018468D01*
X112303763Y-70066087D01*
X112313435Y-70068286D01*
X112315877Y-70069298D01*
X112319414Y-70069646D01*
X112322878Y-70070434D01*
X112325512Y-70070246D01*
X112335386Y-70071219D01*
X112430624Y-70071219D01*
X112440497Y-70070246D01*
X112443131Y-70070434D01*
X112446594Y-70069646D01*
X112450133Y-70069298D01*
X112452575Y-70068286D01*
X112462247Y-70066087D01*
X112605103Y-70018468D01*
X112623004Y-70010477D01*
X112625719Y-70008122D01*
X112629039Y-70006747D01*
X112644192Y-69994310D01*
X112691811Y-69946690D01*
X112704248Y-69931537D01*
X112719179Y-69895488D01*
X112719178Y-69856470D01*
X112704247Y-69820422D01*
X112676656Y-69792832D01*
X112640608Y-69777901D01*
X112601590Y-69777902D01*
X112565542Y-69792833D01*
X112550388Y-69805270D01*
X112519461Y-69836197D01*
X112414397Y-69871219D01*
X112351612Y-69871219D01*
X112246547Y-69836197D01*
X112179477Y-69769127D01*
X112144023Y-69698218D01*
X112102053Y-69530337D01*
X112102053Y-69412100D01*
X112144023Y-69244218D01*
X112179476Y-69173312D01*
X112246548Y-69106240D01*
X112351612Y-69071219D01*
X112414397Y-69071219D01*
X112519462Y-69106240D01*
X112550389Y-69137167D01*
X112565542Y-69149604D01*
X112601591Y-69164535D01*
X112640609Y-69164535D01*
X112647466Y-69161695D01*
X112902053Y-69161695D01*
X112902053Y-69256933D01*
X112903974Y-69276442D01*
X112905349Y-69279762D01*
X112905604Y-69283346D01*
X112912610Y-69301654D01*
X112960229Y-69396892D01*
X112965514Y-69405288D01*
X112966525Y-69407728D01*
X112968778Y-69410474D01*
X112970672Y-69413482D01*
X112972666Y-69415211D01*
X112978961Y-69422882D01*
X113026580Y-69470500D01*
X113034246Y-69476792D01*
X113035979Y-69478790D01*
X113038987Y-69480683D01*
X113041733Y-69482937D01*
X113044173Y-69483947D01*
X113052570Y-69489233D01*
X113147807Y-69536852D01*
X113149235Y-69537398D01*
X113149815Y-69537828D01*
X113157991Y-69540749D01*
X113166116Y-69543858D01*
X113166836Y-69543909D01*
X113168275Y-69544423D01*
X113348100Y-69589379D01*
X113419007Y-69624833D01*
X113443676Y-69649501D01*
X113473481Y-69709111D01*
X113473481Y-69757135D01*
X113443676Y-69816743D01*
X113419007Y-69841413D01*
X113359398Y-69871219D01*
X113161136Y-69871219D01*
X113033676Y-69828732D01*
X113014560Y-69824385D01*
X112975640Y-69827151D01*
X112940741Y-69844601D01*
X112915176Y-69874077D01*
X112902838Y-69911093D01*
X112905604Y-69950013D01*
X112923054Y-69984912D01*
X112952530Y-70010477D01*
X112970430Y-70018468D01*
X113113287Y-70066087D01*
X113122959Y-70068286D01*
X113125401Y-70069298D01*
X113128938Y-70069646D01*
X113132402Y-70070434D01*
X113135036Y-70070246D01*
X113144910Y-70071219D01*
X113383005Y-70071219D01*
X113402514Y-70069298D01*
X113405834Y-70067922D01*
X113409418Y-70067668D01*
X113427726Y-70060662D01*
X113522964Y-70013043D01*
X113531359Y-70007758D01*
X113533801Y-70006747D01*
X113536548Y-70004491D01*
X113539554Y-70002600D01*
X113541284Y-70000605D01*
X113548954Y-69994310D01*
X113596573Y-69946690D01*
X113602865Y-69939023D01*
X113604862Y-69937292D01*
X113606755Y-69934284D01*
X113609010Y-69931537D01*
X113610021Y-69929095D01*
X113615305Y-69920701D01*
X113623610Y-69904091D01*
X113856355Y-69904091D01*
X113856355Y-69943109D01*
X113862818Y-69958712D01*
X113871287Y-69979158D01*
X113871291Y-69979162D01*
X113883723Y-69994311D01*
X113931342Y-70041929D01*
X113946495Y-70054366D01*
X113955498Y-70058095D01*
X113982544Y-70069298D01*
X114021562Y-70069298D01*
X114057610Y-70054366D01*
X114072764Y-70041930D01*
X114120382Y-69994311D01*
X114132819Y-69979158D01*
X114139571Y-69962856D01*
X114147750Y-69943110D01*
X114147751Y-69904092D01*
X114132820Y-69868043D01*
X114120383Y-69852890D01*
X114072764Y-69805270D01*
X114057611Y-69792833D01*
X114035417Y-69783640D01*
X114031344Y-69781953D01*
X114021562Y-69777901D01*
X113982544Y-69777901D01*
X113972762Y-69781953D01*
X113946496Y-69792832D01*
X113946495Y-69792833D01*
X113931341Y-69805270D01*
X113883723Y-69852890D01*
X113871286Y-69868043D01*
X113862328Y-69889672D01*
X113856355Y-69904091D01*
X113623610Y-69904091D01*
X113662924Y-69825464D01*
X113669930Y-69807155D01*
X113670184Y-69803571D01*
X113671560Y-69800251D01*
X113673481Y-69780742D01*
X113673481Y-69685504D01*
X113671560Y-69665995D01*
X113670184Y-69662674D01*
X113669930Y-69659091D01*
X113662924Y-69640782D01*
X113615305Y-69545545D01*
X113610019Y-69537148D01*
X113609009Y-69534708D01*
X113606755Y-69531962D01*
X113604862Y-69528954D01*
X113602864Y-69527221D01*
X113596572Y-69519555D01*
X113548954Y-69471936D01*
X113541283Y-69465641D01*
X113539554Y-69463647D01*
X113536546Y-69461753D01*
X113533800Y-69459500D01*
X113531360Y-69458489D01*
X113522964Y-69453204D01*
X113427726Y-69405585D01*
X113426299Y-69405039D01*
X113425719Y-69404609D01*
X113417542Y-69401687D01*
X113409418Y-69398579D01*
X113408695Y-69398527D01*
X113407258Y-69398014D01*
X113227433Y-69353057D01*
X113156526Y-69317604D01*
X113131858Y-69292935D01*
X113102053Y-69233325D01*
X113102053Y-69185302D01*
X113131858Y-69125692D01*
X113156526Y-69101023D01*
X113216136Y-69071219D01*
X113414397Y-69071219D01*
X113541858Y-69113706D01*
X113560973Y-69118053D01*
X113599893Y-69115287D01*
X113634792Y-69097837D01*
X113660357Y-69068361D01*
X113672696Y-69031345D01*
X113669929Y-68992425D01*
X113659326Y-68971219D01*
X114378243Y-68971219D01*
X114378243Y-69971219D01*
X114380164Y-69990728D01*
X114395096Y-70026776D01*
X114422686Y-70054366D01*
X114458734Y-70069298D01*
X114478243Y-70071219D01*
X114716338Y-70071219D01*
X114726211Y-70070246D01*
X114728845Y-70070434D01*
X114732308Y-70069646D01*
X114735847Y-70069298D01*
X114738289Y-70068286D01*
X114747961Y-70066087D01*
X114890817Y-70018468D01*
X114908718Y-70010477D01*
X114911433Y-70008122D01*
X114914753Y-70006747D01*
X114929906Y-69994310D01*
X115025144Y-69899071D01*
X115031436Y-69891404D01*
X115033433Y-69889673D01*
X115035326Y-69886665D01*
X115037581Y-69883918D01*
X115038592Y-69881476D01*
X115043876Y-69873082D01*
X115091495Y-69777845D01*
X115092041Y-69776416D01*
X115092471Y-69775837D01*
X115095392Y-69767660D01*
X115098501Y-69759536D01*
X115098552Y-69758815D01*
X115099066Y-69757377D01*
X115146685Y-69566901D01*
X115147185Y-69563519D01*
X115147750Y-69562156D01*
X115148473Y-69554805D01*
X115149553Y-69547508D01*
X115149335Y-69546049D01*
X115149671Y-69542647D01*
X115149671Y-69399790D01*
X115149335Y-69396387D01*
X115149553Y-69394929D01*
X115148473Y-69387631D01*
X115147750Y-69380281D01*
X115147185Y-69378917D01*
X115146685Y-69375536D01*
X115099066Y-69185060D01*
X115098552Y-69183621D01*
X115098501Y-69182901D01*
X115095392Y-69174776D01*
X115092471Y-69166600D01*
X115092041Y-69166020D01*
X115091495Y-69164592D01*
X115043876Y-69069355D01*
X115038589Y-69060956D01*
X115037580Y-69058519D01*
X115035328Y-69055775D01*
X115033433Y-69052764D01*
X115031435Y-69051031D01*
X115025144Y-69043365D01*
X114952998Y-68971219D01*
X115378243Y-68971219D01*
X115378243Y-69971219D01*
X115380164Y-69990728D01*
X115395096Y-70026776D01*
X115422686Y-70054366D01*
X115458734Y-70069298D01*
X115497752Y-70069298D01*
X115533800Y-70054366D01*
X115561390Y-70026776D01*
X115576322Y-69990728D01*
X115578243Y-69971219D01*
X115578243Y-68971219D01*
X115576322Y-68951710D01*
X115561390Y-68915662D01*
X115533800Y-68888072D01*
X115497752Y-68873140D01*
X115458734Y-68873140D01*
X115422686Y-68888072D01*
X115395096Y-68915662D01*
X115380164Y-68951710D01*
X115378243Y-68971219D01*
X114952998Y-68971219D01*
X114929906Y-68948127D01*
X114914752Y-68935691D01*
X114911433Y-68934316D01*
X114908718Y-68931961D01*
X114890817Y-68923970D01*
X114747961Y-68876351D01*
X114738289Y-68874151D01*
X114735847Y-68873140D01*
X114732308Y-68872791D01*
X114728845Y-68872004D01*
X114726211Y-68872191D01*
X114716338Y-68871219D01*
X114478243Y-68871219D01*
X114458734Y-68873140D01*
X114422686Y-68888072D01*
X114395096Y-68915662D01*
X114380164Y-68951710D01*
X114378243Y-68971219D01*
X113659326Y-68971219D01*
X113652480Y-68957526D01*
X113623004Y-68931961D01*
X113605103Y-68923970D01*
X113462247Y-68876351D01*
X113452575Y-68874151D01*
X113450133Y-68873140D01*
X113446594Y-68872791D01*
X113443131Y-68872004D01*
X113440497Y-68872191D01*
X113430624Y-68871219D01*
X113192529Y-68871219D01*
X113173020Y-68873140D01*
X113169699Y-68874515D01*
X113166116Y-68874770D01*
X113147807Y-68881776D01*
X113052570Y-68929395D01*
X113044173Y-68934680D01*
X113041733Y-68935691D01*
X113038987Y-68937944D01*
X113035979Y-68939838D01*
X113034246Y-68941835D01*
X113026580Y-68948128D01*
X112978961Y-68995746D01*
X112972666Y-69003416D01*
X112970672Y-69005146D01*
X112968778Y-69008153D01*
X112966525Y-69010900D01*
X112965514Y-69013339D01*
X112960229Y-69021736D01*
X112912610Y-69116974D01*
X112905604Y-69135282D01*
X112905349Y-69138865D01*
X112903974Y-69142186D01*
X112902053Y-69161695D01*
X112647466Y-69161695D01*
X112676657Y-69149604D01*
X112704247Y-69122014D01*
X112719178Y-69085966D01*
X112719178Y-69046948D01*
X112704247Y-69010899D01*
X112691810Y-68995746D01*
X112644192Y-68948127D01*
X112629038Y-68935691D01*
X112625719Y-68934316D01*
X112623004Y-68931961D01*
X112605103Y-68923970D01*
X112462247Y-68876351D01*
X112452575Y-68874151D01*
X112450133Y-68873140D01*
X112446594Y-68872791D01*
X112443131Y-68872004D01*
X112440497Y-68872191D01*
X112430624Y-68871219D01*
X112335386Y-68871219D01*
X112325512Y-68872191D01*
X112322878Y-68872004D01*
X112319414Y-68872791D01*
X112315877Y-68873140D01*
X112313435Y-68874151D01*
X112303763Y-68876351D01*
X112160906Y-68923970D01*
X112143006Y-68931961D01*
X112140290Y-68934316D01*
X112136972Y-68935691D01*
X112121818Y-68948127D01*
X112026580Y-69043365D01*
X112020285Y-69051035D01*
X112018291Y-69052765D01*
X112016397Y-69055772D01*
X112014144Y-69058519D01*
X112013133Y-69060958D01*
X112007848Y-69069355D01*
X111960229Y-69164593D01*
X111959683Y-69166019D01*
X111959253Y-69166600D01*
X111956331Y-69174776D01*
X111953223Y-69182901D01*
X111953171Y-69183623D01*
X111952658Y-69185061D01*
X111905039Y-69375536D01*
X111904538Y-69378917D01*
X111903974Y-69380281D01*
X111903250Y-69387631D01*
X111902171Y-69394929D01*
X111902388Y-69396387D01*
X111902053Y-69399790D01*
X111244910Y-69399790D01*
X111244910Y-69304552D01*
X111244574Y-69301149D01*
X111244792Y-69299691D01*
X111243712Y-69292393D01*
X111242989Y-69285043D01*
X111242424Y-69283679D01*
X111241924Y-69280298D01*
X111194305Y-69089822D01*
X111187710Y-69071362D01*
X111183283Y-69065387D01*
X111180438Y-69058519D01*
X111168002Y-69043365D01*
X111072764Y-68948127D01*
X111065093Y-68941832D01*
X111063364Y-68939838D01*
X111060356Y-68937944D01*
X111057610Y-68935691D01*
X111055170Y-68934680D01*
X111046774Y-68929395D01*
X110951536Y-68881776D01*
X110933228Y-68874770D01*
X110929644Y-68874515D01*
X110926324Y-68873140D01*
X110906815Y-68871219D01*
X110716339Y-68871219D01*
X110696830Y-68873140D01*
X110693509Y-68874515D01*
X110689926Y-68874770D01*
X110671617Y-68881776D01*
X110576380Y-68929395D01*
X110567981Y-68934681D01*
X110565544Y-68935691D01*
X110562800Y-68937942D01*
X110559789Y-68939838D01*
X110558056Y-68941835D01*
X110550390Y-68948127D01*
X110455152Y-69043365D01*
X110442716Y-69058519D01*
X110439870Y-69065387D01*
X110435444Y-69071362D01*
X110428849Y-69089823D01*
X110381230Y-69280298D01*
X110380729Y-69283679D01*
X110380165Y-69285043D01*
X110379441Y-69292393D01*
X110378362Y-69299691D01*
X110378579Y-69301149D01*
X110378244Y-69304552D01*
X110176559Y-69304552D01*
X110146686Y-69185060D01*
X110146172Y-69183621D01*
X110146121Y-69182901D01*
X110143012Y-69174776D01*
X110140091Y-69166600D01*
X110139661Y-69166020D01*
X110139115Y-69164592D01*
X110091496Y-69069355D01*
X110086209Y-69060956D01*
X110085200Y-69058519D01*
X110082948Y-69055775D01*
X110081053Y-69052764D01*
X110079055Y-69051031D01*
X110072764Y-69043365D01*
X109977526Y-68948127D01*
X109962372Y-68935691D01*
X109959053Y-68934316D01*
X109956338Y-68931961D01*
X109938437Y-68923970D01*
X109795581Y-68876351D01*
X109785909Y-68874151D01*
X109783467Y-68873140D01*
X109779928Y-68872791D01*
X109776465Y-68872004D01*
X109773831Y-68872191D01*
X109763958Y-68871219D01*
X109525863Y-68871219D01*
X109506354Y-68873140D01*
X109470306Y-68888072D01*
X109442716Y-68915662D01*
X109427784Y-68951710D01*
X109425863Y-68971219D01*
X108719179Y-68971219D01*
X108719179Y-68951710D01*
X108704248Y-68915662D01*
X108676658Y-68888072D01*
X108640610Y-68873141D01*
X108601592Y-68873141D01*
X108565543Y-68888072D01*
X108550390Y-68900508D01*
X108149673Y-69301225D01*
X108149673Y-68971219D01*
X108147752Y-68951710D01*
X108132820Y-68915662D01*
X108105230Y-68888072D01*
X108069182Y-68873140D01*
X108030164Y-68873140D01*
X107994116Y-68888072D01*
X107966526Y-68915662D01*
X107951594Y-68951710D01*
X107949673Y-68971219D01*
X107667285Y-68971219D01*
X107644193Y-68948127D01*
X107629039Y-68935691D01*
X107625720Y-68934316D01*
X107623005Y-68931961D01*
X107605104Y-68923970D01*
X107462248Y-68876351D01*
X107452576Y-68874151D01*
X107450134Y-68873140D01*
X107446595Y-68872791D01*
X107443132Y-68872004D01*
X107440498Y-68872191D01*
X107430625Y-68871219D01*
X107335387Y-68871219D01*
X107325513Y-68872191D01*
X107322879Y-68872004D01*
X107319415Y-68872791D01*
X107315878Y-68873140D01*
X107313436Y-68874151D01*
X107303764Y-68876351D01*
X107160907Y-68923970D01*
X107143007Y-68931961D01*
X107140291Y-68934316D01*
X107136973Y-68935691D01*
X107121819Y-68948127D01*
X107026581Y-69043365D01*
X107020286Y-69051035D01*
X107018292Y-69052765D01*
X107016398Y-69055772D01*
X107014145Y-69058519D01*
X107013134Y-69060958D01*
X107007849Y-69069355D01*
X106960230Y-69164593D01*
X106959684Y-69166019D01*
X106959254Y-69166600D01*
X106956332Y-69174776D01*
X106953224Y-69182901D01*
X106953172Y-69183623D01*
X106952659Y-69185061D01*
X106905040Y-69375536D01*
X106904539Y-69378917D01*
X106903975Y-69380281D01*
X106903251Y-69387631D01*
X106902172Y-69394929D01*
X106902389Y-69396387D01*
X106902054Y-69399790D01*
X106790943Y-69399790D01*
X106790943Y-68760108D01*
X115689354Y-68760108D01*
X115689354Y-70182330D01*
G37*
G36*
X153218246Y-83912357D02*
G01*
X153242915Y-83937025D01*
X153272720Y-83996635D01*
X153272720Y-84235135D01*
X153242915Y-84294743D01*
X153218246Y-84319413D01*
X153158637Y-84349219D01*
X153062994Y-84349219D01*
X153003384Y-84319414D01*
X152978717Y-84294746D01*
X152948911Y-84235134D01*
X152948911Y-83996635D01*
X152978716Y-83937025D01*
X153003384Y-83912356D01*
X153062994Y-83882552D01*
X153158637Y-83882552D01*
X153218246Y-83912357D01*
G37*
G36*
X154694437Y-83912357D02*
G01*
X154719106Y-83937025D01*
X154748911Y-83996635D01*
X154748911Y-84235135D01*
X154719106Y-84294743D01*
X154694437Y-84319413D01*
X154634828Y-84349219D01*
X154539185Y-84349219D01*
X154479575Y-84319414D01*
X154454908Y-84294746D01*
X154425102Y-84235134D01*
X154425102Y-83996635D01*
X154454907Y-83937025D01*
X154479575Y-83912356D01*
X154539185Y-83882552D01*
X154634828Y-83882552D01*
X154694437Y-83912357D01*
G37*
G36*
X157075390Y-83579024D02*
G01*
X157100059Y-83603692D01*
X157129864Y-83663302D01*
X157129864Y-83758945D01*
X157100059Y-83818554D01*
X157075390Y-83843222D01*
X157015781Y-83873028D01*
X156758436Y-83873028D01*
X156758436Y-83549219D01*
X157015781Y-83549219D01*
X157075390Y-83579024D01*
G37*
G36*
X158917165Y-84755568D02*
G01*
X151542562Y-84755568D01*
X151542562Y-83449219D01*
X151653673Y-83449219D01*
X151653673Y-84449219D01*
X151655594Y-84468728D01*
X151670526Y-84504776D01*
X151698116Y-84532366D01*
X151734164Y-84547298D01*
X151773182Y-84547298D01*
X151809230Y-84532366D01*
X151836820Y-84504776D01*
X151851752Y-84468728D01*
X151853673Y-84449219D01*
X151853673Y-83899975D01*
X151996388Y-84205793D01*
X152000620Y-84212938D01*
X152001500Y-84215356D01*
X152003065Y-84217065D01*
X152006379Y-84222659D01*
X152017589Y-84232925D01*
X152027851Y-84244131D01*
X152031876Y-84246009D01*
X152035154Y-84249011D01*
X152049436Y-84254204D01*
X152063209Y-84260632D01*
X152067648Y-84260827D01*
X152071823Y-84262345D01*
X152087006Y-84261677D01*
X152102189Y-84262345D01*
X152106362Y-84260827D01*
X152110804Y-84260632D01*
X152124588Y-84254199D01*
X152138858Y-84249010D01*
X152142131Y-84246012D01*
X152146161Y-84244132D01*
X152156430Y-84232917D01*
X152167633Y-84222659D01*
X152170944Y-84217068D01*
X152172513Y-84215356D01*
X152173393Y-84212934D01*
X152177624Y-84205793D01*
X152320339Y-83899974D01*
X152320339Y-84449219D01*
X152322260Y-84468728D01*
X152337192Y-84504776D01*
X152364782Y-84532366D01*
X152400830Y-84547298D01*
X152439848Y-84547298D01*
X152475896Y-84532366D01*
X152503486Y-84504776D01*
X152518418Y-84468728D01*
X152520339Y-84449219D01*
X152520339Y-83973028D01*
X152748911Y-83973028D01*
X152748911Y-84258742D01*
X152750832Y-84278251D01*
X152752207Y-84281571D01*
X152752462Y-84285155D01*
X152759468Y-84303463D01*
X152807087Y-84398701D01*
X152812370Y-84407093D01*
X152813382Y-84409537D01*
X152815638Y-84412286D01*
X152817530Y-84415291D01*
X152819524Y-84417020D01*
X152825819Y-84424690D01*
X152873437Y-84472310D01*
X152881105Y-84478603D01*
X152882837Y-84480600D01*
X152885845Y-84482493D01*
X152888591Y-84484747D01*
X152891031Y-84485757D01*
X152899428Y-84491043D01*
X152994665Y-84538662D01*
X153012974Y-84545668D01*
X153016557Y-84545922D01*
X153019878Y-84547298D01*
X153039387Y-84549219D01*
X153182244Y-84549219D01*
X153201753Y-84547298D01*
X153205073Y-84545922D01*
X153208657Y-84545668D01*
X153226965Y-84538662D01*
X153322203Y-84491043D01*
X153330598Y-84485758D01*
X153333040Y-84484747D01*
X153335787Y-84482491D01*
X153338793Y-84480600D01*
X153340523Y-84478605D01*
X153348193Y-84472310D01*
X153395812Y-84424690D01*
X153402104Y-84417023D01*
X153404101Y-84415292D01*
X153405994Y-84412284D01*
X153408249Y-84409537D01*
X153409260Y-84407095D01*
X153414544Y-84398701D01*
X153462163Y-84303464D01*
X153469169Y-84285155D01*
X153469423Y-84281571D01*
X153470799Y-84278251D01*
X153472720Y-84258742D01*
X153472720Y-83973028D01*
X153470799Y-83953519D01*
X153469423Y-83950198D01*
X153469169Y-83946615D01*
X153462163Y-83928306D01*
X153414544Y-83833069D01*
X153409258Y-83824672D01*
X153408248Y-83822232D01*
X153405994Y-83819486D01*
X153404101Y-83816478D01*
X153402103Y-83814745D01*
X153395811Y-83807079D01*
X153351776Y-83763043D01*
X153560356Y-83763043D01*
X153560356Y-83802061D01*
X153575288Y-83838109D01*
X153602878Y-83865699D01*
X153638926Y-83880631D01*
X153658435Y-83882552D01*
X153701292Y-83882552D01*
X153701292Y-84306361D01*
X153703213Y-84325870D01*
X153704588Y-84329190D01*
X153704843Y-84332773D01*
X153711849Y-84351082D01*
X153759468Y-84446321D01*
X153761521Y-84449584D01*
X153762035Y-84451123D01*
X153763697Y-84453039D01*
X153769911Y-84462911D01*
X153779382Y-84471125D01*
X153787599Y-84480600D01*
X153797469Y-84486812D01*
X153799387Y-84488476D01*
X153800927Y-84488989D01*
X153804190Y-84491043D01*
X153899427Y-84538662D01*
X153917736Y-84545668D01*
X153921319Y-84545922D01*
X153924640Y-84547298D01*
X153944149Y-84549219D01*
X154039387Y-84549219D01*
X154058896Y-84547298D01*
X154094944Y-84532366D01*
X154122534Y-84504776D01*
X154137466Y-84468728D01*
X154137466Y-84429710D01*
X154122534Y-84393662D01*
X154094944Y-84366072D01*
X154058896Y-84351140D01*
X154039387Y-84349219D01*
X153967756Y-84349219D01*
X153923446Y-84327064D01*
X153901292Y-84282754D01*
X153901292Y-83973028D01*
X154225102Y-83973028D01*
X154225102Y-84258742D01*
X154227023Y-84278251D01*
X154228398Y-84281571D01*
X154228653Y-84285155D01*
X154235659Y-84303463D01*
X154283278Y-84398701D01*
X154288561Y-84407093D01*
X154289573Y-84409537D01*
X154291829Y-84412286D01*
X154293721Y-84415291D01*
X154295715Y-84417020D01*
X154302010Y-84424690D01*
X154349628Y-84472310D01*
X154357296Y-84478603D01*
X154359028Y-84480600D01*
X154362036Y-84482493D01*
X154364782Y-84484747D01*
X154367222Y-84485757D01*
X154375619Y-84491043D01*
X154470856Y-84538662D01*
X154489165Y-84545668D01*
X154492748Y-84545922D01*
X154496069Y-84547298D01*
X154515578Y-84549219D01*
X154658435Y-84549219D01*
X154677944Y-84547298D01*
X154681264Y-84545922D01*
X154684848Y-84545668D01*
X154703156Y-84538662D01*
X154798394Y-84491043D01*
X154806789Y-84485758D01*
X154809231Y-84484747D01*
X154811978Y-84482491D01*
X154814984Y-84480600D01*
X154816714Y-84478605D01*
X154824384Y-84472310D01*
X154872003Y-84424690D01*
X154878295Y-84417023D01*
X154880292Y-84415292D01*
X154882185Y-84412284D01*
X154884440Y-84409537D01*
X154885451Y-84407095D01*
X154890735Y-84398701D01*
X154938354Y-84303464D01*
X154945360Y-84285155D01*
X154945614Y-84281571D01*
X154946990Y-84278251D01*
X154948911Y-84258742D01*
X154948911Y-83973028D01*
X154946990Y-83953519D01*
X154945614Y-83950198D01*
X154945360Y-83946615D01*
X154938354Y-83928306D01*
X154890735Y-83833069D01*
X154885449Y-83824672D01*
X154884439Y-83822232D01*
X154882185Y-83819486D01*
X154880292Y-83816478D01*
X154878294Y-83814745D01*
X154872002Y-83807079D01*
X154847476Y-83782552D01*
X155177483Y-83782552D01*
X155177483Y-84449219D01*
X155179404Y-84468728D01*
X155194336Y-84504776D01*
X155221926Y-84532366D01*
X155257974Y-84547298D01*
X155296992Y-84547298D01*
X155333040Y-84532366D01*
X155340458Y-84524948D01*
X155560357Y-84524948D01*
X155560357Y-84563966D01*
X155575289Y-84600014D01*
X155602879Y-84627604D01*
X155638927Y-84642536D01*
X155658436Y-84644457D01*
X156420340Y-84644457D01*
X156439849Y-84642536D01*
X156475897Y-84627604D01*
X156503487Y-84600014D01*
X156518419Y-84563966D01*
X156518419Y-84524948D01*
X156503487Y-84488900D01*
X156475897Y-84461310D01*
X156439849Y-84446378D01*
X156420340Y-84444457D01*
X155658436Y-84444457D01*
X155638927Y-84446378D01*
X155602879Y-84461310D01*
X155575289Y-84488900D01*
X155560357Y-84524948D01*
X155340458Y-84524948D01*
X155360630Y-84504776D01*
X155375562Y-84468728D01*
X155377483Y-84449219D01*
X155377483Y-83996635D01*
X155407288Y-83937025D01*
X155431956Y-83912356D01*
X155491566Y-83882552D01*
X155563197Y-83882552D01*
X155582706Y-83880631D01*
X155618754Y-83865699D01*
X155646344Y-83838109D01*
X155661276Y-83802061D01*
X155661276Y-83763043D01*
X155646344Y-83726995D01*
X155618754Y-83699405D01*
X155582706Y-83684473D01*
X155563197Y-83682552D01*
X155467959Y-83682552D01*
X155448450Y-83684473D01*
X155445129Y-83685848D01*
X155441546Y-83686103D01*
X155423237Y-83693109D01*
X155358908Y-83725273D01*
X155333040Y-83699405D01*
X155296992Y-83684473D01*
X155257974Y-83684473D01*
X155221926Y-83699405D01*
X155194336Y-83726995D01*
X155179404Y-83763043D01*
X155177483Y-83782552D01*
X154847476Y-83782552D01*
X154824384Y-83759460D01*
X154816713Y-83753165D01*
X154814984Y-83751171D01*
X154811976Y-83749277D01*
X154809230Y-83747024D01*
X154806790Y-83746013D01*
X154798394Y-83740728D01*
X154703156Y-83693109D01*
X154684848Y-83686103D01*
X154681264Y-83685848D01*
X154677944Y-83684473D01*
X154658435Y-83682552D01*
X154515578Y-83682552D01*
X154496069Y-83684473D01*
X154492748Y-83685848D01*
X154489165Y-83686103D01*
X154470856Y-83693109D01*
X154375619Y-83740728D01*
X154367222Y-83746013D01*
X154364782Y-83747024D01*
X154362036Y-83749277D01*
X154359028Y-83751171D01*
X154357295Y-83753168D01*
X154349629Y-83759461D01*
X154302010Y-83807079D01*
X154295715Y-83814749D01*
X154293721Y-83816479D01*
X154291827Y-83819486D01*
X154289574Y-83822233D01*
X154288563Y-83824672D01*
X154283278Y-83833069D01*
X154235659Y-83928307D01*
X154228653Y-83946615D01*
X154228398Y-83950198D01*
X154227023Y-83953519D01*
X154225102Y-83973028D01*
X153901292Y-83973028D01*
X153901292Y-83882552D01*
X154039387Y-83882552D01*
X154058896Y-83880631D01*
X154094944Y-83865699D01*
X154122534Y-83838109D01*
X154137466Y-83802061D01*
X154137466Y-83763043D01*
X154122534Y-83726995D01*
X154094944Y-83699405D01*
X154058896Y-83684473D01*
X154039387Y-83682552D01*
X153901292Y-83682552D01*
X153901292Y-83449219D01*
X156558436Y-83449219D01*
X156558436Y-84449219D01*
X156560357Y-84468728D01*
X156575289Y-84504776D01*
X156602879Y-84532366D01*
X156638927Y-84547298D01*
X156677945Y-84547298D01*
X156713993Y-84532366D01*
X156741583Y-84504776D01*
X156756515Y-84468728D01*
X156758436Y-84449219D01*
X156758436Y-84073028D01*
X157039388Y-84073028D01*
X157058897Y-84071107D01*
X157062217Y-84069731D01*
X157065801Y-84069477D01*
X157084109Y-84062471D01*
X157179347Y-84014852D01*
X157187743Y-84009566D01*
X157190183Y-84008556D01*
X157192929Y-84006302D01*
X157195937Y-84004409D01*
X157197666Y-84002414D01*
X157205337Y-83996120D01*
X157252955Y-83948501D01*
X157259247Y-83940834D01*
X157261245Y-83939102D01*
X157263138Y-83936093D01*
X157265392Y-83933348D01*
X157266402Y-83930907D01*
X157271688Y-83922511D01*
X157319307Y-83827274D01*
X157326313Y-83808965D01*
X157326567Y-83805381D01*
X157327943Y-83802061D01*
X157329864Y-83782552D01*
X157329864Y-83639695D01*
X157327943Y-83620186D01*
X157326567Y-83616865D01*
X157326313Y-83613282D01*
X157319307Y-83594973D01*
X157271688Y-83499736D01*
X157266402Y-83491339D01*
X157265392Y-83488899D01*
X157263138Y-83486153D01*
X157261245Y-83483145D01*
X157259247Y-83481412D01*
X157252955Y-83473746D01*
X157228429Y-83449219D01*
X157558436Y-83449219D01*
X157558436Y-84449219D01*
X157560357Y-84468728D01*
X157575289Y-84504776D01*
X157602879Y-84532366D01*
X157638927Y-84547298D01*
X157677945Y-84547298D01*
X157713993Y-84532366D01*
X157741583Y-84504776D01*
X157756515Y-84468728D01*
X157758436Y-84449219D01*
X157758436Y-83449219D01*
X158034626Y-83449219D01*
X158034626Y-84449219D01*
X158036547Y-84468728D01*
X158051479Y-84504776D01*
X158079069Y-84532366D01*
X158115117Y-84547298D01*
X158154135Y-84547298D01*
X158190183Y-84532366D01*
X158217773Y-84504776D01*
X158232705Y-84468728D01*
X158234626Y-84449219D01*
X158234626Y-83825775D01*
X158619230Y-84498833D01*
X158622148Y-84502943D01*
X158622907Y-84504776D01*
X158624773Y-84506642D01*
X158630577Y-84514818D01*
X158641093Y-84522962D01*
X158650497Y-84532366D01*
X158656384Y-84534804D01*
X158661426Y-84538709D01*
X158674258Y-84542208D01*
X158686545Y-84547298D01*
X158692921Y-84547298D01*
X158699070Y-84548975D01*
X158712263Y-84547298D01*
X158725563Y-84547298D01*
X158731451Y-84544858D01*
X158737776Y-84544055D01*
X158749325Y-84537454D01*
X158761611Y-84532366D01*
X158766118Y-84527858D01*
X158771653Y-84524696D01*
X158779797Y-84514179D01*
X158789201Y-84504776D01*
X158791639Y-84498888D01*
X158795544Y-84493847D01*
X158799043Y-84481014D01*
X158804133Y-84468728D01*
X158805115Y-84458750D01*
X158805810Y-84456204D01*
X158805559Y-84454236D01*
X158806054Y-84449219D01*
X158806054Y-83449219D01*
X158804133Y-83429710D01*
X158789201Y-83393662D01*
X158761611Y-83366072D01*
X158725563Y-83351140D01*
X158686545Y-83351140D01*
X158650497Y-83366072D01*
X158622907Y-83393662D01*
X158607975Y-83429710D01*
X158606054Y-83449219D01*
X158606054Y-84072662D01*
X158221450Y-83399605D01*
X158218531Y-83395494D01*
X158217773Y-83393662D01*
X158215906Y-83391795D01*
X158210103Y-83383620D01*
X158199588Y-83375477D01*
X158190183Y-83366072D01*
X158184292Y-83363632D01*
X158179254Y-83359730D01*
X158166425Y-83356231D01*
X158154135Y-83351140D01*
X158147760Y-83351140D01*
X158141611Y-83349463D01*
X158128418Y-83351140D01*
X158115117Y-83351140D01*
X158109228Y-83353579D01*
X158102904Y-83354383D01*
X158091354Y-83360983D01*
X158079069Y-83366072D01*
X158074561Y-83370579D01*
X158069027Y-83373742D01*
X158060884Y-83384256D01*
X158051479Y-83393662D01*
X158049039Y-83399552D01*
X158045137Y-83404591D01*
X158041638Y-83417419D01*
X158036547Y-83429710D01*
X158035564Y-83439687D01*
X158034870Y-83442234D01*
X158035120Y-83444201D01*
X158034626Y-83449219D01*
X157758436Y-83449219D01*
X157756515Y-83429710D01*
X157741583Y-83393662D01*
X157713993Y-83366072D01*
X157677945Y-83351140D01*
X157638927Y-83351140D01*
X157602879Y-83366072D01*
X157575289Y-83393662D01*
X157560357Y-83429710D01*
X157558436Y-83449219D01*
X157228429Y-83449219D01*
X157205337Y-83426127D01*
X157197666Y-83419832D01*
X157195937Y-83417838D01*
X157192929Y-83415944D01*
X157190183Y-83413691D01*
X157187743Y-83412680D01*
X157179347Y-83407395D01*
X157084109Y-83359776D01*
X157065801Y-83352770D01*
X157062217Y-83352515D01*
X157058897Y-83351140D01*
X157039388Y-83349219D01*
X156658436Y-83349219D01*
X156638927Y-83351140D01*
X156602879Y-83366072D01*
X156575289Y-83393662D01*
X156560357Y-83429710D01*
X156558436Y-83449219D01*
X153901292Y-83449219D01*
X153899371Y-83429710D01*
X153884439Y-83393662D01*
X153856849Y-83366072D01*
X153820801Y-83351140D01*
X153781783Y-83351140D01*
X153745735Y-83366072D01*
X153718145Y-83393662D01*
X153703213Y-83429710D01*
X153701292Y-83449219D01*
X153701292Y-83682552D01*
X153658435Y-83682552D01*
X153638926Y-83684473D01*
X153602878Y-83699405D01*
X153575288Y-83726995D01*
X153560356Y-83763043D01*
X153351776Y-83763043D01*
X153348193Y-83759460D01*
X153340522Y-83753165D01*
X153338793Y-83751171D01*
X153335785Y-83749277D01*
X153333039Y-83747024D01*
X153330599Y-83746013D01*
X153322203Y-83740728D01*
X153226965Y-83693109D01*
X153208657Y-83686103D01*
X153205073Y-83685848D01*
X153201753Y-83684473D01*
X153182244Y-83682552D01*
X153039387Y-83682552D01*
X153019878Y-83684473D01*
X153016557Y-83685848D01*
X153012974Y-83686103D01*
X152994665Y-83693109D01*
X152899428Y-83740728D01*
X152891031Y-83746013D01*
X152888591Y-83747024D01*
X152885845Y-83749277D01*
X152882837Y-83751171D01*
X152881104Y-83753168D01*
X152873438Y-83759461D01*
X152825819Y-83807079D01*
X152819524Y-83814749D01*
X152817530Y-83816479D01*
X152815636Y-83819486D01*
X152813383Y-83822233D01*
X152812372Y-83824672D01*
X152807087Y-83833069D01*
X152759468Y-83928307D01*
X152752462Y-83946615D01*
X152752207Y-83950198D01*
X152750832Y-83953519D01*
X152748911Y-83973028D01*
X152520339Y-83973028D01*
X152520339Y-83449219D01*
X152519076Y-83436395D01*
X152519180Y-83434036D01*
X152518719Y-83432768D01*
X152518418Y-83429710D01*
X152511777Y-83413679D01*
X152505846Y-83397367D01*
X152504339Y-83395721D01*
X152503486Y-83393662D01*
X152491224Y-83381400D01*
X152479494Y-83368591D01*
X152477470Y-83367646D01*
X152475896Y-83366072D01*
X152459880Y-83359437D01*
X152444137Y-83352091D01*
X152441907Y-83351993D01*
X152439848Y-83351140D01*
X152422496Y-83351140D01*
X152405156Y-83350378D01*
X152403060Y-83351140D01*
X152400830Y-83351140D01*
X152384799Y-83357780D01*
X152368487Y-83363712D01*
X152366841Y-83365218D01*
X152364782Y-83366072D01*
X152352514Y-83378339D01*
X152339712Y-83390064D01*
X152338145Y-83392708D01*
X152337192Y-83393662D01*
X152336288Y-83395843D01*
X152329721Y-83406930D01*
X152087005Y-83927033D01*
X151844291Y-83406930D01*
X151837723Y-83395843D01*
X151836820Y-83393662D01*
X151835866Y-83392708D01*
X151834300Y-83390064D01*
X151821503Y-83378345D01*
X151809230Y-83366072D01*
X151807168Y-83365218D01*
X151805525Y-83363713D01*
X151789223Y-83357784D01*
X151773182Y-83351140D01*
X151770951Y-83351140D01*
X151768856Y-83350378D01*
X151751516Y-83351140D01*
X151734164Y-83351140D01*
X151732104Y-83351993D01*
X151729876Y-83352091D01*
X151714145Y-83359432D01*
X151698116Y-83366072D01*
X151696539Y-83367648D01*
X151694518Y-83368592D01*
X151682799Y-83381388D01*
X151670526Y-83393662D01*
X151669672Y-83395723D01*
X151668167Y-83397367D01*
X151662238Y-83413668D01*
X151655594Y-83429710D01*
X151655292Y-83432768D01*
X151654832Y-83434036D01*
X151654935Y-83436395D01*
X151653673Y-83449219D01*
X151542562Y-83449219D01*
X151542562Y-83238108D01*
X158917165Y-83238108D01*
X158917165Y-84755568D01*
G37*
G36*
X140920224Y-69995240D02*
G01*
X140987297Y-70062313D01*
X141022749Y-70133218D01*
X141064720Y-70301099D01*
X141064720Y-70419337D01*
X141022749Y-70587218D01*
X140987296Y-70658124D01*
X140920225Y-70725197D01*
X140815160Y-70760219D01*
X140693292Y-70760219D01*
X140693292Y-69960219D01*
X140815160Y-69960219D01*
X140920224Y-69995240D01*
G37*
G36*
X141375831Y-71071330D02*
G01*
X138286943Y-71071330D01*
X138286943Y-70288790D01*
X138398054Y-70288790D01*
X138398054Y-70431647D01*
X138398389Y-70435049D01*
X138398172Y-70436508D01*
X138399251Y-70443805D01*
X138399975Y-70451156D01*
X138400539Y-70452519D01*
X138401040Y-70455901D01*
X138448659Y-70646376D01*
X138449172Y-70647813D01*
X138449224Y-70648536D01*
X138452332Y-70656660D01*
X138455254Y-70664837D01*
X138455684Y-70665417D01*
X138456230Y-70666844D01*
X138503849Y-70762082D01*
X138509131Y-70770474D01*
X138510144Y-70772918D01*
X138512400Y-70775667D01*
X138514292Y-70778672D01*
X138516286Y-70780401D01*
X138522581Y-70788071D01*
X138617819Y-70883311D01*
X138632972Y-70895747D01*
X138636291Y-70897122D01*
X138639007Y-70899477D01*
X138656907Y-70907468D01*
X138799764Y-70955087D01*
X138809436Y-70957286D01*
X138811878Y-70958298D01*
X138815415Y-70958646D01*
X138818879Y-70959434D01*
X138821513Y-70959246D01*
X138831387Y-70960219D01*
X138926625Y-70960219D01*
X138936498Y-70959246D01*
X138939132Y-70959434D01*
X138942595Y-70958646D01*
X138946134Y-70958298D01*
X138948576Y-70957286D01*
X138958248Y-70955087D01*
X139101104Y-70907468D01*
X139119005Y-70899477D01*
X139121720Y-70897122D01*
X139125040Y-70895747D01*
X139140193Y-70883310D01*
X139187812Y-70835690D01*
X139200249Y-70820537D01*
X139215180Y-70784488D01*
X139217101Y-70764980D01*
X139217101Y-70431647D01*
X139215180Y-70412138D01*
X139200248Y-70376090D01*
X139172658Y-70348500D01*
X139136610Y-70333568D01*
X139117101Y-70331647D01*
X138926625Y-70331647D01*
X138907116Y-70333568D01*
X138871068Y-70348500D01*
X138843478Y-70376090D01*
X138828546Y-70412138D01*
X138828546Y-70451156D01*
X138843478Y-70487204D01*
X138871068Y-70514794D01*
X138907116Y-70529726D01*
X138926625Y-70531647D01*
X139017101Y-70531647D01*
X139017101Y-70723559D01*
X139015462Y-70725197D01*
X138910398Y-70760219D01*
X138847613Y-70760219D01*
X138742548Y-70725197D01*
X138675478Y-70658127D01*
X138640024Y-70587218D01*
X138598054Y-70419337D01*
X138598054Y-70301100D01*
X138640024Y-70133218D01*
X138675477Y-70062312D01*
X138742549Y-69995240D01*
X138847613Y-69960219D01*
X138950637Y-69960219D01*
X139024760Y-69997281D01*
X139043069Y-70004287D01*
X139081989Y-70007053D01*
X139119005Y-69994714D01*
X139148482Y-69969149D01*
X139165931Y-69934251D01*
X139168696Y-69895331D01*
X139156993Y-69860219D01*
X139445673Y-69860219D01*
X139445673Y-70860219D01*
X139447594Y-70879728D01*
X139462526Y-70915776D01*
X139490116Y-70943366D01*
X139526164Y-70958298D01*
X139565182Y-70958298D01*
X139601230Y-70943366D01*
X139628820Y-70915776D01*
X139643752Y-70879728D01*
X139645673Y-70860219D01*
X139645673Y-70236775D01*
X140030277Y-70909833D01*
X140033195Y-70913943D01*
X140033954Y-70915776D01*
X140035820Y-70917642D01*
X140041624Y-70925818D01*
X140052140Y-70933962D01*
X140061544Y-70943366D01*
X140067431Y-70945804D01*
X140072473Y-70949709D01*
X140085305Y-70953208D01*
X140097592Y-70958298D01*
X140103968Y-70958298D01*
X140110117Y-70959975D01*
X140123310Y-70958298D01*
X140136610Y-70958298D01*
X140142498Y-70955858D01*
X140148823Y-70955055D01*
X140160372Y-70948454D01*
X140172658Y-70943366D01*
X140177165Y-70938858D01*
X140182700Y-70935696D01*
X140190844Y-70925179D01*
X140200248Y-70915776D01*
X140202686Y-70909888D01*
X140206591Y-70904847D01*
X140210090Y-70892014D01*
X140215180Y-70879728D01*
X140216162Y-70869750D01*
X140216857Y-70867204D01*
X140216606Y-70865236D01*
X140217101Y-70860219D01*
X140217101Y-69860219D01*
X140493292Y-69860219D01*
X140493292Y-70860219D01*
X140495213Y-70879728D01*
X140510145Y-70915776D01*
X140537735Y-70943366D01*
X140573783Y-70958298D01*
X140593292Y-70960219D01*
X140831387Y-70960219D01*
X140841260Y-70959246D01*
X140843894Y-70959434D01*
X140847357Y-70958646D01*
X140850896Y-70958298D01*
X140853338Y-70957286D01*
X140863010Y-70955087D01*
X141005866Y-70907468D01*
X141023767Y-70899477D01*
X141026482Y-70897122D01*
X141029802Y-70895747D01*
X141044955Y-70883310D01*
X141140193Y-70788071D01*
X141146485Y-70780404D01*
X141148482Y-70778673D01*
X141150375Y-70775665D01*
X141152630Y-70772918D01*
X141153641Y-70770476D01*
X141158925Y-70762082D01*
X141206544Y-70666845D01*
X141207090Y-70665416D01*
X141207520Y-70664837D01*
X141210441Y-70656660D01*
X141213550Y-70648536D01*
X141213601Y-70647815D01*
X141214115Y-70646377D01*
X141261734Y-70455901D01*
X141262234Y-70452519D01*
X141262799Y-70451156D01*
X141263522Y-70443805D01*
X141264602Y-70436508D01*
X141264384Y-70435049D01*
X141264720Y-70431647D01*
X141264720Y-70288790D01*
X141264384Y-70285387D01*
X141264602Y-70283929D01*
X141263522Y-70276631D01*
X141262799Y-70269281D01*
X141262234Y-70267917D01*
X141261734Y-70264536D01*
X141214115Y-70074060D01*
X141213601Y-70072621D01*
X141213550Y-70071901D01*
X141210441Y-70063776D01*
X141207520Y-70055600D01*
X141207090Y-70055020D01*
X141206544Y-70053592D01*
X141158925Y-69958355D01*
X141153638Y-69949956D01*
X141152629Y-69947519D01*
X141150377Y-69944775D01*
X141148482Y-69941764D01*
X141146484Y-69940031D01*
X141140193Y-69932365D01*
X141044955Y-69837127D01*
X141029801Y-69824691D01*
X141026482Y-69823316D01*
X141023767Y-69820961D01*
X141005866Y-69812970D01*
X140863010Y-69765351D01*
X140853338Y-69763151D01*
X140850896Y-69762140D01*
X140847357Y-69761791D01*
X140843894Y-69761004D01*
X140841260Y-69761191D01*
X140831387Y-69760219D01*
X140593292Y-69760219D01*
X140573783Y-69762140D01*
X140537735Y-69777072D01*
X140510145Y-69804662D01*
X140495213Y-69840710D01*
X140493292Y-69860219D01*
X140217101Y-69860219D01*
X140215180Y-69840710D01*
X140200248Y-69804662D01*
X140172658Y-69777072D01*
X140136610Y-69762140D01*
X140097592Y-69762140D01*
X140061544Y-69777072D01*
X140033954Y-69804662D01*
X140019022Y-69840710D01*
X140017101Y-69860219D01*
X140017101Y-70483662D01*
X139632497Y-69810605D01*
X139629578Y-69806494D01*
X139628820Y-69804662D01*
X139626953Y-69802795D01*
X139621150Y-69794620D01*
X139610635Y-69786477D01*
X139601230Y-69777072D01*
X139595339Y-69774632D01*
X139590301Y-69770730D01*
X139577472Y-69767231D01*
X139565182Y-69762140D01*
X139558807Y-69762140D01*
X139552658Y-69760463D01*
X139539465Y-69762140D01*
X139526164Y-69762140D01*
X139520275Y-69764579D01*
X139513951Y-69765383D01*
X139502401Y-69771983D01*
X139490116Y-69777072D01*
X139485608Y-69781579D01*
X139480074Y-69784742D01*
X139471931Y-69795256D01*
X139462526Y-69804662D01*
X139460086Y-69810552D01*
X139456184Y-69815591D01*
X139452685Y-69828419D01*
X139447594Y-69840710D01*
X139446611Y-69850687D01*
X139445917Y-69853234D01*
X139446167Y-69855201D01*
X139445673Y-69860219D01*
X139156993Y-69860219D01*
X139156358Y-69858315D01*
X139130793Y-69828838D01*
X139114203Y-69818395D01*
X139018965Y-69770776D01*
X139000657Y-69763770D01*
X138997073Y-69763515D01*
X138993753Y-69762140D01*
X138974244Y-69760219D01*
X138831387Y-69760219D01*
X138821513Y-69761191D01*
X138818879Y-69761004D01*
X138815415Y-69761791D01*
X138811878Y-69762140D01*
X138809436Y-69763151D01*
X138799764Y-69765351D01*
X138656907Y-69812970D01*
X138639007Y-69820961D01*
X138636291Y-69823316D01*
X138632973Y-69824691D01*
X138617819Y-69837127D01*
X138522581Y-69932365D01*
X138516286Y-69940035D01*
X138514292Y-69941765D01*
X138512398Y-69944772D01*
X138510145Y-69947519D01*
X138509134Y-69949958D01*
X138503849Y-69958355D01*
X138456230Y-70053593D01*
X138455684Y-70055019D01*
X138455254Y-70055600D01*
X138452332Y-70063776D01*
X138449224Y-70071901D01*
X138449172Y-70072623D01*
X138448659Y-70074061D01*
X138401040Y-70264536D01*
X138400539Y-70267917D01*
X138399975Y-70269281D01*
X138399251Y-70276631D01*
X138398172Y-70283929D01*
X138398389Y-70285387D01*
X138398054Y-70288790D01*
X138286943Y-70288790D01*
X138286943Y-69649108D01*
X141375831Y-69649108D01*
X141375831Y-71071330D01*
G37*
G36*
X148360627Y-108217024D02*
G01*
X148385296Y-108241692D01*
X148415101Y-108301302D01*
X148415101Y-108396945D01*
X148385296Y-108456554D01*
X148360627Y-108481222D01*
X148301018Y-108511028D01*
X148043673Y-108511028D01*
X148043673Y-108187219D01*
X148301018Y-108187219D01*
X148360627Y-108217024D01*
G37*
G36*
X150964307Y-109298261D02*
G01*
X147732562Y-109298261D01*
X147732562Y-108087219D01*
X147843673Y-108087219D01*
X147843673Y-109087219D01*
X147845594Y-109106728D01*
X147860526Y-109142776D01*
X147888116Y-109170366D01*
X147924164Y-109185298D01*
X147963182Y-109185298D01*
X147999230Y-109170366D01*
X148026820Y-109142776D01*
X148041752Y-109106728D01*
X148043673Y-109087219D01*
X148043673Y-108711028D01*
X148324625Y-108711028D01*
X148344134Y-108709107D01*
X148347454Y-108707731D01*
X148351038Y-108707477D01*
X148369346Y-108700471D01*
X148464584Y-108652852D01*
X148472980Y-108647566D01*
X148475420Y-108646556D01*
X148478166Y-108644302D01*
X148481174Y-108642409D01*
X148482903Y-108640414D01*
X148490574Y-108634120D01*
X148538192Y-108586501D01*
X148544484Y-108578834D01*
X148546482Y-108577102D01*
X148548375Y-108574093D01*
X148550629Y-108571348D01*
X148551639Y-108568907D01*
X148556925Y-108560511D01*
X148604544Y-108465274D01*
X148611550Y-108446965D01*
X148611804Y-108443381D01*
X148613180Y-108440061D01*
X148615101Y-108420552D01*
X148615101Y-108277695D01*
X148613180Y-108258186D01*
X148611804Y-108254865D01*
X148611550Y-108251282D01*
X148604544Y-108232973D01*
X148556925Y-108137736D01*
X148551639Y-108129339D01*
X148550629Y-108126899D01*
X148548375Y-108124153D01*
X148546482Y-108121145D01*
X148544484Y-108119412D01*
X148538192Y-108111746D01*
X148517404Y-108090958D01*
X148748504Y-108090958D01*
X148751154Y-108110381D01*
X148989249Y-109110381D01*
X148991557Y-109117078D01*
X148991876Y-109119476D01*
X148993130Y-109121643D01*
X148995637Y-109128915D01*
X149004152Y-109140681D01*
X149011425Y-109153244D01*
X149015502Y-109156364D01*
X149018512Y-109160524D01*
X149030874Y-109168131D01*
X149042408Y-109176960D01*
X149047371Y-109178283D01*
X149051742Y-109180973D01*
X149066076Y-109183271D01*
X149080109Y-109187013D01*
X149085197Y-109186336D01*
X149090269Y-109187150D01*
X149104403Y-109183784D01*
X149118787Y-109181873D01*
X149123227Y-109179302D01*
X149128226Y-109178112D01*
X149139992Y-109169596D01*
X149152555Y-109162324D01*
X149155675Y-109158246D01*
X149159835Y-109155237D01*
X149167442Y-109142874D01*
X149176271Y-109131341D01*
X149178970Y-109124140D01*
X149180284Y-109122007D01*
X149180667Y-109119616D01*
X149183154Y-109112985D01*
X149277006Y-108761038D01*
X149370859Y-109112986D01*
X149373344Y-109119615D01*
X149373728Y-109122007D01*
X149375041Y-109124141D01*
X149377741Y-109131341D01*
X149386569Y-109142874D01*
X149394177Y-109155237D01*
X149398336Y-109158246D01*
X149401457Y-109162324D01*
X149414021Y-109169598D01*
X149425786Y-109178112D01*
X149430781Y-109179301D01*
X149435225Y-109181874D01*
X149449614Y-109183785D01*
X149463743Y-109187150D01*
X149468814Y-109186336D01*
X149473903Y-109187013D01*
X149487935Y-109183271D01*
X149502270Y-109180973D01*
X149506640Y-109178283D01*
X149511604Y-109176960D01*
X149523137Y-109168131D01*
X149535500Y-109160524D01*
X149538509Y-109156364D01*
X149542587Y-109153244D01*
X149549862Y-109140677D01*
X149558375Y-109128915D01*
X149560879Y-109121649D01*
X149562137Y-109119477D01*
X149562456Y-109117073D01*
X149564763Y-109110381D01*
X149802859Y-108110381D01*
X149805509Y-108090958D01*
X149804910Y-108087219D01*
X149986530Y-108087219D01*
X149986530Y-109087219D01*
X149988451Y-109106728D01*
X150003383Y-109142776D01*
X150030973Y-109170366D01*
X150067021Y-109185298D01*
X150106039Y-109185298D01*
X150142087Y-109170366D01*
X150169677Y-109142776D01*
X150184609Y-109106728D01*
X150186530Y-109087219D01*
X150186530Y-108537975D01*
X150329245Y-108843793D01*
X150333477Y-108850938D01*
X150334357Y-108853356D01*
X150335922Y-108855065D01*
X150339236Y-108860659D01*
X150350446Y-108870925D01*
X150360708Y-108882131D01*
X150364733Y-108884009D01*
X150368011Y-108887011D01*
X150382293Y-108892204D01*
X150396066Y-108898632D01*
X150400505Y-108898827D01*
X150404680Y-108900345D01*
X150419863Y-108899677D01*
X150435046Y-108900345D01*
X150439219Y-108898827D01*
X150443661Y-108898632D01*
X150457445Y-108892199D01*
X150471715Y-108887010D01*
X150474988Y-108884012D01*
X150479018Y-108882132D01*
X150489287Y-108870917D01*
X150500490Y-108860659D01*
X150503801Y-108855068D01*
X150505370Y-108853356D01*
X150506250Y-108850934D01*
X150510481Y-108843793D01*
X150653196Y-108537974D01*
X150653196Y-109087219D01*
X150655117Y-109106728D01*
X150670049Y-109142776D01*
X150697639Y-109170366D01*
X150733687Y-109185298D01*
X150772705Y-109185298D01*
X150808753Y-109170366D01*
X150836343Y-109142776D01*
X150851275Y-109106728D01*
X150853196Y-109087219D01*
X150853196Y-108087219D01*
X150851933Y-108074395D01*
X150852037Y-108072036D01*
X150851576Y-108070768D01*
X150851275Y-108067710D01*
X150844634Y-108051679D01*
X150838703Y-108035367D01*
X150837196Y-108033721D01*
X150836343Y-108031662D01*
X150824081Y-108019400D01*
X150812351Y-108006591D01*
X150810327Y-108005646D01*
X150808753Y-108004072D01*
X150792737Y-107997437D01*
X150776994Y-107990091D01*
X150774764Y-107989993D01*
X150772705Y-107989140D01*
X150755353Y-107989140D01*
X150738013Y-107988378D01*
X150735917Y-107989140D01*
X150733687Y-107989140D01*
X150717656Y-107995780D01*
X150701344Y-108001712D01*
X150699698Y-108003218D01*
X150697639Y-108004072D01*
X150685371Y-108016339D01*
X150672569Y-108028064D01*
X150671002Y-108030708D01*
X150670049Y-108031662D01*
X150669145Y-108033843D01*
X150662578Y-108044930D01*
X150419862Y-108565033D01*
X150177148Y-108044930D01*
X150170580Y-108033843D01*
X150169677Y-108031662D01*
X150168723Y-108030708D01*
X150167157Y-108028064D01*
X150154360Y-108016345D01*
X150142087Y-108004072D01*
X150140025Y-108003218D01*
X150138382Y-108001713D01*
X150122080Y-107995784D01*
X150106039Y-107989140D01*
X150103808Y-107989140D01*
X150101713Y-107988378D01*
X150084373Y-107989140D01*
X150067021Y-107989140D01*
X150064961Y-107989993D01*
X150062733Y-107990091D01*
X150047002Y-107997432D01*
X150030973Y-108004072D01*
X150029396Y-108005648D01*
X150027375Y-108006592D01*
X150015656Y-108019388D01*
X150003383Y-108031662D01*
X150002529Y-108033723D01*
X150001024Y-108035367D01*
X149995095Y-108051668D01*
X149988451Y-108067710D01*
X149988149Y-108070768D01*
X149987689Y-108072036D01*
X149987792Y-108074395D01*
X149986530Y-108087219D01*
X149804910Y-108087219D01*
X149799332Y-108052432D01*
X149778883Y-108019201D01*
X149747274Y-107996326D01*
X149709317Y-107987289D01*
X149670790Y-107993465D01*
X149637560Y-108013914D01*
X149614685Y-108045523D01*
X149608297Y-108064057D01*
X149461993Y-108678530D01*
X149373630Y-108347167D01*
X149371916Y-108342596D01*
X149371661Y-108340675D01*
X149370340Y-108338393D01*
X149366747Y-108328811D01*
X149358722Y-108318328D01*
X149352111Y-108306908D01*
X149346967Y-108302971D01*
X149343031Y-108297828D01*
X149331613Y-108291218D01*
X149321128Y-108283192D01*
X149314864Y-108281521D01*
X149309263Y-108278279D01*
X149296185Y-108276541D01*
X149283427Y-108273139D01*
X149277005Y-108273992D01*
X149270585Y-108273139D01*
X149257831Y-108276539D01*
X149244749Y-108278278D01*
X149239144Y-108281522D01*
X149232884Y-108283192D01*
X149222400Y-108291216D01*
X149210981Y-108297828D01*
X149207044Y-108302971D01*
X149201901Y-108306908D01*
X149195291Y-108318325D01*
X149187265Y-108328811D01*
X149183669Y-108338399D01*
X149182352Y-108340676D01*
X149182097Y-108342594D01*
X149180383Y-108347166D01*
X149092018Y-108678530D01*
X148945716Y-108064057D01*
X148939328Y-108045523D01*
X148916453Y-108013914D01*
X148883223Y-107993465D01*
X148844696Y-107987288D01*
X148806739Y-107996326D01*
X148775130Y-108019201D01*
X148754681Y-108052431D01*
X148748504Y-108090958D01*
X148517404Y-108090958D01*
X148490574Y-108064127D01*
X148482903Y-108057832D01*
X148481174Y-108055838D01*
X148478166Y-108053944D01*
X148475420Y-108051691D01*
X148472980Y-108050680D01*
X148464584Y-108045395D01*
X148369346Y-107997776D01*
X148351038Y-107990770D01*
X148347454Y-107990515D01*
X148344134Y-107989140D01*
X148324625Y-107987219D01*
X147943673Y-107987219D01*
X147924164Y-107989140D01*
X147888116Y-108004072D01*
X147860526Y-108031662D01*
X147845594Y-108067710D01*
X147843673Y-108087219D01*
X147732562Y-108087219D01*
X147732562Y-107876108D01*
X150964307Y-107876108D01*
X150964307Y-109298261D01*
G37*
G36*
X142295665Y-133682330D02*
G01*
X138209483Y-133682330D01*
X138209483Y-133070757D01*
X138320594Y-133070757D01*
X138320594Y-133109775D01*
X138335526Y-133145823D01*
X138363116Y-133173413D01*
X138399164Y-133188345D01*
X138418673Y-133190266D01*
X138699625Y-133190266D01*
X138699625Y-133471219D01*
X138701546Y-133490728D01*
X138716478Y-133526776D01*
X138744068Y-133554366D01*
X138780116Y-133569298D01*
X138819134Y-133569298D01*
X138855182Y-133554366D01*
X138882772Y-133526776D01*
X138897704Y-133490728D01*
X138899625Y-133471219D01*
X138899625Y-133190266D01*
X139180578Y-133190266D01*
X139200087Y-133188345D01*
X139236135Y-133173413D01*
X139263725Y-133145823D01*
X139278657Y-133109775D01*
X139278657Y-133070757D01*
X139263725Y-133034709D01*
X139236135Y-133007119D01*
X139200087Y-132992187D01*
X139180578Y-132990266D01*
X138899625Y-132990266D01*
X138899625Y-132744426D01*
X139509934Y-132744426D01*
X139512700Y-132783346D01*
X139530149Y-132818245D01*
X139559626Y-132843809D01*
X139596642Y-132856148D01*
X139635562Y-132853382D01*
X139653870Y-132846376D01*
X139749108Y-132798757D01*
X139757504Y-132793471D01*
X139759944Y-132792461D01*
X139762690Y-132790207D01*
X139765698Y-132788314D01*
X139767427Y-132786319D01*
X139775098Y-132780025D01*
X139794863Y-132760260D01*
X139794863Y-133371219D01*
X139609149Y-133371219D01*
X139589640Y-133373140D01*
X139553592Y-133388072D01*
X139526002Y-133415662D01*
X139511070Y-133451710D01*
X139511070Y-133490728D01*
X139526002Y-133526776D01*
X139553592Y-133554366D01*
X139589640Y-133569298D01*
X139609149Y-133571219D01*
X140180577Y-133571219D01*
X140200086Y-133569298D01*
X140236134Y-133554366D01*
X140263724Y-133526776D01*
X140278656Y-133490728D01*
X140278656Y-133451710D01*
X140415832Y-133451710D01*
X140415832Y-133490728D01*
X140430764Y-133526776D01*
X140458354Y-133554366D01*
X140494402Y-133569298D01*
X140513911Y-133571219D01*
X141132958Y-133571219D01*
X141152467Y-133569298D01*
X141188515Y-133554366D01*
X141216105Y-133526776D01*
X141231037Y-133490728D01*
X141231037Y-133451710D01*
X141216105Y-133415662D01*
X141188515Y-133388072D01*
X141152467Y-133373140D01*
X141132958Y-133371219D01*
X140755333Y-133371219D01*
X141156050Y-132970501D01*
X141168486Y-132955347D01*
X141169860Y-132952028D01*
X141172216Y-132949313D01*
X141180207Y-132931413D01*
X141227826Y-132788556D01*
X141230025Y-132778883D01*
X141231037Y-132776442D01*
X141231385Y-132772904D01*
X141232173Y-132769441D01*
X141231985Y-132766806D01*
X141232958Y-132756933D01*
X141232958Y-132661695D01*
X141231037Y-132642186D01*
X141229661Y-132638865D01*
X141229407Y-132635282D01*
X141222401Y-132616973D01*
X141174782Y-132521736D01*
X141169496Y-132513339D01*
X141168486Y-132510899D01*
X141166232Y-132508153D01*
X141164339Y-132505145D01*
X141162341Y-132503412D01*
X141156049Y-132495746D01*
X141144029Y-132483726D01*
X141319458Y-132483726D01*
X141323805Y-132502842D01*
X141657138Y-133502841D01*
X141665129Y-133520742D01*
X141669812Y-133526141D01*
X141673007Y-133532531D01*
X141682478Y-133540746D01*
X141690694Y-133550218D01*
X141697082Y-133553412D01*
X141702483Y-133558096D01*
X141714384Y-133562063D01*
X141725593Y-133567667D01*
X141732717Y-133568173D01*
X141739499Y-133570434D01*
X141752008Y-133569544D01*
X141764513Y-133570434D01*
X141771291Y-133568174D01*
X141778419Y-133567668D01*
X141789635Y-133562059D01*
X141801529Y-133558095D01*
X141806926Y-133553414D01*
X141813318Y-133550218D01*
X141821536Y-133540742D01*
X141831005Y-133532530D01*
X141834198Y-133526143D01*
X141838883Y-133520742D01*
X141846874Y-133502842D01*
X142180207Y-132502842D01*
X142184554Y-132483727D01*
X142181788Y-132444807D01*
X142164338Y-132409908D01*
X142134862Y-132384343D01*
X142097846Y-132372004D01*
X142058926Y-132374771D01*
X142024027Y-132392220D01*
X141998462Y-132421696D01*
X141990471Y-132439597D01*
X141752006Y-133154991D01*
X141513541Y-132439596D01*
X141505550Y-132421696D01*
X141479985Y-132392220D01*
X141445086Y-132374770D01*
X141406166Y-132372004D01*
X141369150Y-132384342D01*
X141339674Y-132409907D01*
X141322224Y-132444806D01*
X141319458Y-132483726D01*
X141144029Y-132483726D01*
X141108431Y-132448127D01*
X141100760Y-132441832D01*
X141099031Y-132439838D01*
X141096023Y-132437944D01*
X141093277Y-132435691D01*
X141090837Y-132434680D01*
X141082441Y-132429395D01*
X140987203Y-132381776D01*
X140968895Y-132374770D01*
X140965311Y-132374515D01*
X140961991Y-132373140D01*
X140942482Y-132371219D01*
X140704387Y-132371219D01*
X140684878Y-132373140D01*
X140681557Y-132374515D01*
X140677974Y-132374770D01*
X140659665Y-132381776D01*
X140564428Y-132429395D01*
X140556031Y-132434680D01*
X140553591Y-132435691D01*
X140550845Y-132437944D01*
X140547837Y-132439838D01*
X140546104Y-132441835D01*
X140538438Y-132448128D01*
X140490819Y-132495746D01*
X140478383Y-132510900D01*
X140463451Y-132546948D01*
X140463451Y-132585966D01*
X140478383Y-132622014D01*
X140505973Y-132649604D01*
X140542021Y-132664536D01*
X140581039Y-132664536D01*
X140617087Y-132649604D01*
X140632241Y-132637168D01*
X140668384Y-132601023D01*
X140727994Y-132571219D01*
X140918875Y-132571219D01*
X140978484Y-132601024D01*
X141003153Y-132625692D01*
X141032958Y-132685302D01*
X141032958Y-132740706D01*
X140997936Y-132845770D01*
X140443200Y-133400508D01*
X140430764Y-133415662D01*
X140415832Y-133451710D01*
X140278656Y-133451710D01*
X140263724Y-133415662D01*
X140236134Y-133388072D01*
X140200086Y-133373140D01*
X140180577Y-133371219D01*
X139994863Y-133371219D01*
X139994863Y-132471219D01*
X139994856Y-132471148D01*
X139994863Y-132471114D01*
X139994842Y-132471012D01*
X139992942Y-132451710D01*
X139989152Y-132442561D01*
X139987211Y-132432854D01*
X139981759Y-132424713D01*
X139978010Y-132415662D01*
X139971010Y-132408662D01*
X139965500Y-132400434D01*
X139957345Y-132394997D01*
X139950420Y-132388072D01*
X139941276Y-132384284D01*
X139933035Y-132378790D01*
X139923421Y-132376888D01*
X139914372Y-132373140D01*
X139904471Y-132373140D01*
X139894759Y-132371219D01*
X139885154Y-132373140D01*
X139875354Y-132373140D01*
X139866205Y-132376929D01*
X139856498Y-132378871D01*
X139848357Y-132384322D01*
X139839306Y-132388072D01*
X139832306Y-132395071D01*
X139824078Y-132400582D01*
X139811789Y-132415588D01*
X139811716Y-132415662D01*
X139811702Y-132415694D01*
X139811658Y-132415749D01*
X139721914Y-132550365D01*
X139645150Y-132627128D01*
X139564428Y-132667490D01*
X139547837Y-132677933D01*
X139522273Y-132707410D01*
X139509934Y-132744426D01*
X138899625Y-132744426D01*
X138899625Y-132709314D01*
X138897704Y-132689805D01*
X138882772Y-132653757D01*
X138855182Y-132626167D01*
X138819134Y-132611235D01*
X138780116Y-132611235D01*
X138744068Y-132626167D01*
X138716478Y-132653757D01*
X138701546Y-132689805D01*
X138699625Y-132709314D01*
X138699625Y-132990266D01*
X138418673Y-132990266D01*
X138399164Y-132992187D01*
X138363116Y-133007119D01*
X138335526Y-133034709D01*
X138320594Y-133070757D01*
X138209483Y-133070757D01*
X138209483Y-132260108D01*
X142295665Y-132260108D01*
X142295665Y-133682330D01*
G37*
G36*
X146344388Y-72784023D02*
G01*
X146408567Y-72848202D01*
X146446482Y-72999861D01*
X146446482Y-73308575D01*
X146408566Y-73460235D01*
X146344390Y-73524413D01*
X146284780Y-73554219D01*
X146141518Y-73554219D01*
X146081908Y-73524414D01*
X146017731Y-73460236D01*
X145979816Y-73308575D01*
X145979816Y-72999862D01*
X146017731Y-72848202D01*
X146081910Y-72784023D01*
X146141518Y-72754219D01*
X146284780Y-72754219D01*
X146344388Y-72784023D01*
G37*
G36*
X148708053Y-73865330D02*
G01*
X144811562Y-73865330D01*
X144811562Y-72654219D01*
X144922673Y-72654219D01*
X144922673Y-73654219D01*
X144924594Y-73673728D01*
X144939526Y-73709776D01*
X144967116Y-73737366D01*
X145003164Y-73752298D01*
X145022673Y-73754219D01*
X145498863Y-73754219D01*
X145518372Y-73752298D01*
X145554420Y-73737366D01*
X145582010Y-73709776D01*
X145596942Y-73673728D01*
X145596942Y-73634710D01*
X145582010Y-73598662D01*
X145554420Y-73571072D01*
X145518372Y-73556140D01*
X145498863Y-73554219D01*
X145122673Y-73554219D01*
X145122673Y-73230409D01*
X145356006Y-73230409D01*
X145375515Y-73228488D01*
X145411563Y-73213556D01*
X145439153Y-73185966D01*
X145454085Y-73149918D01*
X145454085Y-73110900D01*
X145439153Y-73074852D01*
X145411563Y-73047262D01*
X145375515Y-73032330D01*
X145356006Y-73030409D01*
X145122673Y-73030409D01*
X145122673Y-72987552D01*
X145779816Y-72987552D01*
X145779816Y-73320885D01*
X145780151Y-73324287D01*
X145779934Y-73325746D01*
X145781013Y-73333043D01*
X145781737Y-73340394D01*
X145782301Y-73341757D01*
X145782802Y-73345139D01*
X145830421Y-73535614D01*
X145837016Y-73554075D01*
X145841441Y-73560047D01*
X145844287Y-73566918D01*
X145856724Y-73582071D01*
X145951962Y-73677311D01*
X145959630Y-73683604D01*
X145961361Y-73685600D01*
X145964368Y-73687493D01*
X145967115Y-73689747D01*
X145969555Y-73690757D01*
X145977952Y-73696043D01*
X146073189Y-73743662D01*
X146091498Y-73750668D01*
X146095081Y-73750922D01*
X146098402Y-73752298D01*
X146117911Y-73754219D01*
X146308387Y-73754219D01*
X146327896Y-73752298D01*
X146331216Y-73750922D01*
X146334800Y-73750668D01*
X146353108Y-73743662D01*
X146448346Y-73696043D01*
X146456741Y-73690758D01*
X146459183Y-73689747D01*
X146461930Y-73687491D01*
X146464936Y-73685600D01*
X146466666Y-73683605D01*
X146474336Y-73677310D01*
X146569574Y-73582071D01*
X146582011Y-73566918D01*
X146584856Y-73560047D01*
X146589282Y-73554075D01*
X146595877Y-73535615D01*
X146643496Y-73345139D01*
X146643996Y-73341757D01*
X146644561Y-73340394D01*
X146645284Y-73333043D01*
X146646364Y-73325746D01*
X146646146Y-73324287D01*
X146646482Y-73320885D01*
X146646482Y-72987552D01*
X146646146Y-72984149D01*
X146646364Y-72982691D01*
X146645284Y-72975393D01*
X146644561Y-72968043D01*
X146643996Y-72966679D01*
X146643496Y-72963298D01*
X146613845Y-72844695D01*
X146827435Y-72844695D01*
X146827435Y-72939933D01*
X146829356Y-72959442D01*
X146830731Y-72962762D01*
X146830986Y-72966346D01*
X146837992Y-72984654D01*
X146885611Y-73079892D01*
X146890896Y-73088288D01*
X146891907Y-73090728D01*
X146894160Y-73093474D01*
X146896054Y-73096482D01*
X146898048Y-73098211D01*
X146904343Y-73105882D01*
X146951962Y-73153500D01*
X146959628Y-73159792D01*
X146961361Y-73161790D01*
X146964369Y-73163683D01*
X146967115Y-73165937D01*
X146969555Y-73166947D01*
X146977952Y-73172233D01*
X147073189Y-73219852D01*
X147074617Y-73220398D01*
X147075197Y-73220828D01*
X147083373Y-73223749D01*
X147091498Y-73226858D01*
X147092218Y-73226909D01*
X147093657Y-73227423D01*
X147273482Y-73272379D01*
X147344389Y-73307833D01*
X147369058Y-73332501D01*
X147398863Y-73392111D01*
X147398863Y-73440135D01*
X147369058Y-73499743D01*
X147344389Y-73524413D01*
X147284780Y-73554219D01*
X147086518Y-73554219D01*
X146959058Y-73511732D01*
X146939942Y-73507385D01*
X146901022Y-73510151D01*
X146866123Y-73527601D01*
X146840558Y-73557077D01*
X146828220Y-73594093D01*
X146830986Y-73633013D01*
X146848436Y-73667912D01*
X146877912Y-73693477D01*
X146895812Y-73701468D01*
X147038669Y-73749087D01*
X147048341Y-73751286D01*
X147050783Y-73752298D01*
X147054320Y-73752646D01*
X147057784Y-73753434D01*
X147060418Y-73753246D01*
X147070292Y-73754219D01*
X147308387Y-73754219D01*
X147327896Y-73752298D01*
X147331216Y-73750922D01*
X147334800Y-73750668D01*
X147353108Y-73743662D01*
X147448346Y-73696043D01*
X147456741Y-73690758D01*
X147459183Y-73689747D01*
X147461930Y-73687491D01*
X147464936Y-73685600D01*
X147466666Y-73683605D01*
X147474336Y-73677310D01*
X147521955Y-73629690D01*
X147528247Y-73622023D01*
X147530244Y-73620292D01*
X147532137Y-73617284D01*
X147534392Y-73614537D01*
X147535403Y-73612095D01*
X147540687Y-73603701D01*
X147588306Y-73508464D01*
X147595312Y-73490155D01*
X147595566Y-73486571D01*
X147596942Y-73483251D01*
X147598863Y-73463742D01*
X147598863Y-73368504D01*
X147596942Y-73348995D01*
X147595566Y-73345674D01*
X147595312Y-73342091D01*
X147588306Y-73323782D01*
X147540687Y-73228545D01*
X147535401Y-73220148D01*
X147534391Y-73217708D01*
X147532137Y-73214962D01*
X147530244Y-73211954D01*
X147528246Y-73210221D01*
X147521954Y-73202555D01*
X147474336Y-73154936D01*
X147466665Y-73148641D01*
X147464936Y-73146647D01*
X147461928Y-73144753D01*
X147459182Y-73142500D01*
X147456742Y-73141489D01*
X147448346Y-73136204D01*
X147353108Y-73088585D01*
X147351681Y-73088039D01*
X147351101Y-73087609D01*
X147342924Y-73084687D01*
X147337965Y-73082790D01*
X147779816Y-73082790D01*
X147779816Y-73225647D01*
X147780151Y-73229049D01*
X147779934Y-73230508D01*
X147781013Y-73237805D01*
X147781737Y-73245156D01*
X147782301Y-73246519D01*
X147782802Y-73249901D01*
X147830421Y-73440376D01*
X147830934Y-73441813D01*
X147830986Y-73442536D01*
X147834094Y-73450660D01*
X147837016Y-73458837D01*
X147837446Y-73459417D01*
X147837992Y-73460844D01*
X147885611Y-73556082D01*
X147890893Y-73564474D01*
X147891906Y-73566918D01*
X147894162Y-73569667D01*
X147896054Y-73572672D01*
X147898048Y-73574401D01*
X147904343Y-73582071D01*
X147999581Y-73677311D01*
X148014734Y-73689747D01*
X148018053Y-73691122D01*
X148020769Y-73693477D01*
X148038669Y-73701468D01*
X148181526Y-73749087D01*
X148191198Y-73751286D01*
X148193640Y-73752298D01*
X148197177Y-73752646D01*
X148200641Y-73753434D01*
X148203275Y-73753246D01*
X148213149Y-73754219D01*
X148308387Y-73754219D01*
X148318260Y-73753246D01*
X148320894Y-73753434D01*
X148324357Y-73752646D01*
X148327896Y-73752298D01*
X148330338Y-73751286D01*
X148340010Y-73749087D01*
X148482866Y-73701468D01*
X148500767Y-73693477D01*
X148503482Y-73691122D01*
X148506802Y-73689747D01*
X148521955Y-73677310D01*
X148569574Y-73629690D01*
X148582011Y-73614537D01*
X148596942Y-73578488D01*
X148596941Y-73539470D01*
X148582010Y-73503422D01*
X148554419Y-73475832D01*
X148518371Y-73460901D01*
X148479353Y-73460902D01*
X148443305Y-73475833D01*
X148428151Y-73488270D01*
X148397224Y-73519197D01*
X148292160Y-73554219D01*
X148229375Y-73554219D01*
X148124310Y-73519197D01*
X148057240Y-73452127D01*
X148021786Y-73381218D01*
X147979816Y-73213337D01*
X147979816Y-73095100D01*
X148021786Y-72927218D01*
X148057239Y-72856312D01*
X148124311Y-72789240D01*
X148229375Y-72754219D01*
X148292160Y-72754219D01*
X148397225Y-72789240D01*
X148428152Y-72820167D01*
X148443305Y-72832604D01*
X148479354Y-72847535D01*
X148518372Y-72847535D01*
X148554420Y-72832604D01*
X148582010Y-72805014D01*
X148596941Y-72768966D01*
X148596941Y-72729948D01*
X148582010Y-72693899D01*
X148569573Y-72678746D01*
X148521955Y-72631127D01*
X148506801Y-72618691D01*
X148503482Y-72617316D01*
X148500767Y-72614961D01*
X148482866Y-72606970D01*
X148340010Y-72559351D01*
X148330338Y-72557151D01*
X148327896Y-72556140D01*
X148324357Y-72555791D01*
X148320894Y-72555004D01*
X148318260Y-72555191D01*
X148308387Y-72554219D01*
X148213149Y-72554219D01*
X148203275Y-72555191D01*
X148200641Y-72555004D01*
X148197177Y-72555791D01*
X148193640Y-72556140D01*
X148191198Y-72557151D01*
X148181526Y-72559351D01*
X148038669Y-72606970D01*
X148020769Y-72614961D01*
X148018053Y-72617316D01*
X148014735Y-72618691D01*
X147999581Y-72631127D01*
X147904343Y-72726365D01*
X147898048Y-72734035D01*
X147896054Y-72735765D01*
X147894160Y-72738772D01*
X147891907Y-72741519D01*
X147890896Y-72743958D01*
X147885611Y-72752355D01*
X147837992Y-72847593D01*
X147837446Y-72849019D01*
X147837016Y-72849600D01*
X147834094Y-72857776D01*
X147830986Y-72865901D01*
X147830934Y-72866623D01*
X147830421Y-72868061D01*
X147782802Y-73058536D01*
X147782301Y-73061917D01*
X147781737Y-73063281D01*
X147781013Y-73070631D01*
X147779934Y-73077929D01*
X147780151Y-73079387D01*
X147779816Y-73082790D01*
X147337965Y-73082790D01*
X147334800Y-73081579D01*
X147334077Y-73081527D01*
X147332640Y-73081014D01*
X147152815Y-73036057D01*
X147081908Y-73000604D01*
X147057240Y-72975935D01*
X147027435Y-72916325D01*
X147027435Y-72868302D01*
X147057240Y-72808692D01*
X147081908Y-72784023D01*
X147141518Y-72754219D01*
X147339779Y-72754219D01*
X147467240Y-72796706D01*
X147486355Y-72801053D01*
X147525275Y-72798287D01*
X147560174Y-72780837D01*
X147585739Y-72751361D01*
X147598078Y-72714345D01*
X147595311Y-72675425D01*
X147577862Y-72640526D01*
X147548386Y-72614961D01*
X147530485Y-72606970D01*
X147387629Y-72559351D01*
X147377957Y-72557151D01*
X147375515Y-72556140D01*
X147371976Y-72555791D01*
X147368513Y-72555004D01*
X147365879Y-72555191D01*
X147356006Y-72554219D01*
X147117911Y-72554219D01*
X147098402Y-72556140D01*
X147095081Y-72557515D01*
X147091498Y-72557770D01*
X147073189Y-72564776D01*
X146977952Y-72612395D01*
X146969555Y-72617680D01*
X146967115Y-72618691D01*
X146964369Y-72620944D01*
X146961361Y-72622838D01*
X146959628Y-72624835D01*
X146951962Y-72631128D01*
X146904343Y-72678746D01*
X146898048Y-72686416D01*
X146896054Y-72688146D01*
X146894160Y-72691153D01*
X146891907Y-72693900D01*
X146890896Y-72696339D01*
X146885611Y-72704736D01*
X146837992Y-72799974D01*
X146830986Y-72818282D01*
X146830731Y-72821865D01*
X146829356Y-72825186D01*
X146827435Y-72844695D01*
X146613845Y-72844695D01*
X146595877Y-72772822D01*
X146589282Y-72754362D01*
X146584855Y-72748387D01*
X146582010Y-72741519D01*
X146569574Y-72726365D01*
X146474336Y-72631127D01*
X146466665Y-72624832D01*
X146464936Y-72622838D01*
X146461928Y-72620944D01*
X146459182Y-72618691D01*
X146456742Y-72617680D01*
X146448346Y-72612395D01*
X146353108Y-72564776D01*
X146334800Y-72557770D01*
X146331216Y-72557515D01*
X146327896Y-72556140D01*
X146308387Y-72554219D01*
X146117911Y-72554219D01*
X146098402Y-72556140D01*
X146095081Y-72557515D01*
X146091498Y-72557770D01*
X146073189Y-72564776D01*
X145977952Y-72612395D01*
X145969553Y-72617681D01*
X145967116Y-72618691D01*
X145964372Y-72620942D01*
X145961361Y-72622838D01*
X145959628Y-72624835D01*
X145951962Y-72631127D01*
X145856724Y-72726365D01*
X145844288Y-72741519D01*
X145841442Y-72748387D01*
X145837016Y-72754362D01*
X145830421Y-72772823D01*
X145782802Y-72963298D01*
X145782301Y-72966679D01*
X145781737Y-72968043D01*
X145781013Y-72975393D01*
X145779934Y-72982691D01*
X145780151Y-72984149D01*
X145779816Y-72987552D01*
X145122673Y-72987552D01*
X145122673Y-72754219D01*
X145498863Y-72754219D01*
X145518372Y-72752298D01*
X145554420Y-72737366D01*
X145582010Y-72709776D01*
X145596942Y-72673728D01*
X145596942Y-72634710D01*
X145582010Y-72598662D01*
X145554420Y-72571072D01*
X145518372Y-72556140D01*
X145498863Y-72554219D01*
X145022673Y-72554219D01*
X145003164Y-72556140D01*
X144967116Y-72571072D01*
X144939526Y-72598662D01*
X144924594Y-72634710D01*
X144922673Y-72654219D01*
X144811562Y-72654219D01*
X144811562Y-72443108D01*
X148708053Y-72443108D01*
X148708053Y-73865330D01*
G37*
X118352673Y-76067219D02*
X118352673Y-75067219D01*
X118352673Y-75067219D02*
X118733625Y-75067219D01*
X118733625Y-75067219D02*
X118828863Y-75114838D01*
X118828863Y-75114838D02*
X118876482Y-75162457D01*
X118876482Y-75162457D02*
X118924101Y-75257695D01*
X118924101Y-75257695D02*
X118924101Y-75400552D01*
X118924101Y-75400552D02*
X118876482Y-75495790D01*
X118876482Y-75495790D02*
X118828863Y-75543409D01*
X118828863Y-75543409D02*
X118733625Y-75591028D01*
X118733625Y-75591028D02*
X118352673Y-75591028D01*
G36*
X122832855Y-99519330D02*
G01*
X118270483Y-99519330D01*
X118270483Y-98907757D01*
X118381594Y-98907757D01*
X118381594Y-98946775D01*
X118396526Y-98982823D01*
X118424116Y-99010413D01*
X118460164Y-99025345D01*
X118479673Y-99027266D01*
X118760625Y-99027266D01*
X118760625Y-99308219D01*
X118762546Y-99327728D01*
X118777478Y-99363776D01*
X118805068Y-99391366D01*
X118841116Y-99406298D01*
X118880134Y-99406298D01*
X118916182Y-99391366D01*
X118943772Y-99363776D01*
X118958704Y-99327728D01*
X118960625Y-99308219D01*
X118960625Y-99027266D01*
X119241578Y-99027266D01*
X119261087Y-99025345D01*
X119297135Y-99010413D01*
X119324725Y-98982823D01*
X119339657Y-98946775D01*
X119339657Y-98907757D01*
X119324725Y-98871709D01*
X119297135Y-98844119D01*
X119261087Y-98829187D01*
X119241578Y-98827266D01*
X118960625Y-98827266D01*
X118960625Y-98546314D01*
X118958704Y-98526805D01*
X118943772Y-98490757D01*
X118916182Y-98463167D01*
X118880134Y-98448235D01*
X118841116Y-98448235D01*
X118805068Y-98463167D01*
X118777478Y-98490757D01*
X118762546Y-98526805D01*
X118760625Y-98546314D01*
X118760625Y-98827266D01*
X118479673Y-98827266D01*
X118460164Y-98829187D01*
X118424116Y-98844119D01*
X118396526Y-98871709D01*
X118381594Y-98907757D01*
X118270483Y-98907757D01*
X118270483Y-98288710D01*
X119524451Y-98288710D01*
X119524451Y-98327728D01*
X119539383Y-98363776D01*
X119566973Y-98391366D01*
X119603021Y-98406298D01*
X119622530Y-98408219D01*
X120021200Y-98408219D01*
X119832986Y-98623321D01*
X119826956Y-98631754D01*
X119825097Y-98633614D01*
X119824366Y-98635377D01*
X119821585Y-98639268D01*
X119816380Y-98654656D01*
X119810165Y-98669662D01*
X119810165Y-98673035D01*
X119809085Y-98676229D01*
X119810165Y-98692431D01*
X119810165Y-98708680D01*
X119811455Y-98711795D01*
X119811680Y-98715161D01*
X119818880Y-98729721D01*
X119825097Y-98744728D01*
X119827481Y-98747112D01*
X119828977Y-98750136D01*
X119841202Y-98760833D01*
X119852687Y-98772318D01*
X119855801Y-98773608D01*
X119858341Y-98775830D01*
X119873729Y-98781034D01*
X119888735Y-98787250D01*
X119893494Y-98787718D01*
X119895302Y-98788330D01*
X119897926Y-98788155D01*
X119908244Y-98789171D01*
X120027494Y-98789171D01*
X120087103Y-98818976D01*
X120111772Y-98843644D01*
X120141577Y-98903254D01*
X120141577Y-99094135D01*
X120111772Y-99153743D01*
X120087103Y-99178413D01*
X120027494Y-99208219D01*
X119788994Y-99208219D01*
X119729384Y-99178414D01*
X119693241Y-99142270D01*
X119678088Y-99129833D01*
X119642040Y-99114902D01*
X119603022Y-99114901D01*
X119566973Y-99129832D01*
X119539383Y-99157422D01*
X119524452Y-99193470D01*
X119524451Y-99232488D01*
X119539382Y-99268537D01*
X119551819Y-99283690D01*
X119599437Y-99331310D01*
X119607105Y-99337603D01*
X119608837Y-99339600D01*
X119611845Y-99341493D01*
X119614591Y-99343747D01*
X119617031Y-99344757D01*
X119625428Y-99350043D01*
X119720665Y-99397662D01*
X119738974Y-99404668D01*
X119742557Y-99404922D01*
X119745878Y-99406298D01*
X119765387Y-99408219D01*
X120051101Y-99408219D01*
X120070610Y-99406298D01*
X120073930Y-99404922D01*
X120077514Y-99404668D01*
X120095822Y-99397662D01*
X120191060Y-99350043D01*
X120199455Y-99344758D01*
X120201897Y-99343747D01*
X120204644Y-99341491D01*
X120207650Y-99339600D01*
X120209380Y-99337605D01*
X120217050Y-99331310D01*
X120264669Y-99283690D01*
X120270961Y-99276023D01*
X120272958Y-99274292D01*
X120274851Y-99271284D01*
X120277106Y-99268537D01*
X120278117Y-99266095D01*
X120283401Y-99257701D01*
X120291706Y-99241091D01*
X120524451Y-99241091D01*
X120524451Y-99280109D01*
X120530914Y-99295711D01*
X120539383Y-99316158D01*
X120539387Y-99316162D01*
X120551819Y-99331311D01*
X120599438Y-99378929D01*
X120614591Y-99391366D01*
X120623594Y-99395095D01*
X120650640Y-99406298D01*
X120689658Y-99406298D01*
X120725706Y-99391366D01*
X120740860Y-99378930D01*
X120788478Y-99331311D01*
X120800915Y-99316158D01*
X120807667Y-99299856D01*
X120815846Y-99280110D01*
X120815847Y-99241092D01*
X120800916Y-99205043D01*
X120788479Y-99189890D01*
X120740860Y-99142270D01*
X120725707Y-99129833D01*
X120710775Y-99123648D01*
X120689658Y-99114901D01*
X120650640Y-99114901D01*
X120640082Y-99119274D01*
X120614592Y-99129832D01*
X120614591Y-99129833D01*
X120599437Y-99142270D01*
X120551819Y-99189890D01*
X120539382Y-99205043D01*
X120529369Y-99229219D01*
X120524451Y-99241091D01*
X120291706Y-99241091D01*
X120331020Y-99162464D01*
X120338026Y-99144155D01*
X120338280Y-99140571D01*
X120339656Y-99137251D01*
X120341577Y-99117742D01*
X120341577Y-98879647D01*
X120339656Y-98860138D01*
X120338280Y-98856817D01*
X120338026Y-98853234D01*
X120331020Y-98834925D01*
X120283401Y-98739688D01*
X120278115Y-98731291D01*
X120277105Y-98728851D01*
X120274851Y-98726105D01*
X120272958Y-98723097D01*
X120270960Y-98721364D01*
X120264668Y-98713698D01*
X120217050Y-98666079D01*
X120209379Y-98659784D01*
X120207650Y-98657790D01*
X120204642Y-98655896D01*
X120201896Y-98653643D01*
X120199456Y-98652632D01*
X120191060Y-98647347D01*
X120112212Y-98607923D01*
X120316835Y-98374069D01*
X120322864Y-98365635D01*
X120324724Y-98363776D01*
X120325454Y-98362012D01*
X120328236Y-98358122D01*
X120333440Y-98342733D01*
X120339656Y-98327728D01*
X120339656Y-98324354D01*
X120340736Y-98321161D01*
X120339656Y-98304958D01*
X120339656Y-98288710D01*
X120953022Y-98288710D01*
X120953022Y-98327728D01*
X120967954Y-98363776D01*
X120995544Y-98391366D01*
X121031592Y-98406298D01*
X121051101Y-98408219D01*
X121449771Y-98408219D01*
X121261557Y-98623321D01*
X121255527Y-98631754D01*
X121253668Y-98633614D01*
X121252937Y-98635377D01*
X121250156Y-98639268D01*
X121244951Y-98654656D01*
X121238736Y-98669662D01*
X121238736Y-98673035D01*
X121237656Y-98676229D01*
X121238736Y-98692431D01*
X121238736Y-98708680D01*
X121240026Y-98711795D01*
X121240251Y-98715161D01*
X121247451Y-98729721D01*
X121253668Y-98744728D01*
X121256052Y-98747112D01*
X121257548Y-98750136D01*
X121269773Y-98760833D01*
X121281258Y-98772318D01*
X121284372Y-98773608D01*
X121286912Y-98775830D01*
X121302300Y-98781034D01*
X121317306Y-98787250D01*
X121322065Y-98787718D01*
X121323873Y-98788330D01*
X121326497Y-98788155D01*
X121336815Y-98789171D01*
X121456065Y-98789171D01*
X121515674Y-98818976D01*
X121540343Y-98843644D01*
X121570148Y-98903254D01*
X121570148Y-99094135D01*
X121540343Y-99153743D01*
X121515674Y-99178413D01*
X121456065Y-99208219D01*
X121217565Y-99208219D01*
X121157955Y-99178414D01*
X121121812Y-99142270D01*
X121106659Y-99129833D01*
X121070611Y-99114902D01*
X121031593Y-99114901D01*
X120995544Y-99129832D01*
X120967954Y-99157422D01*
X120953023Y-99193470D01*
X120953022Y-99232488D01*
X120967953Y-99268537D01*
X120980390Y-99283690D01*
X121028008Y-99331310D01*
X121035676Y-99337603D01*
X121037408Y-99339600D01*
X121040416Y-99341493D01*
X121043162Y-99343747D01*
X121045602Y-99344757D01*
X121053999Y-99350043D01*
X121149236Y-99397662D01*
X121167545Y-99404668D01*
X121171128Y-99404922D01*
X121174449Y-99406298D01*
X121193958Y-99408219D01*
X121479672Y-99408219D01*
X121499181Y-99406298D01*
X121502501Y-99404922D01*
X121506085Y-99404668D01*
X121524393Y-99397662D01*
X121619631Y-99350043D01*
X121628026Y-99344758D01*
X121630468Y-99343747D01*
X121633215Y-99341491D01*
X121636221Y-99339600D01*
X121637951Y-99337605D01*
X121645621Y-99331310D01*
X121693240Y-99283690D01*
X121699532Y-99276023D01*
X121701529Y-99274292D01*
X121703422Y-99271284D01*
X121705677Y-99268537D01*
X121706688Y-99266095D01*
X121711972Y-99257701D01*
X121759591Y-99162464D01*
X121766597Y-99144155D01*
X121766851Y-99140571D01*
X121768227Y-99137251D01*
X121770148Y-99117742D01*
X121770148Y-98879647D01*
X121768227Y-98860138D01*
X121766851Y-98856817D01*
X121766597Y-98853234D01*
X121759591Y-98834925D01*
X121711972Y-98739688D01*
X121706686Y-98731291D01*
X121705676Y-98728851D01*
X121703422Y-98726105D01*
X121701529Y-98723097D01*
X121699531Y-98721364D01*
X121693239Y-98713698D01*
X121645621Y-98666079D01*
X121637950Y-98659784D01*
X121636221Y-98657790D01*
X121633213Y-98655896D01*
X121630467Y-98653643D01*
X121628027Y-98652632D01*
X121619631Y-98647347D01*
X121540783Y-98607923D01*
X121745406Y-98374069D01*
X121751435Y-98365635D01*
X121753295Y-98363776D01*
X121754025Y-98362012D01*
X121756807Y-98358122D01*
X121762011Y-98342733D01*
X121768227Y-98327728D01*
X121768227Y-98324354D01*
X121769307Y-98321161D01*
X121769278Y-98320726D01*
X121856648Y-98320726D01*
X121860995Y-98339842D01*
X122194328Y-99339841D01*
X122202319Y-99357742D01*
X122207002Y-99363141D01*
X122210197Y-99369531D01*
X122219668Y-99377746D01*
X122227884Y-99387218D01*
X122234272Y-99390412D01*
X122239673Y-99395096D01*
X122251574Y-99399063D01*
X122262783Y-99404667D01*
X122269907Y-99405173D01*
X122276689Y-99407434D01*
X122289198Y-99406544D01*
X122301703Y-99407434D01*
X122308481Y-99405174D01*
X122315609Y-99404668D01*
X122326825Y-99399059D01*
X122338719Y-99395095D01*
X122344116Y-99390414D01*
X122350508Y-99387218D01*
X122358726Y-99377742D01*
X122368195Y-99369530D01*
X122371388Y-99363143D01*
X122376073Y-99357742D01*
X122384064Y-99339842D01*
X122717397Y-98339842D01*
X122721744Y-98320727D01*
X122718978Y-98281807D01*
X122701528Y-98246908D01*
X122672052Y-98221343D01*
X122635036Y-98209004D01*
X122596116Y-98211771D01*
X122561217Y-98229220D01*
X122535652Y-98258696D01*
X122527661Y-98276597D01*
X122289196Y-98991991D01*
X122050731Y-98276596D01*
X122042740Y-98258696D01*
X122017175Y-98229220D01*
X121982276Y-98211770D01*
X121943356Y-98209004D01*
X121906340Y-98221342D01*
X121876864Y-98246907D01*
X121859414Y-98281806D01*
X121856648Y-98320726D01*
X121769278Y-98320726D01*
X121768227Y-98304958D01*
X121768227Y-98288710D01*
X121766936Y-98285594D01*
X121766712Y-98282229D01*
X121759509Y-98267663D01*
X121753295Y-98252662D01*
X121750911Y-98250278D01*
X121749416Y-98247254D01*
X121737182Y-98236549D01*
X121725705Y-98225072D01*
X121722591Y-98223782D01*
X121720052Y-98221560D01*
X121704660Y-98216354D01*
X121689657Y-98210140D01*
X121684897Y-98209671D01*
X121683090Y-98209060D01*
X121680465Y-98209234D01*
X121670148Y-98208219D01*
X121051101Y-98208219D01*
X121031592Y-98210140D01*
X120995544Y-98225072D01*
X120967954Y-98252662D01*
X120953022Y-98288710D01*
X120339656Y-98288710D01*
X120338365Y-98285594D01*
X120338141Y-98282229D01*
X120330938Y-98267663D01*
X120324724Y-98252662D01*
X120322340Y-98250278D01*
X120320845Y-98247254D01*
X120308611Y-98236549D01*
X120297134Y-98225072D01*
X120294020Y-98223782D01*
X120291481Y-98221560D01*
X120276089Y-98216354D01*
X120261086Y-98210140D01*
X120256326Y-98209671D01*
X120254519Y-98209060D01*
X120251894Y-98209234D01*
X120241577Y-98208219D01*
X119622530Y-98208219D01*
X119603021Y-98210140D01*
X119566973Y-98225072D01*
X119539383Y-98252662D01*
X119524451Y-98288710D01*
X118270483Y-98288710D01*
X118270483Y-98097108D01*
X122832855Y-98097108D01*
X122832855Y-99519330D01*
G37*
G36*
X132516665Y-113235330D02*
G01*
X128430483Y-113235330D01*
X128430483Y-112623757D01*
X128541594Y-112623757D01*
X128541594Y-112662775D01*
X128556526Y-112698823D01*
X128584116Y-112726413D01*
X128620164Y-112741345D01*
X128639673Y-112743266D01*
X128920625Y-112743266D01*
X128920625Y-113024219D01*
X128922546Y-113043728D01*
X128937478Y-113079776D01*
X128965068Y-113107366D01*
X129001116Y-113122298D01*
X129040134Y-113122298D01*
X129076182Y-113107366D01*
X129103772Y-113079776D01*
X129118704Y-113043728D01*
X129120625Y-113024219D01*
X129120625Y-112743266D01*
X129401578Y-112743266D01*
X129421087Y-112741345D01*
X129457135Y-112726413D01*
X129484725Y-112698823D01*
X129499657Y-112662775D01*
X129499657Y-112623757D01*
X129484725Y-112587709D01*
X129457135Y-112560119D01*
X129421087Y-112545187D01*
X129401578Y-112543266D01*
X129120625Y-112543266D01*
X129120625Y-112297426D01*
X129730934Y-112297426D01*
X129733700Y-112336346D01*
X129751149Y-112371245D01*
X129780626Y-112396809D01*
X129817642Y-112409148D01*
X129856562Y-112406382D01*
X129874870Y-112399376D01*
X129970108Y-112351757D01*
X129978504Y-112346471D01*
X129980944Y-112345461D01*
X129983690Y-112343207D01*
X129986698Y-112341314D01*
X129988427Y-112339319D01*
X129996098Y-112333025D01*
X130015863Y-112313260D01*
X130015863Y-112924219D01*
X129830149Y-112924219D01*
X129810640Y-112926140D01*
X129774592Y-112941072D01*
X129747002Y-112968662D01*
X129732070Y-113004710D01*
X129732070Y-113043728D01*
X129747002Y-113079776D01*
X129774592Y-113107366D01*
X129810640Y-113122298D01*
X129830149Y-113124219D01*
X130401577Y-113124219D01*
X130421086Y-113122298D01*
X130457134Y-113107366D01*
X130484724Y-113079776D01*
X130499656Y-113043728D01*
X130499656Y-113004710D01*
X130636832Y-113004710D01*
X130636832Y-113043728D01*
X130651764Y-113079776D01*
X130679354Y-113107366D01*
X130715402Y-113122298D01*
X130734911Y-113124219D01*
X131353958Y-113124219D01*
X131373467Y-113122298D01*
X131409515Y-113107366D01*
X131437105Y-113079776D01*
X131452037Y-113043728D01*
X131452037Y-113004710D01*
X131437105Y-112968662D01*
X131409515Y-112941072D01*
X131373467Y-112926140D01*
X131353958Y-112924219D01*
X130976333Y-112924219D01*
X131377050Y-112523501D01*
X131389486Y-112508347D01*
X131390860Y-112505028D01*
X131393216Y-112502313D01*
X131401207Y-112484413D01*
X131448826Y-112341556D01*
X131451025Y-112331883D01*
X131452037Y-112329442D01*
X131452385Y-112325904D01*
X131453173Y-112322441D01*
X131452985Y-112319806D01*
X131453958Y-112309933D01*
X131453958Y-112214695D01*
X131452037Y-112195186D01*
X131450661Y-112191865D01*
X131450407Y-112188282D01*
X131443401Y-112169973D01*
X131395782Y-112074736D01*
X131390496Y-112066339D01*
X131389486Y-112063899D01*
X131387232Y-112061153D01*
X131385339Y-112058145D01*
X131383341Y-112056412D01*
X131377049Y-112048746D01*
X131365029Y-112036726D01*
X131540458Y-112036726D01*
X131544805Y-112055842D01*
X131878138Y-113055841D01*
X131886129Y-113073742D01*
X131890812Y-113079141D01*
X131894007Y-113085531D01*
X131903478Y-113093746D01*
X131911694Y-113103218D01*
X131918082Y-113106412D01*
X131923483Y-113111096D01*
X131935384Y-113115063D01*
X131946593Y-113120667D01*
X131953717Y-113121173D01*
X131960499Y-113123434D01*
X131973008Y-113122544D01*
X131985513Y-113123434D01*
X131992291Y-113121174D01*
X131999419Y-113120668D01*
X132010635Y-113115059D01*
X132022529Y-113111095D01*
X132027926Y-113106414D01*
X132034318Y-113103218D01*
X132042536Y-113093742D01*
X132052005Y-113085530D01*
X132055198Y-113079143D01*
X132059883Y-113073742D01*
X132067874Y-113055842D01*
X132401207Y-112055842D01*
X132405554Y-112036727D01*
X132402788Y-111997807D01*
X132385338Y-111962908D01*
X132355862Y-111937343D01*
X132318846Y-111925004D01*
X132279926Y-111927771D01*
X132245027Y-111945220D01*
X132219462Y-111974696D01*
X132211471Y-111992597D01*
X131973006Y-112707991D01*
X131734541Y-111992596D01*
X131726550Y-111974696D01*
X131700985Y-111945220D01*
X131666086Y-111927770D01*
X131627166Y-111925004D01*
X131590150Y-111937342D01*
X131560674Y-111962907D01*
X131543224Y-111997806D01*
X131540458Y-112036726D01*
X131365029Y-112036726D01*
X131329431Y-112001127D01*
X131321760Y-111994832D01*
X131320031Y-111992838D01*
X131317023Y-111990944D01*
X131314277Y-111988691D01*
X131311837Y-111987680D01*
X131303441Y-111982395D01*
X131208203Y-111934776D01*
X131189895Y-111927770D01*
X131186311Y-111927515D01*
X131182991Y-111926140D01*
X131163482Y-111924219D01*
X130925387Y-111924219D01*
X130905878Y-111926140D01*
X130902557Y-111927515D01*
X130898974Y-111927770D01*
X130880665Y-111934776D01*
X130785428Y-111982395D01*
X130777031Y-111987680D01*
X130774591Y-111988691D01*
X130771845Y-111990944D01*
X130768837Y-111992838D01*
X130767104Y-111994835D01*
X130759438Y-112001128D01*
X130711819Y-112048746D01*
X130699383Y-112063900D01*
X130684451Y-112099948D01*
X130684451Y-112138966D01*
X130699383Y-112175014D01*
X130726973Y-112202604D01*
X130763021Y-112217536D01*
X130802039Y-112217536D01*
X130838087Y-112202604D01*
X130853241Y-112190168D01*
X130889384Y-112154023D01*
X130948994Y-112124219D01*
X131139875Y-112124219D01*
X131199484Y-112154024D01*
X131224153Y-112178692D01*
X131253958Y-112238302D01*
X131253958Y-112293706D01*
X131218936Y-112398770D01*
X130664200Y-112953508D01*
X130651764Y-112968662D01*
X130636832Y-113004710D01*
X130499656Y-113004710D01*
X130484724Y-112968662D01*
X130457134Y-112941072D01*
X130421086Y-112926140D01*
X130401577Y-112924219D01*
X130215863Y-112924219D01*
X130215863Y-112024219D01*
X130215856Y-112024148D01*
X130215863Y-112024114D01*
X130215842Y-112024012D01*
X130213942Y-112004710D01*
X130210152Y-111995561D01*
X130208211Y-111985854D01*
X130202759Y-111977713D01*
X130199010Y-111968662D01*
X130192010Y-111961662D01*
X130186500Y-111953434D01*
X130178345Y-111947997D01*
X130171420Y-111941072D01*
X130162276Y-111937284D01*
X130154035Y-111931790D01*
X130144421Y-111929888D01*
X130135372Y-111926140D01*
X130125471Y-111926140D01*
X130115759Y-111924219D01*
X130106154Y-111926140D01*
X130096354Y-111926140D01*
X130087205Y-111929929D01*
X130077498Y-111931871D01*
X130069357Y-111937322D01*
X130060306Y-111941072D01*
X130053306Y-111948071D01*
X130045078Y-111953582D01*
X130032789Y-111968588D01*
X130032716Y-111968662D01*
X130032702Y-111968694D01*
X130032658Y-111968749D01*
X129942914Y-112103365D01*
X129866150Y-112180128D01*
X129785428Y-112220490D01*
X129768837Y-112230933D01*
X129743273Y-112260410D01*
X129730934Y-112297426D01*
X129120625Y-112297426D01*
X129120625Y-112262314D01*
X129118704Y-112242805D01*
X129103772Y-112206757D01*
X129076182Y-112179167D01*
X129040134Y-112164235D01*
X129001116Y-112164235D01*
X128965068Y-112179167D01*
X128937478Y-112206757D01*
X128922546Y-112242805D01*
X128920625Y-112262314D01*
X128920625Y-112543266D01*
X128639673Y-112543266D01*
X128620164Y-112545187D01*
X128584116Y-112560119D01*
X128556526Y-112587709D01*
X128541594Y-112623757D01*
X128430483Y-112623757D01*
X128430483Y-111813108D01*
X132516665Y-111813108D01*
X132516665Y-113235330D01*
G37*
G36*
X133554224Y-138067240D02*
G01*
X133621297Y-138134313D01*
X133656749Y-138205218D01*
X133698720Y-138373099D01*
X133698720Y-138491337D01*
X133656749Y-138659218D01*
X133621296Y-138730124D01*
X133554225Y-138797197D01*
X133449160Y-138832219D01*
X133327292Y-138832219D01*
X133327292Y-138032219D01*
X133449160Y-138032219D01*
X133554224Y-138067240D01*
G37*
G36*
X134009831Y-139143330D02*
G01*
X130920943Y-139143330D01*
X130920943Y-138360790D01*
X131032054Y-138360790D01*
X131032054Y-138503647D01*
X131032389Y-138507049D01*
X131032172Y-138508508D01*
X131033251Y-138515805D01*
X131033975Y-138523156D01*
X131034539Y-138524519D01*
X131035040Y-138527901D01*
X131082659Y-138718376D01*
X131083172Y-138719813D01*
X131083224Y-138720536D01*
X131086332Y-138728660D01*
X131089254Y-138736837D01*
X131089684Y-138737417D01*
X131090230Y-138738844D01*
X131137849Y-138834082D01*
X131143131Y-138842474D01*
X131144144Y-138844918D01*
X131146400Y-138847667D01*
X131148292Y-138850672D01*
X131150286Y-138852401D01*
X131156581Y-138860071D01*
X131251819Y-138955311D01*
X131266972Y-138967747D01*
X131270291Y-138969122D01*
X131273007Y-138971477D01*
X131290907Y-138979468D01*
X131433764Y-139027087D01*
X131443436Y-139029286D01*
X131445878Y-139030298D01*
X131449415Y-139030646D01*
X131452879Y-139031434D01*
X131455513Y-139031246D01*
X131465387Y-139032219D01*
X131560625Y-139032219D01*
X131570498Y-139031246D01*
X131573132Y-139031434D01*
X131576595Y-139030646D01*
X131580134Y-139030298D01*
X131582576Y-139029286D01*
X131592248Y-139027087D01*
X131735104Y-138979468D01*
X131753005Y-138971477D01*
X131755720Y-138969122D01*
X131759040Y-138967747D01*
X131774193Y-138955310D01*
X131821812Y-138907690D01*
X131834249Y-138892537D01*
X131849180Y-138856488D01*
X131851101Y-138836980D01*
X131851101Y-138503647D01*
X131849180Y-138484138D01*
X131834248Y-138448090D01*
X131806658Y-138420500D01*
X131770610Y-138405568D01*
X131751101Y-138403647D01*
X131560625Y-138403647D01*
X131541116Y-138405568D01*
X131505068Y-138420500D01*
X131477478Y-138448090D01*
X131462546Y-138484138D01*
X131462546Y-138523156D01*
X131477478Y-138559204D01*
X131505068Y-138586794D01*
X131541116Y-138601726D01*
X131560625Y-138603647D01*
X131651101Y-138603647D01*
X131651101Y-138795559D01*
X131649462Y-138797197D01*
X131544398Y-138832219D01*
X131481613Y-138832219D01*
X131376548Y-138797197D01*
X131309478Y-138730127D01*
X131274024Y-138659218D01*
X131232054Y-138491337D01*
X131232054Y-138373100D01*
X131274024Y-138205218D01*
X131309477Y-138134312D01*
X131376549Y-138067240D01*
X131481613Y-138032219D01*
X131584637Y-138032219D01*
X131658760Y-138069281D01*
X131677069Y-138076287D01*
X131715989Y-138079053D01*
X131753005Y-138066714D01*
X131782482Y-138041149D01*
X131799931Y-138006251D01*
X131802696Y-137967331D01*
X131790993Y-137932219D01*
X132079673Y-137932219D01*
X132079673Y-138932219D01*
X132081594Y-138951728D01*
X132096526Y-138987776D01*
X132124116Y-139015366D01*
X132160164Y-139030298D01*
X132199182Y-139030298D01*
X132235230Y-139015366D01*
X132262820Y-138987776D01*
X132277752Y-138951728D01*
X132279673Y-138932219D01*
X132279673Y-138308775D01*
X132664277Y-138981833D01*
X132667195Y-138985943D01*
X132667954Y-138987776D01*
X132669820Y-138989642D01*
X132675624Y-138997818D01*
X132686140Y-139005962D01*
X132695544Y-139015366D01*
X132701431Y-139017804D01*
X132706473Y-139021709D01*
X132719305Y-139025208D01*
X132731592Y-139030298D01*
X132737968Y-139030298D01*
X132744117Y-139031975D01*
X132757310Y-139030298D01*
X132770610Y-139030298D01*
X132776498Y-139027858D01*
X132782823Y-139027055D01*
X132794372Y-139020454D01*
X132806658Y-139015366D01*
X132811165Y-139010858D01*
X132816700Y-139007696D01*
X132824844Y-138997179D01*
X132834248Y-138987776D01*
X132836686Y-138981888D01*
X132840591Y-138976847D01*
X132844090Y-138964014D01*
X132849180Y-138951728D01*
X132850162Y-138941750D01*
X132850857Y-138939204D01*
X132850606Y-138937236D01*
X132851101Y-138932219D01*
X132851101Y-137932219D01*
X133127292Y-137932219D01*
X133127292Y-138932219D01*
X133129213Y-138951728D01*
X133144145Y-138987776D01*
X133171735Y-139015366D01*
X133207783Y-139030298D01*
X133227292Y-139032219D01*
X133465387Y-139032219D01*
X133475260Y-139031246D01*
X133477894Y-139031434D01*
X133481357Y-139030646D01*
X133484896Y-139030298D01*
X133487338Y-139029286D01*
X133497010Y-139027087D01*
X133639866Y-138979468D01*
X133657767Y-138971477D01*
X133660482Y-138969122D01*
X133663802Y-138967747D01*
X133678955Y-138955310D01*
X133774193Y-138860071D01*
X133780485Y-138852404D01*
X133782482Y-138850673D01*
X133784375Y-138847665D01*
X133786630Y-138844918D01*
X133787641Y-138842476D01*
X133792925Y-138834082D01*
X133840544Y-138738845D01*
X133841090Y-138737416D01*
X133841520Y-138736837D01*
X133844441Y-138728660D01*
X133847550Y-138720536D01*
X133847601Y-138719815D01*
X133848115Y-138718377D01*
X133895734Y-138527901D01*
X133896234Y-138524519D01*
X133896799Y-138523156D01*
X133897522Y-138515805D01*
X133898602Y-138508508D01*
X133898384Y-138507049D01*
X133898720Y-138503647D01*
X133898720Y-138360790D01*
X133898384Y-138357387D01*
X133898602Y-138355929D01*
X133897522Y-138348631D01*
X133896799Y-138341281D01*
X133896234Y-138339917D01*
X133895734Y-138336536D01*
X133848115Y-138146060D01*
X133847601Y-138144621D01*
X133847550Y-138143901D01*
X133844441Y-138135776D01*
X133841520Y-138127600D01*
X133841090Y-138127020D01*
X133840544Y-138125592D01*
X133792925Y-138030355D01*
X133787638Y-138021956D01*
X133786629Y-138019519D01*
X133784377Y-138016775D01*
X133782482Y-138013764D01*
X133780484Y-138012031D01*
X133774193Y-138004365D01*
X133678955Y-137909127D01*
X133663801Y-137896691D01*
X133660482Y-137895316D01*
X133657767Y-137892961D01*
X133639866Y-137884970D01*
X133497010Y-137837351D01*
X133487338Y-137835151D01*
X133484896Y-137834140D01*
X133481357Y-137833791D01*
X133477894Y-137833004D01*
X133475260Y-137833191D01*
X133465387Y-137832219D01*
X133227292Y-137832219D01*
X133207783Y-137834140D01*
X133171735Y-137849072D01*
X133144145Y-137876662D01*
X133129213Y-137912710D01*
X133127292Y-137932219D01*
X132851101Y-137932219D01*
X132849180Y-137912710D01*
X132834248Y-137876662D01*
X132806658Y-137849072D01*
X132770610Y-137834140D01*
X132731592Y-137834140D01*
X132695544Y-137849072D01*
X132667954Y-137876662D01*
X132653022Y-137912710D01*
X132651101Y-137932219D01*
X132651101Y-138555662D01*
X132266497Y-137882605D01*
X132263578Y-137878494D01*
X132262820Y-137876662D01*
X132260953Y-137874795D01*
X132255150Y-137866620D01*
X132244635Y-137858477D01*
X132235230Y-137849072D01*
X132229339Y-137846632D01*
X132224301Y-137842730D01*
X132211472Y-137839231D01*
X132199182Y-137834140D01*
X132192807Y-137834140D01*
X132186658Y-137832463D01*
X132173465Y-137834140D01*
X132160164Y-137834140D01*
X132154275Y-137836579D01*
X132147951Y-137837383D01*
X132136401Y-137843983D01*
X132124116Y-137849072D01*
X132119608Y-137853579D01*
X132114074Y-137856742D01*
X132105931Y-137867256D01*
X132096526Y-137876662D01*
X132094086Y-137882552D01*
X132090184Y-137887591D01*
X132086685Y-137900419D01*
X132081594Y-137912710D01*
X132080611Y-137922687D01*
X132079917Y-137925234D01*
X132080167Y-137927201D01*
X132079673Y-137932219D01*
X131790993Y-137932219D01*
X131790358Y-137930315D01*
X131764793Y-137900838D01*
X131748203Y-137890395D01*
X131652965Y-137842776D01*
X131634657Y-137835770D01*
X131631073Y-137835515D01*
X131627753Y-137834140D01*
X131608244Y-137832219D01*
X131465387Y-137832219D01*
X131455513Y-137833191D01*
X131452879Y-137833004D01*
X131449415Y-137833791D01*
X131445878Y-137834140D01*
X131443436Y-137835151D01*
X131433764Y-137837351D01*
X131290907Y-137884970D01*
X131273007Y-137892961D01*
X131270291Y-137895316D01*
X131266973Y-137896691D01*
X131251819Y-137909127D01*
X131156581Y-138004365D01*
X131150286Y-138012035D01*
X131148292Y-138013765D01*
X131146398Y-138016772D01*
X131144145Y-138019519D01*
X131143134Y-138021958D01*
X131137849Y-138030355D01*
X131090230Y-138125593D01*
X131089684Y-138127019D01*
X131089254Y-138127600D01*
X131086332Y-138135776D01*
X131083224Y-138143901D01*
X131083172Y-138144623D01*
X131082659Y-138146061D01*
X131035040Y-138336536D01*
X131034539Y-138339917D01*
X131033975Y-138341281D01*
X131033251Y-138348631D01*
X131032172Y-138355929D01*
X131032389Y-138357387D01*
X131032054Y-138360790D01*
X130920943Y-138360790D01*
X130920943Y-137721108D01*
X134009831Y-137721108D01*
X134009831Y-139143330D01*
G37*
G36*
X134008855Y-136603330D02*
G01*
X129446483Y-136603330D01*
X129446483Y-135991757D01*
X129557594Y-135991757D01*
X129557594Y-136030775D01*
X129572526Y-136066823D01*
X129600116Y-136094413D01*
X129636164Y-136109345D01*
X129655673Y-136111266D01*
X129936625Y-136111266D01*
X129936625Y-136392219D01*
X129938546Y-136411728D01*
X129953478Y-136447776D01*
X129981068Y-136475366D01*
X130017116Y-136490298D01*
X130056134Y-136490298D01*
X130092182Y-136475366D01*
X130119772Y-136447776D01*
X130134704Y-136411728D01*
X130136625Y-136392219D01*
X130136625Y-136111266D01*
X130417578Y-136111266D01*
X130437087Y-136109345D01*
X130473135Y-136094413D01*
X130500725Y-136066823D01*
X130515657Y-136030775D01*
X130515657Y-135991757D01*
X130500725Y-135955709D01*
X130473135Y-135928119D01*
X130437087Y-135913187D01*
X130417578Y-135911266D01*
X130136625Y-135911266D01*
X130136625Y-135630314D01*
X130134704Y-135610805D01*
X130119772Y-135574757D01*
X130092182Y-135547167D01*
X130056134Y-135532235D01*
X130017116Y-135532235D01*
X129981068Y-135547167D01*
X129953478Y-135574757D01*
X129938546Y-135610805D01*
X129936625Y-135630314D01*
X129936625Y-135911266D01*
X129655673Y-135911266D01*
X129636164Y-135913187D01*
X129600116Y-135928119D01*
X129572526Y-135955709D01*
X129557594Y-135991757D01*
X129446483Y-135991757D01*
X129446483Y-135372710D01*
X130700451Y-135372710D01*
X130700451Y-135411728D01*
X130715383Y-135447776D01*
X130742973Y-135475366D01*
X130779021Y-135490298D01*
X130798530Y-135492219D01*
X131197200Y-135492219D01*
X131008986Y-135707321D01*
X131002956Y-135715754D01*
X131001097Y-135717614D01*
X131000366Y-135719377D01*
X130997585Y-135723268D01*
X130992380Y-135738656D01*
X130986165Y-135753662D01*
X130986165Y-135757035D01*
X130985085Y-135760229D01*
X130986165Y-135776431D01*
X130986165Y-135792680D01*
X130987455Y-135795795D01*
X130987680Y-135799161D01*
X130994880Y-135813721D01*
X131001097Y-135828728D01*
X131003481Y-135831112D01*
X131004977Y-135834136D01*
X131017202Y-135844833D01*
X131028687Y-135856318D01*
X131031801Y-135857608D01*
X131034341Y-135859830D01*
X131049729Y-135865034D01*
X131064735Y-135871250D01*
X131069494Y-135871718D01*
X131071302Y-135872330D01*
X131073926Y-135872155D01*
X131084244Y-135873171D01*
X131203494Y-135873171D01*
X131263103Y-135902976D01*
X131287772Y-135927644D01*
X131317577Y-135987254D01*
X131317577Y-136178135D01*
X131287772Y-136237743D01*
X131263103Y-136262413D01*
X131203494Y-136292219D01*
X130964994Y-136292219D01*
X130905384Y-136262414D01*
X130869241Y-136226270D01*
X130854088Y-136213833D01*
X130818040Y-136198902D01*
X130779022Y-136198901D01*
X130742973Y-136213832D01*
X130715383Y-136241422D01*
X130700452Y-136277470D01*
X130700451Y-136316488D01*
X130715382Y-136352537D01*
X130727819Y-136367690D01*
X130775437Y-136415310D01*
X130783105Y-136421603D01*
X130784837Y-136423600D01*
X130787845Y-136425493D01*
X130790591Y-136427747D01*
X130793031Y-136428757D01*
X130801428Y-136434043D01*
X130896665Y-136481662D01*
X130914974Y-136488668D01*
X130918557Y-136488922D01*
X130921878Y-136490298D01*
X130941387Y-136492219D01*
X131227101Y-136492219D01*
X131246610Y-136490298D01*
X131249930Y-136488922D01*
X131253514Y-136488668D01*
X131271822Y-136481662D01*
X131367060Y-136434043D01*
X131375455Y-136428758D01*
X131377897Y-136427747D01*
X131380644Y-136425491D01*
X131383650Y-136423600D01*
X131385380Y-136421605D01*
X131393050Y-136415310D01*
X131440669Y-136367690D01*
X131446961Y-136360023D01*
X131448958Y-136358292D01*
X131450851Y-136355284D01*
X131453106Y-136352537D01*
X131454117Y-136350095D01*
X131459401Y-136341701D01*
X131467706Y-136325091D01*
X131700451Y-136325091D01*
X131700451Y-136364109D01*
X131706914Y-136379711D01*
X131715383Y-136400158D01*
X131715387Y-136400162D01*
X131727819Y-136415311D01*
X131775438Y-136462929D01*
X131790591Y-136475366D01*
X131799594Y-136479095D01*
X131826640Y-136490298D01*
X131865658Y-136490298D01*
X131901706Y-136475366D01*
X131916860Y-136462930D01*
X131964478Y-136415311D01*
X131976915Y-136400158D01*
X131983667Y-136383856D01*
X131991846Y-136364110D01*
X131991847Y-136325092D01*
X131976916Y-136289043D01*
X131964479Y-136273890D01*
X131916860Y-136226270D01*
X131901707Y-136213833D01*
X131886775Y-136207648D01*
X131865658Y-136198901D01*
X131826640Y-136198901D01*
X131816082Y-136203274D01*
X131790592Y-136213832D01*
X131790591Y-136213833D01*
X131775437Y-136226270D01*
X131727819Y-136273890D01*
X131715382Y-136289043D01*
X131705369Y-136313219D01*
X131700451Y-136325091D01*
X131467706Y-136325091D01*
X131507020Y-136246464D01*
X131514026Y-136228155D01*
X131514280Y-136224571D01*
X131515656Y-136221251D01*
X131517577Y-136201742D01*
X131517577Y-135963647D01*
X131515656Y-135944138D01*
X131514280Y-135940817D01*
X131514026Y-135937234D01*
X131507020Y-135918925D01*
X131459401Y-135823688D01*
X131454115Y-135815291D01*
X131453105Y-135812851D01*
X131450851Y-135810105D01*
X131448958Y-135807097D01*
X131446960Y-135805364D01*
X131440668Y-135797698D01*
X131393050Y-135750079D01*
X131385379Y-135743784D01*
X131383650Y-135741790D01*
X131380642Y-135739896D01*
X131377896Y-135737643D01*
X131375456Y-135736632D01*
X131367060Y-135731347D01*
X131288212Y-135691923D01*
X131492835Y-135458069D01*
X131498864Y-135449635D01*
X131500724Y-135447776D01*
X131501454Y-135446012D01*
X131504236Y-135442122D01*
X131509440Y-135426733D01*
X131515656Y-135411728D01*
X131515656Y-135408354D01*
X131516736Y-135405161D01*
X131515656Y-135388958D01*
X131515656Y-135372710D01*
X132129022Y-135372710D01*
X132129022Y-135411728D01*
X132143954Y-135447776D01*
X132171544Y-135475366D01*
X132207592Y-135490298D01*
X132227101Y-135492219D01*
X132625771Y-135492219D01*
X132437557Y-135707321D01*
X132431527Y-135715754D01*
X132429668Y-135717614D01*
X132428937Y-135719377D01*
X132426156Y-135723268D01*
X132420951Y-135738656D01*
X132414736Y-135753662D01*
X132414736Y-135757035D01*
X132413656Y-135760229D01*
X132414736Y-135776431D01*
X132414736Y-135792680D01*
X132416026Y-135795795D01*
X132416251Y-135799161D01*
X132423451Y-135813721D01*
X132429668Y-135828728D01*
X132432052Y-135831112D01*
X132433548Y-135834136D01*
X132445773Y-135844833D01*
X132457258Y-135856318D01*
X132460372Y-135857608D01*
X132462912Y-135859830D01*
X132478300Y-135865034D01*
X132493306Y-135871250D01*
X132498065Y-135871718D01*
X132499873Y-135872330D01*
X132502497Y-135872155D01*
X132512815Y-135873171D01*
X132632065Y-135873171D01*
X132691674Y-135902976D01*
X132716343Y-135927644D01*
X132746148Y-135987254D01*
X132746148Y-136178135D01*
X132716343Y-136237743D01*
X132691674Y-136262413D01*
X132632065Y-136292219D01*
X132393565Y-136292219D01*
X132333955Y-136262414D01*
X132297812Y-136226270D01*
X132282659Y-136213833D01*
X132246611Y-136198902D01*
X132207593Y-136198901D01*
X132171544Y-136213832D01*
X132143954Y-136241422D01*
X132129023Y-136277470D01*
X132129022Y-136316488D01*
X132143953Y-136352537D01*
X132156390Y-136367690D01*
X132204008Y-136415310D01*
X132211676Y-136421603D01*
X132213408Y-136423600D01*
X132216416Y-136425493D01*
X132219162Y-136427747D01*
X132221602Y-136428757D01*
X132229999Y-136434043D01*
X132325236Y-136481662D01*
X132343545Y-136488668D01*
X132347128Y-136488922D01*
X132350449Y-136490298D01*
X132369958Y-136492219D01*
X132655672Y-136492219D01*
X132675181Y-136490298D01*
X132678501Y-136488922D01*
X132682085Y-136488668D01*
X132700393Y-136481662D01*
X132795631Y-136434043D01*
X132804026Y-136428758D01*
X132806468Y-136427747D01*
X132809215Y-136425491D01*
X132812221Y-136423600D01*
X132813951Y-136421605D01*
X132821621Y-136415310D01*
X132869240Y-136367690D01*
X132875532Y-136360023D01*
X132877529Y-136358292D01*
X132879422Y-136355284D01*
X132881677Y-136352537D01*
X132882688Y-136350095D01*
X132887972Y-136341701D01*
X132935591Y-136246464D01*
X132942597Y-136228155D01*
X132942851Y-136224571D01*
X132944227Y-136221251D01*
X132946148Y-136201742D01*
X132946148Y-135963647D01*
X132944227Y-135944138D01*
X132942851Y-135940817D01*
X132942597Y-135937234D01*
X132935591Y-135918925D01*
X132887972Y-135823688D01*
X132882686Y-135815291D01*
X132881676Y-135812851D01*
X132879422Y-135810105D01*
X132877529Y-135807097D01*
X132875531Y-135805364D01*
X132869239Y-135797698D01*
X132821621Y-135750079D01*
X132813950Y-135743784D01*
X132812221Y-135741790D01*
X132809213Y-135739896D01*
X132806467Y-135737643D01*
X132804027Y-135736632D01*
X132795631Y-135731347D01*
X132716783Y-135691923D01*
X132921406Y-135458069D01*
X132927435Y-135449635D01*
X132929295Y-135447776D01*
X132930025Y-135446012D01*
X132932807Y-135442122D01*
X132938011Y-135426733D01*
X132944227Y-135411728D01*
X132944227Y-135408354D01*
X132945307Y-135405161D01*
X132945278Y-135404726D01*
X133032648Y-135404726D01*
X133036995Y-135423842D01*
X133370328Y-136423841D01*
X133378319Y-136441742D01*
X133383002Y-136447141D01*
X133386197Y-136453531D01*
X133395668Y-136461746D01*
X133403884Y-136471218D01*
X133410272Y-136474412D01*
X133415673Y-136479096D01*
X133427574Y-136483063D01*
X133438783Y-136488667D01*
X133445907Y-136489173D01*
X133452689Y-136491434D01*
X133465198Y-136490544D01*
X133477703Y-136491434D01*
X133484481Y-136489174D01*
X133491609Y-136488668D01*
X133502825Y-136483059D01*
X133514719Y-136479095D01*
X133520116Y-136474414D01*
X133526508Y-136471218D01*
X133534726Y-136461742D01*
X133544195Y-136453530D01*
X133547388Y-136447143D01*
X133552073Y-136441742D01*
X133560064Y-136423842D01*
X133893397Y-135423842D01*
X133897744Y-135404727D01*
X133894978Y-135365807D01*
X133877528Y-135330908D01*
X133848052Y-135305343D01*
X133811036Y-135293004D01*
X133772116Y-135295771D01*
X133737217Y-135313220D01*
X133711652Y-135342696D01*
X133703661Y-135360597D01*
X133465196Y-136075991D01*
X133226731Y-135360596D01*
X133218740Y-135342696D01*
X133193175Y-135313220D01*
X133158276Y-135295770D01*
X133119356Y-135293004D01*
X133082340Y-135305342D01*
X133052864Y-135330907D01*
X133035414Y-135365806D01*
X133032648Y-135404726D01*
X132945278Y-135404726D01*
X132944227Y-135388958D01*
X132944227Y-135372710D01*
X132942936Y-135369594D01*
X132942712Y-135366229D01*
X132935509Y-135351663D01*
X132929295Y-135336662D01*
X132926911Y-135334278D01*
X132925416Y-135331254D01*
X132913182Y-135320549D01*
X132901705Y-135309072D01*
X132898591Y-135307782D01*
X132896052Y-135305560D01*
X132880660Y-135300354D01*
X132865657Y-135294140D01*
X132860897Y-135293671D01*
X132859090Y-135293060D01*
X132856465Y-135293234D01*
X132846148Y-135292219D01*
X132227101Y-135292219D01*
X132207592Y-135294140D01*
X132171544Y-135309072D01*
X132143954Y-135336662D01*
X132129022Y-135372710D01*
X131515656Y-135372710D01*
X131514365Y-135369594D01*
X131514141Y-135366229D01*
X131506938Y-135351663D01*
X131500724Y-135336662D01*
X131498340Y-135334278D01*
X131496845Y-135331254D01*
X131484611Y-135320549D01*
X131473134Y-135309072D01*
X131470020Y-135307782D01*
X131467481Y-135305560D01*
X131452089Y-135300354D01*
X131437086Y-135294140D01*
X131432326Y-135293671D01*
X131430519Y-135293060D01*
X131427894Y-135293234D01*
X131417577Y-135292219D01*
X130798530Y-135292219D01*
X130779021Y-135294140D01*
X130742973Y-135309072D01*
X130715383Y-135336662D01*
X130700451Y-135372710D01*
X129446483Y-135372710D01*
X129446483Y-135181108D01*
X134008855Y-135181108D01*
X134008855Y-136603330D01*
G37*
X119507000Y-75144219D02*
X119507000Y-75382314D01*
X119268905Y-75287076D02*
X119507000Y-75382314D01*
X119507000Y-75382314D02*
X119745095Y-75287076D01*
X119364143Y-75572790D02*
X119507000Y-75382314D01*
X119507000Y-75382314D02*
X119649857Y-75572790D01*
X147859761Y-87476457D02*
X147764523Y-87428838D01*
X147764523Y-87428838D02*
X147669285Y-87333600D01*
X147669285Y-87333600D02*
X147526428Y-87190742D01*
X147526428Y-87190742D02*
X147431190Y-87143123D01*
X147431190Y-87143123D02*
X147335952Y-87143123D01*
X147383571Y-87381219D02*
X147288333Y-87333600D01*
X147288333Y-87333600D02*
X147193095Y-87238361D01*
X147193095Y-87238361D02*
X147145476Y-87047885D01*
X147145476Y-87047885D02*
X147145476Y-86714552D01*
X147145476Y-86714552D02*
X147193095Y-86524076D01*
X147193095Y-86524076D02*
X147288333Y-86428838D01*
X147288333Y-86428838D02*
X147383571Y-86381219D01*
X147383571Y-86381219D02*
X147574047Y-86381219D01*
X147574047Y-86381219D02*
X147669285Y-86428838D01*
X147669285Y-86428838D02*
X147764523Y-86524076D01*
X147764523Y-86524076D02*
X147812142Y-86714552D01*
X147812142Y-86714552D02*
X147812142Y-87047885D01*
X147812142Y-87047885D02*
X147764523Y-87238361D01*
X147764523Y-87238361D02*
X147669285Y-87333600D01*
X147669285Y-87333600D02*
X147574047Y-87381219D01*
X147574047Y-87381219D02*
X147383571Y-87381219D01*
X148764523Y-87381219D02*
X148193095Y-87381219D01*
X148478809Y-87381219D02*
X148478809Y-86381219D01*
X148478809Y-86381219D02*
X148383571Y-86524076D01*
X148383571Y-86524076D02*
X148288333Y-86619314D01*
X148288333Y-86619314D02*
X148193095Y-86666933D01*
X127222476Y-97591409D02*
X126889143Y-97591409D01*
X126889143Y-98115219D02*
X126889143Y-97115219D01*
X126889143Y-97115219D02*
X127365333Y-97115219D01*
X128317714Y-98115219D02*
X127984381Y-97639028D01*
X127746286Y-98115219D02*
X127746286Y-97115219D01*
X127746286Y-97115219D02*
X128127238Y-97115219D01*
X128127238Y-97115219D02*
X128222476Y-97162838D01*
X128222476Y-97162838D02*
X128270095Y-97210457D01*
X128270095Y-97210457D02*
X128317714Y-97305695D01*
X128317714Y-97305695D02*
X128317714Y-97448552D01*
X128317714Y-97448552D02*
X128270095Y-97543790D01*
X128270095Y-97543790D02*
X128222476Y-97591409D01*
X128222476Y-97591409D02*
X128127238Y-97639028D01*
X128127238Y-97639028D02*
X127746286Y-97639028D01*
X128746286Y-97591409D02*
X129079619Y-97591409D01*
X129222476Y-98115219D02*
X128746286Y-98115219D01*
X128746286Y-98115219D02*
X128746286Y-97115219D01*
X128746286Y-97115219D02*
X129222476Y-97115219D01*
X130317714Y-98210457D02*
X130222476Y-98162838D01*
X130222476Y-98162838D02*
X130127238Y-98067600D01*
X130127238Y-98067600D02*
X129984381Y-97924742D01*
X129984381Y-97924742D02*
X129889143Y-97877123D01*
X129889143Y-97877123D02*
X129793905Y-97877123D01*
X129841524Y-98115219D02*
X129746286Y-98067600D01*
X129746286Y-98067600D02*
X129651048Y-97972361D01*
X129651048Y-97972361D02*
X129603429Y-97781885D01*
X129603429Y-97781885D02*
X129603429Y-97448552D01*
X129603429Y-97448552D02*
X129651048Y-97258076D01*
X129651048Y-97258076D02*
X129746286Y-97162838D01*
X129746286Y-97162838D02*
X129841524Y-97115219D01*
X129841524Y-97115219D02*
X130032000Y-97115219D01*
X130032000Y-97115219D02*
X130127238Y-97162838D01*
X130127238Y-97162838D02*
X130222476Y-97258076D01*
X130222476Y-97258076D02*
X130270095Y-97448552D01*
X130270095Y-97448552D02*
X130270095Y-97781885D01*
X130270095Y-97781885D02*
X130222476Y-97972361D01*
X130222476Y-97972361D02*
X130127238Y-98067600D01*
X130127238Y-98067600D02*
X130032000Y-98115219D01*
X130032000Y-98115219D02*
X129841524Y-98115219D01*
X131222476Y-98115219D02*
X130651048Y-98115219D01*
X130936762Y-98115219D02*
X130936762Y-97115219D01*
X130936762Y-97115219D02*
X130841524Y-97258076D01*
X130841524Y-97258076D02*
X130746286Y-97353314D01*
X130746286Y-97353314D02*
X130651048Y-97400933D01*
X108529333Y-73731219D02*
X108196000Y-73255028D01*
X107957905Y-73731219D02*
X107957905Y-72731219D01*
X107957905Y-72731219D02*
X108338857Y-72731219D01*
X108338857Y-72731219D02*
X108434095Y-72778838D01*
X108434095Y-72778838D02*
X108481714Y-72826457D01*
X108481714Y-72826457D02*
X108529333Y-72921695D01*
X108529333Y-72921695D02*
X108529333Y-73064552D01*
X108529333Y-73064552D02*
X108481714Y-73159790D01*
X108481714Y-73159790D02*
X108434095Y-73207409D01*
X108434095Y-73207409D02*
X108338857Y-73255028D01*
X108338857Y-73255028D02*
X107957905Y-73255028D01*
X108862667Y-72731219D02*
X109481714Y-72731219D01*
X109481714Y-72731219D02*
X109148381Y-73112171D01*
X109148381Y-73112171D02*
X109291238Y-73112171D01*
X109291238Y-73112171D02*
X109386476Y-73159790D01*
X109386476Y-73159790D02*
X109434095Y-73207409D01*
X109434095Y-73207409D02*
X109481714Y-73302647D01*
X109481714Y-73302647D02*
X109481714Y-73540742D01*
X109481714Y-73540742D02*
X109434095Y-73635980D01*
X109434095Y-73635980D02*
X109386476Y-73683600D01*
X109386476Y-73683600D02*
X109291238Y-73731219D01*
X109291238Y-73731219D02*
X109005524Y-73731219D01*
X109005524Y-73731219D02*
X108910286Y-73683600D01*
X108910286Y-73683600D02*
X108862667Y-73635980D01*
X139184142Y-73604219D02*
X138850809Y-73128028D01*
X138612714Y-73604219D02*
X138612714Y-72604219D01*
X138612714Y-72604219D02*
X138993666Y-72604219D01*
X138993666Y-72604219D02*
X139088904Y-72651838D01*
X139088904Y-72651838D02*
X139136523Y-72699457D01*
X139136523Y-72699457D02*
X139184142Y-72794695D01*
X139184142Y-72794695D02*
X139184142Y-72937552D01*
X139184142Y-72937552D02*
X139136523Y-73032790D01*
X139136523Y-73032790D02*
X139088904Y-73080409D01*
X139088904Y-73080409D02*
X138993666Y-73128028D01*
X138993666Y-73128028D02*
X138612714Y-73128028D01*
X140041285Y-72604219D02*
X139850809Y-72604219D01*
X139850809Y-72604219D02*
X139755571Y-72651838D01*
X139755571Y-72651838D02*
X139707952Y-72699457D01*
X139707952Y-72699457D02*
X139612714Y-72842314D01*
X139612714Y-72842314D02*
X139565095Y-73032790D01*
X139565095Y-73032790D02*
X139565095Y-73413742D01*
X139565095Y-73413742D02*
X139612714Y-73508980D01*
X139612714Y-73508980D02*
X139660333Y-73556600D01*
X139660333Y-73556600D02*
X139755571Y-73604219D01*
X139755571Y-73604219D02*
X139946047Y-73604219D01*
X139946047Y-73604219D02*
X140041285Y-73556600D01*
X140041285Y-73556600D02*
X140088904Y-73508980D01*
X140088904Y-73508980D02*
X140136523Y-73413742D01*
X140136523Y-73413742D02*
X140136523Y-73175647D01*
X140136523Y-73175647D02*
X140088904Y-73080409D01*
X140088904Y-73080409D02*
X140041285Y-73032790D01*
X140041285Y-73032790D02*
X139946047Y-72985171D01*
X139946047Y-72985171D02*
X139755571Y-72985171D01*
X139755571Y-72985171D02*
X139660333Y-73032790D01*
X139660333Y-73032790D02*
X139612714Y-73080409D01*
X139612714Y-73080409D02*
X139565095Y-73175647D01*
X140755571Y-72604219D02*
X140850809Y-72604219D01*
X140850809Y-72604219D02*
X140946047Y-72651838D01*
X140946047Y-72651838D02*
X140993666Y-72699457D01*
X140993666Y-72699457D02*
X141041285Y-72794695D01*
X141041285Y-72794695D02*
X141088904Y-72985171D01*
X141088904Y-72985171D02*
X141088904Y-73223266D01*
X141088904Y-73223266D02*
X141041285Y-73413742D01*
X141041285Y-73413742D02*
X140993666Y-73508980D01*
X140993666Y-73508980D02*
X140946047Y-73556600D01*
X140946047Y-73556600D02*
X140850809Y-73604219D01*
X140850809Y-73604219D02*
X140755571Y-73604219D01*
X140755571Y-73604219D02*
X140660333Y-73556600D01*
X140660333Y-73556600D02*
X140612714Y-73508980D01*
X140612714Y-73508980D02*
X140565095Y-73413742D01*
X140565095Y-73413742D02*
X140517476Y-73223266D01*
X140517476Y-73223266D02*
X140517476Y-72985171D01*
X140517476Y-72985171D02*
X140565095Y-72794695D01*
X140565095Y-72794695D02*
X140612714Y-72699457D01*
X140612714Y-72699457D02*
X140660333Y-72651838D01*
X140660333Y-72651838D02*
X140755571Y-72604219D01*
X134485142Y-71826219D02*
X134151809Y-71350028D01*
X133913714Y-71826219D02*
X133913714Y-70826219D01*
X133913714Y-70826219D02*
X134294666Y-70826219D01*
X134294666Y-70826219D02*
X134389904Y-70873838D01*
X134389904Y-70873838D02*
X134437523Y-70921457D01*
X134437523Y-70921457D02*
X134485142Y-71016695D01*
X134485142Y-71016695D02*
X134485142Y-71159552D01*
X134485142Y-71159552D02*
X134437523Y-71254790D01*
X134437523Y-71254790D02*
X134389904Y-71302409D01*
X134389904Y-71302409D02*
X134294666Y-71350028D01*
X134294666Y-71350028D02*
X133913714Y-71350028D01*
X135389904Y-70826219D02*
X134913714Y-70826219D01*
X134913714Y-70826219D02*
X134866095Y-71302409D01*
X134866095Y-71302409D02*
X134913714Y-71254790D01*
X134913714Y-71254790D02*
X135008952Y-71207171D01*
X135008952Y-71207171D02*
X135247047Y-71207171D01*
X135247047Y-71207171D02*
X135342285Y-71254790D01*
X135342285Y-71254790D02*
X135389904Y-71302409D01*
X135389904Y-71302409D02*
X135437523Y-71397647D01*
X135437523Y-71397647D02*
X135437523Y-71635742D01*
X135437523Y-71635742D02*
X135389904Y-71730980D01*
X135389904Y-71730980D02*
X135342285Y-71778600D01*
X135342285Y-71778600D02*
X135247047Y-71826219D01*
X135247047Y-71826219D02*
X135008952Y-71826219D01*
X135008952Y-71826219D02*
X134913714Y-71778600D01*
X134913714Y-71778600D02*
X134866095Y-71730980D01*
X135770857Y-70826219D02*
X136437523Y-70826219D01*
X136437523Y-70826219D02*
X136008952Y-71826219D01*
X143597333Y-120848219D02*
X143264000Y-120372028D01*
X143025905Y-120848219D02*
X143025905Y-119848219D01*
X143025905Y-119848219D02*
X143406857Y-119848219D01*
X143406857Y-119848219D02*
X143502095Y-119895838D01*
X143502095Y-119895838D02*
X143549714Y-119943457D01*
X143549714Y-119943457D02*
X143597333Y-120038695D01*
X143597333Y-120038695D02*
X143597333Y-120181552D01*
X143597333Y-120181552D02*
X143549714Y-120276790D01*
X143549714Y-120276790D02*
X143502095Y-120324409D01*
X143502095Y-120324409D02*
X143406857Y-120372028D01*
X143406857Y-120372028D02*
X143025905Y-120372028D01*
X144502095Y-119848219D02*
X144025905Y-119848219D01*
X144025905Y-119848219D02*
X143978286Y-120324409D01*
X143978286Y-120324409D02*
X144025905Y-120276790D01*
X144025905Y-120276790D02*
X144121143Y-120229171D01*
X144121143Y-120229171D02*
X144359238Y-120229171D01*
X144359238Y-120229171D02*
X144454476Y-120276790D01*
X144454476Y-120276790D02*
X144502095Y-120324409D01*
X144502095Y-120324409D02*
X144549714Y-120419647D01*
X144549714Y-120419647D02*
X144549714Y-120657742D01*
X144549714Y-120657742D02*
X144502095Y-120752980D01*
X144502095Y-120752980D02*
X144454476Y-120800600D01*
X144454476Y-120800600D02*
X144359238Y-120848219D01*
X144359238Y-120848219D02*
X144121143Y-120848219D01*
X144121143Y-120848219D02*
X144025905Y-120800600D01*
X144025905Y-120800600D02*
X143978286Y-120752980D01*
X153503333Y-121610219D02*
X153170000Y-121134028D01*
X152931905Y-121610219D02*
X152931905Y-120610219D01*
X152931905Y-120610219D02*
X153312857Y-120610219D01*
X153312857Y-120610219D02*
X153408095Y-120657838D01*
X153408095Y-120657838D02*
X153455714Y-120705457D01*
X153455714Y-120705457D02*
X153503333Y-120800695D01*
X153503333Y-120800695D02*
X153503333Y-120943552D01*
X153503333Y-120943552D02*
X153455714Y-121038790D01*
X153455714Y-121038790D02*
X153408095Y-121086409D01*
X153408095Y-121086409D02*
X153312857Y-121134028D01*
X153312857Y-121134028D02*
X152931905Y-121134028D01*
X154360476Y-120610219D02*
X154170000Y-120610219D01*
X154170000Y-120610219D02*
X154074762Y-120657838D01*
X154074762Y-120657838D02*
X154027143Y-120705457D01*
X154027143Y-120705457D02*
X153931905Y-120848314D01*
X153931905Y-120848314D02*
X153884286Y-121038790D01*
X153884286Y-121038790D02*
X153884286Y-121419742D01*
X153884286Y-121419742D02*
X153931905Y-121514980D01*
X153931905Y-121514980D02*
X153979524Y-121562600D01*
X153979524Y-121562600D02*
X154074762Y-121610219D01*
X154074762Y-121610219D02*
X154265238Y-121610219D01*
X154265238Y-121610219D02*
X154360476Y-121562600D01*
X154360476Y-121562600D02*
X154408095Y-121514980D01*
X154408095Y-121514980D02*
X154455714Y-121419742D01*
X154455714Y-121419742D02*
X154455714Y-121181647D01*
X154455714Y-121181647D02*
X154408095Y-121086409D01*
X154408095Y-121086409D02*
X154360476Y-121038790D01*
X154360476Y-121038790D02*
X154265238Y-120991171D01*
X154265238Y-120991171D02*
X154074762Y-120991171D01*
X154074762Y-120991171D02*
X153979524Y-121038790D01*
X153979524Y-121038790D02*
X153931905Y-121086409D01*
X153931905Y-121086409D02*
X153884286Y-121181647D01*
X112228333Y-76652219D02*
X111895000Y-76176028D01*
X111656905Y-76652219D02*
X111656905Y-75652219D01*
X111656905Y-75652219D02*
X112037857Y-75652219D01*
X112037857Y-75652219D02*
X112133095Y-75699838D01*
X112133095Y-75699838D02*
X112180714Y-75747457D01*
X112180714Y-75747457D02*
X112228333Y-75842695D01*
X112228333Y-75842695D02*
X112228333Y-75985552D01*
X112228333Y-75985552D02*
X112180714Y-76080790D01*
X112180714Y-76080790D02*
X112133095Y-76128409D01*
X112133095Y-76128409D02*
X112037857Y-76176028D01*
X112037857Y-76176028D02*
X111656905Y-76176028D01*
X113085476Y-75985552D02*
X113085476Y-76652219D01*
X112847381Y-75604600D02*
X112609286Y-76318885D01*
X112609286Y-76318885D02*
X113228333Y-76318885D01*
X129246333Y-95575219D02*
X128913000Y-95099028D01*
X128674905Y-95575219D02*
X128674905Y-94575219D01*
X128674905Y-94575219D02*
X129055857Y-94575219D01*
X129055857Y-94575219D02*
X129151095Y-94622838D01*
X129151095Y-94622838D02*
X129198714Y-94670457D01*
X129198714Y-94670457D02*
X129246333Y-94765695D01*
X129246333Y-94765695D02*
X129246333Y-94908552D01*
X129246333Y-94908552D02*
X129198714Y-95003790D01*
X129198714Y-95003790D02*
X129151095Y-95051409D01*
X129151095Y-95051409D02*
X129055857Y-95099028D01*
X129055857Y-95099028D02*
X128674905Y-95099028D01*
X130198714Y-95575219D02*
X129627286Y-95575219D01*
X129913000Y-95575219D02*
X129913000Y-94575219D01*
X129913000Y-94575219D02*
X129817762Y-94718076D01*
X129817762Y-94718076D02*
X129722524Y-94813314D01*
X129722524Y-94813314D02*
X129627286Y-94860933D01*
X128865333Y-71730980D02*
X128817714Y-71778600D01*
X128817714Y-71778600D02*
X128674857Y-71826219D01*
X128674857Y-71826219D02*
X128579619Y-71826219D01*
X128579619Y-71826219D02*
X128436762Y-71778600D01*
X128436762Y-71778600D02*
X128341524Y-71683361D01*
X128341524Y-71683361D02*
X128293905Y-71588123D01*
X128293905Y-71588123D02*
X128246286Y-71397647D01*
X128246286Y-71397647D02*
X128246286Y-71254790D01*
X128246286Y-71254790D02*
X128293905Y-71064314D01*
X128293905Y-71064314D02*
X128341524Y-70969076D01*
X128341524Y-70969076D02*
X128436762Y-70873838D01*
X128436762Y-70873838D02*
X128579619Y-70826219D01*
X128579619Y-70826219D02*
X128674857Y-70826219D01*
X128674857Y-70826219D02*
X128817714Y-70873838D01*
X128817714Y-70873838D02*
X128865333Y-70921457D01*
X129198667Y-70826219D02*
X129865333Y-70826219D01*
X129865333Y-70826219D02*
X129436762Y-71826219D01*
X129881333Y-128880980D02*
X129833714Y-128928600D01*
X129833714Y-128928600D02*
X129690857Y-128976219D01*
X129690857Y-128976219D02*
X129595619Y-128976219D01*
X129595619Y-128976219D02*
X129452762Y-128928600D01*
X129452762Y-128928600D02*
X129357524Y-128833361D01*
X129357524Y-128833361D02*
X129309905Y-128738123D01*
X129309905Y-128738123D02*
X129262286Y-128547647D01*
X129262286Y-128547647D02*
X129262286Y-128404790D01*
X129262286Y-128404790D02*
X129309905Y-128214314D01*
X129309905Y-128214314D02*
X129357524Y-128119076D01*
X129357524Y-128119076D02*
X129452762Y-128023838D01*
X129452762Y-128023838D02*
X129595619Y-127976219D01*
X129595619Y-127976219D02*
X129690857Y-127976219D01*
X129690857Y-127976219D02*
X129833714Y-128023838D01*
X129833714Y-128023838D02*
X129881333Y-128071457D01*
X130738476Y-127976219D02*
X130548000Y-127976219D01*
X130548000Y-127976219D02*
X130452762Y-128023838D01*
X130452762Y-128023838D02*
X130405143Y-128071457D01*
X130405143Y-128071457D02*
X130309905Y-128214314D01*
X130309905Y-128214314D02*
X130262286Y-128404790D01*
X130262286Y-128404790D02*
X130262286Y-128785742D01*
X130262286Y-128785742D02*
X130309905Y-128880980D01*
X130309905Y-128880980D02*
X130357524Y-128928600D01*
X130357524Y-128928600D02*
X130452762Y-128976219D01*
X130452762Y-128976219D02*
X130643238Y-128976219D01*
X130643238Y-128976219D02*
X130738476Y-128928600D01*
X130738476Y-128928600D02*
X130786095Y-128880980D01*
X130786095Y-128880980D02*
X130833714Y-128785742D01*
X130833714Y-128785742D02*
X130833714Y-128547647D01*
X130833714Y-128547647D02*
X130786095Y-128452409D01*
X130786095Y-128452409D02*
X130738476Y-128404790D01*
X130738476Y-128404790D02*
X130643238Y-128357171D01*
X130643238Y-128357171D02*
X130452762Y-128357171D01*
X130452762Y-128357171D02*
X130357524Y-128404790D01*
X130357524Y-128404790D02*
X130309905Y-128452409D01*
X130309905Y-128452409D02*
X130262286Y-128547647D01*
X131659333Y-71603980D02*
X131611714Y-71651600D01*
X131611714Y-71651600D02*
X131468857Y-71699219D01*
X131468857Y-71699219D02*
X131373619Y-71699219D01*
X131373619Y-71699219D02*
X131230762Y-71651600D01*
X131230762Y-71651600D02*
X131135524Y-71556361D01*
X131135524Y-71556361D02*
X131087905Y-71461123D01*
X131087905Y-71461123D02*
X131040286Y-71270647D01*
X131040286Y-71270647D02*
X131040286Y-71127790D01*
X131040286Y-71127790D02*
X131087905Y-70937314D01*
X131087905Y-70937314D02*
X131135524Y-70842076D01*
X131135524Y-70842076D02*
X131230762Y-70746838D01*
X131230762Y-70746838D02*
X131373619Y-70699219D01*
X131373619Y-70699219D02*
X131468857Y-70699219D01*
X131468857Y-70699219D02*
X131611714Y-70746838D01*
X131611714Y-70746838D02*
X131659333Y-70794457D01*
X132040286Y-70794457D02*
X132087905Y-70746838D01*
X132087905Y-70746838D02*
X132183143Y-70699219D01*
X132183143Y-70699219D02*
X132421238Y-70699219D01*
X132421238Y-70699219D02*
X132516476Y-70746838D01*
X132516476Y-70746838D02*
X132564095Y-70794457D01*
X132564095Y-70794457D02*
X132611714Y-70889695D01*
X132611714Y-70889695D02*
X132611714Y-70984933D01*
X132611714Y-70984933D02*
X132564095Y-71127790D01*
X132564095Y-71127790D02*
X131992667Y-71699219D01*
X131992667Y-71699219D02*
X132611714Y-71699219D01*
X127214333Y-101448980D02*
X127166714Y-101496600D01*
X127166714Y-101496600D02*
X127023857Y-101544219D01*
X127023857Y-101544219D02*
X126928619Y-101544219D01*
X126928619Y-101544219D02*
X126785762Y-101496600D01*
X126785762Y-101496600D02*
X126690524Y-101401361D01*
X126690524Y-101401361D02*
X126642905Y-101306123D01*
X126642905Y-101306123D02*
X126595286Y-101115647D01*
X126595286Y-101115647D02*
X126595286Y-100972790D01*
X126595286Y-100972790D02*
X126642905Y-100782314D01*
X126642905Y-100782314D02*
X126690524Y-100687076D01*
X126690524Y-100687076D02*
X126785762Y-100591838D01*
X126785762Y-100591838D02*
X126928619Y-100544219D01*
X126928619Y-100544219D02*
X127023857Y-100544219D01*
X127023857Y-100544219D02*
X127166714Y-100591838D01*
X127166714Y-100591838D02*
X127214333Y-100639457D01*
X128071476Y-100877552D02*
X128071476Y-101544219D01*
X127833381Y-100496600D02*
X127595286Y-101210885D01*
X127595286Y-101210885D02*
X128214333Y-101210885D01*
X123912333Y-86131980D02*
X123864714Y-86179600D01*
X123864714Y-86179600D02*
X123721857Y-86227219D01*
X123721857Y-86227219D02*
X123626619Y-86227219D01*
X123626619Y-86227219D02*
X123483762Y-86179600D01*
X123483762Y-86179600D02*
X123388524Y-86084361D01*
X123388524Y-86084361D02*
X123340905Y-85989123D01*
X123340905Y-85989123D02*
X123293286Y-85798647D01*
X123293286Y-85798647D02*
X123293286Y-85655790D01*
X123293286Y-85655790D02*
X123340905Y-85465314D01*
X123340905Y-85465314D02*
X123388524Y-85370076D01*
X123388524Y-85370076D02*
X123483762Y-85274838D01*
X123483762Y-85274838D02*
X123626619Y-85227219D01*
X123626619Y-85227219D02*
X123721857Y-85227219D01*
X123721857Y-85227219D02*
X123864714Y-85274838D01*
X123864714Y-85274838D02*
X123912333Y-85322457D01*
X124864714Y-86227219D02*
X124293286Y-86227219D01*
X124579000Y-86227219D02*
X124579000Y-85227219D01*
X124579000Y-85227219D02*
X124483762Y-85370076D01*
X124483762Y-85370076D02*
X124388524Y-85465314D01*
X124388524Y-85465314D02*
X124293286Y-85512933D01*
X120737333Y-115418980D02*
X120689714Y-115466600D01*
X120689714Y-115466600D02*
X120546857Y-115514219D01*
X120546857Y-115514219D02*
X120451619Y-115514219D01*
X120451619Y-115514219D02*
X120308762Y-115466600D01*
X120308762Y-115466600D02*
X120213524Y-115371361D01*
X120213524Y-115371361D02*
X120165905Y-115276123D01*
X120165905Y-115276123D02*
X120118286Y-115085647D01*
X120118286Y-115085647D02*
X120118286Y-114942790D01*
X120118286Y-114942790D02*
X120165905Y-114752314D01*
X120165905Y-114752314D02*
X120213524Y-114657076D01*
X120213524Y-114657076D02*
X120308762Y-114561838D01*
X120308762Y-114561838D02*
X120451619Y-114514219D01*
X120451619Y-114514219D02*
X120546857Y-114514219D01*
X120546857Y-114514219D02*
X120689714Y-114561838D01*
X120689714Y-114561838D02*
X120737333Y-114609457D01*
X121070667Y-114514219D02*
X121689714Y-114514219D01*
X121689714Y-114514219D02*
X121356381Y-114895171D01*
X121356381Y-114895171D02*
X121499238Y-114895171D01*
X121499238Y-114895171D02*
X121594476Y-114942790D01*
X121594476Y-114942790D02*
X121642095Y-114990409D01*
X121642095Y-114990409D02*
X121689714Y-115085647D01*
X121689714Y-115085647D02*
X121689714Y-115323742D01*
X121689714Y-115323742D02*
X121642095Y-115418980D01*
X121642095Y-115418980D02*
X121594476Y-115466600D01*
X121594476Y-115466600D02*
X121499238Y-115514219D01*
X121499238Y-115514219D02*
X121213524Y-115514219D01*
X121213524Y-115514219D02*
X121118286Y-115466600D01*
X121118286Y-115466600D02*
X121070667Y-115418980D01*
X127341333Y-106655980D02*
X127293714Y-106703600D01*
X127293714Y-106703600D02*
X127150857Y-106751219D01*
X127150857Y-106751219D02*
X127055619Y-106751219D01*
X127055619Y-106751219D02*
X126912762Y-106703600D01*
X126912762Y-106703600D02*
X126817524Y-106608361D01*
X126817524Y-106608361D02*
X126769905Y-106513123D01*
X126769905Y-106513123D02*
X126722286Y-106322647D01*
X126722286Y-106322647D02*
X126722286Y-106179790D01*
X126722286Y-106179790D02*
X126769905Y-105989314D01*
X126769905Y-105989314D02*
X126817524Y-105894076D01*
X126817524Y-105894076D02*
X126912762Y-105798838D01*
X126912762Y-105798838D02*
X127055619Y-105751219D01*
X127055619Y-105751219D02*
X127150857Y-105751219D01*
X127150857Y-105751219D02*
X127293714Y-105798838D01*
X127293714Y-105798838D02*
X127341333Y-105846457D01*
X128246095Y-105751219D02*
X127769905Y-105751219D01*
X127769905Y-105751219D02*
X127722286Y-106227409D01*
X127722286Y-106227409D02*
X127769905Y-106179790D01*
X127769905Y-106179790D02*
X127865143Y-106132171D01*
X127865143Y-106132171D02*
X128103238Y-106132171D01*
X128103238Y-106132171D02*
X128198476Y-106179790D01*
X128198476Y-106179790D02*
X128246095Y-106227409D01*
X128246095Y-106227409D02*
X128293714Y-106322647D01*
X128293714Y-106322647D02*
X128293714Y-106560742D01*
X128293714Y-106560742D02*
X128246095Y-106655980D01*
X128246095Y-106655980D02*
X128198476Y-106703600D01*
X128198476Y-106703600D02*
X128103238Y-106751219D01*
X128103238Y-106751219D02*
X127865143Y-106751219D01*
X127865143Y-106751219D02*
X127769905Y-106703600D01*
X127769905Y-106703600D02*
X127722286Y-106655980D01*
X117649666Y-119848219D02*
X117649666Y-120562504D01*
X117649666Y-120562504D02*
X117602047Y-120705361D01*
X117602047Y-120705361D02*
X117506809Y-120800600D01*
X117506809Y-120800600D02*
X117363952Y-120848219D01*
X117363952Y-120848219D02*
X117268714Y-120848219D01*
X118649666Y-120848219D02*
X118078238Y-120848219D01*
X118363952Y-120848219D02*
X118363952Y-119848219D01*
X118363952Y-119848219D02*
X118268714Y-119991076D01*
X118268714Y-119991076D02*
X118173476Y-120086314D01*
X118173476Y-120086314D02*
X118078238Y-120133933D01*
X151257095Y-111847219D02*
X151257095Y-112656742D01*
X151257095Y-112656742D02*
X151304714Y-112751980D01*
X151304714Y-112751980D02*
X151352333Y-112799600D01*
X151352333Y-112799600D02*
X151447571Y-112847219D01*
X151447571Y-112847219D02*
X151638047Y-112847219D01*
X151638047Y-112847219D02*
X151733285Y-112799600D01*
X151733285Y-112799600D02*
X151780904Y-112751980D01*
X151780904Y-112751980D02*
X151828523Y-112656742D01*
X151828523Y-112656742D02*
X151828523Y-111847219D01*
X152352333Y-112847219D02*
X152542809Y-112847219D01*
X152542809Y-112847219D02*
X152638047Y-112799600D01*
X152638047Y-112799600D02*
X152685666Y-112751980D01*
X152685666Y-112751980D02*
X152780904Y-112609123D01*
X152780904Y-112609123D02*
X152828523Y-112418647D01*
X152828523Y-112418647D02*
X152828523Y-112037695D01*
X152828523Y-112037695D02*
X152780904Y-111942457D01*
X152780904Y-111942457D02*
X152733285Y-111894838D01*
X152733285Y-111894838D02*
X152638047Y-111847219D01*
X152638047Y-111847219D02*
X152447571Y-111847219D01*
X152447571Y-111847219D02*
X152352333Y-111894838D01*
X152352333Y-111894838D02*
X152304714Y-111942457D01*
X152304714Y-111942457D02*
X152257095Y-112037695D01*
X152257095Y-112037695D02*
X152257095Y-112275790D01*
X152257095Y-112275790D02*
X152304714Y-112371028D01*
X152304714Y-112371028D02*
X152352333Y-112418647D01*
X152352333Y-112418647D02*
X152447571Y-112466266D01*
X152447571Y-112466266D02*
X152638047Y-112466266D01*
X152638047Y-112466266D02*
X152733285Y-112418647D01*
X152733285Y-112418647D02*
X152780904Y-112371028D01*
X152780904Y-112371028D02*
X152828523Y-112275790D01*
X150653905Y-96480219D02*
X150653905Y-97289742D01*
X150653905Y-97289742D02*
X150701524Y-97384980D01*
X150701524Y-97384980D02*
X150749143Y-97432600D01*
X150749143Y-97432600D02*
X150844381Y-97480219D01*
X150844381Y-97480219D02*
X151034857Y-97480219D01*
X151034857Y-97480219D02*
X151130095Y-97432600D01*
X151130095Y-97432600D02*
X151177714Y-97384980D01*
X151177714Y-97384980D02*
X151225333Y-97289742D01*
X151225333Y-97289742D02*
X151225333Y-96480219D01*
X152225333Y-97480219D02*
X151653905Y-97480219D01*
X151939619Y-97480219D02*
X151939619Y-96480219D01*
X151939619Y-96480219D02*
X151844381Y-96623076D01*
X151844381Y-96623076D02*
X151749143Y-96718314D01*
X151749143Y-96718314D02*
X151653905Y-96765933D01*
X152844381Y-96480219D02*
X152939619Y-96480219D01*
X152939619Y-96480219D02*
X153034857Y-96527838D01*
X153034857Y-96527838D02*
X153082476Y-96575457D01*
X153082476Y-96575457D02*
X153130095Y-96670695D01*
X153130095Y-96670695D02*
X153177714Y-96861171D01*
X153177714Y-96861171D02*
X153177714Y-97099266D01*
X153177714Y-97099266D02*
X153130095Y-97289742D01*
X153130095Y-97289742D02*
X153082476Y-97384980D01*
X153082476Y-97384980D02*
X153034857Y-97432600D01*
X153034857Y-97432600D02*
X152939619Y-97480219D01*
X152939619Y-97480219D02*
X152844381Y-97480219D01*
X152844381Y-97480219D02*
X152749143Y-97432600D01*
X152749143Y-97432600D02*
X152701524Y-97384980D01*
X152701524Y-97384980D02*
X152653905Y-97289742D01*
X152653905Y-97289742D02*
X152606286Y-97099266D01*
X152606286Y-97099266D02*
X152606286Y-96861171D01*
X152606286Y-96861171D02*
X152653905Y-96670695D01*
X152653905Y-96670695D02*
X152701524Y-96575457D01*
X152701524Y-96575457D02*
X152749143Y-96527838D01*
X152749143Y-96527838D02*
X152844381Y-96480219D01*
X103251095Y-92162219D02*
X103251095Y-92971742D01*
X103251095Y-92971742D02*
X103298714Y-93066980D01*
X103298714Y-93066980D02*
X103346333Y-93114600D01*
X103346333Y-93114600D02*
X103441571Y-93162219D01*
X103441571Y-93162219D02*
X103632047Y-93162219D01*
X103632047Y-93162219D02*
X103727285Y-93114600D01*
X103727285Y-93114600D02*
X103774904Y-93066980D01*
X103774904Y-93066980D02*
X103822523Y-92971742D01*
X103822523Y-92971742D02*
X103822523Y-92162219D01*
X104774904Y-92162219D02*
X104298714Y-92162219D01*
X104298714Y-92162219D02*
X104251095Y-92638409D01*
X104251095Y-92638409D02*
X104298714Y-92590790D01*
X104298714Y-92590790D02*
X104393952Y-92543171D01*
X104393952Y-92543171D02*
X104632047Y-92543171D01*
X104632047Y-92543171D02*
X104727285Y-92590790D01*
X104727285Y-92590790D02*
X104774904Y-92638409D01*
X104774904Y-92638409D02*
X104822523Y-92733647D01*
X104822523Y-92733647D02*
X104822523Y-92971742D01*
X104822523Y-92971742D02*
X104774904Y-93066980D01*
X104774904Y-93066980D02*
X104727285Y-93114600D01*
X104727285Y-93114600D02*
X104632047Y-93162219D01*
X104632047Y-93162219D02*
X104393952Y-93162219D01*
X104393952Y-93162219D02*
X104298714Y-93114600D01*
X104298714Y-93114600D02*
X104251095Y-93066980D01*
X103251095Y-77430219D02*
X103251095Y-78239742D01*
X103251095Y-78239742D02*
X103298714Y-78334980D01*
X103298714Y-78334980D02*
X103346333Y-78382600D01*
X103346333Y-78382600D02*
X103441571Y-78430219D01*
X103441571Y-78430219D02*
X103632047Y-78430219D01*
X103632047Y-78430219D02*
X103727285Y-78382600D01*
X103727285Y-78382600D02*
X103774904Y-78334980D01*
X103774904Y-78334980D02*
X103822523Y-78239742D01*
X103822523Y-78239742D02*
X103822523Y-77430219D01*
X104822523Y-78430219D02*
X104251095Y-78430219D01*
X104536809Y-78430219D02*
X104536809Y-77430219D01*
X104536809Y-77430219D02*
X104441571Y-77573076D01*
X104441571Y-77573076D02*
X104346333Y-77668314D01*
X104346333Y-77668314D02*
X104251095Y-77715933D01*
X103251095Y-108672219D02*
X103251095Y-109481742D01*
X103251095Y-109481742D02*
X103298714Y-109576980D01*
X103298714Y-109576980D02*
X103346333Y-109624600D01*
X103346333Y-109624600D02*
X103441571Y-109672219D01*
X103441571Y-109672219D02*
X103632047Y-109672219D01*
X103632047Y-109672219D02*
X103727285Y-109624600D01*
X103727285Y-109624600D02*
X103774904Y-109576980D01*
X103774904Y-109576980D02*
X103822523Y-109481742D01*
X103822523Y-109481742D02*
X103822523Y-108672219D01*
X104727285Y-108672219D02*
X104536809Y-108672219D01*
X104536809Y-108672219D02*
X104441571Y-108719838D01*
X104441571Y-108719838D02*
X104393952Y-108767457D01*
X104393952Y-108767457D02*
X104298714Y-108910314D01*
X104298714Y-108910314D02*
X104251095Y-109100790D01*
X104251095Y-109100790D02*
X104251095Y-109481742D01*
X104251095Y-109481742D02*
X104298714Y-109576980D01*
X104298714Y-109576980D02*
X104346333Y-109624600D01*
X104346333Y-109624600D02*
X104441571Y-109672219D01*
X104441571Y-109672219D02*
X104632047Y-109672219D01*
X104632047Y-109672219D02*
X104727285Y-109624600D01*
X104727285Y-109624600D02*
X104774904Y-109576980D01*
X104774904Y-109576980D02*
X104822523Y-109481742D01*
X104822523Y-109481742D02*
X104822523Y-109243647D01*
X104822523Y-109243647D02*
X104774904Y-109148409D01*
X104774904Y-109148409D02*
X104727285Y-109100790D01*
X104727285Y-109100790D02*
X104632047Y-109053171D01*
X104632047Y-109053171D02*
X104441571Y-109053171D01*
X104441571Y-109053171D02*
X104346333Y-109100790D01*
X104346333Y-109100790D02*
X104298714Y-109148409D01*
X104298714Y-109148409D02*
X104251095Y-109243647D01*
X150780905Y-79843219D02*
X150780905Y-80652742D01*
X150780905Y-80652742D02*
X150828524Y-80747980D01*
X150828524Y-80747980D02*
X150876143Y-80795600D01*
X150876143Y-80795600D02*
X150971381Y-80843219D01*
X150971381Y-80843219D02*
X151161857Y-80843219D01*
X151161857Y-80843219D02*
X151257095Y-80795600D01*
X151257095Y-80795600D02*
X151304714Y-80747980D01*
X151304714Y-80747980D02*
X151352333Y-80652742D01*
X151352333Y-80652742D02*
X151352333Y-79843219D01*
X152352333Y-80843219D02*
X151780905Y-80843219D01*
X152066619Y-80843219D02*
X152066619Y-79843219D01*
X152066619Y-79843219D02*
X151971381Y-79986076D01*
X151971381Y-79986076D02*
X151876143Y-80081314D01*
X151876143Y-80081314D02*
X151780905Y-80128933D01*
X153304714Y-80843219D02*
X152733286Y-80843219D01*
X153019000Y-80843219D02*
X153019000Y-79843219D01*
X153019000Y-79843219D02*
X152923762Y-79986076D01*
X152923762Y-79986076D02*
X152828524Y-80081314D01*
X152828524Y-80081314D02*
X152733286Y-80128933D01*
X103251095Y-124674219D02*
X103251095Y-125483742D01*
X103251095Y-125483742D02*
X103298714Y-125578980D01*
X103298714Y-125578980D02*
X103346333Y-125626600D01*
X103346333Y-125626600D02*
X103441571Y-125674219D01*
X103441571Y-125674219D02*
X103632047Y-125674219D01*
X103632047Y-125674219D02*
X103727285Y-125626600D01*
X103727285Y-125626600D02*
X103774904Y-125578980D01*
X103774904Y-125578980D02*
X103822523Y-125483742D01*
X103822523Y-125483742D02*
X103822523Y-124674219D01*
X104203476Y-124674219D02*
X104870142Y-124674219D01*
X104870142Y-124674219D02*
X104441571Y-125674219D01*
X138157905Y-89749219D02*
X138157905Y-90558742D01*
X138157905Y-90558742D02*
X138205524Y-90653980D01*
X138205524Y-90653980D02*
X138253143Y-90701600D01*
X138253143Y-90701600D02*
X138348381Y-90749219D01*
X138348381Y-90749219D02*
X138538857Y-90749219D01*
X138538857Y-90749219D02*
X138634095Y-90701600D01*
X138634095Y-90701600D02*
X138681714Y-90653980D01*
X138681714Y-90653980D02*
X138729333Y-90558742D01*
X138729333Y-90558742D02*
X138729333Y-89749219D01*
X139729333Y-90749219D02*
X139157905Y-90749219D01*
X139443619Y-90749219D02*
X139443619Y-89749219D01*
X139443619Y-89749219D02*
X139348381Y-89892076D01*
X139348381Y-89892076D02*
X139253143Y-89987314D01*
X139253143Y-89987314D02*
X139157905Y-90034933D01*
X140110286Y-89844457D02*
X140157905Y-89796838D01*
X140157905Y-89796838D02*
X140253143Y-89749219D01*
X140253143Y-89749219D02*
X140491238Y-89749219D01*
X140491238Y-89749219D02*
X140586476Y-89796838D01*
X140586476Y-89796838D02*
X140634095Y-89844457D01*
X140634095Y-89844457D02*
X140681714Y-89939695D01*
X140681714Y-89939695D02*
X140681714Y-90034933D01*
X140681714Y-90034933D02*
X140634095Y-90177790D01*
X140634095Y-90177790D02*
X140062667Y-90749219D01*
X140062667Y-90749219D02*
X140681714Y-90749219D01*
X151384095Y-127976219D02*
X151384095Y-128785742D01*
X151384095Y-128785742D02*
X151431714Y-128880980D01*
X151431714Y-128880980D02*
X151479333Y-128928600D01*
X151479333Y-128928600D02*
X151574571Y-128976219D01*
X151574571Y-128976219D02*
X151765047Y-128976219D01*
X151765047Y-128976219D02*
X151860285Y-128928600D01*
X151860285Y-128928600D02*
X151907904Y-128880980D01*
X151907904Y-128880980D02*
X151955523Y-128785742D01*
X151955523Y-128785742D02*
X151955523Y-127976219D01*
X152574571Y-128404790D02*
X152479333Y-128357171D01*
X152479333Y-128357171D02*
X152431714Y-128309552D01*
X152431714Y-128309552D02*
X152384095Y-128214314D01*
X152384095Y-128214314D02*
X152384095Y-128166695D01*
X152384095Y-128166695D02*
X152431714Y-128071457D01*
X152431714Y-128071457D02*
X152479333Y-128023838D01*
X152479333Y-128023838D02*
X152574571Y-127976219D01*
X152574571Y-127976219D02*
X152765047Y-127976219D01*
X152765047Y-127976219D02*
X152860285Y-128023838D01*
X152860285Y-128023838D02*
X152907904Y-128071457D01*
X152907904Y-128071457D02*
X152955523Y-128166695D01*
X152955523Y-128166695D02*
X152955523Y-128214314D01*
X152955523Y-128214314D02*
X152907904Y-128309552D01*
X152907904Y-128309552D02*
X152860285Y-128357171D01*
X152860285Y-128357171D02*
X152765047Y-128404790D01*
X152765047Y-128404790D02*
X152574571Y-128404790D01*
X152574571Y-128404790D02*
X152479333Y-128452409D01*
X152479333Y-128452409D02*
X152431714Y-128500028D01*
X152431714Y-128500028D02*
X152384095Y-128595266D01*
X152384095Y-128595266D02*
X152384095Y-128785742D01*
X152384095Y-128785742D02*
X152431714Y-128880980D01*
X152431714Y-128880980D02*
X152479333Y-128928600D01*
X152479333Y-128928600D02*
X152574571Y-128976219D01*
X152574571Y-128976219D02*
X152765047Y-128976219D01*
X152765047Y-128976219D02*
X152860285Y-128928600D01*
X152860285Y-128928600D02*
X152907904Y-128880980D01*
X152907904Y-128880980D02*
X152955523Y-128785742D01*
X152955523Y-128785742D02*
X152955523Y-128595266D01*
X152955523Y-128595266D02*
X152907904Y-128500028D01*
X152907904Y-128500028D02*
X152860285Y-128452409D01*
X152860285Y-128452409D02*
X152765047Y-128404790D01*
X132715095Y-112101219D02*
X132715095Y-112910742D01*
X132715095Y-112910742D02*
X132762714Y-113005980D01*
X132762714Y-113005980D02*
X132810333Y-113053600D01*
X132810333Y-113053600D02*
X132905571Y-113101219D01*
X132905571Y-113101219D02*
X133096047Y-113101219D01*
X133096047Y-113101219D02*
X133191285Y-113053600D01*
X133191285Y-113053600D02*
X133238904Y-113005980D01*
X133238904Y-113005980D02*
X133286523Y-112910742D01*
X133286523Y-112910742D02*
X133286523Y-112101219D01*
X134191285Y-112434552D02*
X134191285Y-113101219D01*
X133953190Y-112053600D02*
X133715095Y-112767885D01*
X133715095Y-112767885D02*
X134334142Y-112767885D01*
X115824095Y-98385219D02*
X115824095Y-99194742D01*
X115824095Y-99194742D02*
X115871714Y-99289980D01*
X115871714Y-99289980D02*
X115919333Y-99337600D01*
X115919333Y-99337600D02*
X116014571Y-99385219D01*
X116014571Y-99385219D02*
X116205047Y-99385219D01*
X116205047Y-99385219D02*
X116300285Y-99337600D01*
X116300285Y-99337600D02*
X116347904Y-99289980D01*
X116347904Y-99289980D02*
X116395523Y-99194742D01*
X116395523Y-99194742D02*
X116395523Y-98385219D01*
X116776476Y-98385219D02*
X117395523Y-98385219D01*
X117395523Y-98385219D02*
X117062190Y-98766171D01*
X117062190Y-98766171D02*
X117205047Y-98766171D01*
X117205047Y-98766171D02*
X117300285Y-98813790D01*
X117300285Y-98813790D02*
X117347904Y-98861409D01*
X117347904Y-98861409D02*
X117395523Y-98956647D01*
X117395523Y-98956647D02*
X117395523Y-99194742D01*
X117395523Y-99194742D02*
X117347904Y-99289980D01*
X117347904Y-99289980D02*
X117300285Y-99337600D01*
X117300285Y-99337600D02*
X117205047Y-99385219D01*
X117205047Y-99385219D02*
X116919333Y-99385219D01*
X116919333Y-99385219D02*
X116824095Y-99337600D01*
X116824095Y-99337600D02*
X116776476Y-99289980D01*
X101981095Y-137993219D02*
X101981095Y-136993219D01*
X101981095Y-137469409D02*
X102552523Y-137469409D01*
X102552523Y-137993219D02*
X102552523Y-136993219D01*
X102933476Y-136993219D02*
X103552523Y-136993219D01*
X103552523Y-136993219D02*
X103219190Y-137374171D01*
X103219190Y-137374171D02*
X103362047Y-137374171D01*
X103362047Y-137374171D02*
X103457285Y-137421790D01*
X103457285Y-137421790D02*
X103504904Y-137469409D01*
X103504904Y-137469409D02*
X103552523Y-137564647D01*
X103552523Y-137564647D02*
X103552523Y-137802742D01*
X103552523Y-137802742D02*
X103504904Y-137897980D01*
X103504904Y-137897980D02*
X103457285Y-137945600D01*
X103457285Y-137945600D02*
X103362047Y-137993219D01*
X103362047Y-137993219D02*
X103076333Y-137993219D01*
X103076333Y-137993219D02*
X102981095Y-137945600D01*
X102981095Y-137945600D02*
X102933476Y-137897980D01*
X97917095Y-71826219D02*
X97917095Y-70826219D01*
X97917095Y-71302409D02*
X98488523Y-71302409D01*
X98488523Y-71826219D02*
X98488523Y-70826219D01*
X99488523Y-71826219D02*
X98917095Y-71826219D01*
X99202809Y-71826219D02*
X99202809Y-70826219D01*
X99202809Y-70826219D02*
X99107571Y-70969076D01*
X99107571Y-70969076D02*
X99012333Y-71064314D01*
X99012333Y-71064314D02*
X98917095Y-71111933D01*
X151892095Y-137866219D02*
X151892095Y-136866219D01*
X151892095Y-137342409D02*
X152463523Y-137342409D01*
X152463523Y-137866219D02*
X152463523Y-136866219D01*
X153368285Y-137199552D02*
X153368285Y-137866219D01*
X153130190Y-136818600D02*
X152892095Y-137532885D01*
X152892095Y-137532885D02*
X153511142Y-137532885D01*
X140530895Y-78024219D02*
X140530895Y-78833742D01*
X140530895Y-78833742D02*
X140578514Y-78928980D01*
X140578514Y-78928980D02*
X140626133Y-78976600D01*
X140626133Y-78976600D02*
X140721371Y-79024219D01*
X140721371Y-79024219D02*
X140911847Y-79024219D01*
X140911847Y-79024219D02*
X141007085Y-78976600D01*
X141007085Y-78976600D02*
X141054704Y-78928980D01*
X141054704Y-78928980D02*
X141102323Y-78833742D01*
X141102323Y-78833742D02*
X141102323Y-78024219D01*
X141530895Y-78119457D02*
X141578514Y-78071838D01*
X141578514Y-78071838D02*
X141673752Y-78024219D01*
X141673752Y-78024219D02*
X141911847Y-78024219D01*
X141911847Y-78024219D02*
X142007085Y-78071838D01*
X142007085Y-78071838D02*
X142054704Y-78119457D01*
X142054704Y-78119457D02*
X142102323Y-78214695D01*
X142102323Y-78214695D02*
X142102323Y-78309933D01*
X142102323Y-78309933D02*
X142054704Y-78452790D01*
X142054704Y-78452790D02*
X141483276Y-79024219D01*
X141483276Y-79024219D02*
X142102323Y-79024219D01*
X156464095Y-71826219D02*
X156464095Y-70826219D01*
X156464095Y-71302409D02*
X157035523Y-71302409D01*
X157035523Y-71826219D02*
X157035523Y-70826219D01*
X157464095Y-70921457D02*
X157511714Y-70873838D01*
X157511714Y-70873838D02*
X157606952Y-70826219D01*
X157606952Y-70826219D02*
X157845047Y-70826219D01*
X157845047Y-70826219D02*
X157940285Y-70873838D01*
X157940285Y-70873838D02*
X157987904Y-70921457D01*
X157987904Y-70921457D02*
X158035523Y-71016695D01*
X158035523Y-71016695D02*
X158035523Y-71111933D01*
X158035523Y-71111933D02*
X157987904Y-71254790D01*
X157987904Y-71254790D02*
X157416476Y-71826219D01*
X157416476Y-71826219D02*
X158035523Y-71826219D01*
G04 #@! TO.C,A1*
X119936000Y-74399800D02*
X119936000Y-74857000D01*
X119936000Y-81399800D02*
X119936000Y-81857000D01*
X119936000Y-81857000D02*
X120621800Y-81857000D01*
X120621800Y-74399800D02*
X119936000Y-74399800D01*
X125250200Y-81857000D02*
X125936000Y-81857000D01*
X125936000Y-74445400D02*
X125250200Y-74445400D01*
X125936000Y-74902600D02*
X125936000Y-74445400D01*
X125936000Y-81857000D02*
X125936000Y-81399800D01*
X119436000Y-80068900D02*
X119182000Y-80068900D01*
X119182000Y-79687900D01*
X119436000Y-79687900D01*
X119436000Y-80068900D01*
G36*
X119436000Y-80068900D02*
G01*
X119182000Y-80068900D01*
X119182000Y-79687900D01*
X119436000Y-79687900D01*
X119436000Y-80068900D01*
G37*
X126690000Y-76009400D02*
X126436000Y-76009400D01*
X126436000Y-75628400D01*
X126690000Y-75628400D01*
X126690000Y-76009400D01*
G36*
X126690000Y-76009400D02*
G01*
X126436000Y-76009400D01*
X126436000Y-75628400D01*
X126690000Y-75628400D01*
X126690000Y-76009400D01*
G37*
X126690000Y-81068900D02*
X126436000Y-81068900D01*
X126436000Y-80687900D01*
X126690000Y-80687900D01*
X126690000Y-81068900D01*
G36*
X126690000Y-81068900D02*
G01*
X126436000Y-81068900D01*
X126436000Y-80687900D01*
X126690000Y-80687900D01*
X126690000Y-81068900D01*
G37*
G04 #@! TO.C,Q1*
X151208500Y-85295000D02*
X150558500Y-85295000D01*
X151208500Y-85295000D02*
X151858500Y-85295000D01*
X151208500Y-88695000D02*
X150558500Y-88695000D01*
X151208500Y-88695000D02*
X151858500Y-88695000D01*
X150046000Y-85065757D02*
X149806000Y-84735757D01*
X150286000Y-84735757D01*
X150046000Y-85065757D01*
G36*
X150046000Y-85065757D02*
G01*
X149806000Y-84735757D01*
X150286000Y-84735757D01*
X150046000Y-85065757D01*
G37*
D11*
G04 #@! TO.C,FREQ1*
X129616200Y-88970302D02*
G75*
G02*
X129209800Y-88970302I-203200J210420D01*
G01*
D10*
G04 #@! TO.C,R3*
X110463064Y-72578000D02*
X110008936Y-72578000D01*
X110463064Y-70678000D02*
X110008936Y-70678000D01*
G04 #@! TO.C,R60*
X140054064Y-75753000D02*
X139599936Y-75753000D01*
X140054064Y-73853000D02*
X139599936Y-73853000D01*
G04 #@! TO.C,R57*
X133924000Y-74141064D02*
X133924000Y-73686936D01*
X135824000Y-74141064D02*
X135824000Y-73686936D01*
G04 #@! TO.C,R5*
X147674064Y-120203000D02*
X147219936Y-120203000D01*
X147674064Y-118303000D02*
X147219936Y-118303000D01*
G04 #@! TO.C,R6*
X154278064Y-120203000D02*
X153823936Y-120203000D01*
X154278064Y-118303000D02*
X153823936Y-118303000D01*
G04 #@! TO.C,R4*
X115215936Y-75377000D02*
X115670064Y-75377000D01*
X115215936Y-77277000D02*
X115670064Y-77277000D01*
G04 #@! TO.C,R1*
X129185936Y-92395000D02*
X129640064Y-92395000D01*
X129185936Y-94295000D02*
X129640064Y-94295000D01*
G04 #@! TO.C,C7*
X130182000Y-73837748D02*
X130182000Y-75260252D01*
X127882000Y-73837748D02*
X127882000Y-75260252D01*
G04 #@! TO.C,C6*
X128912000Y-127812748D02*
X128912000Y-129235252D01*
X126612000Y-127812748D02*
X126612000Y-129235252D01*
G04 #@! TO.C,C2*
X132976000Y-73837748D02*
X132976000Y-75260252D01*
X130676000Y-73837748D02*
X130676000Y-75260252D01*
G04 #@! TO.C,C4*
X128574748Y-101974000D02*
X129997252Y-101974000D01*
X128574748Y-104274000D02*
X129997252Y-104274000D01*
G04 #@! TO.C,C1*
X125610000Y-88150248D02*
X125610000Y-89572752D01*
X123310000Y-88150248D02*
X123310000Y-89572752D01*
G04 #@! TO.C,C3*
X121615252Y-117990000D02*
X120192748Y-117990000D01*
X121615252Y-115690000D02*
X120192748Y-115690000D01*
G04 #@! TO.C,C5*
X128574748Y-107054000D02*
X129997252Y-107054000D01*
X128574748Y-109354000D02*
X129997252Y-109354000D01*
G04 #@! TO.C,J1*
X113255000Y-137165000D02*
X113255000Y-122465000D01*
X122455000Y-137165000D02*
X113255000Y-137165000D01*
X122455000Y-128865000D02*
X122455000Y-137165000D01*
X112855000Y-122915000D02*
X112855000Y-121865000D01*
X113255000Y-122465000D02*
X115355000Y-122465000D01*
X120355000Y-122465000D02*
X122455000Y-122465000D01*
X122455000Y-122465000D02*
X122455000Y-123865000D01*
X113880000Y-121865000D02*
X112830000Y-121865000D01*
G04 #@! TO.C,J3*
X153194000Y-106210000D02*
X157504000Y-106210000D01*
X157504000Y-106210000D02*
X157504000Y-99990000D01*
X157504000Y-99990000D02*
X153194000Y-99990000D01*
X153194000Y-99990000D02*
X153194000Y-106210000D01*
X153194000Y-104900000D02*
X152994000Y-104900000D01*
X152994000Y-104900000D02*
X152994000Y-105200000D01*
X152994000Y-105200000D02*
X153194000Y-105200000D01*
X153094000Y-104900000D02*
X153094000Y-105200000D01*
X153594000Y-105810000D02*
X157104000Y-105810000D01*
X157104000Y-105810000D02*
X157104000Y-100390000D01*
X157104000Y-100390000D02*
X153594000Y-100390000D01*
X153594000Y-100390000D02*
X153594000Y-105810000D01*
X154694000Y-106210000D02*
X154694000Y-105810000D01*
X155694000Y-106210000D02*
X155694000Y-105810000D01*
X154694000Y-99990000D02*
X154694000Y-100390000D01*
X155694000Y-99990000D02*
X155694000Y-100390000D01*
X157104000Y-103950000D02*
X156704000Y-103950000D01*
X156704000Y-103950000D02*
X156704000Y-103750000D01*
X156704000Y-103750000D02*
X157104000Y-103750000D01*
X157104000Y-103850000D02*
X156704000Y-103850000D01*
X157104000Y-102450000D02*
X156704000Y-102450000D01*
X156704000Y-102450000D02*
X156704000Y-102250000D01*
X156704000Y-102250000D02*
X157104000Y-102250000D01*
X157104000Y-102350000D02*
X156704000Y-102350000D01*
X152994000Y-105610000D02*
X152994000Y-106410000D01*
X152994000Y-106410000D02*
X153794000Y-106410000D01*
G04 #@! TO.C,U4*
X126653500Y-113195000D02*
X125413500Y-113195000D01*
X125413500Y-113195000D02*
X125413500Y-114435000D01*
X134273500Y-113435000D02*
X125653500Y-113435000D01*
X134273500Y-113435000D02*
X134273500Y-125156000D01*
X125653500Y-113435000D02*
X125653500Y-125156000D01*
X134273500Y-125156000D02*
X125653500Y-125156000D01*
G04 #@! TO.C,U3*
X123615000Y-111815000D02*
X124855000Y-111815000D01*
X124855000Y-111815000D02*
X124855000Y-110575000D01*
X115995000Y-111575000D02*
X124615000Y-111575000D01*
X115995000Y-111575000D02*
X115995000Y-99854000D01*
X124615000Y-111575000D02*
X124615000Y-99854000D01*
X115995000Y-99854000D02*
X124615000Y-99854000D01*
G04 #@! TO.C,Bus_D1*
X116682000Y-68488000D02*
X118012000Y-68488000D01*
X116682000Y-69818000D02*
X116682000Y-68488000D01*
X119282000Y-68488000D02*
X126962000Y-68488000D01*
X119282000Y-71148000D02*
X119282000Y-68488000D01*
X119282000Y-71148000D02*
X126962000Y-71148000D01*
X126962000Y-71148000D02*
X126962000Y-68488000D01*
G04 #@! TO.C,J11*
X134670000Y-137150000D02*
X134670000Y-139750000D01*
X134670000Y-137150000D02*
X137330000Y-137150000D01*
X134670000Y-139750000D02*
X137330000Y-139750000D01*
X136000000Y-134550000D02*
X137330000Y-134550000D01*
X137330000Y-134550000D02*
X137330000Y-135880000D01*
X137330000Y-137150000D02*
X137330000Y-139750000D01*
G04 #@! TO.C,J2*
X138670000Y-137150000D02*
X138670000Y-139750000D01*
X138670000Y-137150000D02*
X141330000Y-137150000D01*
X138670000Y-139750000D02*
X141330000Y-139750000D01*
X140000000Y-134550000D02*
X141330000Y-134550000D01*
X141330000Y-134550000D02*
X141330000Y-135880000D01*
X141330000Y-137150000D02*
X141330000Y-139750000D01*
G04 #@! TO.C,J9*
X142130000Y-69050000D02*
X142130000Y-71710000D01*
X144730000Y-69050000D02*
X142130000Y-69050000D01*
X144730000Y-69050000D02*
X144730000Y-71710000D01*
X144730000Y-71710000D02*
X142130000Y-71710000D01*
X147330000Y-70380000D02*
X147330000Y-71710000D01*
X147330000Y-71710000D02*
X146000000Y-71710000D01*
G04 #@! TO.C,U2*
X135542000Y-76148000D02*
X138542000Y-76148000D01*
X135542000Y-79218000D02*
X138542000Y-79218000D01*
X133622000Y-76428000D02*
G75*
G02*
X133422000Y-76428000I-100000J0D01*
G01*
X133422000Y-76428000D02*
G75*
G02*
X133622000Y-76428000I100000J0D01*
G01*
G04 #@! TO.C,J4*
X144085000Y-102937000D02*
X144085000Y-105597000D01*
X149225000Y-102937000D02*
X144085000Y-102937000D01*
X149225000Y-102937000D02*
X149225000Y-105597000D01*
X149225000Y-105597000D02*
X144085000Y-105597000D01*
X150495000Y-102937000D02*
X151825000Y-102937000D01*
X151825000Y-102937000D02*
X151825000Y-104267000D01*
G04 #@! TD*
M02*
