G04 #@! TF.GenerationSoftware,KiCad,Pcbnew,8.0.6*
G04 #@! TF.CreationDate,2026-02-10T22:38:48-07:00*
G04 #@! TF.ProjectId,pneumatic Backpack v3.0,706e6575-6d61-4746-9963-204261636b70,rev?*
G04 #@! TF.SameCoordinates,Original*
G04 #@! TF.FileFunction,Soldermask,Top*
G04 #@! TF.FilePolarity,Negative*
%FSLAX46Y46*%
G04 Gerber Fmt 4.6, Leading zero omitted, Abs format (unit mm)*
G04 Created by KiCad (PCBNEW 8.0.6) date 2026-02-10 22:38:48*
%MOMM*%
%LPD*%
G01*
G04 APERTURE LIST*
G04 Aperture macros list*
%AMRoundRect*
0 Rectangle with rounded corners*
0 $1 Rounding radius*
0 $2 $3 $4 $5 $6 $7 $8 $9 X,Y pos of 4 corners*
0 Add a 4 corners polygon primitive as box body*
4,1,4,$2,$3,$4,$5,$6,$7,$8,$9,$2,$3,0*
0 Add four circle primitives for the rounded corners*
1,1,$1+$1,$2,$3*
1,1,$1+$1,$4,$5*
1,1,$1+$1,$6,$7*
1,1,$1+$1,$8,$9*
0 Add four rect primitives between the rounded corners*
20,1,$1+$1,$2,$3,$4,$5,0*
20,1,$1+$1,$4,$5,$6,$7,0*
20,1,$1+$1,$6,$7,$8,$9,0*
20,1,$1+$1,$8,$9,$2,$3,0*%
G04 Aperture macros list end*
%ADD10R,0.804800X0.300000*%
%ADD11R,0.300000X0.804800*%
%ADD12RoundRect,0.102000X-1.625000X-2.625000X1.625000X-2.625000X1.625000X2.625000X-1.625000X2.625000X0*%
%ADD13RoundRect,0.150000X-0.587500X-0.150000X0.587500X-0.150000X0.587500X0.150000X-0.587500X0.150000X0*%
%ADD14RoundRect,0.102000X-0.609600X-0.254000X0.609600X-0.254000X0.609600X0.254000X-0.609600X0.254000X0*%
%ADD15RoundRect,0.250000X0.350000X0.450000X-0.350000X0.450000X-0.350000X-0.450000X0.350000X-0.450000X0*%
%ADD16RoundRect,0.250000X0.450000X-0.350000X0.450000X0.350000X-0.450000X0.350000X-0.450000X-0.350000X0*%
%ADD17RoundRect,0.250000X-0.350000X-0.450000X0.350000X-0.450000X0.350000X0.450000X-0.350000X0.450000X0*%
%ADD18RoundRect,0.250000X-0.650000X0.412500X-0.650000X-0.412500X0.650000X-0.412500X0.650000X0.412500X0*%
%ADD19RoundRect,0.250000X-0.412500X-0.650000X0.412500X-0.650000X0.412500X0.650000X-0.412500X0.650000X0*%
%ADD20RoundRect,0.250000X0.412500X0.650000X-0.412500X0.650000X-0.412500X-0.650000X0.412500X-0.650000X0*%
%ADD21R,3.500000X3.500000*%
%ADD22RoundRect,0.750000X1.000000X-0.750000X1.000000X0.750000X-1.000000X0.750000X-1.000000X-0.750000X0*%
%ADD23RoundRect,0.875000X0.875000X-0.875000X0.875000X0.875000X-0.875000X0.875000X-0.875000X-0.875000X0*%
%ADD24RoundRect,0.250000X0.615000X-0.265000X0.615000X0.265000X-0.615000X0.265000X-0.615000X-0.265000X0*%
%ADD25O,1.730000X1.030000*%
%ADD26C,0.800000*%
%ADD27RoundRect,0.102000X-0.565000X0.565000X-0.565000X-0.565000X0.565000X-0.565000X0.565000X0.565000X0*%
%ADD28C,1.334000*%
%ADD29RoundRect,0.102000X0.565000X-0.565000X0.565000X0.565000X-0.565000X0.565000X-0.565000X-0.565000X0*%
%ADD30RoundRect,0.102000X0.565000X0.565000X-0.565000X0.565000X-0.565000X-0.565000X0.565000X-0.565000X0*%
%ADD31R,2.300000X1.500000*%
%ADD32O,2.300000X1.500000*%
%ADD33R,1.700000X1.700000*%
%ADD34O,1.700000X1.700000*%
%ADD35C,2.500000*%
%ADD36RoundRect,0.250000X-0.600000X-0.600000X0.600000X-0.600000X0.600000X0.600000X-0.600000X0.600000X0*%
%ADD37RoundRect,0.060000X-0.675000X-0.180000X0.675000X-0.180000X0.675000X0.180000X-0.675000X0.180000X0*%
G04 APERTURE END LIST*
D10*
G04 #@! TO.C,A1*
X120483600Y-75378400D03*
X120483600Y-75878400D03*
X120483600Y-76378400D03*
X120483600Y-76878400D03*
X120483600Y-77378400D03*
X120483600Y-77878400D03*
X120483600Y-78378400D03*
X120483600Y-78878400D03*
X120483600Y-79378400D03*
X120483600Y-79878400D03*
X120483600Y-80378400D03*
X120483600Y-80878400D03*
D11*
X121436000Y-81580800D03*
X121936000Y-81580800D03*
X122436000Y-81580800D03*
X122936000Y-81580800D03*
X123436000Y-81580800D03*
X123936000Y-81580800D03*
X124436000Y-81580800D03*
D10*
X125388400Y-80878400D03*
X125388400Y-80378400D03*
X125388400Y-79878400D03*
X125388400Y-79378400D03*
X125388400Y-78878400D03*
X125388400Y-78378400D03*
X125388400Y-77878400D03*
X125388400Y-77378400D03*
X125388400Y-76878400D03*
X125388400Y-76378400D03*
X125388400Y-75878400D03*
X125388400Y-75378400D03*
D11*
X124436000Y-74676000D03*
X123936000Y-74676000D03*
X123436000Y-74676000D03*
X122936000Y-74676000D03*
X122436000Y-74676000D03*
X121936000Y-74676000D03*
X121436000Y-74676000D03*
D12*
X122936000Y-78128400D03*
G04 #@! TD*
D13*
G04 #@! TO.C,Q1*
X150271000Y-86045000D03*
X150271000Y-87945000D03*
X152146000Y-86995000D03*
G04 #@! TD*
D14*
G04 #@! TO.C,FREQ1*
X128270000Y-89560400D03*
X128270000Y-90500200D03*
X128270000Y-91440000D03*
X130556000Y-91440000D03*
X130556000Y-90500200D03*
X130556000Y-89560400D03*
G04 #@! TD*
D15*
G04 #@! TO.C,R3*
X111236000Y-71628000D03*
X109236000Y-71628000D03*
G04 #@! TD*
G04 #@! TO.C,R60*
X140827000Y-74803000D03*
X138827000Y-74803000D03*
G04 #@! TD*
D16*
G04 #@! TO.C,R57*
X134874000Y-74914000D03*
X134874000Y-72914000D03*
G04 #@! TD*
D15*
G04 #@! TO.C,R5*
X148447000Y-119253000D03*
X146447000Y-119253000D03*
G04 #@! TD*
G04 #@! TO.C,R6*
X155051000Y-119253000D03*
X153051000Y-119253000D03*
G04 #@! TD*
D17*
G04 #@! TO.C,R4*
X114443000Y-76327000D03*
X116443000Y-76327000D03*
G04 #@! TD*
G04 #@! TO.C,R1*
X128413000Y-93345000D03*
X130413000Y-93345000D03*
G04 #@! TD*
D18*
G04 #@! TO.C,C7*
X129032000Y-72986500D03*
X129032000Y-76111500D03*
G04 #@! TD*
G04 #@! TO.C,C6*
X127762000Y-126961500D03*
X127762000Y-130086500D03*
G04 #@! TD*
G04 #@! TO.C,C2*
X131826000Y-72986500D03*
X131826000Y-76111500D03*
G04 #@! TD*
D19*
G04 #@! TO.C,C4*
X127723500Y-103124000D03*
X130848500Y-103124000D03*
G04 #@! TD*
D18*
G04 #@! TO.C,C1*
X124460000Y-87299000D03*
X124460000Y-90424000D03*
G04 #@! TD*
D20*
G04 #@! TO.C,C3*
X122466500Y-116840000D03*
X119341500Y-116840000D03*
G04 #@! TD*
D19*
G04 #@! TO.C,C5*
X127723500Y-108204000D03*
X130848500Y-108204000D03*
G04 #@! TD*
D21*
G04 #@! TO.C,J1*
X117855000Y-123365000D03*
D22*
X117855000Y-129365000D03*
D23*
X122555000Y-126365000D03*
G04 #@! TD*
D24*
G04 #@! TO.C,J3*
X155194000Y-104600000D03*
D25*
X155194000Y-103100000D03*
X155194000Y-101600000D03*
G04 #@! TD*
D26*
G04 #@! TO.C,U9*
X152500000Y-109730000D03*
D27*
X146375000Y-108460000D03*
D28*
X146375000Y-111000000D03*
X146375000Y-113540000D03*
X157625000Y-113540000D03*
X157625000Y-111000000D03*
X157625000Y-108460000D03*
G04 #@! TD*
D26*
G04 #@! TO.C,U10*
X152500000Y-93730000D03*
D27*
X146375000Y-92460000D03*
D28*
X146375000Y-95000000D03*
X146375000Y-97540000D03*
X157625000Y-97540000D03*
X157625000Y-95000000D03*
X157625000Y-92460000D03*
G04 #@! TD*
D26*
G04 #@! TO.C,U5*
X103500000Y-96270000D03*
D29*
X109625000Y-97540000D03*
D28*
X109625000Y-95000000D03*
X109625000Y-92460000D03*
X98375000Y-92460000D03*
X98375000Y-95000000D03*
X98375000Y-97540000D03*
G04 #@! TD*
D26*
G04 #@! TO.C,U1*
X103500000Y-80270000D03*
D29*
X109625000Y-81540000D03*
D28*
X109625000Y-79000000D03*
X109625000Y-76460000D03*
X98375000Y-76460000D03*
X98375000Y-79000000D03*
X98375000Y-81540000D03*
G04 #@! TD*
D26*
G04 #@! TO.C,U6*
X103500000Y-112270000D03*
D29*
X109625000Y-113540000D03*
D28*
X109625000Y-111000000D03*
X109625000Y-108460000D03*
X98375000Y-108460000D03*
X98375000Y-111000000D03*
X98375000Y-113540000D03*
G04 #@! TD*
D26*
G04 #@! TO.C,U11*
X152500000Y-77730000D03*
D27*
X146375000Y-76460000D03*
D28*
X146375000Y-79000000D03*
X146375000Y-81540000D03*
X157625000Y-81540000D03*
X157625000Y-79000000D03*
X157625000Y-76460000D03*
G04 #@! TD*
D26*
G04 #@! TO.C,U7*
X103500000Y-128270000D03*
D29*
X109625000Y-129540000D03*
D28*
X109625000Y-127000000D03*
X109625000Y-124460000D03*
X98375000Y-124460000D03*
X98375000Y-127000000D03*
X98375000Y-129540000D03*
G04 #@! TD*
D26*
G04 #@! TO.C,U12*
X140716000Y-92818000D03*
D30*
X141986000Y-86693000D03*
D28*
X139446000Y-86693000D03*
X136906000Y-86693000D03*
X136906000Y-97943000D03*
X139446000Y-97943000D03*
X141986000Y-97943000D03*
G04 #@! TD*
D26*
G04 #@! TO.C,U8*
X152500000Y-125730000D03*
D27*
X146375000Y-124460000D03*
D28*
X146375000Y-127000000D03*
X146375000Y-129540000D03*
X157625000Y-129540000D03*
X157625000Y-127000000D03*
X157625000Y-124460000D03*
G04 #@! TD*
D31*
G04 #@! TO.C,U4*
X127713500Y-116806000D03*
D32*
X127713500Y-119346000D03*
X127713500Y-121886000D03*
G04 #@! TD*
D31*
G04 #@! TO.C,U3*
X122555000Y-108204000D03*
D32*
X122555000Y-105664000D03*
X122555000Y-103124000D03*
G04 #@! TD*
D33*
G04 #@! TO.C,Bus_D1*
X118012000Y-69818000D03*
D34*
X120552000Y-69818000D03*
X123092000Y-69818000D03*
X125632000Y-69818000D03*
G04 #@! TD*
D33*
G04 #@! TO.C,J11*
X136000000Y-135880000D03*
D34*
X136000000Y-138420000D03*
G04 #@! TD*
D33*
G04 #@! TO.C,J2*
X140000000Y-135880000D03*
D34*
X140000000Y-138420000D03*
G04 #@! TD*
D33*
G04 #@! TO.C,J9*
X146000000Y-70380000D03*
D34*
X143460000Y-70380000D03*
G04 #@! TD*
D35*
G04 #@! TO.C,H3*
X108500000Y-137380000D03*
G04 #@! TD*
G04 #@! TO.C,H1*
X103500000Y-71380000D03*
G04 #@! TD*
D36*
G04 #@! TO.C,J5*
X157353000Y-86106000D03*
G04 #@! TD*
D35*
G04 #@! TO.C,H4*
X147500000Y-137380000D03*
G04 #@! TD*
D37*
G04 #@! TO.C,U2*
X134892000Y-76708000D03*
X134892000Y-77358000D03*
X134892000Y-78008000D03*
X134892000Y-78658000D03*
X139192000Y-78658000D03*
X139192000Y-78008000D03*
X139192000Y-77358000D03*
X139192000Y-76708000D03*
G04 #@! TD*
D33*
G04 #@! TO.C,J4*
X150495000Y-104267000D03*
D34*
X147955000Y-104267000D03*
X145415000Y-104267000D03*
G04 #@! TD*
D35*
G04 #@! TO.C,H2*
X152500000Y-71380000D03*
G04 #@! TD*
M02*
