G04 #@! TF.GenerationSoftware,KiCad,Pcbnew,8.0.6*
G04 #@! TF.CreationDate,2026-02-10T22:38:48-07:00*
G04 #@! TF.ProjectId,pneumatic Backpack v3.0,706e6575-6d61-4746-9963-204261636b70,rev?*
G04 #@! TF.SameCoordinates,Original*
G04 #@! TF.FileFunction,Copper,L2,Bot*
G04 #@! TF.FilePolarity,Positive*
%FSLAX46Y46*%
G04 Gerber Fmt 4.6, Leading zero omitted, Abs format (unit mm)*
G04 Created by KiCad (PCBNEW 8.0.6) date 2026-02-10 22:38:48*
%MOMM*%
%LPD*%
G01*
G04 APERTURE LIST*
G04 Aperture macros list*
%AMRoundRect*
0 Rectangle with rounded corners*
0 $1 Rounding radius*
0 $2 $3 $4 $5 $6 $7 $8 $9 X,Y pos of 4 corners*
0 Add a 4 corners polygon primitive as box body*
4,1,4,$2,$3,$4,$5,$6,$7,$8,$9,$2,$3,0*
0 Add four circle primitives for the rounded corners*
1,1,$1+$1,$2,$3*
1,1,$1+$1,$4,$5*
1,1,$1+$1,$6,$7*
1,1,$1+$1,$8,$9*
0 Add four rect primitives between the rounded corners*
20,1,$1+$1,$2,$3,$4,$5,0*
20,1,$1+$1,$4,$5,$6,$7,0*
20,1,$1+$1,$6,$7,$8,$9,0*
20,1,$1+$1,$8,$9,$2,$3,0*%
G04 Aperture macros list end*
G04 #@! TA.AperFunction,ComponentPad*
%ADD10R,3.500000X3.500000*%
G04 #@! TD*
G04 #@! TA.AperFunction,ComponentPad*
%ADD11RoundRect,0.750000X1.000000X-0.750000X1.000000X0.750000X-1.000000X0.750000X-1.000000X-0.750000X0*%
G04 #@! TD*
G04 #@! TA.AperFunction,ComponentPad*
%ADD12RoundRect,0.875000X0.875000X-0.875000X0.875000X0.875000X-0.875000X0.875000X-0.875000X-0.875000X0*%
G04 #@! TD*
G04 #@! TA.AperFunction,ComponentPad*
%ADD13RoundRect,0.250000X0.615000X-0.265000X0.615000X0.265000X-0.615000X0.265000X-0.615000X-0.265000X0*%
G04 #@! TD*
G04 #@! TA.AperFunction,ComponentPad*
%ADD14O,1.730000X1.030000*%
G04 #@! TD*
G04 #@! TA.AperFunction,ComponentPad*
%ADD15R,1.130000X1.130000*%
G04 #@! TD*
G04 #@! TA.AperFunction,ComponentPad*
%ADD16C,1.130000*%
G04 #@! TD*
G04 #@! TA.AperFunction,ComponentPad*
%ADD17R,2.300000X1.500000*%
G04 #@! TD*
G04 #@! TA.AperFunction,ComponentPad*
%ADD18O,2.300000X1.500000*%
G04 #@! TD*
G04 #@! TA.AperFunction,ComponentPad*
%ADD19R,1.700000X1.700000*%
G04 #@! TD*
G04 #@! TA.AperFunction,ComponentPad*
%ADD20O,1.700000X1.700000*%
G04 #@! TD*
G04 #@! TA.AperFunction,ComponentPad*
%ADD21RoundRect,0.250000X-0.600000X-0.600000X0.600000X-0.600000X0.600000X0.600000X-0.600000X0.600000X0*%
G04 #@! TD*
G04 #@! TA.AperFunction,ViaPad*
%ADD22C,0.600000*%
G04 #@! TD*
G04 #@! TA.AperFunction,Conductor*
%ADD23C,0.200000*%
G04 #@! TD*
G04 APERTURE END LIST*
D10*
G04 #@! TO.P,J1,1*
G04 #@! TO.N,+15V*
X117855000Y-123365000D03*
D11*
G04 #@! TO.P,J1,2*
G04 #@! TO.N,GND*
X117855000Y-129365000D03*
D12*
G04 #@! TO.P,J1,3*
G04 #@! TO.N,N/C*
X122555000Y-126365000D03*
G04 #@! TD*
D13*
G04 #@! TO.P,J3,1,Pin_1*
G04 #@! TO.N,+12V*
X155194000Y-104600000D03*
D14*
G04 #@! TO.P,J3,2,Pin_2*
G04 #@! TO.N,GND*
X155194000Y-103100000D03*
G04 #@! TO.P,J3,3,Pin_3*
G04 #@! TO.N,Net-(J3-Pin_3)*
X155194000Y-101600000D03*
G04 #@! TD*
D15*
G04 #@! TO.P,U9,1,GND*
G04 #@! TO.N,GND*
X146375000Y-108460000D03*
D16*
G04 #@! TO.P,U9,2,VSUPPLY*
G04 #@! TO.N,+3.3V*
X146375000Y-111000000D03*
G04 #@! TO.P,U9,3,INT*
G04 #@! TO.N,p5*
X146375000Y-113540000D03*
G04 #@! TO.P,U9,4*
G04 #@! TO.N,N/C*
X157625000Y-113540000D03*
G04 #@! TO.P,U9,5,SDA*
G04 #@! TO.N,unconnected-(U9-SDA-Pad5)*
X157625000Y-111000000D03*
G04 #@! TO.P,U9,6,SCL*
G04 #@! TO.N,unconnected-(U9-SCL-Pad6)*
X157625000Y-108460000D03*
G04 #@! TD*
D15*
G04 #@! TO.P,U10,1,GND*
G04 #@! TO.N,GND*
X146375000Y-92460000D03*
D16*
G04 #@! TO.P,U10,2,VSUPPLY*
G04 #@! TO.N,+3.3V*
X146375000Y-95000000D03*
G04 #@! TO.P,U10,3,INT*
G04 #@! TO.N,p7*
X146375000Y-97540000D03*
G04 #@! TO.P,U10,4*
G04 #@! TO.N,N/C*
X157625000Y-97540000D03*
G04 #@! TO.P,U10,5,SDA*
G04 #@! TO.N,unconnected-(U10-SDA-Pad5)*
X157625000Y-95000000D03*
G04 #@! TO.P,U10,6,SCL*
G04 #@! TO.N,unconnected-(U10-SCL-Pad6)*
X157625000Y-92460000D03*
G04 #@! TD*
D15*
G04 #@! TO.P,U5,1,GND*
G04 #@! TO.N,GND*
X109625000Y-97540000D03*
D16*
G04 #@! TO.P,U5,2,VSUPPLY*
G04 #@! TO.N,+3.3V*
X109625000Y-95000000D03*
G04 #@! TO.P,U5,3,INT*
G04 #@! TO.N,p2*
X109625000Y-92460000D03*
G04 #@! TO.P,U5,4*
G04 #@! TO.N,N/C*
X98375000Y-92460000D03*
G04 #@! TO.P,U5,5,SDA*
G04 #@! TO.N,unconnected-(U5-SDA-Pad5)*
X98375000Y-95000000D03*
G04 #@! TO.P,U5,6,SCL*
G04 #@! TO.N,unconnected-(U5-SCL-Pad6)*
X98375000Y-97540000D03*
G04 #@! TD*
D15*
G04 #@! TO.P,U1,1,GND*
G04 #@! TO.N,GND*
X109625000Y-81540000D03*
D16*
G04 #@! TO.P,U1,2,VSUPPLY*
G04 #@! TO.N,+3.3V*
X109625000Y-79000000D03*
G04 #@! TO.P,U1,3,INT*
G04 #@! TO.N,p1*
X109625000Y-76460000D03*
G04 #@! TO.P,U1,4*
G04 #@! TO.N,N/C*
X98375000Y-76460000D03*
G04 #@! TO.P,U1,5,SDA*
G04 #@! TO.N,unconnected-(U1-SDA-Pad5)*
X98375000Y-79000000D03*
G04 #@! TO.P,U1,6,SCL*
G04 #@! TO.N,unconnected-(U1-SCL-Pad6)*
X98375000Y-81540000D03*
G04 #@! TD*
D15*
G04 #@! TO.P,U6,1,GND*
G04 #@! TO.N,GND*
X109625000Y-113540000D03*
D16*
G04 #@! TO.P,U6,2,VSUPPLY*
G04 #@! TO.N,+3.3V*
X109625000Y-111000000D03*
G04 #@! TO.P,U6,3,INT*
G04 #@! TO.N,p3*
X109625000Y-108460000D03*
G04 #@! TO.P,U6,4*
G04 #@! TO.N,N/C*
X98375000Y-108460000D03*
G04 #@! TO.P,U6,5,SDA*
G04 #@! TO.N,unconnected-(U6-SDA-Pad5)*
X98375000Y-111000000D03*
G04 #@! TO.P,U6,6,SCL*
G04 #@! TO.N,unconnected-(U6-SCL-Pad6)*
X98375000Y-113540000D03*
G04 #@! TD*
D15*
G04 #@! TO.P,U11,1,GND*
G04 #@! TO.N,GND*
X146375000Y-76460000D03*
D16*
G04 #@! TO.P,U11,2,VSUPPLY*
G04 #@! TO.N,+3.3V*
X146375000Y-79000000D03*
G04 #@! TO.P,U11,3,INT*
G04 #@! TO.N,p8*
X146375000Y-81540000D03*
G04 #@! TO.P,U11,4*
G04 #@! TO.N,N/C*
X157625000Y-81540000D03*
G04 #@! TO.P,U11,5,SDA*
G04 #@! TO.N,unconnected-(U11-SDA-Pad5)*
X157625000Y-79000000D03*
G04 #@! TO.P,U11,6,SCL*
G04 #@! TO.N,unconnected-(U11-SCL-Pad6)*
X157625000Y-76460000D03*
G04 #@! TD*
D15*
G04 #@! TO.P,U7,1,GND*
G04 #@! TO.N,GND*
X109625000Y-129540000D03*
D16*
G04 #@! TO.P,U7,2,VSUPPLY*
G04 #@! TO.N,+3.3V*
X109625000Y-127000000D03*
G04 #@! TO.P,U7,3,INT*
G04 #@! TO.N,p4*
X109625000Y-124460000D03*
G04 #@! TO.P,U7,4*
G04 #@! TO.N,N/C*
X98375000Y-124460000D03*
G04 #@! TO.P,U7,5,SDA*
G04 #@! TO.N,unconnected-(U7-SDA-Pad5)*
X98375000Y-127000000D03*
G04 #@! TO.P,U7,6,SCL*
G04 #@! TO.N,unconnected-(U7-SCL-Pad6)*
X98375000Y-129540000D03*
G04 #@! TD*
D15*
G04 #@! TO.P,U12,1,GND*
G04 #@! TO.N,GND*
X141986000Y-86693000D03*
D16*
G04 #@! TO.P,U12,2,VSUPPLY*
G04 #@! TO.N,+3.3V*
X139446000Y-86693000D03*
G04 #@! TO.P,U12,3,INT*
G04 #@! TO.N,p9*
X136906000Y-86693000D03*
G04 #@! TO.P,U12,4*
G04 #@! TO.N,N/C*
X136906000Y-97943000D03*
G04 #@! TO.P,U12,5,SDA*
G04 #@! TO.N,unconnected-(U12-SDA-Pad5)*
X139446000Y-97943000D03*
G04 #@! TO.P,U12,6,SCL*
G04 #@! TO.N,unconnected-(U12-SCL-Pad6)*
X141986000Y-97943000D03*
G04 #@! TD*
D15*
G04 #@! TO.P,U8,1,GND*
G04 #@! TO.N,GND*
X146375000Y-124460000D03*
D16*
G04 #@! TO.P,U8,2,VSUPPLY*
G04 #@! TO.N,+3.3V*
X146375000Y-127000000D03*
G04 #@! TO.P,U8,3,INT*
G04 #@! TO.N,p6*
X146375000Y-129540000D03*
G04 #@! TO.P,U8,4*
G04 #@! TO.N,N/C*
X157625000Y-129540000D03*
G04 #@! TO.P,U8,5,SDA*
G04 #@! TO.N,unconnected-(U8-SDA-Pad5)*
X157625000Y-127000000D03*
G04 #@! TO.P,U8,6,SCL*
G04 #@! TO.N,unconnected-(U8-SCL-Pad6)*
X157625000Y-124460000D03*
G04 #@! TD*
D17*
G04 #@! TO.P,U4,1,IN*
G04 #@! TO.N,+15V*
X127713500Y-116806000D03*
D18*
G04 #@! TO.P,U4,2,GND*
G04 #@! TO.N,GND*
X127713500Y-119346000D03*
G04 #@! TO.P,U4,3,OUT*
G04 #@! TO.N,+12V*
X127713500Y-121886000D03*
G04 #@! TD*
D17*
G04 #@! TO.P,U3,1,IN*
G04 #@! TO.N,+15V*
X122555000Y-108204000D03*
D18*
G04 #@! TO.P,U3,2,GND*
G04 #@! TO.N,GND*
X122555000Y-105664000D03*
G04 #@! TO.P,U3,3,OUT*
G04 #@! TO.N,+3.3V*
X122555000Y-103124000D03*
G04 #@! TD*
D19*
G04 #@! TO.P,Bus_D1,1,Pin_1*
G04 #@! TO.N,sck*
X118012000Y-69818000D03*
D20*
G04 #@! TO.P,Bus_D1,2,Pin_2*
G04 #@! TO.N,SDO*
X120552000Y-69818000D03*
G04 #@! TO.P,Bus_D1,3,Pin_3*
G04 #@! TO.N,PCS*
X123092000Y-69818000D03*
G04 #@! TO.P,Bus_D1,4,Pin_4*
G04 #@! TO.N,SDI*
X125632000Y-69818000D03*
G04 #@! TD*
D19*
G04 #@! TO.P,J11,1,Pin_1*
G04 #@! TO.N,+3.3V*
X136000000Y-135880000D03*
D20*
G04 #@! TO.P,J11,2,Pin_2*
G04 #@! TO.N,GND*
X136000000Y-138420000D03*
G04 #@! TD*
D19*
G04 #@! TO.P,J2,1,Pin_1*
G04 #@! TO.N,+12V*
X140000000Y-135880000D03*
D20*
G04 #@! TO.P,J2,2,Pin_2*
G04 #@! TO.N,GND*
X140000000Y-138420000D03*
G04 #@! TD*
D19*
G04 #@! TO.P,J9,1,Pin_1*
G04 #@! TO.N,EOSC*
X146000000Y-70380000D03*
D20*
G04 #@! TO.P,J9,2,Pin_2*
G04 #@! TO.N,GND*
X143460000Y-70380000D03*
G04 #@! TD*
D21*
G04 #@! TO.P,J5,1,Pin_1*
G04 #@! TO.N,Net-(J5-Pin_1)*
X157353000Y-86106000D03*
G04 #@! TD*
D19*
G04 #@! TO.P,J4,1,Pin_1*
G04 #@! TO.N,Net-(J4-Pin_1)*
X150495000Y-104267000D03*
D20*
G04 #@! TO.P,J4,2,Pin_2*
G04 #@! TO.N,Net-(J4-Pin_2)*
X147955000Y-104267000D03*
G04 #@! TO.P,J4,3,Pin_3*
G04 #@! TO.N,GND*
X145415000Y-104267000D03*
G04 #@! TD*
D22*
G04 #@! TO.N,GND*
X117729000Y-116840000D03*
X121920000Y-76073000D03*
X122936000Y-78128400D03*
X136652000Y-78658000D03*
X121793000Y-80264000D03*
X133223000Y-108331000D03*
X124079000Y-76073000D03*
X124079000Y-80264000D03*
X128413000Y-93345000D03*
G04 #@! TO.N,EOSC*
X124460000Y-87299000D03*
X123825000Y-72390000D03*
G04 #@! TO.N,Net-(A1-ADCINP)*
X137042000Y-77556000D03*
X127000000Y-77978000D03*
G04 #@! TD*
D23*
G04 #@! TO.N,EOSC*
X143355000Y-73025000D02*
X146000000Y-70380000D01*
X123825000Y-72390000D02*
X124460000Y-73025000D01*
X124460000Y-73025000D02*
X143355000Y-73025000D01*
X129081000Y-87299000D02*
X146000000Y-70380000D01*
X124460000Y-87299000D02*
X129081000Y-87299000D01*
G04 #@! TO.N,Net-(A1-ADCINP)*
X127000000Y-77978000D02*
X136620000Y-77978000D01*
X136620000Y-77978000D02*
X136661000Y-77937000D01*
X136661000Y-77937000D02*
X137042000Y-77556000D01*
G04 #@! TD*
G04 #@! TA.AperFunction,Conductor*
G04 #@! TO.N,GND*
G36*
X116806115Y-68400185D02*
G01*
X116851870Y-68452989D01*
X116861814Y-68522147D01*
X116832789Y-68585703D01*
X116813389Y-68603765D01*
X116804454Y-68610453D01*
X116804452Y-68610455D01*
X116718206Y-68725664D01*
X116718202Y-68725671D01*
X116667908Y-68860517D01*
X116661501Y-68920116D01*
X116661500Y-68920135D01*
X116661500Y-70715870D01*
X116661501Y-70715876D01*
X116667908Y-70775483D01*
X116718202Y-70910328D01*
X116718206Y-70910335D01*
X116804452Y-71025544D01*
X116804455Y-71025547D01*
X116919664Y-71111793D01*
X116919671Y-71111797D01*
X117054517Y-71162091D01*
X117054516Y-71162091D01*
X117061444Y-71162835D01*
X117114127Y-71168500D01*
X118909872Y-71168499D01*
X118969483Y-71162091D01*
X119104331Y-71111796D01*
X119219546Y-71025546D01*
X119305796Y-70910331D01*
X119354810Y-70778916D01*
X119396681Y-70722984D01*
X119462145Y-70698566D01*
X119530418Y-70713417D01*
X119558673Y-70734569D01*
X119680599Y-70856495D01*
X119777384Y-70924265D01*
X119874165Y-70992032D01*
X119874167Y-70992033D01*
X119874170Y-70992035D01*
X120088337Y-71091903D01*
X120316592Y-71153063D01*
X120493034Y-71168500D01*
X120551999Y-71173659D01*
X120552000Y-71173659D01*
X120552001Y-71173659D01*
X120610966Y-71168500D01*
X120787408Y-71153063D01*
X121015663Y-71091903D01*
X121229830Y-70992035D01*
X121423401Y-70856495D01*
X121590495Y-70689401D01*
X121720425Y-70503842D01*
X121775002Y-70460217D01*
X121844500Y-70453023D01*
X121906855Y-70484546D01*
X121923575Y-70503842D01*
X122053500Y-70689395D01*
X122053505Y-70689401D01*
X122220599Y-70856495D01*
X122317384Y-70924265D01*
X122414165Y-70992032D01*
X122414167Y-70992033D01*
X122414170Y-70992035D01*
X122628337Y-71091903D01*
X122856592Y-71153063D01*
X123033034Y-71168500D01*
X123091999Y-71173659D01*
X123092000Y-71173659D01*
X123092001Y-71173659D01*
X123150966Y-71168500D01*
X123327408Y-71153063D01*
X123555663Y-71091903D01*
X123769830Y-70992035D01*
X123963401Y-70856495D01*
X124130495Y-70689401D01*
X124260425Y-70503842D01*
X124315002Y-70460217D01*
X124384500Y-70453023D01*
X124446855Y-70484546D01*
X124463575Y-70503842D01*
X124593500Y-70689395D01*
X124593505Y-70689401D01*
X124760599Y-70856495D01*
X124857384Y-70924265D01*
X124954165Y-70992032D01*
X124954167Y-70992033D01*
X124954170Y-70992035D01*
X125168337Y-71091903D01*
X125396592Y-71153063D01*
X125573034Y-71168500D01*
X125631999Y-71173659D01*
X125632000Y-71173659D01*
X125632001Y-71173659D01*
X125690966Y-71168500D01*
X125867408Y-71153063D01*
X126095663Y-71091903D01*
X126309830Y-70992035D01*
X126503401Y-70856495D01*
X126670495Y-70689401D01*
X126806035Y-70495830D01*
X126905903Y-70281663D01*
X126967063Y-70053408D01*
X126987659Y-69818000D01*
X126967063Y-69582592D01*
X126905903Y-69354337D01*
X126806035Y-69140171D01*
X126800425Y-69132158D01*
X126670494Y-68946597D01*
X126503402Y-68779506D01*
X126503395Y-68779501D01*
X126309834Y-68643967D01*
X126309830Y-68643965D01*
X126251750Y-68616882D01*
X126199311Y-68570710D01*
X126180159Y-68503516D01*
X126200375Y-68436635D01*
X126253540Y-68391300D01*
X126304155Y-68380500D01*
X154934108Y-68380500D01*
X154997294Y-68380500D01*
X155002702Y-68380617D01*
X155386771Y-68397386D01*
X155397506Y-68398326D01*
X155775971Y-68448152D01*
X155786597Y-68450025D01*
X156159284Y-68532648D01*
X156169710Y-68535442D01*
X156533765Y-68650227D01*
X156543911Y-68653920D01*
X156896578Y-68800000D01*
X156906369Y-68804566D01*
X157128360Y-68920127D01*
X157244942Y-68980816D01*
X157254310Y-68986224D01*
X157576244Y-69191318D01*
X157585105Y-69197523D01*
X157887930Y-69429889D01*
X157896217Y-69436843D01*
X158177635Y-69694715D01*
X158185284Y-69702364D01*
X158443156Y-69983782D01*
X158450110Y-69992069D01*
X158682476Y-70294894D01*
X158688681Y-70303755D01*
X158893775Y-70625689D01*
X158899183Y-70635057D01*
X159075430Y-70973623D01*
X159080002Y-70983427D01*
X159226075Y-71336078D01*
X159229775Y-71346244D01*
X159344554Y-71710278D01*
X159347354Y-71720727D01*
X159429971Y-72093389D01*
X159431849Y-72104042D01*
X159481671Y-72482473D01*
X159482614Y-72493249D01*
X159499382Y-72877297D01*
X159499500Y-72882706D01*
X159499500Y-135877293D01*
X159499382Y-135882702D01*
X159482614Y-136266750D01*
X159481671Y-136277526D01*
X159431849Y-136655957D01*
X159429971Y-136666610D01*
X159347354Y-137039272D01*
X159344554Y-137049721D01*
X159229775Y-137413755D01*
X159226075Y-137423921D01*
X159080002Y-137776572D01*
X159075430Y-137786376D01*
X158899183Y-138124942D01*
X158893775Y-138134310D01*
X158688681Y-138456244D01*
X158682476Y-138465105D01*
X158450110Y-138767930D01*
X158443156Y-138776217D01*
X158185284Y-139057635D01*
X158177635Y-139065284D01*
X157896217Y-139323156D01*
X157887930Y-139330110D01*
X157585105Y-139562476D01*
X157576244Y-139568681D01*
X157254310Y-139773775D01*
X157244942Y-139779183D01*
X156906376Y-139955430D01*
X156896572Y-139960002D01*
X156543921Y-140106075D01*
X156533755Y-140109775D01*
X156169721Y-140224554D01*
X156159272Y-140227354D01*
X155786610Y-140309971D01*
X155775957Y-140311849D01*
X155397526Y-140361671D01*
X155386750Y-140362614D01*
X155002703Y-140379382D01*
X154997294Y-140379500D01*
X101002706Y-140379500D01*
X100997297Y-140379382D01*
X100613249Y-140362614D01*
X100602473Y-140361671D01*
X100224042Y-140311849D01*
X100213389Y-140309971D01*
X99840727Y-140227354D01*
X99830278Y-140224554D01*
X99466244Y-140109775D01*
X99456078Y-140106075D01*
X99103427Y-139960002D01*
X99093623Y-139955430D01*
X98755057Y-139779183D01*
X98745689Y-139773775D01*
X98423755Y-139568681D01*
X98414894Y-139562476D01*
X98112069Y-139330110D01*
X98103782Y-139323156D01*
X97822364Y-139065284D01*
X97814715Y-139057635D01*
X97556843Y-138776217D01*
X97549889Y-138767930D01*
X97317523Y-138465105D01*
X97311318Y-138456244D01*
X97106224Y-138134310D01*
X97100816Y-138124942D01*
X96924569Y-137786376D01*
X96919997Y-137776572D01*
X96825703Y-137548926D01*
X96773920Y-137423911D01*
X96770224Y-137413755D01*
X96723282Y-137264873D01*
X96722345Y-137261902D01*
X106999500Y-137261902D01*
X106999500Y-137498097D01*
X107036446Y-137731368D01*
X107109433Y-137955996D01*
X107216657Y-138166433D01*
X107355483Y-138357510D01*
X107522490Y-138524517D01*
X107713567Y-138663343D01*
X107781646Y-138698031D01*
X107924003Y-138770566D01*
X107924005Y-138770566D01*
X107924008Y-138770568D01*
X108044412Y-138809689D01*
X108148631Y-138843553D01*
X108381903Y-138880500D01*
X108381908Y-138880500D01*
X108618097Y-138880500D01*
X108851368Y-138843553D01*
X109075992Y-138770568D01*
X109286433Y-138663343D01*
X109477510Y-138524517D01*
X109644517Y-138357510D01*
X109783343Y-138166433D01*
X109890568Y-137955992D01*
X109963553Y-137731368D01*
X109992450Y-137548920D01*
X110000500Y-137498097D01*
X110000500Y-137261902D01*
X109963553Y-137028631D01*
X109929689Y-136924412D01*
X109890568Y-136804008D01*
X109890566Y-136804005D01*
X109890566Y-136804003D01*
X109783342Y-136593566D01*
X109759647Y-136560953D01*
X109644517Y-136402490D01*
X109477510Y-136235483D01*
X109286433Y-136096657D01*
X109075996Y-135989433D01*
X108851368Y-135916446D01*
X108618097Y-135879500D01*
X108618092Y-135879500D01*
X108381908Y-135879500D01*
X108381903Y-135879500D01*
X108148631Y-135916446D01*
X107924003Y-135989433D01*
X107713566Y-136096657D01*
X107604550Y-136175862D01*
X107522490Y-136235483D01*
X107522488Y-136235485D01*
X107522487Y-136235485D01*
X107355485Y-136402487D01*
X107355485Y-136402488D01*
X107355483Y-136402490D01*
X107295862Y-136484550D01*
X107216657Y-136593566D01*
X107109433Y-136804003D01*
X107036446Y-137028631D01*
X106999500Y-137261902D01*
X96722345Y-137261902D01*
X96655442Y-137049710D01*
X96652648Y-137039284D01*
X96570025Y-136666597D01*
X96568152Y-136655971D01*
X96518326Y-136277506D01*
X96517386Y-136266771D01*
X96500618Y-135882702D01*
X96500500Y-135877293D01*
X96500500Y-134982135D01*
X134649500Y-134982135D01*
X134649500Y-136777870D01*
X134649501Y-136777876D01*
X134655908Y-136837483D01*
X134706202Y-136972328D01*
X134706206Y-136972335D01*
X134792452Y-137087544D01*
X134792455Y-137087547D01*
X134907664Y-137173793D01*
X134907671Y-137173797D01*
X134907674Y-137173798D01*
X135039598Y-137223002D01*
X135095531Y-137264873D01*
X135119949Y-137330337D01*
X135105098Y-137398610D01*
X135083947Y-137426865D01*
X134961886Y-137548926D01*
X134826400Y-137742420D01*
X134826399Y-137742422D01*
X134726570Y-137956507D01*
X134726567Y-137956513D01*
X134669364Y-138169999D01*
X134669364Y-138170000D01*
X135566988Y-138170000D01*
X135534075Y-138227007D01*
X135500000Y-138354174D01*
X135500000Y-138485826D01*
X135534075Y-138612993D01*
X135566988Y-138670000D01*
X134669364Y-138670000D01*
X134726567Y-138883486D01*
X134726570Y-138883492D01*
X134826399Y-139097578D01*
X134961894Y-139291082D01*
X135128917Y-139458105D01*
X135322421Y-139593600D01*
X135536507Y-139693429D01*
X135536516Y-139693433D01*
X135750000Y-139750634D01*
X135750000Y-138853012D01*
X135807007Y-138885925D01*
X135934174Y-138920000D01*
X136065826Y-138920000D01*
X136192993Y-138885925D01*
X136250000Y-138853012D01*
X136250000Y-139750633D01*
X136463483Y-139693433D01*
X136463492Y-139693429D01*
X136677578Y-139593600D01*
X136871082Y-139458105D01*
X137038105Y-139291082D01*
X137173600Y-139097578D01*
X137273429Y-138883492D01*
X137273432Y-138883486D01*
X137330636Y-138670000D01*
X136433012Y-138670000D01*
X136465925Y-138612993D01*
X136500000Y-138485826D01*
X136500000Y-138354174D01*
X136465925Y-138227007D01*
X136433012Y-138170000D01*
X137330636Y-138170000D01*
X137330635Y-138169999D01*
X137273432Y-137956513D01*
X137273429Y-137956507D01*
X137173600Y-137742422D01*
X137173599Y-137742420D01*
X137038113Y-137548926D01*
X137038108Y-137548920D01*
X136916053Y-137426865D01*
X136882568Y-137365542D01*
X136887552Y-137295850D01*
X136929424Y-137239917D01*
X136960400Y-137223002D01*
X137092331Y-137173796D01*
X137207546Y-137087546D01*
X137293796Y-136972331D01*
X137344091Y-136837483D01*
X137350500Y-136777873D01*
X137350499Y-134982135D01*
X138649500Y-134982135D01*
X138649500Y-136777870D01*
X138649501Y-136777876D01*
X138655908Y-136837483D01*
X138706202Y-136972328D01*
X138706206Y-136972335D01*
X138792452Y-137087544D01*
X138792455Y-137087547D01*
X138907664Y-137173793D01*
X138907671Y-137173797D01*
X138907674Y-137173798D01*
X139039598Y-137223002D01*
X139095531Y-137264873D01*
X139119949Y-137330337D01*
X139105098Y-137398610D01*
X139083947Y-137426865D01*
X138961886Y-137548926D01*
X138826400Y-137742420D01*
X138826399Y-137742422D01*
X138726570Y-137956507D01*
X138726567Y-137956513D01*
X138669364Y-138169999D01*
X138669364Y-138170000D01*
X139566988Y-138170000D01*
X139534075Y-138227007D01*
X139500000Y-138354174D01*
X139500000Y-138485826D01*
X139534075Y-138612993D01*
X139566988Y-138670000D01*
X138669364Y-138670000D01*
X138726567Y-138883486D01*
X138726570Y-138883492D01*
X138826399Y-139097578D01*
X138961894Y-139291082D01*
X139128917Y-139458105D01*
X139322421Y-139593600D01*
X139536507Y-139693429D01*
X139536516Y-139693433D01*
X139750000Y-139750634D01*
X139750000Y-138853012D01*
X139807007Y-138885925D01*
X139934174Y-138920000D01*
X140065826Y-138920000D01*
X140192993Y-138885925D01*
X140250000Y-138853012D01*
X140250000Y-139750633D01*
X140463483Y-139693433D01*
X140463492Y-139693429D01*
X140677578Y-139593600D01*
X140871082Y-139458105D01*
X141038105Y-139291082D01*
X141173600Y-139097578D01*
X141273429Y-138883492D01*
X141273432Y-138883486D01*
X141330636Y-138670000D01*
X140433012Y-138670000D01*
X140465925Y-138612993D01*
X140500000Y-138485826D01*
X140500000Y-138354174D01*
X140465925Y-138227007D01*
X140433012Y-138170000D01*
X141330636Y-138170000D01*
X141330635Y-138169999D01*
X141273432Y-137956513D01*
X141273429Y-137956507D01*
X141173600Y-137742422D01*
X141173599Y-137742420D01*
X141038113Y-137548926D01*
X141038108Y-137548920D01*
X140916053Y-137426865D01*
X140882568Y-137365542D01*
X140887552Y-137295850D01*
X140912966Y-137261902D01*
X145999500Y-137261902D01*
X145999500Y-137498097D01*
X146036446Y-137731368D01*
X146109433Y-137955996D01*
X146216657Y-138166433D01*
X146355483Y-138357510D01*
X146522490Y-138524517D01*
X146713567Y-138663343D01*
X146781646Y-138698031D01*
X146924003Y-138770566D01*
X146924005Y-138770566D01*
X146924008Y-138770568D01*
X147044412Y-138809689D01*
X147148631Y-138843553D01*
X147381903Y-138880500D01*
X147381908Y-138880500D01*
X147618097Y-138880500D01*
X147851368Y-138843553D01*
X148075992Y-138770568D01*
X148286433Y-138663343D01*
X148477510Y-138524517D01*
X148644517Y-138357510D01*
X148783343Y-138166433D01*
X148890568Y-137955992D01*
X148963553Y-137731368D01*
X148992450Y-137548920D01*
X149000500Y-137498097D01*
X149000500Y-137261902D01*
X148963553Y-137028631D01*
X148929689Y-136924412D01*
X148890568Y-136804008D01*
X148890566Y-136804005D01*
X148890566Y-136804003D01*
X148783342Y-136593566D01*
X148759647Y-136560953D01*
X148644517Y-136402490D01*
X148477510Y-136235483D01*
X148286433Y-136096657D01*
X148075996Y-135989433D01*
X147851368Y-135916446D01*
X147618097Y-135879500D01*
X147618092Y-135879500D01*
X147381908Y-135879500D01*
X147381903Y-135879500D01*
X147148631Y-135916446D01*
X146924003Y-135989433D01*
X146713566Y-136096657D01*
X146604550Y-136175862D01*
X146522490Y-136235483D01*
X146522488Y-136235485D01*
X146522487Y-136235485D01*
X146355485Y-136402487D01*
X146355485Y-136402488D01*
X146355483Y-136402490D01*
X146295862Y-136484550D01*
X146216657Y-136593566D01*
X146109433Y-136804003D01*
X146036446Y-137028631D01*
X145999500Y-137261902D01*
X140912966Y-137261902D01*
X140929424Y-137239917D01*
X140960400Y-137223002D01*
X141092331Y-137173796D01*
X141207546Y-137087546D01*
X141293796Y-136972331D01*
X141344091Y-136837483D01*
X141350500Y-136777873D01*
X141350499Y-134982128D01*
X141344091Y-134922517D01*
X141293796Y-134787669D01*
X141293795Y-134787668D01*
X141293793Y-134787664D01*
X141207547Y-134672455D01*
X141207544Y-134672452D01*
X141092335Y-134586206D01*
X141092328Y-134586202D01*
X140957482Y-134535908D01*
X140957483Y-134535908D01*
X140897883Y-134529501D01*
X140897881Y-134529500D01*
X140897873Y-134529500D01*
X140897864Y-134529500D01*
X139102129Y-134529500D01*
X139102123Y-134529501D01*
X139042516Y-134535908D01*
X138907671Y-134586202D01*
X138907664Y-134586206D01*
X138792455Y-134672452D01*
X138792452Y-134672455D01*
X138706206Y-134787664D01*
X138706202Y-134787671D01*
X138655908Y-134922517D01*
X138649501Y-134982116D01*
X138649501Y-134982123D01*
X138649500Y-134982135D01*
X137350499Y-134982135D01*
X137350499Y-134982128D01*
X137344091Y-134922517D01*
X137293796Y-134787669D01*
X137293795Y-134787668D01*
X137293793Y-134787664D01*
X137207547Y-134672455D01*
X137207544Y-134672452D01*
X137092335Y-134586206D01*
X137092328Y-134586202D01*
X136957482Y-134535908D01*
X136957483Y-134535908D01*
X136897883Y-134529501D01*
X136897881Y-134529500D01*
X136897873Y-134529500D01*
X136897864Y-134529500D01*
X135102129Y-134529500D01*
X135102123Y-134529501D01*
X135042516Y-134535908D01*
X134907671Y-134586202D01*
X134907664Y-134586206D01*
X134792455Y-134672452D01*
X134792452Y-134672455D01*
X134706206Y-134787664D01*
X134706202Y-134787671D01*
X134655908Y-134922517D01*
X134649501Y-134982116D01*
X134649501Y-134982123D01*
X134649500Y-134982135D01*
X96500500Y-134982135D01*
X96500500Y-129540000D01*
X97304345Y-129540000D01*
X97324917Y-129748876D01*
X97385844Y-129949723D01*
X97484779Y-130134818D01*
X97484783Y-130134825D01*
X97617932Y-130297067D01*
X97780174Y-130430216D01*
X97780181Y-130430220D01*
X97839993Y-130462190D01*
X97965278Y-130529156D01*
X98166126Y-130590083D01*
X98375000Y-130610655D01*
X98583874Y-130590083D01*
X98784722Y-130529156D01*
X98969824Y-130430217D01*
X99132067Y-130297067D01*
X99265217Y-130134824D01*
X99364156Y-129949722D01*
X99425083Y-129748874D01*
X99445655Y-129540000D01*
X99425083Y-129331126D01*
X99364156Y-129130278D01*
X99325519Y-129057993D01*
X99265220Y-128945181D01*
X99265216Y-128945174D01*
X99250428Y-128927155D01*
X108560000Y-128927155D01*
X108560000Y-129290000D01*
X109358811Y-129290000D01*
X109332927Y-129315884D01*
X109284874Y-129399115D01*
X109260000Y-129491947D01*
X109260000Y-129588053D01*
X109284874Y-129680885D01*
X109332927Y-129764116D01*
X109358811Y-129790000D01*
X108560000Y-129790000D01*
X108560000Y-130152844D01*
X108566401Y-130212372D01*
X108566403Y-130212379D01*
X108616645Y-130347086D01*
X108616649Y-130347093D01*
X108702809Y-130462187D01*
X108702812Y-130462190D01*
X108817906Y-130548350D01*
X108817913Y-130548354D01*
X108952620Y-130598596D01*
X108952627Y-130598598D01*
X109012155Y-130604999D01*
X109012172Y-130605000D01*
X109375000Y-130605000D01*
X109375000Y-129806189D01*
X109400884Y-129832073D01*
X109484115Y-129880126D01*
X109576947Y-129905000D01*
X109673053Y-129905000D01*
X109765885Y-129880126D01*
X109849116Y-129832073D01*
X109875000Y-129806189D01*
X109875000Y-130605000D01*
X110237828Y-130605000D01*
X110237844Y-130604999D01*
X110297372Y-130598598D01*
X110297379Y-130598596D01*
X110432086Y-130548354D01*
X110432093Y-130548350D01*
X110547187Y-130462190D01*
X110547190Y-130462187D01*
X110633350Y-130347093D01*
X110633354Y-130347086D01*
X110683596Y-130212379D01*
X110683598Y-130212372D01*
X110689999Y-130152844D01*
X110690000Y-130152827D01*
X110690000Y-129790000D01*
X109891189Y-129790000D01*
X109917073Y-129764116D01*
X109965126Y-129680885D01*
X109990000Y-129588053D01*
X109990000Y-129491947D01*
X109965126Y-129399115D01*
X109917073Y-129315884D01*
X109891189Y-129290000D01*
X110690000Y-129290000D01*
X110690000Y-128927172D01*
X110689999Y-128927155D01*
X110683598Y-128867627D01*
X110683596Y-128867620D01*
X110633354Y-128732913D01*
X110633350Y-128732906D01*
X110547190Y-128617812D01*
X110547187Y-128617809D01*
X110457679Y-128550803D01*
X115605000Y-128550803D01*
X115605000Y-129115000D01*
X116421988Y-129115000D01*
X116389075Y-129172007D01*
X116355000Y-129299174D01*
X116355000Y-129430826D01*
X116389075Y-129557993D01*
X116421988Y-129615000D01*
X115605001Y-129615000D01*
X115605001Y-130179197D01*
X115615400Y-130311332D01*
X115670377Y-130529519D01*
X115763428Y-130734374D01*
X115763431Y-130734380D01*
X115891559Y-130919323D01*
X115891569Y-130919335D01*
X116050664Y-131078430D01*
X116050676Y-131078440D01*
X116235619Y-131206568D01*
X116235625Y-131206571D01*
X116440480Y-131299622D01*
X116658667Y-131354599D01*
X116790810Y-131364999D01*
X117604999Y-131364999D01*
X117605000Y-131364998D01*
X117605000Y-129865000D01*
X118105000Y-129865000D01*
X118105000Y-131364999D01*
X118919182Y-131364999D01*
X118919197Y-131364998D01*
X119051332Y-131354599D01*
X119269519Y-131299622D01*
X119474374Y-131206571D01*
X119474380Y-131206568D01*
X119659323Y-131078440D01*
X119659335Y-131078430D01*
X119818430Y-130919335D01*
X119818440Y-130919323D01*
X119946568Y-130734380D01*
X119946571Y-130734374D01*
X120039622Y-130529519D01*
X120094599Y-130311332D01*
X120104999Y-130179196D01*
X120105000Y-130179184D01*
X120105000Y-129615000D01*
X119288012Y-129615000D01*
X119320925Y-129557993D01*
X119325746Y-129540000D01*
X145304345Y-129540000D01*
X145324917Y-129748876D01*
X145385844Y-129949723D01*
X145484779Y-130134818D01*
X145484783Y-130134825D01*
X145617932Y-130297067D01*
X145780174Y-130430216D01*
X145780181Y-130430220D01*
X145839993Y-130462190D01*
X145965278Y-130529156D01*
X146166126Y-130590083D01*
X146375000Y-130610655D01*
X146583874Y-130590083D01*
X146784722Y-130529156D01*
X146969824Y-130430217D01*
X147132067Y-130297067D01*
X147265217Y-130134824D01*
X147364156Y-129949722D01*
X147425083Y-129748874D01*
X147445655Y-129540000D01*
X156554345Y-129540000D01*
X156574917Y-129748876D01*
X156635844Y-129949723D01*
X156734779Y-130134818D01*
X156734783Y-130134825D01*
X156867932Y-130297067D01*
X157030174Y-130430216D01*
X157030181Y-130430220D01*
X157089993Y-130462190D01*
X157215278Y-130529156D01*
X157416126Y-130590083D01*
X157625000Y-130610655D01*
X157833874Y-130590083D01*
X158034722Y-130529156D01*
X158219824Y-130430217D01*
X158382067Y-130297067D01*
X158515217Y-130134824D01*
X158614156Y-129949722D01*
X158675083Y-129748874D01*
X158695655Y-129540000D01*
X158675083Y-129331126D01*
X158614156Y-129130278D01*
X158575519Y-129057993D01*
X158515220Y-128945181D01*
X158515216Y-128945174D01*
X158382067Y-128782932D01*
X158219825Y-128649783D01*
X158219818Y-128649779D01*
X158034723Y-128550844D01*
X157833876Y-128489917D01*
X157625000Y-128469345D01*
X157416123Y-128489917D01*
X157215276Y-128550844D01*
X157030181Y-128649779D01*
X157030174Y-128649783D01*
X156867932Y-128782932D01*
X156734783Y-128945174D01*
X156734779Y-128945181D01*
X156635844Y-129130276D01*
X156574917Y-129331123D01*
X156554345Y-129540000D01*
X147445655Y-129540000D01*
X147425083Y-129331126D01*
X147364156Y-129130278D01*
X147325519Y-129057993D01*
X147265220Y-128945181D01*
X147265216Y-128945174D01*
X147132067Y-128782932D01*
X146969825Y-128649783D01*
X146969818Y-128649779D01*
X146784723Y-128550844D01*
X146583876Y-128489917D01*
X146375000Y-128469345D01*
X146166123Y-128489917D01*
X145965276Y-128550844D01*
X145780181Y-128649779D01*
X145780174Y-128649783D01*
X145617932Y-128782932D01*
X145484783Y-128945174D01*
X145484779Y-128945181D01*
X145385844Y-129130276D01*
X145324917Y-129331123D01*
X145304345Y-129540000D01*
X119325746Y-129540000D01*
X119355000Y-129430826D01*
X119355000Y-129299174D01*
X119320925Y-129172007D01*
X119288012Y-129115000D01*
X120104999Y-129115000D01*
X120104999Y-128550817D01*
X120104998Y-128550802D01*
X120094599Y-128418667D01*
X120039622Y-128200480D01*
X119946571Y-127995625D01*
X119946568Y-127995619D01*
X119818440Y-127810676D01*
X119818430Y-127810664D01*
X119659335Y-127651569D01*
X119659323Y-127651559D01*
X119474380Y-127523431D01*
X119474374Y-127523428D01*
X119269519Y-127430377D01*
X119051332Y-127375400D01*
X118919196Y-127365000D01*
X118105000Y-127365000D01*
X118105000Y-128865000D01*
X117605000Y-128865000D01*
X117605000Y-127365000D01*
X116790817Y-127365000D01*
X116790802Y-127365001D01*
X116658667Y-127375400D01*
X116440480Y-127430377D01*
X116235625Y-127523428D01*
X116235619Y-127523431D01*
X116050676Y-127651559D01*
X116050664Y-127651569D01*
X115891569Y-127810664D01*
X115891559Y-127810676D01*
X115763431Y-127995619D01*
X115763428Y-127995625D01*
X115670377Y-128200480D01*
X115615400Y-128418667D01*
X115605000Y-128550803D01*
X110457679Y-128550803D01*
X110432093Y-128531649D01*
X110432086Y-128531645D01*
X110297379Y-128481403D01*
X110297372Y-128481401D01*
X110237844Y-128475000D01*
X109875000Y-128475000D01*
X109875000Y-129273811D01*
X109849116Y-129247927D01*
X109765885Y-129199874D01*
X109673053Y-129175000D01*
X109576947Y-129175000D01*
X109484115Y-129199874D01*
X109400884Y-129247927D01*
X109375000Y-129273811D01*
X109375000Y-128475000D01*
X109012155Y-128475000D01*
X108952627Y-128481401D01*
X108952620Y-128481403D01*
X108817913Y-128531645D01*
X108817906Y-128531649D01*
X108702812Y-128617809D01*
X108702809Y-128617812D01*
X108616649Y-128732906D01*
X108616645Y-128732913D01*
X108566403Y-128867620D01*
X108566401Y-128867627D01*
X108560000Y-128927155D01*
X99250428Y-128927155D01*
X99132067Y-128782932D01*
X98969825Y-128649783D01*
X98969818Y-128649779D01*
X98784723Y-128550844D01*
X98583876Y-128489917D01*
X98375000Y-128469345D01*
X98166123Y-128489917D01*
X97965276Y-128550844D01*
X97780181Y-128649779D01*
X97780174Y-128649783D01*
X97617932Y-128782932D01*
X97484783Y-128945174D01*
X97484779Y-128945181D01*
X97385844Y-129130276D01*
X97324917Y-129331123D01*
X97304345Y-129540000D01*
X96500500Y-129540000D01*
X96500500Y-128334071D01*
X102849499Y-128334071D01*
X102874497Y-128459738D01*
X102874499Y-128459744D01*
X102923533Y-128578124D01*
X102923538Y-128578133D01*
X102994723Y-128684668D01*
X102994726Y-128684672D01*
X103085327Y-128775273D01*
X103085331Y-128775276D01*
X103191866Y-128846461D01*
X103191872Y-128846464D01*
X103191873Y-128846465D01*
X103310256Y-128895501D01*
X103310260Y-128895501D01*
X103310261Y-128895502D01*
X103435928Y-128920500D01*
X103435931Y-128920500D01*
X103564071Y-128920500D01*
X103648615Y-128903682D01*
X103689744Y-128895501D01*
X103808127Y-128846465D01*
X103914669Y-128775276D01*
X104005276Y-128684669D01*
X104076465Y-128578127D01*
X104125501Y-128459744D01*
X104150500Y-128334069D01*
X104150500Y-128205931D01*
X104150500Y-128205928D01*
X104125502Y-128080261D01*
X104125501Y-128080260D01*
X104125501Y-128080256D01*
X104076465Y-127961873D01*
X104076464Y-127961872D01*
X104076461Y-127961866D01*
X104005276Y-127855331D01*
X104005273Y-127855327D01*
X103914672Y-127764726D01*
X103914668Y-127764723D01*
X103808133Y-127693538D01*
X103808124Y-127693533D01*
X103689744Y-127644499D01*
X103689738Y-127644497D01*
X103564071Y-127619500D01*
X103564069Y-127619500D01*
X103435931Y-127619500D01*
X103435929Y-127619500D01*
X103310261Y-127644497D01*
X103310255Y-127644499D01*
X103191875Y-127693533D01*
X103191866Y-127693538D01*
X103085331Y-127764723D01*
X103085327Y-127764726D01*
X102994726Y-127855327D01*
X102994723Y-127855331D01*
X102923538Y-127961866D01*
X102923533Y-127961875D01*
X102874499Y-128080255D01*
X102874497Y-128080261D01*
X102849500Y-128205928D01*
X102849500Y-128205931D01*
X102849500Y-128334069D01*
X102849500Y-128334071D01*
X102849499Y-128334071D01*
X96500500Y-128334071D01*
X96500500Y-127000000D01*
X97304345Y-127000000D01*
X97324917Y-127208876D01*
X97385844Y-127409723D01*
X97484779Y-127594818D01*
X97484783Y-127594825D01*
X97617932Y-127757067D01*
X97780174Y-127890216D01*
X97780181Y-127890220D01*
X97914222Y-127961866D01*
X97965278Y-127989156D01*
X98166126Y-128050083D01*
X98375000Y-128070655D01*
X98583874Y-128050083D01*
X98784722Y-127989156D01*
X98969824Y-127890217D01*
X99132067Y-127757067D01*
X99265217Y-127594824D01*
X99364156Y-127409722D01*
X99425083Y-127208874D01*
X99445655Y-127000000D01*
X108554345Y-127000000D01*
X108574917Y-127208876D01*
X108635844Y-127409723D01*
X108734779Y-127594818D01*
X108734783Y-127594825D01*
X108867932Y-127757067D01*
X109030174Y-127890216D01*
X109030181Y-127890220D01*
X109164222Y-127961866D01*
X109215278Y-127989156D01*
X109416126Y-128050083D01*
X109625000Y-128070655D01*
X109833874Y-128050083D01*
X110034722Y-127989156D01*
X110219824Y-127890217D01*
X110382067Y-127757067D01*
X110515217Y-127594824D01*
X110614156Y-127409722D01*
X110675083Y-127208874D01*
X110695655Y-127000000D01*
X110675083Y-126791126D01*
X110614156Y-126590278D01*
X110515217Y-126405176D01*
X110515216Y-126405174D01*
X110382067Y-126242932D01*
X110219825Y-126109783D01*
X110219818Y-126109779D01*
X110034723Y-126010844D01*
X109833876Y-125949917D01*
X109625000Y-125929345D01*
X109416123Y-125949917D01*
X109215276Y-126010844D01*
X109030181Y-126109779D01*
X109030174Y-126109783D01*
X108867932Y-126242932D01*
X108734783Y-126405174D01*
X108734779Y-126405181D01*
X108635844Y-126590276D01*
X108574917Y-126791123D01*
X108554345Y-127000000D01*
X99445655Y-127000000D01*
X99425083Y-126791126D01*
X99364156Y-126590278D01*
X99265217Y-126405176D01*
X99265216Y-126405174D01*
X99132067Y-126242932D01*
X98969825Y-126109783D01*
X98969818Y-126109779D01*
X98784723Y-126010844D01*
X98583876Y-125949917D01*
X98375000Y-125929345D01*
X98166123Y-125949917D01*
X97965276Y-126010844D01*
X97780181Y-126109779D01*
X97780174Y-126109783D01*
X97617932Y-126242932D01*
X97484783Y-126405174D01*
X97484779Y-126405181D01*
X97385844Y-126590276D01*
X97324917Y-126791123D01*
X97304345Y-127000000D01*
X96500500Y-127000000D01*
X96500500Y-124460000D01*
X97304345Y-124460000D01*
X97324917Y-124668876D01*
X97385844Y-124869723D01*
X97484779Y-125054818D01*
X97484783Y-125054825D01*
X97617932Y-125217067D01*
X97780174Y-125350216D01*
X97780181Y-125350220D01*
X97866479Y-125396347D01*
X97965278Y-125449156D01*
X98166126Y-125510083D01*
X98375000Y-125530655D01*
X98583874Y-125510083D01*
X98784722Y-125449156D01*
X98969824Y-125350217D01*
X99132067Y-125217067D01*
X99265217Y-125054824D01*
X99364156Y-124869722D01*
X99425083Y-124668874D01*
X99445655Y-124460000D01*
X108554345Y-124460000D01*
X108574917Y-124668876D01*
X108635844Y-124869723D01*
X108734779Y-125054818D01*
X108734783Y-125054825D01*
X108867932Y-125217067D01*
X109030174Y-125350216D01*
X109030181Y-125350220D01*
X109116479Y-125396347D01*
X109215278Y-125449156D01*
X109416126Y-125510083D01*
X109625000Y-125530655D01*
X109833874Y-125510083D01*
X110034722Y-125449156D01*
X110219824Y-125350217D01*
X110382067Y-125217067D01*
X110515217Y-125054824D01*
X110614156Y-124869722D01*
X110675083Y-124668874D01*
X110695655Y-124460000D01*
X110675083Y-124251126D01*
X110614156Y-124050278D01*
X110515217Y-123865176D01*
X110515216Y-123865174D01*
X110382067Y-123702932D01*
X110219825Y-123569783D01*
X110219818Y-123569779D01*
X110034723Y-123470844D01*
X109833876Y-123409917D01*
X109625000Y-123389345D01*
X109416123Y-123409917D01*
X109215276Y-123470844D01*
X109030181Y-123569779D01*
X109030174Y-123569783D01*
X108867932Y-123702932D01*
X108734783Y-123865174D01*
X108734779Y-123865181D01*
X108635844Y-124050276D01*
X108574917Y-124251123D01*
X108554345Y-124460000D01*
X99445655Y-124460000D01*
X99425083Y-124251126D01*
X99364156Y-124050278D01*
X99265217Y-123865176D01*
X99265216Y-123865174D01*
X99132067Y-123702932D01*
X98969825Y-123569783D01*
X98969818Y-123569779D01*
X98784723Y-123470844D01*
X98583876Y-123409917D01*
X98375000Y-123389345D01*
X98166123Y-123409917D01*
X97965276Y-123470844D01*
X97780181Y-123569779D01*
X97780174Y-123569783D01*
X97617932Y-123702932D01*
X97484783Y-123865174D01*
X97484779Y-123865181D01*
X97385844Y-124050276D01*
X97324917Y-124251123D01*
X97304345Y-124460000D01*
X96500500Y-124460000D01*
X96500500Y-121567135D01*
X115604500Y-121567135D01*
X115604500Y-125162870D01*
X115604501Y-125162876D01*
X115610908Y-125222483D01*
X115661202Y-125357328D01*
X115661206Y-125357335D01*
X115747452Y-125472544D01*
X115747455Y-125472547D01*
X115862664Y-125558793D01*
X115862671Y-125558797D01*
X115997517Y-125609091D01*
X115997516Y-125609091D01*
X116004444Y-125609835D01*
X116057127Y-125615500D01*
X119652872Y-125615499D01*
X119712483Y-125609091D01*
X119847331Y-125558796D01*
X119962546Y-125472546D01*
X120048796Y-125357331D01*
X120066426Y-125310060D01*
X120108296Y-125254128D01*
X120173759Y-125229710D01*
X120242033Y-125244561D01*
X120291439Y-125293965D01*
X120306433Y-125359971D01*
X120304501Y-125396342D01*
X120304500Y-125396386D01*
X120304500Y-127333613D01*
X120304501Y-127333652D01*
X120307295Y-127386243D01*
X120307295Y-127386244D01*
X120347634Y-127594818D01*
X120351755Y-127616126D01*
X120365127Y-127651559D01*
X120434425Y-127835189D01*
X120552929Y-128037131D01*
X120552934Y-128037138D01*
X120703856Y-128216141D01*
X120703858Y-128216143D01*
X120882861Y-128367065D01*
X120882868Y-128367070D01*
X121084810Y-128485574D01*
X121303874Y-128568245D01*
X121533759Y-128612705D01*
X121586378Y-128615500D01*
X121586386Y-128615500D01*
X123523614Y-128615500D01*
X123523622Y-128615500D01*
X123576241Y-128612705D01*
X123806126Y-128568245D01*
X124025190Y-128485574D01*
X124227132Y-128367070D01*
X124406142Y-128216142D01*
X124557070Y-128037132D01*
X124675574Y-127835190D01*
X124758245Y-127616126D01*
X124802705Y-127386241D01*
X124805500Y-127333622D01*
X124805500Y-127000000D01*
X145304345Y-127000000D01*
X145324917Y-127208876D01*
X145385844Y-127409723D01*
X145484779Y-127594818D01*
X145484783Y-127594825D01*
X145617932Y-127757067D01*
X145780174Y-127890216D01*
X145780181Y-127890220D01*
X145914222Y-127961866D01*
X145965278Y-127989156D01*
X146166126Y-128050083D01*
X146375000Y-128070655D01*
X146583874Y-128050083D01*
X146784722Y-127989156D01*
X146969824Y-127890217D01*
X147132067Y-127757067D01*
X147265217Y-127594824D01*
X147364156Y-127409722D01*
X147425083Y-127208874D01*
X147445655Y-127000000D01*
X156554345Y-127000000D01*
X156574917Y-127208876D01*
X156635844Y-127409723D01*
X156734779Y-127594818D01*
X156734783Y-127594825D01*
X156867932Y-127757067D01*
X157030174Y-127890216D01*
X157030181Y-127890220D01*
X157164222Y-127961866D01*
X157215278Y-127989156D01*
X157416126Y-128050083D01*
X157625000Y-128070655D01*
X157833874Y-128050083D01*
X158034722Y-127989156D01*
X158219824Y-127890217D01*
X158382067Y-127757067D01*
X158515217Y-127594824D01*
X158614156Y-127409722D01*
X158675083Y-127208874D01*
X158695655Y-127000000D01*
X158675083Y-126791126D01*
X158614156Y-126590278D01*
X158515217Y-126405176D01*
X158515216Y-126405174D01*
X158382067Y-126242932D01*
X158219825Y-126109783D01*
X158219818Y-126109779D01*
X158034723Y-126010844D01*
X157833876Y-125949917D01*
X157625000Y-125929345D01*
X157416123Y-125949917D01*
X157215276Y-126010844D01*
X157030181Y-126109779D01*
X157030174Y-126109783D01*
X156867932Y-126242932D01*
X156734783Y-126405174D01*
X156734779Y-126405181D01*
X156635844Y-126590276D01*
X156574917Y-126791123D01*
X156554345Y-127000000D01*
X147445655Y-127000000D01*
X147425083Y-126791126D01*
X147364156Y-126590278D01*
X147265217Y-126405176D01*
X147265216Y-126405174D01*
X147132067Y-126242932D01*
X146969825Y-126109783D01*
X146969818Y-126109779D01*
X146784723Y-126010844D01*
X146583876Y-125949917D01*
X146375000Y-125929345D01*
X146166123Y-125949917D01*
X145965276Y-126010844D01*
X145780181Y-126109779D01*
X145780174Y-126109783D01*
X145617932Y-126242932D01*
X145484783Y-126405174D01*
X145484779Y-126405181D01*
X145385844Y-126590276D01*
X145324917Y-126791123D01*
X145304345Y-127000000D01*
X124805500Y-127000000D01*
X124805500Y-125794071D01*
X151849499Y-125794071D01*
X151874497Y-125919738D01*
X151874499Y-125919744D01*
X151923533Y-126038124D01*
X151923538Y-126038133D01*
X151994723Y-126144668D01*
X151994726Y-126144672D01*
X152085327Y-126235273D01*
X152085331Y-126235276D01*
X152191866Y-126306461D01*
X152191872Y-126306464D01*
X152191873Y-126306465D01*
X152310256Y-126355501D01*
X152310260Y-126355501D01*
X152310261Y-126355502D01*
X152435928Y-126380500D01*
X152435931Y-126380500D01*
X152564071Y-126380500D01*
X152648615Y-126363682D01*
X152689744Y-126355501D01*
X152808127Y-126306465D01*
X152914669Y-126235276D01*
X153005276Y-126144669D01*
X153076465Y-126038127D01*
X153125501Y-125919744D01*
X153150500Y-125794069D01*
X153150500Y-125665931D01*
X153150500Y-125665928D01*
X153125502Y-125540261D01*
X153125501Y-125540260D01*
X153125501Y-125540256D01*
X153076465Y-125421873D01*
X153076464Y-125421872D01*
X153076461Y-125421866D01*
X153005276Y-125315331D01*
X153005273Y-125315327D01*
X152914672Y-125224726D01*
X152914668Y-125224723D01*
X152808133Y-125153538D01*
X152808124Y-125153533D01*
X152689744Y-125104499D01*
X152689738Y-125104497D01*
X152564071Y-125079500D01*
X152564069Y-125079500D01*
X152435931Y-125079500D01*
X152435929Y-125079500D01*
X152310261Y-125104497D01*
X152310255Y-125104499D01*
X152191875Y-125153533D01*
X152191866Y-125153538D01*
X152085331Y-125224723D01*
X152085327Y-125224726D01*
X151994726Y-125315327D01*
X151994723Y-125315331D01*
X151923538Y-125421866D01*
X151923533Y-125421875D01*
X151874499Y-125540255D01*
X151874497Y-125540261D01*
X151849500Y-125665928D01*
X151849500Y-125665931D01*
X151849500Y-125794069D01*
X151849500Y-125794071D01*
X151849499Y-125794071D01*
X124805500Y-125794071D01*
X124805500Y-125396378D01*
X124802705Y-125343759D01*
X124758245Y-125113874D01*
X124675574Y-124894810D01*
X124557070Y-124692868D01*
X124557065Y-124692861D01*
X124406143Y-124513858D01*
X124406141Y-124513856D01*
X124227138Y-124362934D01*
X124227131Y-124362929D01*
X124025189Y-124244425D01*
X123933967Y-124210000D01*
X123806126Y-124161755D01*
X123806121Y-124161754D01*
X123576243Y-124117295D01*
X123523652Y-124114501D01*
X123523629Y-124114500D01*
X123523622Y-124114500D01*
X121586378Y-124114500D01*
X121586370Y-124114500D01*
X121586347Y-124114501D01*
X121533756Y-124117295D01*
X121533755Y-124117295D01*
X121303878Y-124161754D01*
X121303876Y-124161754D01*
X121303874Y-124161755D01*
X121229933Y-124189659D01*
X121084810Y-124244425D01*
X120882868Y-124362929D01*
X120882861Y-124362934D01*
X120703858Y-124513856D01*
X120703856Y-124513858D01*
X120552934Y-124692861D01*
X120552929Y-124692868D01*
X120434425Y-124894810D01*
X120351753Y-125113880D01*
X120351240Y-125116532D01*
X120350712Y-125117552D01*
X120350317Y-125118950D01*
X120350032Y-125118869D01*
X120319175Y-125178609D01*
X120258639Y-125213497D01*
X120188851Y-125210117D01*
X120131968Y-125169544D01*
X120106051Y-125104659D01*
X120105499Y-125092989D01*
X120105499Y-123847155D01*
X145310000Y-123847155D01*
X145310000Y-124210000D01*
X146108811Y-124210000D01*
X146082927Y-124235884D01*
X146034874Y-124319115D01*
X146010000Y-124411947D01*
X146010000Y-124508053D01*
X146034874Y-124600885D01*
X146082927Y-124684116D01*
X146108811Y-124710000D01*
X145310000Y-124710000D01*
X145310000Y-125072844D01*
X145316401Y-125132372D01*
X145316403Y-125132379D01*
X145366645Y-125267086D01*
X145366649Y-125267093D01*
X145452809Y-125382187D01*
X145452812Y-125382190D01*
X145567906Y-125468350D01*
X145567913Y-125468354D01*
X145702620Y-125518596D01*
X145702627Y-125518598D01*
X145762155Y-125524999D01*
X145762172Y-125525000D01*
X146125000Y-125525000D01*
X146125000Y-124726189D01*
X146150884Y-124752073D01*
X146234115Y-124800126D01*
X146326947Y-124825000D01*
X146423053Y-124825000D01*
X146515885Y-124800126D01*
X146599116Y-124752073D01*
X146625000Y-124726189D01*
X146625000Y-125525000D01*
X146987828Y-125525000D01*
X146987844Y-125524999D01*
X147047372Y-125518598D01*
X147047379Y-125518596D01*
X147182086Y-125468354D01*
X147182093Y-125468350D01*
X147297187Y-125382190D01*
X147297190Y-125382187D01*
X147383350Y-125267093D01*
X147383354Y-125267086D01*
X147433596Y-125132379D01*
X147433598Y-125132372D01*
X147439999Y-125072844D01*
X147440000Y-125072827D01*
X147440000Y-124710000D01*
X146641189Y-124710000D01*
X146667073Y-124684116D01*
X146715126Y-124600885D01*
X146740000Y-124508053D01*
X146740000Y-124460000D01*
X156554345Y-124460000D01*
X156574917Y-124668876D01*
X156635844Y-124869723D01*
X156734779Y-125054818D01*
X156734783Y-125054825D01*
X156867932Y-125217067D01*
X157030174Y-125350216D01*
X157030181Y-125350220D01*
X157116479Y-125396347D01*
X157215278Y-125449156D01*
X157416126Y-125510083D01*
X157625000Y-125530655D01*
X157833874Y-125510083D01*
X158034722Y-125449156D01*
X158219824Y-125350217D01*
X158382067Y-125217067D01*
X158515217Y-125054824D01*
X158614156Y-124869722D01*
X158675083Y-124668874D01*
X158695655Y-124460000D01*
X158675083Y-124251126D01*
X158614156Y-124050278D01*
X158515217Y-123865176D01*
X158515216Y-123865174D01*
X158382067Y-123702932D01*
X158219825Y-123569783D01*
X158219818Y-123569779D01*
X158034723Y-123470844D01*
X157833876Y-123409917D01*
X157625000Y-123389345D01*
X157416123Y-123409917D01*
X157215276Y-123470844D01*
X157030181Y-123569779D01*
X157030174Y-123569783D01*
X156867932Y-123702932D01*
X156734783Y-123865174D01*
X156734779Y-123865181D01*
X156635844Y-124050276D01*
X156574917Y-124251123D01*
X156554345Y-124460000D01*
X146740000Y-124460000D01*
X146740000Y-124411947D01*
X146715126Y-124319115D01*
X146667073Y-124235884D01*
X146641189Y-124210000D01*
X147440000Y-124210000D01*
X147440000Y-123847172D01*
X147439999Y-123847155D01*
X147433598Y-123787627D01*
X147433596Y-123787620D01*
X147383354Y-123652913D01*
X147383350Y-123652906D01*
X147297190Y-123537812D01*
X147297187Y-123537809D01*
X147182093Y-123451649D01*
X147182086Y-123451645D01*
X147047379Y-123401403D01*
X147047372Y-123401401D01*
X146987844Y-123395000D01*
X146625000Y-123395000D01*
X146625000Y-124193811D01*
X146599116Y-124167927D01*
X146515885Y-124119874D01*
X146423053Y-124095000D01*
X146326947Y-124095000D01*
X146234115Y-124119874D01*
X146150884Y-124167927D01*
X146125000Y-124193811D01*
X146125000Y-123395000D01*
X145762155Y-123395000D01*
X145702627Y-123401401D01*
X145702620Y-123401403D01*
X145567913Y-123451645D01*
X145567906Y-123451649D01*
X145452812Y-123537809D01*
X145452809Y-123537812D01*
X145366649Y-123652906D01*
X145366645Y-123652913D01*
X145316403Y-123787620D01*
X145316401Y-123787627D01*
X145310000Y-123847155D01*
X120105499Y-123847155D01*
X120105499Y-121567128D01*
X120099091Y-121507517D01*
X120061218Y-121405975D01*
X120048797Y-121372671D01*
X120048793Y-121372664D01*
X119962547Y-121257455D01*
X119962544Y-121257452D01*
X119847335Y-121171206D01*
X119847328Y-121171202D01*
X119712482Y-121120908D01*
X119712483Y-121120908D01*
X119652883Y-121114501D01*
X119652881Y-121114500D01*
X119652873Y-121114500D01*
X119652864Y-121114500D01*
X116057129Y-121114500D01*
X116057123Y-121114501D01*
X115997516Y-121120908D01*
X115862671Y-121171202D01*
X115862664Y-121171206D01*
X115747455Y-121257452D01*
X115747452Y-121257455D01*
X115661206Y-121372664D01*
X115661202Y-121372671D01*
X115610908Y-121507517D01*
X115604501Y-121567116D01*
X115604501Y-121567123D01*
X115604500Y-121567135D01*
X96500500Y-121567135D01*
X96500500Y-116008135D01*
X126063000Y-116008135D01*
X126063000Y-117603870D01*
X126063001Y-117603876D01*
X126069408Y-117663483D01*
X126119702Y-117798328D01*
X126119706Y-117798335D01*
X126205952Y-117913544D01*
X126205955Y-117913547D01*
X126321164Y-117999793D01*
X126321171Y-117999797D01*
X126456017Y-118050091D01*
X126456016Y-118050091D01*
X126462944Y-118050835D01*
X126515627Y-118056500D01*
X126580085Y-118056499D01*
X126647122Y-118076183D01*
X126692878Y-118128986D01*
X126702822Y-118198144D01*
X126673798Y-118261700D01*
X126652971Y-118280816D01*
X126499180Y-118392553D01*
X126360055Y-118531678D01*
X126244404Y-118690856D01*
X126155081Y-118866162D01*
X126094281Y-119053283D01*
X126087516Y-119096000D01*
X127280488Y-119096000D01*
X127247575Y-119153007D01*
X127213500Y-119280174D01*
X127213500Y-119411826D01*
X127247575Y-119538993D01*
X127280488Y-119596000D01*
X126087516Y-119596000D01*
X126094281Y-119638716D01*
X126155081Y-119825837D01*
X126244404Y-120001143D01*
X126360055Y-120160321D01*
X126499178Y-120299444D01*
X126658356Y-120415095D01*
X126835264Y-120505234D01*
X126886060Y-120553208D01*
X126902855Y-120621029D01*
X126880318Y-120687164D01*
X126835264Y-120726204D01*
X126658094Y-120816476D01*
X126567241Y-120882485D01*
X126498854Y-120932172D01*
X126498852Y-120932174D01*
X126498851Y-120932174D01*
X126359674Y-121071351D01*
X126359674Y-121071352D01*
X126359672Y-121071354D01*
X126328324Y-121114501D01*
X126243976Y-121230594D01*
X126154617Y-121405970D01*
X126093790Y-121593173D01*
X126063000Y-121787577D01*
X126063000Y-121984422D01*
X126093790Y-122178826D01*
X126154617Y-122366029D01*
X126243976Y-122541405D01*
X126359672Y-122700646D01*
X126498854Y-122839828D01*
X126658095Y-122955524D01*
X126740955Y-122997743D01*
X126833470Y-123044882D01*
X126833472Y-123044882D01*
X126833475Y-123044884D01*
X126933817Y-123077487D01*
X127020673Y-123105709D01*
X127215078Y-123136500D01*
X127215083Y-123136500D01*
X128211922Y-123136500D01*
X128406326Y-123105709D01*
X128593525Y-123044884D01*
X128768905Y-122955524D01*
X128928146Y-122839828D01*
X129067328Y-122700646D01*
X129183024Y-122541405D01*
X129272384Y-122366025D01*
X129333209Y-122178826D01*
X129364000Y-121984422D01*
X129364000Y-121787577D01*
X129333209Y-121593173D01*
X129272382Y-121405970D01*
X129225243Y-121313455D01*
X129183024Y-121230595D01*
X129067328Y-121071354D01*
X128928146Y-120932172D01*
X128768905Y-120816476D01*
X128593525Y-120727116D01*
X128593524Y-120727115D01*
X128591735Y-120726204D01*
X128540939Y-120678230D01*
X128524144Y-120610409D01*
X128546681Y-120544274D01*
X128591736Y-120505234D01*
X128768641Y-120415097D01*
X128927821Y-120299444D01*
X129066944Y-120160321D01*
X129182595Y-120001143D01*
X129271918Y-119825837D01*
X129332718Y-119638716D01*
X129339484Y-119596000D01*
X128146512Y-119596000D01*
X128179425Y-119538993D01*
X128213500Y-119411826D01*
X128213500Y-119280174D01*
X128179425Y-119153007D01*
X128146512Y-119096000D01*
X129339484Y-119096000D01*
X129332718Y-119053283D01*
X129271918Y-118866162D01*
X129182595Y-118690856D01*
X129066944Y-118531678D01*
X128927822Y-118392556D01*
X128774028Y-118280817D01*
X128731363Y-118225487D01*
X128725384Y-118155873D01*
X128757990Y-118094078D01*
X128818829Y-118059721D01*
X128846913Y-118056499D01*
X128911372Y-118056499D01*
X128970983Y-118050091D01*
X129105831Y-117999796D01*
X129221046Y-117913546D01*
X129307296Y-117798331D01*
X129357591Y-117663483D01*
X129364000Y-117603873D01*
X129363999Y-116008128D01*
X129357591Y-115948517D01*
X129307296Y-115813669D01*
X129307295Y-115813668D01*
X129307293Y-115813664D01*
X129221047Y-115698455D01*
X129221044Y-115698452D01*
X129105835Y-115612206D01*
X129105828Y-115612202D01*
X128970982Y-115561908D01*
X128970983Y-115561908D01*
X128911383Y-115555501D01*
X128911381Y-115555500D01*
X128911373Y-115555500D01*
X128911364Y-115555500D01*
X126515629Y-115555500D01*
X126515623Y-115555501D01*
X126456016Y-115561908D01*
X126321171Y-115612202D01*
X126321164Y-115612206D01*
X126205955Y-115698452D01*
X126205952Y-115698455D01*
X126119706Y-115813664D01*
X126119702Y-115813671D01*
X126069408Y-115948517D01*
X126063001Y-116008116D01*
X126063001Y-116008123D01*
X126063000Y-116008135D01*
X96500500Y-116008135D01*
X96500500Y-113540000D01*
X97304345Y-113540000D01*
X97324917Y-113748876D01*
X97385844Y-113949723D01*
X97484779Y-114134818D01*
X97484783Y-114134825D01*
X97617932Y-114297067D01*
X97780174Y-114430216D01*
X97780181Y-114430220D01*
X97839993Y-114462190D01*
X97965278Y-114529156D01*
X98166126Y-114590083D01*
X98375000Y-114610655D01*
X98583874Y-114590083D01*
X98784722Y-114529156D01*
X98969824Y-114430217D01*
X99132067Y-114297067D01*
X99265217Y-114134824D01*
X99364156Y-113949722D01*
X99425083Y-113748874D01*
X99445655Y-113540000D01*
X99425083Y-113331126D01*
X99364156Y-113130278D01*
X99265217Y-112945176D01*
X99265216Y-112945174D01*
X99250428Y-112927155D01*
X108560000Y-112927155D01*
X108560000Y-113290000D01*
X109358811Y-113290000D01*
X109332927Y-113315884D01*
X109284874Y-113399115D01*
X109260000Y-113491947D01*
X109260000Y-113588053D01*
X109284874Y-113680885D01*
X109332927Y-113764116D01*
X109358811Y-113790000D01*
X108560000Y-113790000D01*
X108560000Y-114152844D01*
X108566401Y-114212372D01*
X108566403Y-114212379D01*
X108616645Y-114347086D01*
X108616649Y-114347093D01*
X108702809Y-114462187D01*
X108702812Y-114462190D01*
X108817906Y-114548350D01*
X108817913Y-114548354D01*
X108952620Y-114598596D01*
X108952627Y-114598598D01*
X109012155Y-114604999D01*
X109012172Y-114605000D01*
X109375000Y-114605000D01*
X109375000Y-113806189D01*
X109400884Y-113832073D01*
X109484115Y-113880126D01*
X109576947Y-113905000D01*
X109673053Y-113905000D01*
X109765885Y-113880126D01*
X109849116Y-113832073D01*
X109875000Y-113806189D01*
X109875000Y-114605000D01*
X110237828Y-114605000D01*
X110237844Y-114604999D01*
X110297372Y-114598598D01*
X110297379Y-114598596D01*
X110432086Y-114548354D01*
X110432093Y-114548350D01*
X110547187Y-114462190D01*
X110547190Y-114462187D01*
X110633350Y-114347093D01*
X110633354Y-114347086D01*
X110683596Y-114212379D01*
X110683598Y-114212372D01*
X110689999Y-114152844D01*
X110690000Y-114152827D01*
X110690000Y-113790000D01*
X109891189Y-113790000D01*
X109917073Y-113764116D01*
X109965126Y-113680885D01*
X109990000Y-113588053D01*
X109990000Y-113540000D01*
X145304345Y-113540000D01*
X145324917Y-113748876D01*
X145385844Y-113949723D01*
X145484779Y-114134818D01*
X145484783Y-114134825D01*
X145617932Y-114297067D01*
X145780174Y-114430216D01*
X145780181Y-114430220D01*
X145839993Y-114462190D01*
X145965278Y-114529156D01*
X146166126Y-114590083D01*
X146375000Y-114610655D01*
X146583874Y-114590083D01*
X146784722Y-114529156D01*
X146969824Y-114430217D01*
X147132067Y-114297067D01*
X147265217Y-114134824D01*
X147364156Y-113949722D01*
X147425083Y-113748874D01*
X147445655Y-113540000D01*
X156554345Y-113540000D01*
X156574917Y-113748876D01*
X156635844Y-113949723D01*
X156734779Y-114134818D01*
X156734783Y-114134825D01*
X156867932Y-114297067D01*
X157030174Y-114430216D01*
X157030181Y-114430220D01*
X157089993Y-114462190D01*
X157215278Y-114529156D01*
X157416126Y-114590083D01*
X157625000Y-114610655D01*
X157833874Y-114590083D01*
X158034722Y-114529156D01*
X158219824Y-114430217D01*
X158382067Y-114297067D01*
X158515217Y-114134824D01*
X158614156Y-113949722D01*
X158675083Y-113748874D01*
X158695655Y-113540000D01*
X158675083Y-113331126D01*
X158614156Y-113130278D01*
X158515217Y-112945176D01*
X158515216Y-112945174D01*
X158382067Y-112782932D01*
X158219825Y-112649783D01*
X158219818Y-112649779D01*
X158034723Y-112550844D01*
X157833876Y-112489917D01*
X157625000Y-112469345D01*
X157416123Y-112489917D01*
X157215276Y-112550844D01*
X157030181Y-112649779D01*
X157030174Y-112649783D01*
X156867932Y-112782932D01*
X156734783Y-112945174D01*
X156734779Y-112945181D01*
X156635844Y-113130276D01*
X156574917Y-113331123D01*
X156554345Y-113540000D01*
X147445655Y-113540000D01*
X147425083Y-113331126D01*
X147364156Y-113130278D01*
X147265217Y-112945176D01*
X147265216Y-112945174D01*
X147132067Y-112782932D01*
X146969825Y-112649783D01*
X146969818Y-112649779D01*
X146784723Y-112550844D01*
X146583876Y-112489917D01*
X146375000Y-112469345D01*
X146166123Y-112489917D01*
X145965276Y-112550844D01*
X145780181Y-112649779D01*
X145780174Y-112649783D01*
X145617932Y-112782932D01*
X145484783Y-112945174D01*
X145484779Y-112945181D01*
X145385844Y-113130276D01*
X145324917Y-113331123D01*
X145304345Y-113540000D01*
X109990000Y-113540000D01*
X109990000Y-113491947D01*
X109965126Y-113399115D01*
X109917073Y-113315884D01*
X109891189Y-113290000D01*
X110690000Y-113290000D01*
X110690000Y-112927172D01*
X110689999Y-112927155D01*
X110683598Y-112867627D01*
X110683596Y-112867620D01*
X110633354Y-112732913D01*
X110633350Y-112732906D01*
X110547190Y-112617812D01*
X110547187Y-112617809D01*
X110432093Y-112531649D01*
X110432086Y-112531645D01*
X110297379Y-112481403D01*
X110297372Y-112481401D01*
X110237844Y-112475000D01*
X109875000Y-112475000D01*
X109875000Y-113273811D01*
X109849116Y-113247927D01*
X109765885Y-113199874D01*
X109673053Y-113175000D01*
X109576947Y-113175000D01*
X109484115Y-113199874D01*
X109400884Y-113247927D01*
X109375000Y-113273811D01*
X109375000Y-112475000D01*
X109012155Y-112475000D01*
X108952627Y-112481401D01*
X108952620Y-112481403D01*
X108817913Y-112531645D01*
X108817906Y-112531649D01*
X108702812Y-112617809D01*
X108702809Y-112617812D01*
X108616649Y-112732906D01*
X108616645Y-112732913D01*
X108566403Y-112867620D01*
X108566401Y-112867627D01*
X108560000Y-112927155D01*
X99250428Y-112927155D01*
X99132067Y-112782932D01*
X98969825Y-112649783D01*
X98969818Y-112649779D01*
X98784723Y-112550844D01*
X98583876Y-112489917D01*
X98375000Y-112469345D01*
X98166123Y-112489917D01*
X97965276Y-112550844D01*
X97780181Y-112649779D01*
X97780174Y-112649783D01*
X97617932Y-112782932D01*
X97484783Y-112945174D01*
X97484779Y-112945181D01*
X97385844Y-113130276D01*
X97324917Y-113331123D01*
X97304345Y-113540000D01*
X96500500Y-113540000D01*
X96500500Y-112334071D01*
X102849499Y-112334071D01*
X102874497Y-112459738D01*
X102874499Y-112459744D01*
X102923533Y-112578124D01*
X102923538Y-112578133D01*
X102994723Y-112684668D01*
X102994726Y-112684672D01*
X103085327Y-112775273D01*
X103085331Y-112775276D01*
X103191866Y-112846461D01*
X103191872Y-112846464D01*
X103191873Y-112846465D01*
X103310256Y-112895501D01*
X103310260Y-112895501D01*
X103310261Y-112895502D01*
X103435928Y-112920500D01*
X103435931Y-112920500D01*
X103564071Y-112920500D01*
X103648615Y-112903682D01*
X103689744Y-112895501D01*
X103808127Y-112846465D01*
X103914669Y-112775276D01*
X104005276Y-112684669D01*
X104076465Y-112578127D01*
X104125501Y-112459744D01*
X104150500Y-112334069D01*
X104150500Y-112205931D01*
X104150500Y-112205928D01*
X104125502Y-112080261D01*
X104125501Y-112080260D01*
X104125501Y-112080256D01*
X104076465Y-111961873D01*
X104076464Y-111961872D01*
X104076461Y-111961866D01*
X104005276Y-111855331D01*
X104005273Y-111855327D01*
X103914672Y-111764726D01*
X103914668Y-111764723D01*
X103808133Y-111693538D01*
X103808124Y-111693533D01*
X103689744Y-111644499D01*
X103689738Y-111644497D01*
X103564071Y-111619500D01*
X103564069Y-111619500D01*
X103435931Y-111619500D01*
X103435929Y-111619500D01*
X103310261Y-111644497D01*
X103310255Y-111644499D01*
X103191875Y-111693533D01*
X103191866Y-111693538D01*
X103085331Y-111764723D01*
X103085327Y-111764726D01*
X102994726Y-111855327D01*
X102994723Y-111855331D01*
X102923538Y-111961866D01*
X102923533Y-111961875D01*
X102874499Y-112080255D01*
X102874497Y-112080261D01*
X102849500Y-112205928D01*
X102849500Y-112205931D01*
X102849500Y-112334069D01*
X102849500Y-112334071D01*
X102849499Y-112334071D01*
X96500500Y-112334071D01*
X96500500Y-111000000D01*
X97304345Y-111000000D01*
X97324917Y-111208876D01*
X97385844Y-111409723D01*
X97484779Y-111594818D01*
X97484783Y-111594825D01*
X97617932Y-111757067D01*
X97780174Y-111890216D01*
X97780181Y-111890220D01*
X97914222Y-111961866D01*
X97965278Y-111989156D01*
X98166126Y-112050083D01*
X98375000Y-112070655D01*
X98583874Y-112050083D01*
X98784722Y-111989156D01*
X98969824Y-111890217D01*
X99132067Y-111757067D01*
X99265217Y-111594824D01*
X99364156Y-111409722D01*
X99425083Y-111208874D01*
X99445655Y-111000000D01*
X108554345Y-111000000D01*
X108574917Y-111208876D01*
X108635844Y-111409723D01*
X108734779Y-111594818D01*
X108734783Y-111594825D01*
X108867932Y-111757067D01*
X109030174Y-111890216D01*
X109030181Y-111890220D01*
X109164222Y-111961866D01*
X109215278Y-111989156D01*
X109416126Y-112050083D01*
X109625000Y-112070655D01*
X109833874Y-112050083D01*
X110034722Y-111989156D01*
X110219824Y-111890217D01*
X110382067Y-111757067D01*
X110515217Y-111594824D01*
X110614156Y-111409722D01*
X110675083Y-111208874D01*
X110695655Y-111000000D01*
X145304345Y-111000000D01*
X145324917Y-111208876D01*
X145385844Y-111409723D01*
X145484779Y-111594818D01*
X145484783Y-111594825D01*
X145617932Y-111757067D01*
X145780174Y-111890216D01*
X145780181Y-111890220D01*
X145914222Y-111961866D01*
X145965278Y-111989156D01*
X146166126Y-112050083D01*
X146375000Y-112070655D01*
X146583874Y-112050083D01*
X146784722Y-111989156D01*
X146969824Y-111890217D01*
X147132067Y-111757067D01*
X147265217Y-111594824D01*
X147364156Y-111409722D01*
X147425083Y-111208874D01*
X147445655Y-111000000D01*
X156554345Y-111000000D01*
X156574917Y-111208876D01*
X156635844Y-111409723D01*
X156734779Y-111594818D01*
X156734783Y-111594825D01*
X156867932Y-111757067D01*
X157030174Y-111890216D01*
X157030181Y-111890220D01*
X157164222Y-111961866D01*
X157215278Y-111989156D01*
X157416126Y-112050083D01*
X157625000Y-112070655D01*
X157833874Y-112050083D01*
X158034722Y-111989156D01*
X158219824Y-111890217D01*
X158382067Y-111757067D01*
X158515217Y-111594824D01*
X158614156Y-111409722D01*
X158675083Y-111208874D01*
X158695655Y-111000000D01*
X158675083Y-110791126D01*
X158614156Y-110590278D01*
X158515217Y-110405176D01*
X158515216Y-110405174D01*
X158382067Y-110242932D01*
X158219825Y-110109783D01*
X158219818Y-110109779D01*
X158034723Y-110010844D01*
X157833876Y-109949917D01*
X157625000Y-109929345D01*
X157416123Y-109949917D01*
X157215276Y-110010844D01*
X157030181Y-110109779D01*
X157030174Y-110109783D01*
X156867932Y-110242932D01*
X156734783Y-110405174D01*
X156734779Y-110405181D01*
X156635844Y-110590276D01*
X156574917Y-110791123D01*
X156554345Y-111000000D01*
X147445655Y-111000000D01*
X147425083Y-110791126D01*
X147364156Y-110590278D01*
X147265217Y-110405176D01*
X147265216Y-110405174D01*
X147132067Y-110242932D01*
X146969825Y-110109783D01*
X146969818Y-110109779D01*
X146784723Y-110010844D01*
X146583876Y-109949917D01*
X146375000Y-109929345D01*
X146166123Y-109949917D01*
X145965276Y-110010844D01*
X145780181Y-110109779D01*
X145780174Y-110109783D01*
X145617932Y-110242932D01*
X145484783Y-110405174D01*
X145484779Y-110405181D01*
X145385844Y-110590276D01*
X145324917Y-110791123D01*
X145304345Y-111000000D01*
X110695655Y-111000000D01*
X110675083Y-110791126D01*
X110614156Y-110590278D01*
X110515217Y-110405176D01*
X110515216Y-110405174D01*
X110382067Y-110242932D01*
X110219825Y-110109783D01*
X110219818Y-110109779D01*
X110034723Y-110010844D01*
X109833876Y-109949917D01*
X109625000Y-109929345D01*
X109416123Y-109949917D01*
X109215276Y-110010844D01*
X109030181Y-110109779D01*
X109030174Y-110109783D01*
X108867932Y-110242932D01*
X108734783Y-110405174D01*
X108734779Y-110405181D01*
X108635844Y-110590276D01*
X108574917Y-110791123D01*
X108554345Y-111000000D01*
X99445655Y-111000000D01*
X99425083Y-110791126D01*
X99364156Y-110590278D01*
X99265217Y-110405176D01*
X99265216Y-110405174D01*
X99132067Y-110242932D01*
X98969825Y-110109783D01*
X98969818Y-110109779D01*
X98784723Y-110010844D01*
X98583876Y-109949917D01*
X98375000Y-109929345D01*
X98166123Y-109949917D01*
X97965276Y-110010844D01*
X97780181Y-110109779D01*
X97780174Y-110109783D01*
X97617932Y-110242932D01*
X97484783Y-110405174D01*
X97484779Y-110405181D01*
X97385844Y-110590276D01*
X97324917Y-110791123D01*
X97304345Y-111000000D01*
X96500500Y-111000000D01*
X96500500Y-109794071D01*
X151849499Y-109794071D01*
X151874497Y-109919738D01*
X151874499Y-109919744D01*
X151923533Y-110038124D01*
X151923538Y-110038133D01*
X151994723Y-110144668D01*
X151994726Y-110144672D01*
X152085327Y-110235273D01*
X152085331Y-110235276D01*
X152191866Y-110306461D01*
X152191872Y-110306464D01*
X152191873Y-110306465D01*
X152310256Y-110355501D01*
X152310260Y-110355501D01*
X152310261Y-110355502D01*
X152435928Y-110380500D01*
X152435931Y-110380500D01*
X152564071Y-110380500D01*
X152648615Y-110363682D01*
X152689744Y-110355501D01*
X152808127Y-110306465D01*
X152914669Y-110235276D01*
X153005276Y-110144669D01*
X153076465Y-110038127D01*
X153125501Y-109919744D01*
X153150500Y-109794069D01*
X153150500Y-109665931D01*
X153150500Y-109665928D01*
X153125502Y-109540261D01*
X153125501Y-109540260D01*
X153125501Y-109540256D01*
X153076465Y-109421873D01*
X153076464Y-109421872D01*
X153076461Y-109421866D01*
X153005276Y-109315331D01*
X153005273Y-109315327D01*
X152914672Y-109224726D01*
X152914668Y-109224723D01*
X152808133Y-109153538D01*
X152808124Y-109153533D01*
X152689744Y-109104499D01*
X152689738Y-109104497D01*
X152564071Y-109079500D01*
X152564069Y-109079500D01*
X152435931Y-109079500D01*
X152435929Y-109079500D01*
X152310261Y-109104497D01*
X152310255Y-109104499D01*
X152191875Y-109153533D01*
X152191866Y-109153538D01*
X152085331Y-109224723D01*
X152085327Y-109224726D01*
X151994726Y-109315327D01*
X151994723Y-109315331D01*
X151923538Y-109421866D01*
X151923533Y-109421875D01*
X151874499Y-109540255D01*
X151874497Y-109540261D01*
X151849500Y-109665928D01*
X151849500Y-109665931D01*
X151849500Y-109794069D01*
X151849500Y-109794071D01*
X151849499Y-109794071D01*
X96500500Y-109794071D01*
X96500500Y-108460000D01*
X97304345Y-108460000D01*
X97324917Y-108668876D01*
X97385844Y-108869723D01*
X97484779Y-109054818D01*
X97484783Y-109054825D01*
X97617932Y-109217067D01*
X97780174Y-109350216D01*
X97780181Y-109350220D01*
X97965276Y-109449155D01*
X97965278Y-109449156D01*
X98166126Y-109510083D01*
X98375000Y-109530655D01*
X98583874Y-109510083D01*
X98784722Y-109449156D01*
X98969824Y-109350217D01*
X99132067Y-109217067D01*
X99265217Y-109054824D01*
X99364156Y-108869722D01*
X99425083Y-108668874D01*
X99445655Y-108460000D01*
X108554345Y-108460000D01*
X108574917Y-108668876D01*
X108635844Y-108869723D01*
X108734779Y-109054818D01*
X108734783Y-109054825D01*
X108867932Y-109217067D01*
X109030174Y-109350216D01*
X109030181Y-109350220D01*
X109215276Y-109449155D01*
X109215278Y-109449156D01*
X109416126Y-109510083D01*
X109625000Y-109530655D01*
X109833874Y-109510083D01*
X110034722Y-109449156D01*
X110219824Y-109350217D01*
X110382067Y-109217067D01*
X110515217Y-109054824D01*
X110614156Y-108869722D01*
X110675083Y-108668874D01*
X110695655Y-108460000D01*
X110675083Y-108251126D01*
X110614156Y-108050278D01*
X110515217Y-107865176D01*
X110515216Y-107865174D01*
X110382067Y-107702932D01*
X110219825Y-107569783D01*
X110219818Y-107569779D01*
X110034723Y-107470844D01*
X109833876Y-107409917D01*
X109625000Y-107389345D01*
X109416123Y-107409917D01*
X109215276Y-107470844D01*
X109030181Y-107569779D01*
X109030174Y-107569783D01*
X108867932Y-107702932D01*
X108734783Y-107865174D01*
X108734779Y-107865181D01*
X108635844Y-108050276D01*
X108574917Y-108251123D01*
X108554345Y-108460000D01*
X99445655Y-108460000D01*
X99425083Y-108251126D01*
X99364156Y-108050278D01*
X99265217Y-107865176D01*
X99265216Y-107865174D01*
X99132067Y-107702932D01*
X98969825Y-107569783D01*
X98969818Y-107569779D01*
X98784723Y-107470844D01*
X98583876Y-107409917D01*
X98375000Y-107389345D01*
X98166123Y-107409917D01*
X97965276Y-107470844D01*
X97780181Y-107569779D01*
X97780174Y-107569783D01*
X97617932Y-107702932D01*
X97484783Y-107865174D01*
X97484779Y-107865181D01*
X97385844Y-108050276D01*
X97324917Y-108251123D01*
X97304345Y-108460000D01*
X96500500Y-108460000D01*
X96500500Y-103025577D01*
X120904500Y-103025577D01*
X120904500Y-103222422D01*
X120935290Y-103416826D01*
X120996117Y-103604029D01*
X121041139Y-103692389D01*
X121085476Y-103779405D01*
X121201172Y-103938646D01*
X121340354Y-104077828D01*
X121459784Y-104164600D01*
X121499596Y-104193525D01*
X121676763Y-104283795D01*
X121727560Y-104331769D01*
X121744355Y-104399590D01*
X121721818Y-104465725D01*
X121676764Y-104504765D01*
X121499856Y-104594904D01*
X121340678Y-104710555D01*
X121201555Y-104849678D01*
X121085904Y-105008856D01*
X120996581Y-105184162D01*
X120935781Y-105371283D01*
X120929016Y-105414000D01*
X122121988Y-105414000D01*
X122089075Y-105471007D01*
X122055000Y-105598174D01*
X122055000Y-105729826D01*
X122089075Y-105856993D01*
X122121988Y-105914000D01*
X120929016Y-105914000D01*
X120935781Y-105956716D01*
X120996581Y-106143837D01*
X121085904Y-106319143D01*
X121201555Y-106478321D01*
X121340677Y-106617443D01*
X121494471Y-106729182D01*
X121537136Y-106784512D01*
X121543115Y-106854126D01*
X121510509Y-106915921D01*
X121449670Y-106950278D01*
X121421587Y-106953500D01*
X121357130Y-106953500D01*
X121357123Y-106953501D01*
X121297516Y-106959908D01*
X121162671Y-107010202D01*
X121162664Y-107010206D01*
X121047455Y-107096452D01*
X121047452Y-107096455D01*
X120961206Y-107211664D01*
X120961202Y-107211671D01*
X120910908Y-107346517D01*
X120906304Y-107389345D01*
X120904501Y-107406123D01*
X120904500Y-107406135D01*
X120904500Y-109001870D01*
X120904501Y-109001876D01*
X120910908Y-109061483D01*
X120961202Y-109196328D01*
X120961206Y-109196335D01*
X121047452Y-109311544D01*
X121047455Y-109311547D01*
X121162664Y-109397793D01*
X121162671Y-109397797D01*
X121297517Y-109448091D01*
X121297516Y-109448091D01*
X121304444Y-109448835D01*
X121357127Y-109454500D01*
X123752872Y-109454499D01*
X123812483Y-109448091D01*
X123947331Y-109397796D01*
X124062546Y-109311546D01*
X124148796Y-109196331D01*
X124199091Y-109061483D01*
X124205500Y-109001873D01*
X124205499Y-107847155D01*
X145310000Y-107847155D01*
X145310000Y-108210000D01*
X146108811Y-108210000D01*
X146082927Y-108235884D01*
X146034874Y-108319115D01*
X146010000Y-108411947D01*
X146010000Y-108508053D01*
X146034874Y-108600885D01*
X146082927Y-108684116D01*
X146108811Y-108710000D01*
X145310000Y-108710000D01*
X145310000Y-109072844D01*
X145316401Y-109132372D01*
X145316403Y-109132379D01*
X145366645Y-109267086D01*
X145366649Y-109267093D01*
X145452809Y-109382187D01*
X145452812Y-109382190D01*
X145567906Y-109468350D01*
X145567913Y-109468354D01*
X145702620Y-109518596D01*
X145702627Y-109518598D01*
X145762155Y-109524999D01*
X145762172Y-109525000D01*
X146125000Y-109525000D01*
X146125000Y-108726189D01*
X146150884Y-108752073D01*
X146234115Y-108800126D01*
X146326947Y-108825000D01*
X146423053Y-108825000D01*
X146515885Y-108800126D01*
X146599116Y-108752073D01*
X146625000Y-108726189D01*
X146625000Y-109525000D01*
X146987828Y-109525000D01*
X146987844Y-109524999D01*
X147047372Y-109518598D01*
X147047379Y-109518596D01*
X147182086Y-109468354D01*
X147182093Y-109468350D01*
X147297187Y-109382190D01*
X147297190Y-109382187D01*
X147383350Y-109267093D01*
X147383354Y-109267086D01*
X147433596Y-109132379D01*
X147433598Y-109132372D01*
X147439999Y-109072844D01*
X147440000Y-109072827D01*
X147440000Y-108710000D01*
X146641189Y-108710000D01*
X146667073Y-108684116D01*
X146715126Y-108600885D01*
X146740000Y-108508053D01*
X146740000Y-108460000D01*
X156554345Y-108460000D01*
X156574917Y-108668876D01*
X156635844Y-108869723D01*
X156734779Y-109054818D01*
X156734783Y-109054825D01*
X156867932Y-109217067D01*
X157030174Y-109350216D01*
X157030181Y-109350220D01*
X157215276Y-109449155D01*
X157215278Y-109449156D01*
X157416126Y-109510083D01*
X157625000Y-109530655D01*
X157833874Y-109510083D01*
X158034722Y-109449156D01*
X158219824Y-109350217D01*
X158382067Y-109217067D01*
X158515217Y-109054824D01*
X158614156Y-108869722D01*
X158675083Y-108668874D01*
X158695655Y-108460000D01*
X158675083Y-108251126D01*
X158614156Y-108050278D01*
X158515217Y-107865176D01*
X158515216Y-107865174D01*
X158382067Y-107702932D01*
X158219825Y-107569783D01*
X158219818Y-107569779D01*
X158034723Y-107470844D01*
X157833876Y-107409917D01*
X157625000Y-107389345D01*
X157416123Y-107409917D01*
X157215276Y-107470844D01*
X157030181Y-107569779D01*
X157030174Y-107569783D01*
X156867932Y-107702932D01*
X156734783Y-107865174D01*
X156734779Y-107865181D01*
X156635844Y-108050276D01*
X156574917Y-108251123D01*
X156554345Y-108460000D01*
X146740000Y-108460000D01*
X146740000Y-108411947D01*
X146715126Y-108319115D01*
X146667073Y-108235884D01*
X146641189Y-108210000D01*
X147440000Y-108210000D01*
X147440000Y-107847172D01*
X147439999Y-107847155D01*
X147433598Y-107787627D01*
X147433596Y-107787620D01*
X147383354Y-107652913D01*
X147383350Y-107652906D01*
X147297190Y-107537812D01*
X147297187Y-107537809D01*
X147182093Y-107451649D01*
X147182086Y-107451645D01*
X147047379Y-107401403D01*
X147047372Y-107401401D01*
X146987844Y-107395000D01*
X146625000Y-107395000D01*
X146625000Y-108193811D01*
X146599116Y-108167927D01*
X146515885Y-108119874D01*
X146423053Y-108095000D01*
X146326947Y-108095000D01*
X146234115Y-108119874D01*
X146150884Y-108167927D01*
X146125000Y-108193811D01*
X146125000Y-107395000D01*
X145762155Y-107395000D01*
X145702627Y-107401401D01*
X145702620Y-107401403D01*
X145567913Y-107451645D01*
X145567906Y-107451649D01*
X145452812Y-107537809D01*
X145452809Y-107537812D01*
X145366649Y-107652906D01*
X145366645Y-107652913D01*
X145316403Y-107787620D01*
X145316401Y-107787627D01*
X145310000Y-107847155D01*
X124205499Y-107847155D01*
X124205499Y-107406128D01*
X124199091Y-107346517D01*
X124148796Y-107211669D01*
X124148795Y-107211668D01*
X124148793Y-107211664D01*
X124062547Y-107096455D01*
X124062544Y-107096452D01*
X123947335Y-107010206D01*
X123947328Y-107010202D01*
X123812482Y-106959908D01*
X123812483Y-106959908D01*
X123752883Y-106953501D01*
X123752881Y-106953500D01*
X123752873Y-106953500D01*
X123752865Y-106953500D01*
X123688415Y-106953500D01*
X123621376Y-106933815D01*
X123575621Y-106881011D01*
X123565677Y-106811853D01*
X123594702Y-106748297D01*
X123615529Y-106729182D01*
X123769321Y-106617443D01*
X123769322Y-106617443D01*
X123908444Y-106478321D01*
X124024095Y-106319143D01*
X124113418Y-106143837D01*
X124174218Y-105956716D01*
X124180984Y-105914000D01*
X122988012Y-105914000D01*
X123020925Y-105856993D01*
X123055000Y-105729826D01*
X123055000Y-105598174D01*
X123020925Y-105471007D01*
X122988012Y-105414000D01*
X124180984Y-105414000D01*
X124174218Y-105371283D01*
X124113418Y-105184162D01*
X124024095Y-105008856D01*
X123908444Y-104849678D01*
X123769321Y-104710555D01*
X123610143Y-104594904D01*
X123433235Y-104504765D01*
X123382439Y-104456790D01*
X123365644Y-104388969D01*
X123388181Y-104322835D01*
X123433236Y-104283795D01*
X123435022Y-104282884D01*
X123435025Y-104282884D01*
X123610405Y-104193524D01*
X123769646Y-104077828D01*
X123830475Y-104016999D01*
X144084364Y-104016999D01*
X144084364Y-104017000D01*
X144981988Y-104017000D01*
X144949075Y-104074007D01*
X144915000Y-104201174D01*
X144915000Y-104332826D01*
X144949075Y-104459993D01*
X144981988Y-104517000D01*
X144084364Y-104517000D01*
X144141567Y-104730486D01*
X144141570Y-104730492D01*
X144241399Y-104944578D01*
X144376894Y-105138082D01*
X144543917Y-105305105D01*
X144737421Y-105440600D01*
X144951507Y-105540429D01*
X144951516Y-105540433D01*
X145165000Y-105597634D01*
X145165000Y-104700012D01*
X145222007Y-104732925D01*
X145349174Y-104767000D01*
X145480826Y-104767000D01*
X145607993Y-104732925D01*
X145665000Y-104700012D01*
X145665000Y-105597633D01*
X145878483Y-105540433D01*
X145878492Y-105540429D01*
X146092578Y-105440600D01*
X146286082Y-105305105D01*
X146453105Y-105138082D01*
X146583119Y-104952405D01*
X146637696Y-104908781D01*
X146707195Y-104901588D01*
X146769549Y-104933110D01*
X146786269Y-104952405D01*
X146916505Y-105138401D01*
X147083599Y-105305495D01*
X147177554Y-105371283D01*
X147277165Y-105441032D01*
X147277167Y-105441033D01*
X147277170Y-105441035D01*
X147491337Y-105540903D01*
X147719592Y-105602063D01*
X147896034Y-105617500D01*
X147954999Y-105622659D01*
X147955000Y-105622659D01*
X147955001Y-105622659D01*
X148013966Y-105617500D01*
X148190408Y-105602063D01*
X148418663Y-105540903D01*
X148632830Y-105441035D01*
X148826401Y-105305495D01*
X148948329Y-105183566D01*
X149009648Y-105150084D01*
X149079340Y-105155068D01*
X149135274Y-105196939D01*
X149152189Y-105227917D01*
X149201202Y-105359328D01*
X149201206Y-105359335D01*
X149287452Y-105474544D01*
X149287455Y-105474547D01*
X149402664Y-105560793D01*
X149402671Y-105560797D01*
X149537517Y-105611091D01*
X149537516Y-105611091D01*
X149544444Y-105611835D01*
X149597127Y-105617500D01*
X151392872Y-105617499D01*
X151452483Y-105611091D01*
X151587331Y-105560796D01*
X151702546Y-105474546D01*
X151788796Y-105359331D01*
X151839091Y-105224483D01*
X151845500Y-105164873D01*
X151845499Y-103369128D01*
X151839091Y-103309517D01*
X151837810Y-103306083D01*
X151788797Y-103174671D01*
X151788793Y-103174664D01*
X151702547Y-103059455D01*
X151702544Y-103059452D01*
X151587335Y-102973206D01*
X151587328Y-102973202D01*
X151452482Y-102922908D01*
X151452483Y-102922908D01*
X151392883Y-102916501D01*
X151392881Y-102916500D01*
X151392873Y-102916500D01*
X151392864Y-102916500D01*
X149597129Y-102916500D01*
X149597123Y-102916501D01*
X149537516Y-102922908D01*
X149402671Y-102973202D01*
X149402664Y-102973206D01*
X149287455Y-103059452D01*
X149287452Y-103059455D01*
X149201206Y-103174664D01*
X149201203Y-103174669D01*
X149152189Y-103306083D01*
X149110317Y-103362016D01*
X149044853Y-103386433D01*
X148976580Y-103371581D01*
X148948326Y-103350430D01*
X148826402Y-103228506D01*
X148826395Y-103228501D01*
X148817713Y-103222422D01*
X148749518Y-103174671D01*
X148632834Y-103092967D01*
X148632830Y-103092965D01*
X148632828Y-103092964D01*
X148418663Y-102993097D01*
X148418659Y-102993096D01*
X148418655Y-102993094D01*
X148190413Y-102931938D01*
X148190403Y-102931936D01*
X147955001Y-102911341D01*
X147954999Y-102911341D01*
X147719596Y-102931936D01*
X147719586Y-102931938D01*
X147491344Y-102993094D01*
X147491335Y-102993098D01*
X147277171Y-103092964D01*
X147277169Y-103092965D01*
X147083597Y-103228505D01*
X146916508Y-103395594D01*
X146786269Y-103581595D01*
X146731692Y-103625219D01*
X146662193Y-103632412D01*
X146599839Y-103600890D01*
X146583119Y-103581594D01*
X146453113Y-103395926D01*
X146453108Y-103395920D01*
X146286082Y-103228894D01*
X146092578Y-103093399D01*
X145878492Y-102993570D01*
X145878486Y-102993567D01*
X145665000Y-102936364D01*
X145665000Y-103833988D01*
X145607993Y-103801075D01*
X145480826Y-103767000D01*
X145349174Y-103767000D01*
X145222007Y-103801075D01*
X145165000Y-103833988D01*
X145165000Y-102936364D01*
X145164999Y-102936364D01*
X144951513Y-102993567D01*
X144951507Y-102993570D01*
X144737422Y-103093399D01*
X144737420Y-103093400D01*
X144543926Y-103228886D01*
X144543920Y-103228891D01*
X144376891Y-103395920D01*
X144376886Y-103395926D01*
X144241400Y-103589420D01*
X144241399Y-103589422D01*
X144141570Y-103803507D01*
X144141567Y-103803513D01*
X144084364Y-104016999D01*
X123830475Y-104016999D01*
X123908828Y-103938646D01*
X124024524Y-103779405D01*
X124113884Y-103604025D01*
X124174709Y-103416826D01*
X124177997Y-103396065D01*
X124205500Y-103222422D01*
X124205500Y-103025577D01*
X124174709Y-102831173D01*
X124113882Y-102643970D01*
X124024523Y-102468594D01*
X124013172Y-102452971D01*
X123908828Y-102309354D01*
X123769646Y-102170172D01*
X123610405Y-102054476D01*
X123435029Y-101965117D01*
X123247826Y-101904290D01*
X123053422Y-101873500D01*
X123053417Y-101873500D01*
X122056583Y-101873500D01*
X122056578Y-101873500D01*
X121862173Y-101904290D01*
X121674970Y-101965117D01*
X121499594Y-102054476D01*
X121463052Y-102081026D01*
X121340354Y-102170172D01*
X121340352Y-102170174D01*
X121340351Y-102170174D01*
X121201174Y-102309351D01*
X121201174Y-102309352D01*
X121201172Y-102309354D01*
X121190537Y-102323992D01*
X121085476Y-102468594D01*
X120996117Y-102643970D01*
X120935290Y-102831173D01*
X120904500Y-103025577D01*
X96500500Y-103025577D01*
X96500500Y-101499977D01*
X153828500Y-101499977D01*
X153828500Y-101700022D01*
X153867523Y-101896203D01*
X153867526Y-101896215D01*
X153944071Y-102081013D01*
X153944078Y-102081026D01*
X154055208Y-102247343D01*
X154055210Y-102247346D01*
X154070535Y-102262670D01*
X154104022Y-102323992D01*
X154099039Y-102393684D01*
X154070540Y-102438032D01*
X154055597Y-102452975D01*
X153944522Y-102619210D01*
X153944517Y-102619219D01*
X153868006Y-102803934D01*
X153868004Y-102803942D01*
X153858842Y-102849999D01*
X153858843Y-102850000D01*
X154927811Y-102850000D01*
X154901927Y-102875884D01*
X154853874Y-102959115D01*
X154829000Y-103051947D01*
X154829000Y-103148053D01*
X154853874Y-103240885D01*
X154901927Y-103324116D01*
X154927811Y-103350000D01*
X153858843Y-103350000D01*
X153868004Y-103396057D01*
X153868006Y-103396065D01*
X153944517Y-103580780D01*
X153944525Y-103580794D01*
X154019090Y-103692389D01*
X154039968Y-103759066D01*
X154021483Y-103826446D01*
X154003673Y-103848956D01*
X153986293Y-103866337D01*
X153986289Y-103866342D01*
X153986288Y-103866344D01*
X153945287Y-103932816D01*
X153894187Y-104015663D01*
X153894185Y-104015668D01*
X153866349Y-104099670D01*
X153839001Y-104182203D01*
X153839001Y-104182204D01*
X153839000Y-104182204D01*
X153828500Y-104284983D01*
X153828500Y-104915001D01*
X153828501Y-104915019D01*
X153839000Y-105017796D01*
X153839001Y-105017799D01*
X153894129Y-105184162D01*
X153894186Y-105184334D01*
X153986288Y-105333656D01*
X154110344Y-105457712D01*
X154259666Y-105549814D01*
X154426203Y-105604999D01*
X154528991Y-105615500D01*
X155859008Y-105615499D01*
X155961797Y-105604999D01*
X156128334Y-105549814D01*
X156277656Y-105457712D01*
X156401712Y-105333656D01*
X156493814Y-105184334D01*
X156548999Y-105017797D01*
X156559500Y-104915009D01*
X156559499Y-104284992D01*
X156548999Y-104182203D01*
X156493814Y-104015666D01*
X156401712Y-103866344D01*
X156384329Y-103848961D01*
X156350844Y-103787638D01*
X156355828Y-103717946D01*
X156368908Y-103692389D01*
X156443477Y-103580788D01*
X156443482Y-103580780D01*
X156519993Y-103396065D01*
X156519995Y-103396057D01*
X156529157Y-103350000D01*
X155460189Y-103350000D01*
X155486073Y-103324116D01*
X155534126Y-103240885D01*
X155559000Y-103148053D01*
X155559000Y-103051947D01*
X155534126Y-102959115D01*
X155486073Y-102875884D01*
X155460189Y-102850000D01*
X156529157Y-102850000D01*
X156529157Y-102849999D01*
X156519995Y-102803942D01*
X156519993Y-102803934D01*
X156443482Y-102619219D01*
X156443477Y-102619210D01*
X156332402Y-102452975D01*
X156332399Y-102452971D01*
X156317462Y-102438034D01*
X156283977Y-102376711D01*
X156288961Y-102307019D01*
X156317462Y-102262672D01*
X156332791Y-102247344D01*
X156443925Y-102081020D01*
X156520475Y-101896211D01*
X156559500Y-101700018D01*
X156559500Y-101499982D01*
X156520475Y-101303789D01*
X156520473Y-101303784D01*
X156443928Y-101118986D01*
X156443921Y-101118973D01*
X156332791Y-100952656D01*
X156332788Y-100952652D01*
X156191347Y-100811211D01*
X156191343Y-100811208D01*
X156025026Y-100700078D01*
X156025013Y-100700071D01*
X155840215Y-100623526D01*
X155840203Y-100623523D01*
X155644022Y-100584500D01*
X155644018Y-100584500D01*
X154743982Y-100584500D01*
X154743977Y-100584500D01*
X154547796Y-100623523D01*
X154547784Y-100623526D01*
X154362986Y-100700071D01*
X154362973Y-100700078D01*
X154196656Y-100811208D01*
X154196652Y-100811211D01*
X154055211Y-100952652D01*
X154055208Y-100952656D01*
X153944078Y-101118973D01*
X153944071Y-101118986D01*
X153867526Y-101303784D01*
X153867523Y-101303796D01*
X153828500Y-101499977D01*
X96500500Y-101499977D01*
X96500500Y-97540000D01*
X97304345Y-97540000D01*
X97324917Y-97748876D01*
X97385844Y-97949723D01*
X97484779Y-98134818D01*
X97484783Y-98134825D01*
X97617932Y-98297067D01*
X97780174Y-98430216D01*
X97780181Y-98430220D01*
X97839993Y-98462190D01*
X97965278Y-98529156D01*
X98166126Y-98590083D01*
X98375000Y-98610655D01*
X98583874Y-98590083D01*
X98784722Y-98529156D01*
X98969824Y-98430217D01*
X99132067Y-98297067D01*
X99265217Y-98134824D01*
X99364156Y-97949722D01*
X99425083Y-97748874D01*
X99445655Y-97540000D01*
X99425083Y-97331126D01*
X99364156Y-97130278D01*
X99265217Y-96945176D01*
X99265216Y-96945174D01*
X99250428Y-96927155D01*
X108560000Y-96927155D01*
X108560000Y-97290000D01*
X109358811Y-97290000D01*
X109332927Y-97315884D01*
X109284874Y-97399115D01*
X109260000Y-97491947D01*
X109260000Y-97588053D01*
X109284874Y-97680885D01*
X109332927Y-97764116D01*
X109358811Y-97790000D01*
X108560000Y-97790000D01*
X108560000Y-98152844D01*
X108566401Y-98212372D01*
X108566403Y-98212379D01*
X108616645Y-98347086D01*
X108616649Y-98347093D01*
X108702809Y-98462187D01*
X108702812Y-98462190D01*
X108817906Y-98548350D01*
X108817913Y-98548354D01*
X108952620Y-98598596D01*
X108952627Y-98598598D01*
X109012155Y-98604999D01*
X109012172Y-98605000D01*
X109375000Y-98605000D01*
X109375000Y-97806189D01*
X109400884Y-97832073D01*
X109484115Y-97880126D01*
X109576947Y-97905000D01*
X109673053Y-97905000D01*
X109765885Y-97880126D01*
X109849116Y-97832073D01*
X109875000Y-97806189D01*
X109875000Y-98605000D01*
X110237828Y-98605000D01*
X110237844Y-98604999D01*
X110297372Y-98598598D01*
X110297379Y-98598596D01*
X110432086Y-98548354D01*
X110432093Y-98548350D01*
X110547187Y-98462190D01*
X110547190Y-98462187D01*
X110633350Y-98347093D01*
X110633354Y-98347086D01*
X110683596Y-98212379D01*
X110683598Y-98212372D01*
X110689999Y-98152844D01*
X110690000Y-98152827D01*
X110690000Y-97943000D01*
X135835345Y-97943000D01*
X135855917Y-98151876D01*
X135916844Y-98352723D01*
X136015779Y-98537818D01*
X136015783Y-98537825D01*
X136148932Y-98700067D01*
X136311174Y-98833216D01*
X136311181Y-98833220D01*
X136496276Y-98932155D01*
X136496278Y-98932156D01*
X136697126Y-98993083D01*
X136906000Y-99013655D01*
X137114874Y-98993083D01*
X137315722Y-98932156D01*
X137500824Y-98833217D01*
X137663067Y-98700067D01*
X137796217Y-98537824D01*
X137895156Y-98352722D01*
X137956083Y-98151874D01*
X137976655Y-97943000D01*
X138375345Y-97943000D01*
X138395917Y-98151876D01*
X138456844Y-98352723D01*
X138555779Y-98537818D01*
X138555783Y-98537825D01*
X138688932Y-98700067D01*
X138851174Y-98833216D01*
X138851181Y-98833220D01*
X139036276Y-98932155D01*
X139036278Y-98932156D01*
X139237126Y-98993083D01*
X139446000Y-99013655D01*
X139654874Y-98993083D01*
X139855722Y-98932156D01*
X140040824Y-98833217D01*
X140203067Y-98700067D01*
X140336217Y-98537824D01*
X140435156Y-98352722D01*
X140496083Y-98151874D01*
X140516655Y-97943000D01*
X140915345Y-97943000D01*
X140935917Y-98151876D01*
X140996844Y-98352723D01*
X141095779Y-98537818D01*
X141095783Y-98537825D01*
X141228932Y-98700067D01*
X141391174Y-98833216D01*
X141391181Y-98833220D01*
X141576276Y-98932155D01*
X141576278Y-98932156D01*
X141777126Y-98993083D01*
X141986000Y-99013655D01*
X142194874Y-98993083D01*
X142395722Y-98932156D01*
X142580824Y-98833217D01*
X142743067Y-98700067D01*
X142876217Y-98537824D01*
X142975156Y-98352722D01*
X143036083Y-98151874D01*
X143056655Y-97943000D01*
X143036083Y-97734126D01*
X142977195Y-97540000D01*
X145304345Y-97540000D01*
X145324917Y-97748876D01*
X145385844Y-97949723D01*
X145484779Y-98134818D01*
X145484783Y-98134825D01*
X145617932Y-98297067D01*
X145780174Y-98430216D01*
X145780181Y-98430220D01*
X145839993Y-98462190D01*
X145965278Y-98529156D01*
X146166126Y-98590083D01*
X146375000Y-98610655D01*
X146583874Y-98590083D01*
X146784722Y-98529156D01*
X146969824Y-98430217D01*
X147132067Y-98297067D01*
X147265217Y-98134824D01*
X147364156Y-97949722D01*
X147425083Y-97748874D01*
X147445655Y-97540000D01*
X156554345Y-97540000D01*
X156574917Y-97748876D01*
X156635844Y-97949723D01*
X156734779Y-98134818D01*
X156734783Y-98134825D01*
X156867932Y-98297067D01*
X157030174Y-98430216D01*
X157030181Y-98430220D01*
X157089993Y-98462190D01*
X157215278Y-98529156D01*
X157416126Y-98590083D01*
X157625000Y-98610655D01*
X157833874Y-98590083D01*
X158034722Y-98529156D01*
X158219824Y-98430217D01*
X158382067Y-98297067D01*
X158515217Y-98134824D01*
X158614156Y-97949722D01*
X158675083Y-97748874D01*
X158695655Y-97540000D01*
X158675083Y-97331126D01*
X158614156Y-97130278D01*
X158515217Y-96945176D01*
X158515216Y-96945174D01*
X158382067Y-96782932D01*
X158219825Y-96649783D01*
X158219818Y-96649779D01*
X158034723Y-96550844D01*
X157833876Y-96489917D01*
X157625000Y-96469345D01*
X157416123Y-96489917D01*
X157215276Y-96550844D01*
X157030181Y-96649779D01*
X157030174Y-96649783D01*
X156867932Y-96782932D01*
X156734783Y-96945174D01*
X156734779Y-96945181D01*
X156635844Y-97130276D01*
X156574917Y-97331123D01*
X156554345Y-97540000D01*
X147445655Y-97540000D01*
X147425083Y-97331126D01*
X147364156Y-97130278D01*
X147265217Y-96945176D01*
X147265216Y-96945174D01*
X147132067Y-96782932D01*
X146969825Y-96649783D01*
X146969818Y-96649779D01*
X146784723Y-96550844D01*
X146583876Y-96489917D01*
X146375000Y-96469345D01*
X146166123Y-96489917D01*
X145965276Y-96550844D01*
X145780181Y-96649779D01*
X145780174Y-96649783D01*
X145617932Y-96782932D01*
X145484783Y-96945174D01*
X145484779Y-96945181D01*
X145385844Y-97130276D01*
X145324917Y-97331123D01*
X145304345Y-97540000D01*
X142977195Y-97540000D01*
X142975156Y-97533278D01*
X142953064Y-97491947D01*
X142876220Y-97348181D01*
X142876216Y-97348174D01*
X142743067Y-97185932D01*
X142580825Y-97052783D01*
X142580818Y-97052779D01*
X142395723Y-96953844D01*
X142194876Y-96892917D01*
X141986000Y-96872345D01*
X141777123Y-96892917D01*
X141576276Y-96953844D01*
X141391181Y-97052779D01*
X141391174Y-97052783D01*
X141228932Y-97185932D01*
X141095783Y-97348174D01*
X141095779Y-97348181D01*
X140996844Y-97533276D01*
X140935917Y-97734123D01*
X140915345Y-97943000D01*
X140516655Y-97943000D01*
X140496083Y-97734126D01*
X140435156Y-97533278D01*
X140413064Y-97491947D01*
X140336220Y-97348181D01*
X140336216Y-97348174D01*
X140203067Y-97185932D01*
X140040825Y-97052783D01*
X140040818Y-97052779D01*
X139855723Y-96953844D01*
X139654876Y-96892917D01*
X139446000Y-96872345D01*
X139237123Y-96892917D01*
X139036276Y-96953844D01*
X138851181Y-97052779D01*
X138851174Y-97052783D01*
X138688932Y-97185932D01*
X138555783Y-97348174D01*
X138555779Y-97348181D01*
X138456844Y-97533276D01*
X138395917Y-97734123D01*
X138375345Y-97943000D01*
X137976655Y-97943000D01*
X137956083Y-97734126D01*
X137895156Y-97533278D01*
X137873064Y-97491947D01*
X137796220Y-97348181D01*
X137796216Y-97348174D01*
X137663067Y-97185932D01*
X137500825Y-97052783D01*
X137500818Y-97052779D01*
X137315723Y-96953844D01*
X137114876Y-96892917D01*
X136906000Y-96872345D01*
X136697123Y-96892917D01*
X136496276Y-96953844D01*
X136311181Y-97052779D01*
X136311174Y-97052783D01*
X136148932Y-97185932D01*
X136015783Y-97348174D01*
X136015779Y-97348181D01*
X135916844Y-97533276D01*
X135855917Y-97734123D01*
X135835345Y-97943000D01*
X110690000Y-97943000D01*
X110690000Y-97790000D01*
X109891189Y-97790000D01*
X109917073Y-97764116D01*
X109965126Y-97680885D01*
X109990000Y-97588053D01*
X109990000Y-97491947D01*
X109965126Y-97399115D01*
X109917073Y-97315884D01*
X109891189Y-97290000D01*
X110690000Y-97290000D01*
X110690000Y-96927172D01*
X110689999Y-96927155D01*
X110683598Y-96867627D01*
X110683596Y-96867620D01*
X110633354Y-96732913D01*
X110633350Y-96732906D01*
X110547190Y-96617812D01*
X110547187Y-96617809D01*
X110432093Y-96531649D01*
X110432086Y-96531645D01*
X110297379Y-96481403D01*
X110297372Y-96481401D01*
X110237844Y-96475000D01*
X109875000Y-96475000D01*
X109875000Y-97273811D01*
X109849116Y-97247927D01*
X109765885Y-97199874D01*
X109673053Y-97175000D01*
X109576947Y-97175000D01*
X109484115Y-97199874D01*
X109400884Y-97247927D01*
X109375000Y-97273811D01*
X109375000Y-96475000D01*
X109012155Y-96475000D01*
X108952627Y-96481401D01*
X108952620Y-96481403D01*
X108817913Y-96531645D01*
X108817906Y-96531649D01*
X108702812Y-96617809D01*
X108702809Y-96617812D01*
X108616649Y-96732906D01*
X108616645Y-96732913D01*
X108566403Y-96867620D01*
X108566401Y-96867627D01*
X108560000Y-96927155D01*
X99250428Y-96927155D01*
X99132067Y-96782932D01*
X98969825Y-96649783D01*
X98969818Y-96649779D01*
X98784723Y-96550844D01*
X98583876Y-96489917D01*
X98375000Y-96469345D01*
X98166123Y-96489917D01*
X97965276Y-96550844D01*
X97780181Y-96649779D01*
X97780174Y-96649783D01*
X97617932Y-96782932D01*
X97484783Y-96945174D01*
X97484779Y-96945181D01*
X97385844Y-97130276D01*
X97324917Y-97331123D01*
X97304345Y-97540000D01*
X96500500Y-97540000D01*
X96500500Y-96334071D01*
X102849499Y-96334071D01*
X102874497Y-96459738D01*
X102874499Y-96459744D01*
X102923533Y-96578124D01*
X102923538Y-96578133D01*
X102994723Y-96684668D01*
X102994726Y-96684672D01*
X103085327Y-96775273D01*
X103085331Y-96775276D01*
X103191866Y-96846461D01*
X103191872Y-96846464D01*
X103191873Y-96846465D01*
X103310256Y-96895501D01*
X103310260Y-96895501D01*
X103310261Y-96895502D01*
X103435928Y-96920500D01*
X103435931Y-96920500D01*
X103564071Y-96920500D01*
X103648615Y-96903682D01*
X103689744Y-96895501D01*
X103808127Y-96846465D01*
X103914669Y-96775276D01*
X104005276Y-96684669D01*
X104076465Y-96578127D01*
X104125501Y-96459744D01*
X104150500Y-96334069D01*
X104150500Y-96205931D01*
X104150500Y-96205928D01*
X104125502Y-96080261D01*
X104125501Y-96080260D01*
X104125501Y-96080256D01*
X104076465Y-95961873D01*
X104076464Y-95961872D01*
X104076461Y-95961866D01*
X104005276Y-95855331D01*
X104005273Y-95855327D01*
X103914672Y-95764726D01*
X103914668Y-95764723D01*
X103808133Y-95693538D01*
X103808124Y-95693533D01*
X103689744Y-95644499D01*
X103689738Y-95644497D01*
X103564071Y-95619500D01*
X103564069Y-95619500D01*
X103435931Y-95619500D01*
X103435929Y-95619500D01*
X103310261Y-95644497D01*
X103310255Y-95644499D01*
X103191875Y-95693533D01*
X103191866Y-95693538D01*
X103085331Y-95764723D01*
X103085327Y-95764726D01*
X102994726Y-95855327D01*
X102994723Y-95855331D01*
X102923538Y-95961866D01*
X102923533Y-95961875D01*
X102874499Y-96080255D01*
X102874497Y-96080261D01*
X102849500Y-96205928D01*
X102849500Y-96205931D01*
X102849500Y-96334069D01*
X102849500Y-96334071D01*
X102849499Y-96334071D01*
X96500500Y-96334071D01*
X96500500Y-95000000D01*
X97304345Y-95000000D01*
X97324917Y-95208876D01*
X97385844Y-95409723D01*
X97484779Y-95594818D01*
X97484783Y-95594825D01*
X97617932Y-95757067D01*
X97780174Y-95890216D01*
X97780181Y-95890220D01*
X97914222Y-95961866D01*
X97965278Y-95989156D01*
X98166126Y-96050083D01*
X98375000Y-96070655D01*
X98583874Y-96050083D01*
X98784722Y-95989156D01*
X98969824Y-95890217D01*
X99132067Y-95757067D01*
X99265217Y-95594824D01*
X99364156Y-95409722D01*
X99425083Y-95208874D01*
X99445655Y-95000000D01*
X108554345Y-95000000D01*
X108574917Y-95208876D01*
X108635844Y-95409723D01*
X108734779Y-95594818D01*
X108734783Y-95594825D01*
X108867932Y-95757067D01*
X109030174Y-95890216D01*
X109030181Y-95890220D01*
X109164222Y-95961866D01*
X109215278Y-95989156D01*
X109416126Y-96050083D01*
X109625000Y-96070655D01*
X109833874Y-96050083D01*
X110034722Y-95989156D01*
X110219824Y-95890217D01*
X110382067Y-95757067D01*
X110515217Y-95594824D01*
X110614156Y-95409722D01*
X110675083Y-95208874D01*
X110695655Y-95000000D01*
X145304345Y-95000000D01*
X145324917Y-95208876D01*
X145385844Y-95409723D01*
X145484779Y-95594818D01*
X145484783Y-95594825D01*
X145617932Y-95757067D01*
X145780174Y-95890216D01*
X145780181Y-95890220D01*
X145914222Y-95961866D01*
X145965278Y-95989156D01*
X146166126Y-96050083D01*
X146375000Y-96070655D01*
X146583874Y-96050083D01*
X146784722Y-95989156D01*
X146969824Y-95890217D01*
X147132067Y-95757067D01*
X147265217Y-95594824D01*
X147364156Y-95409722D01*
X147425083Y-95208874D01*
X147445655Y-95000000D01*
X156554345Y-95000000D01*
X156574917Y-95208876D01*
X156635844Y-95409723D01*
X156734779Y-95594818D01*
X156734783Y-95594825D01*
X156867932Y-95757067D01*
X157030174Y-95890216D01*
X157030181Y-95890220D01*
X157164222Y-95961866D01*
X157215278Y-95989156D01*
X157416126Y-96050083D01*
X157625000Y-96070655D01*
X157833874Y-96050083D01*
X158034722Y-95989156D01*
X158219824Y-95890217D01*
X158382067Y-95757067D01*
X158515217Y-95594824D01*
X158614156Y-95409722D01*
X158675083Y-95208874D01*
X158695655Y-95000000D01*
X158675083Y-94791126D01*
X158614156Y-94590278D01*
X158515217Y-94405176D01*
X158515216Y-94405174D01*
X158382067Y-94242932D01*
X158219825Y-94109783D01*
X158219818Y-94109779D01*
X158034723Y-94010844D01*
X157833876Y-93949917D01*
X157625000Y-93929345D01*
X157416123Y-93949917D01*
X157215276Y-94010844D01*
X157030181Y-94109779D01*
X157030174Y-94109783D01*
X156867932Y-94242932D01*
X156734783Y-94405174D01*
X156734779Y-94405181D01*
X156635844Y-94590276D01*
X156574917Y-94791123D01*
X156554345Y-95000000D01*
X147445655Y-95000000D01*
X147425083Y-94791126D01*
X147364156Y-94590278D01*
X147265217Y-94405176D01*
X147265216Y-94405174D01*
X147132067Y-94242932D01*
X146969825Y-94109783D01*
X146969818Y-94109779D01*
X146784723Y-94010844D01*
X146583876Y-93949917D01*
X146375000Y-93929345D01*
X146166123Y-93949917D01*
X145965276Y-94010844D01*
X145780181Y-94109779D01*
X145780174Y-94109783D01*
X145617932Y-94242932D01*
X145484783Y-94405174D01*
X145484779Y-94405181D01*
X145385844Y-94590276D01*
X145324917Y-94791123D01*
X145304345Y-95000000D01*
X110695655Y-95000000D01*
X110675083Y-94791126D01*
X110614156Y-94590278D01*
X110515217Y-94405176D01*
X110515216Y-94405174D01*
X110382067Y-94242932D01*
X110219825Y-94109783D01*
X110219818Y-94109779D01*
X110034723Y-94010844D01*
X109833876Y-93949917D01*
X109625000Y-93929345D01*
X109416123Y-93949917D01*
X109215276Y-94010844D01*
X109030181Y-94109779D01*
X109030174Y-94109783D01*
X108867932Y-94242932D01*
X108734783Y-94405174D01*
X108734779Y-94405181D01*
X108635844Y-94590276D01*
X108574917Y-94791123D01*
X108554345Y-95000000D01*
X99445655Y-95000000D01*
X99425083Y-94791126D01*
X99364156Y-94590278D01*
X99265217Y-94405176D01*
X99265216Y-94405174D01*
X99132067Y-94242932D01*
X98969825Y-94109783D01*
X98969818Y-94109779D01*
X98784723Y-94010844D01*
X98583876Y-93949917D01*
X98375000Y-93929345D01*
X98166123Y-93949917D01*
X97965276Y-94010844D01*
X97780181Y-94109779D01*
X97780174Y-94109783D01*
X97617932Y-94242932D01*
X97484783Y-94405174D01*
X97484779Y-94405181D01*
X97385844Y-94590276D01*
X97324917Y-94791123D01*
X97304345Y-95000000D01*
X96500500Y-95000000D01*
X96500500Y-93794071D01*
X151849499Y-93794071D01*
X151874497Y-93919738D01*
X151874499Y-93919744D01*
X151923533Y-94038124D01*
X151923538Y-94038133D01*
X151994723Y-94144668D01*
X151994726Y-94144672D01*
X152085327Y-94235273D01*
X152085331Y-94235276D01*
X152191866Y-94306461D01*
X152191872Y-94306464D01*
X152191873Y-94306465D01*
X152310256Y-94355501D01*
X152310260Y-94355501D01*
X152310261Y-94355502D01*
X152435928Y-94380500D01*
X152435931Y-94380500D01*
X152564071Y-94380500D01*
X152648615Y-94363682D01*
X152689744Y-94355501D01*
X152808127Y-94306465D01*
X152914669Y-94235276D01*
X153005276Y-94144669D01*
X153076465Y-94038127D01*
X153125501Y-93919744D01*
X153150500Y-93794069D01*
X153150500Y-93665931D01*
X153150500Y-93665928D01*
X153125502Y-93540261D01*
X153125501Y-93540260D01*
X153125501Y-93540256D01*
X153076465Y-93421873D01*
X153076464Y-93421872D01*
X153076461Y-93421866D01*
X153005276Y-93315331D01*
X153005273Y-93315327D01*
X152914672Y-93224726D01*
X152914668Y-93224723D01*
X152808133Y-93153538D01*
X152808124Y-93153533D01*
X152689744Y-93104499D01*
X152689738Y-93104497D01*
X152564071Y-93079500D01*
X152564069Y-93079500D01*
X152435931Y-93079500D01*
X152435929Y-93079500D01*
X152310261Y-93104497D01*
X152310255Y-93104499D01*
X152191875Y-93153533D01*
X152191866Y-93153538D01*
X152085331Y-93224723D01*
X152085327Y-93224726D01*
X151994726Y-93315327D01*
X151994723Y-93315331D01*
X151923538Y-93421866D01*
X151923533Y-93421875D01*
X151874499Y-93540255D01*
X151874497Y-93540261D01*
X151849500Y-93665928D01*
X151849500Y-93665931D01*
X151849500Y-93794069D01*
X151849500Y-93794071D01*
X151849499Y-93794071D01*
X96500500Y-93794071D01*
X96500500Y-92460000D01*
X97304345Y-92460000D01*
X97324917Y-92668876D01*
X97385844Y-92869723D01*
X97484779Y-93054818D01*
X97484783Y-93054825D01*
X97617932Y-93217067D01*
X97780174Y-93350216D01*
X97780181Y-93350220D01*
X97862958Y-93394465D01*
X97965278Y-93449156D01*
X98166126Y-93510083D01*
X98375000Y-93530655D01*
X98583874Y-93510083D01*
X98784722Y-93449156D01*
X98969824Y-93350217D01*
X99132067Y-93217067D01*
X99265217Y-93054824D01*
X99364156Y-92869722D01*
X99425083Y-92668874D01*
X99445655Y-92460000D01*
X108554345Y-92460000D01*
X108574917Y-92668876D01*
X108635844Y-92869723D01*
X108734779Y-93054818D01*
X108734783Y-93054825D01*
X108867932Y-93217067D01*
X109030174Y-93350216D01*
X109030181Y-93350220D01*
X109112958Y-93394465D01*
X109215278Y-93449156D01*
X109416126Y-93510083D01*
X109625000Y-93530655D01*
X109833874Y-93510083D01*
X110034722Y-93449156D01*
X110219824Y-93350217D01*
X110382067Y-93217067D01*
X110515217Y-93054824D01*
X110607555Y-92882071D01*
X140065499Y-92882071D01*
X140090497Y-93007738D01*
X140090499Y-93007744D01*
X140139533Y-93126124D01*
X140139538Y-93126133D01*
X140210723Y-93232668D01*
X140210726Y-93232672D01*
X140301327Y-93323273D01*
X140301331Y-93323276D01*
X140407866Y-93394461D01*
X140407872Y-93394464D01*
X140407873Y-93394465D01*
X140526256Y-93443501D01*
X140526260Y-93443501D01*
X140526261Y-93443502D01*
X140651928Y-93468500D01*
X140651931Y-93468500D01*
X140780071Y-93468500D01*
X140877320Y-93449155D01*
X140905744Y-93443501D01*
X141024127Y-93394465D01*
X141130669Y-93323276D01*
X141221276Y-93232669D01*
X141292465Y-93126127D01*
X141341501Y-93007744D01*
X141366500Y-92882069D01*
X141366500Y-92753931D01*
X141366500Y-92753928D01*
X141341502Y-92628261D01*
X141341501Y-92628260D01*
X141341501Y-92628256D01*
X141292465Y-92509873D01*
X141292464Y-92509872D01*
X141292461Y-92509866D01*
X141221276Y-92403331D01*
X141221273Y-92403327D01*
X141130672Y-92312726D01*
X141130668Y-92312723D01*
X141024133Y-92241538D01*
X141024124Y-92241533D01*
X140905744Y-92192499D01*
X140905738Y-92192497D01*
X140780071Y-92167500D01*
X140780069Y-92167500D01*
X140651931Y-92167500D01*
X140651929Y-92167500D01*
X140526261Y-92192497D01*
X140526255Y-92192499D01*
X140407875Y-92241533D01*
X140407866Y-92241538D01*
X140301331Y-92312723D01*
X140301327Y-92312726D01*
X140210726Y-92403327D01*
X140210723Y-92403331D01*
X140139538Y-92509866D01*
X140139533Y-92509875D01*
X140090499Y-92628255D01*
X140090497Y-92628261D01*
X140065500Y-92753928D01*
X140065500Y-92753931D01*
X140065500Y-92882069D01*
X140065500Y-92882071D01*
X140065499Y-92882071D01*
X110607555Y-92882071D01*
X110614156Y-92869722D01*
X110675083Y-92668874D01*
X110695655Y-92460000D01*
X110675083Y-92251126D01*
X110614156Y-92050278D01*
X110515217Y-91865176D01*
X110515216Y-91865174D01*
X110500428Y-91847155D01*
X145310000Y-91847155D01*
X145310000Y-92210000D01*
X146108811Y-92210000D01*
X146082927Y-92235884D01*
X146034874Y-92319115D01*
X146010000Y-92411947D01*
X146010000Y-92508053D01*
X146034874Y-92600885D01*
X146082927Y-92684116D01*
X146108811Y-92710000D01*
X145310000Y-92710000D01*
X145310000Y-93072844D01*
X145316401Y-93132372D01*
X145316403Y-93132379D01*
X145366645Y-93267086D01*
X145366649Y-93267093D01*
X145452809Y-93382187D01*
X145452812Y-93382190D01*
X145567906Y-93468350D01*
X145567913Y-93468354D01*
X145702620Y-93518596D01*
X145702627Y-93518598D01*
X145762155Y-93524999D01*
X145762172Y-93525000D01*
X146125000Y-93525000D01*
X146125000Y-92726189D01*
X146150884Y-92752073D01*
X146234115Y-92800126D01*
X146326947Y-92825000D01*
X146423053Y-92825000D01*
X146515885Y-92800126D01*
X146599116Y-92752073D01*
X146625000Y-92726189D01*
X146625000Y-93525000D01*
X146987828Y-93525000D01*
X146987844Y-93524999D01*
X147047372Y-93518598D01*
X147047379Y-93518596D01*
X147182086Y-93468354D01*
X147182093Y-93468350D01*
X147297187Y-93382190D01*
X147297190Y-93382187D01*
X147383350Y-93267093D01*
X147383354Y-93267086D01*
X147433596Y-93132379D01*
X147433598Y-93132372D01*
X147439999Y-93072844D01*
X147440000Y-93072827D01*
X147440000Y-92710000D01*
X146641189Y-92710000D01*
X146667073Y-92684116D01*
X146715126Y-92600885D01*
X146740000Y-92508053D01*
X146740000Y-92460000D01*
X156554345Y-92460000D01*
X156574917Y-92668876D01*
X156635844Y-92869723D01*
X156734779Y-93054818D01*
X156734783Y-93054825D01*
X156867932Y-93217067D01*
X157030174Y-93350216D01*
X157030181Y-93350220D01*
X157112958Y-93394465D01*
X157215278Y-93449156D01*
X157416126Y-93510083D01*
X157625000Y-93530655D01*
X157833874Y-93510083D01*
X158034722Y-93449156D01*
X158219824Y-93350217D01*
X158382067Y-93217067D01*
X158515217Y-93054824D01*
X158614156Y-92869722D01*
X158675083Y-92668874D01*
X158695655Y-92460000D01*
X158675083Y-92251126D01*
X158614156Y-92050278D01*
X158515217Y-91865176D01*
X158515216Y-91865174D01*
X158382067Y-91702932D01*
X158219825Y-91569783D01*
X158219818Y-91569779D01*
X158034723Y-91470844D01*
X157833876Y-91409917D01*
X157625000Y-91389345D01*
X157416123Y-91409917D01*
X157215276Y-91470844D01*
X157030181Y-91569779D01*
X157030174Y-91569783D01*
X156867932Y-91702932D01*
X156734783Y-91865174D01*
X156734779Y-91865181D01*
X156635844Y-92050276D01*
X156574917Y-92251123D01*
X156554345Y-92460000D01*
X146740000Y-92460000D01*
X146740000Y-92411947D01*
X146715126Y-92319115D01*
X146667073Y-92235884D01*
X146641189Y-92210000D01*
X147440000Y-92210000D01*
X147440000Y-91847172D01*
X147439999Y-91847155D01*
X147433598Y-91787627D01*
X147433596Y-91787620D01*
X147383354Y-91652913D01*
X147383350Y-91652906D01*
X147297190Y-91537812D01*
X147297187Y-91537809D01*
X147182093Y-91451649D01*
X147182086Y-91451645D01*
X147047379Y-91401403D01*
X147047372Y-91401401D01*
X146987844Y-91395000D01*
X146625000Y-91395000D01*
X146625000Y-92193811D01*
X146599116Y-92167927D01*
X146515885Y-92119874D01*
X146423053Y-92095000D01*
X146326947Y-92095000D01*
X146234115Y-92119874D01*
X146150884Y-92167927D01*
X146125000Y-92193811D01*
X146125000Y-91395000D01*
X145762155Y-91395000D01*
X145702627Y-91401401D01*
X145702620Y-91401403D01*
X145567913Y-91451645D01*
X145567906Y-91451649D01*
X145452812Y-91537809D01*
X145452809Y-91537812D01*
X145366649Y-91652906D01*
X145366645Y-91652913D01*
X145316403Y-91787620D01*
X145316401Y-91787627D01*
X145310000Y-91847155D01*
X110500428Y-91847155D01*
X110382067Y-91702932D01*
X110219825Y-91569783D01*
X110219818Y-91569779D01*
X110034723Y-91470844D01*
X109833876Y-91409917D01*
X109625000Y-91389345D01*
X109416123Y-91409917D01*
X109215276Y-91470844D01*
X109030181Y-91569779D01*
X109030174Y-91569783D01*
X108867932Y-91702932D01*
X108734783Y-91865174D01*
X108734779Y-91865181D01*
X108635844Y-92050276D01*
X108574917Y-92251123D01*
X108554345Y-92460000D01*
X99445655Y-92460000D01*
X99425083Y-92251126D01*
X99364156Y-92050278D01*
X99265217Y-91865176D01*
X99265216Y-91865174D01*
X99132067Y-91702932D01*
X98969825Y-91569783D01*
X98969818Y-91569779D01*
X98784723Y-91470844D01*
X98583876Y-91409917D01*
X98375000Y-91389345D01*
X98166123Y-91409917D01*
X97965276Y-91470844D01*
X97780181Y-91569779D01*
X97780174Y-91569783D01*
X97617932Y-91702932D01*
X97484783Y-91865174D01*
X97484779Y-91865181D01*
X97385844Y-92050276D01*
X97324917Y-92251123D01*
X97304345Y-92460000D01*
X96500500Y-92460000D01*
X96500500Y-81540000D01*
X97304345Y-81540000D01*
X97324917Y-81748876D01*
X97385844Y-81949723D01*
X97484779Y-82134818D01*
X97484783Y-82134825D01*
X97617932Y-82297067D01*
X97780174Y-82430216D01*
X97780181Y-82430220D01*
X97839993Y-82462190D01*
X97965278Y-82529156D01*
X98166126Y-82590083D01*
X98375000Y-82610655D01*
X98583874Y-82590083D01*
X98784722Y-82529156D01*
X98969824Y-82430217D01*
X99132067Y-82297067D01*
X99265217Y-82134824D01*
X99364156Y-81949722D01*
X99425083Y-81748874D01*
X99445655Y-81540000D01*
X99425083Y-81331126D01*
X99364156Y-81130278D01*
X99265217Y-80945176D01*
X99265216Y-80945174D01*
X99250428Y-80927155D01*
X108560000Y-80927155D01*
X108560000Y-81290000D01*
X109358811Y-81290000D01*
X109332927Y-81315884D01*
X109284874Y-81399115D01*
X109260000Y-81491947D01*
X109260000Y-81588053D01*
X109284874Y-81680885D01*
X109332927Y-81764116D01*
X109358811Y-81790000D01*
X108560000Y-81790000D01*
X108560000Y-82152844D01*
X108566401Y-82212372D01*
X108566403Y-82212379D01*
X108616645Y-82347086D01*
X108616649Y-82347093D01*
X108702809Y-82462187D01*
X108702812Y-82462190D01*
X108817906Y-82548350D01*
X108817913Y-82548354D01*
X108952620Y-82598596D01*
X108952627Y-82598598D01*
X109012155Y-82604999D01*
X109012172Y-82605000D01*
X109375000Y-82605000D01*
X109375000Y-81806189D01*
X109400884Y-81832073D01*
X109484115Y-81880126D01*
X109576947Y-81905000D01*
X109673053Y-81905000D01*
X109765885Y-81880126D01*
X109849116Y-81832073D01*
X109875000Y-81806189D01*
X109875000Y-82605000D01*
X110237828Y-82605000D01*
X110237844Y-82604999D01*
X110297372Y-82598598D01*
X110297379Y-82598596D01*
X110432086Y-82548354D01*
X110432093Y-82548350D01*
X110547187Y-82462190D01*
X110547190Y-82462187D01*
X110633350Y-82347093D01*
X110633354Y-82347086D01*
X110683596Y-82212379D01*
X110683598Y-82212372D01*
X110689999Y-82152844D01*
X110690000Y-82152827D01*
X110690000Y-81790000D01*
X109891189Y-81790000D01*
X109917073Y-81764116D01*
X109965126Y-81680885D01*
X109990000Y-81588053D01*
X109990000Y-81491947D01*
X109965126Y-81399115D01*
X109917073Y-81315884D01*
X109891189Y-81290000D01*
X110690000Y-81290000D01*
X110690000Y-80927172D01*
X110689999Y-80927155D01*
X110683598Y-80867627D01*
X110683596Y-80867620D01*
X110633354Y-80732913D01*
X110633350Y-80732906D01*
X110547190Y-80617812D01*
X110547187Y-80617809D01*
X110432093Y-80531649D01*
X110432086Y-80531645D01*
X110297379Y-80481403D01*
X110297372Y-80481401D01*
X110237844Y-80475000D01*
X109875000Y-80475000D01*
X109875000Y-81273811D01*
X109849116Y-81247927D01*
X109765885Y-81199874D01*
X109673053Y-81175000D01*
X109576947Y-81175000D01*
X109484115Y-81199874D01*
X109400884Y-81247927D01*
X109375000Y-81273811D01*
X109375000Y-80475000D01*
X109012155Y-80475000D01*
X108952627Y-80481401D01*
X108952620Y-80481403D01*
X108817913Y-80531645D01*
X108817906Y-80531649D01*
X108702812Y-80617809D01*
X108702809Y-80617812D01*
X108616649Y-80732906D01*
X108616645Y-80732913D01*
X108566403Y-80867620D01*
X108566401Y-80867627D01*
X108560000Y-80927155D01*
X99250428Y-80927155D01*
X99132067Y-80782932D01*
X98969825Y-80649783D01*
X98969818Y-80649779D01*
X98784723Y-80550844D01*
X98583876Y-80489917D01*
X98375000Y-80469345D01*
X98166123Y-80489917D01*
X97965276Y-80550844D01*
X97780181Y-80649779D01*
X97780174Y-80649783D01*
X97617932Y-80782932D01*
X97484783Y-80945174D01*
X97484779Y-80945181D01*
X97385844Y-81130276D01*
X97324917Y-81331123D01*
X97304345Y-81540000D01*
X96500500Y-81540000D01*
X96500500Y-80334071D01*
X102849499Y-80334071D01*
X102874497Y-80459738D01*
X102874499Y-80459744D01*
X102923533Y-80578124D01*
X102923538Y-80578133D01*
X102994723Y-80684668D01*
X102994726Y-80684672D01*
X103085327Y-80775273D01*
X103085331Y-80775276D01*
X103191866Y-80846461D01*
X103191872Y-80846464D01*
X103191873Y-80846465D01*
X103310256Y-80895501D01*
X103310260Y-80895501D01*
X103310261Y-80895502D01*
X103435928Y-80920500D01*
X103435931Y-80920500D01*
X103564071Y-80920500D01*
X103648615Y-80903682D01*
X103689744Y-80895501D01*
X103808127Y-80846465D01*
X103914669Y-80775276D01*
X104005276Y-80684669D01*
X104076465Y-80578127D01*
X104125501Y-80459744D01*
X104150500Y-80334069D01*
X104150500Y-80205931D01*
X104150500Y-80205928D01*
X104125502Y-80080261D01*
X104125501Y-80080260D01*
X104125501Y-80080256D01*
X104076465Y-79961873D01*
X104076464Y-79961872D01*
X104076461Y-79961866D01*
X104005276Y-79855331D01*
X104005273Y-79855327D01*
X103914672Y-79764726D01*
X103914668Y-79764723D01*
X103808133Y-79693538D01*
X103808124Y-79693533D01*
X103689744Y-79644499D01*
X103689738Y-79644497D01*
X103564071Y-79619500D01*
X103564069Y-79619500D01*
X103435931Y-79619500D01*
X103435929Y-79619500D01*
X103310261Y-79644497D01*
X103310255Y-79644499D01*
X103191875Y-79693533D01*
X103191866Y-79693538D01*
X103085331Y-79764723D01*
X103085327Y-79764726D01*
X102994726Y-79855327D01*
X102994723Y-79855331D01*
X102923538Y-79961866D01*
X102923533Y-79961875D01*
X102874499Y-80080255D01*
X102874497Y-80080261D01*
X102849500Y-80205928D01*
X102849500Y-80205931D01*
X102849500Y-80334069D01*
X102849500Y-80334071D01*
X102849499Y-80334071D01*
X96500500Y-80334071D01*
X96500500Y-79000000D01*
X97304345Y-79000000D01*
X97324917Y-79208876D01*
X97385844Y-79409723D01*
X97484779Y-79594818D01*
X97484783Y-79594825D01*
X97617932Y-79757067D01*
X97780174Y-79890216D01*
X97780181Y-79890220D01*
X97914222Y-79961866D01*
X97965278Y-79989156D01*
X98166126Y-80050083D01*
X98375000Y-80070655D01*
X98583874Y-80050083D01*
X98784722Y-79989156D01*
X98969824Y-79890217D01*
X99132067Y-79757067D01*
X99265217Y-79594824D01*
X99364156Y-79409722D01*
X99425083Y-79208874D01*
X99445655Y-79000000D01*
X108554345Y-79000000D01*
X108574917Y-79208876D01*
X108635844Y-79409723D01*
X108734779Y-79594818D01*
X108734783Y-79594825D01*
X108867932Y-79757067D01*
X109030174Y-79890216D01*
X109030181Y-79890220D01*
X109164222Y-79961866D01*
X109215278Y-79989156D01*
X109416126Y-80050083D01*
X109625000Y-80070655D01*
X109833874Y-80050083D01*
X110034722Y-79989156D01*
X110219824Y-79890217D01*
X110382067Y-79757067D01*
X110515217Y-79594824D01*
X110614156Y-79409722D01*
X110675083Y-79208874D01*
X110695655Y-79000000D01*
X110675083Y-78791126D01*
X110614156Y-78590278D01*
X110515217Y-78405176D01*
X110515216Y-78405174D01*
X110382067Y-78242932D01*
X110219825Y-78109783D01*
X110219818Y-78109779D01*
X110034723Y-78010844D01*
X109833876Y-77949917D01*
X109625000Y-77929345D01*
X109416123Y-77949917D01*
X109215276Y-78010844D01*
X109030181Y-78109779D01*
X109030174Y-78109783D01*
X108867932Y-78242932D01*
X108734783Y-78405174D01*
X108734779Y-78405181D01*
X108635844Y-78590276D01*
X108574917Y-78791123D01*
X108554345Y-79000000D01*
X99445655Y-79000000D01*
X99425083Y-78791126D01*
X99364156Y-78590278D01*
X99265217Y-78405176D01*
X99265216Y-78405174D01*
X99132067Y-78242932D01*
X98969825Y-78109783D01*
X98969818Y-78109779D01*
X98784723Y-78010844D01*
X98583876Y-77949917D01*
X98375000Y-77929345D01*
X98166123Y-77949917D01*
X97965276Y-78010844D01*
X97780181Y-78109779D01*
X97780174Y-78109783D01*
X97617932Y-78242932D01*
X97484783Y-78405174D01*
X97484779Y-78405181D01*
X97385844Y-78590276D01*
X97324917Y-78791123D01*
X97304345Y-79000000D01*
X96500500Y-79000000D01*
X96500500Y-76460000D01*
X97304345Y-76460000D01*
X97324917Y-76668876D01*
X97385844Y-76869723D01*
X97484779Y-77054818D01*
X97484783Y-77054825D01*
X97617932Y-77217067D01*
X97780174Y-77350216D01*
X97780181Y-77350220D01*
X97839993Y-77382190D01*
X97965278Y-77449156D01*
X98166126Y-77510083D01*
X98375000Y-77530655D01*
X98583874Y-77510083D01*
X98784722Y-77449156D01*
X98969824Y-77350217D01*
X99132067Y-77217067D01*
X99265217Y-77054824D01*
X99364156Y-76869722D01*
X99425083Y-76668874D01*
X99445655Y-76460000D01*
X108554345Y-76460000D01*
X108574917Y-76668876D01*
X108635844Y-76869723D01*
X108734779Y-77054818D01*
X108734783Y-77054825D01*
X108867932Y-77217067D01*
X109030174Y-77350216D01*
X109030181Y-77350220D01*
X109089993Y-77382190D01*
X109215278Y-77449156D01*
X109416126Y-77510083D01*
X109625000Y-77530655D01*
X109833874Y-77510083D01*
X110034722Y-77449156D01*
X110219824Y-77350217D01*
X110382067Y-77217067D01*
X110515217Y-77054824D01*
X110614156Y-76869722D01*
X110675083Y-76668874D01*
X110695655Y-76460000D01*
X110675083Y-76251126D01*
X110614156Y-76050278D01*
X110515217Y-75865176D01*
X110515216Y-75865174D01*
X110382067Y-75702932D01*
X110219825Y-75569783D01*
X110219818Y-75569779D01*
X110034723Y-75470844D01*
X109833876Y-75409917D01*
X109625000Y-75389345D01*
X109416123Y-75409917D01*
X109215276Y-75470844D01*
X109030181Y-75569779D01*
X109030174Y-75569783D01*
X108867932Y-75702932D01*
X108734783Y-75865174D01*
X108734779Y-75865181D01*
X108635844Y-76050276D01*
X108574917Y-76251123D01*
X108554345Y-76460000D01*
X99445655Y-76460000D01*
X99425083Y-76251126D01*
X99364156Y-76050278D01*
X99265217Y-75865176D01*
X99265216Y-75865174D01*
X99132067Y-75702932D01*
X98969825Y-75569783D01*
X98969818Y-75569779D01*
X98784723Y-75470844D01*
X98583876Y-75409917D01*
X98375000Y-75389345D01*
X98166123Y-75409917D01*
X97965276Y-75470844D01*
X97780181Y-75569779D01*
X97780174Y-75569783D01*
X97617932Y-75702932D01*
X97484783Y-75865174D01*
X97484779Y-75865181D01*
X97385844Y-76050276D01*
X97324917Y-76251123D01*
X97304345Y-76460000D01*
X96500500Y-76460000D01*
X96500500Y-72882706D01*
X96500618Y-72877297D01*
X96509959Y-72663343D01*
X96517386Y-72493226D01*
X96518326Y-72482495D01*
X96568152Y-72104025D01*
X96570025Y-72093405D01*
X96652649Y-71720709D01*
X96655440Y-71710295D01*
X96770230Y-71346227D01*
X96773917Y-71336095D01*
X96804649Y-71261902D01*
X101999500Y-71261902D01*
X101999500Y-71498097D01*
X102036446Y-71731368D01*
X102109433Y-71955996D01*
X102179439Y-72093389D01*
X102216657Y-72166433D01*
X102355483Y-72357510D01*
X102522490Y-72524517D01*
X102713567Y-72663343D01*
X102812991Y-72714002D01*
X102924003Y-72770566D01*
X102924005Y-72770566D01*
X102924008Y-72770568D01*
X103044412Y-72809689D01*
X103148631Y-72843553D01*
X103381903Y-72880500D01*
X103381908Y-72880500D01*
X103618097Y-72880500D01*
X103851368Y-72843553D01*
X104075992Y-72770568D01*
X104286433Y-72663343D01*
X104477510Y-72524517D01*
X104612031Y-72389996D01*
X123019435Y-72389996D01*
X123019435Y-72390003D01*
X123039630Y-72569249D01*
X123039631Y-72569254D01*
X123099211Y-72739523D01*
X123164578Y-72843553D01*
X123195184Y-72892262D01*
X123322738Y-73019816D01*
X123475478Y-73115789D01*
X123645745Y-73175368D01*
X123732669Y-73185161D01*
X123797080Y-73212226D01*
X123806463Y-73220699D01*
X124091284Y-73505520D01*
X124091286Y-73505521D01*
X124091290Y-73505524D01*
X124228209Y-73584573D01*
X124228216Y-73584577D01*
X124380943Y-73625501D01*
X124380945Y-73625501D01*
X124546654Y-73625501D01*
X124546670Y-73625500D01*
X141605903Y-73625500D01*
X141672942Y-73645185D01*
X141718697Y-73697989D01*
X141728641Y-73767147D01*
X141699616Y-73830703D01*
X141693584Y-73837181D01*
X138042517Y-77488246D01*
X137981194Y-77521731D01*
X137911502Y-77516747D01*
X137855569Y-77474875D01*
X137831616Y-77414448D01*
X137827368Y-77376745D01*
X137767789Y-77206478D01*
X137759088Y-77192631D01*
X137672498Y-77054824D01*
X137671816Y-77053738D01*
X137544262Y-76926184D01*
X137391523Y-76830211D01*
X137221254Y-76770631D01*
X137221249Y-76770630D01*
X137042004Y-76750435D01*
X137041996Y-76750435D01*
X136862750Y-76770630D01*
X136862745Y-76770631D01*
X136692476Y-76830211D01*
X136539737Y-76926184D01*
X136412184Y-77053737D01*
X136316210Y-77206478D01*
X136285427Y-77294454D01*
X136244705Y-77351230D01*
X136179753Y-77376978D01*
X136168385Y-77377500D01*
X127582412Y-77377500D01*
X127515373Y-77357815D01*
X127505097Y-77350445D01*
X127502263Y-77348185D01*
X127502262Y-77348184D01*
X127445496Y-77312515D01*
X127349523Y-77252211D01*
X127179254Y-77192631D01*
X127179249Y-77192630D01*
X127000004Y-77172435D01*
X126999996Y-77172435D01*
X126820750Y-77192630D01*
X126820745Y-77192631D01*
X126650476Y-77252211D01*
X126497737Y-77348184D01*
X126370184Y-77475737D01*
X126274211Y-77628476D01*
X126214631Y-77798745D01*
X126214630Y-77798750D01*
X126194435Y-77977996D01*
X126194435Y-77978003D01*
X126214630Y-78157249D01*
X126214631Y-78157254D01*
X126274211Y-78327523D01*
X126370184Y-78480262D01*
X126497738Y-78607816D01*
X126650478Y-78703789D01*
X126820745Y-78763368D01*
X126820750Y-78763369D01*
X126999996Y-78783565D01*
X127000000Y-78783565D01*
X127000004Y-78783565D01*
X127179249Y-78763369D01*
X127179252Y-78763368D01*
X127179255Y-78763368D01*
X127349522Y-78703789D01*
X127502262Y-78607816D01*
X127502267Y-78607810D01*
X127505097Y-78605555D01*
X127507275Y-78604665D01*
X127508158Y-78604111D01*
X127508255Y-78604265D01*
X127569783Y-78579145D01*
X127582412Y-78578500D01*
X136533331Y-78578500D01*
X136533347Y-78578501D01*
X136652901Y-78578501D01*
X136719940Y-78598186D01*
X136765695Y-78650990D01*
X136775639Y-78720148D01*
X136746614Y-78783704D01*
X136740582Y-78790182D01*
X128868584Y-86662181D01*
X128807261Y-86695666D01*
X128780903Y-86698500D01*
X125042412Y-86698500D01*
X124975373Y-86678815D01*
X124965097Y-86671445D01*
X124962263Y-86669185D01*
X124962262Y-86669184D01*
X124905496Y-86633515D01*
X124809523Y-86573211D01*
X124639254Y-86513631D01*
X124639249Y-86513630D01*
X124460004Y-86493435D01*
X124459996Y-86493435D01*
X124280750Y-86513630D01*
X124280745Y-86513631D01*
X124110476Y-86573211D01*
X123957737Y-86669184D01*
X123830184Y-86796737D01*
X123734211Y-86949476D01*
X123674631Y-87119745D01*
X123674630Y-87119750D01*
X123654435Y-87298996D01*
X123654435Y-87299003D01*
X123674630Y-87478249D01*
X123674631Y-87478254D01*
X123734211Y-87648523D01*
X123830184Y-87801262D01*
X123957738Y-87928816D01*
X124110478Y-88024789D01*
X124280745Y-88084368D01*
X124280750Y-88084369D01*
X124459996Y-88104565D01*
X124460000Y-88104565D01*
X124460004Y-88104565D01*
X124639249Y-88084369D01*
X124639252Y-88084368D01*
X124639255Y-88084368D01*
X124809522Y-88024789D01*
X124962262Y-87928816D01*
X124962267Y-87928810D01*
X124965097Y-87926555D01*
X124967275Y-87925665D01*
X124968158Y-87925111D01*
X124968255Y-87925265D01*
X125029783Y-87900145D01*
X125042412Y-87899500D01*
X128994331Y-87899500D01*
X128994347Y-87899501D01*
X129001943Y-87899501D01*
X129160054Y-87899501D01*
X129160057Y-87899501D01*
X129312785Y-87858577D01*
X129362904Y-87829639D01*
X129449716Y-87779520D01*
X129561520Y-87667716D01*
X129561520Y-87667714D01*
X129571728Y-87657507D01*
X129571730Y-87657504D01*
X130536234Y-86693000D01*
X135835345Y-86693000D01*
X135855917Y-86901876D01*
X135916844Y-87102723D01*
X136015779Y-87287818D01*
X136015783Y-87287825D01*
X136148932Y-87450067D01*
X136311174Y-87583216D01*
X136311181Y-87583220D01*
X136496276Y-87682155D01*
X136496278Y-87682156D01*
X136697126Y-87743083D01*
X136906000Y-87763655D01*
X137114874Y-87743083D01*
X137315722Y-87682156D01*
X137500824Y-87583217D01*
X137663067Y-87450067D01*
X137796217Y-87287824D01*
X137895156Y-87102722D01*
X137956083Y-86901874D01*
X137976655Y-86693000D01*
X138375345Y-86693000D01*
X138395917Y-86901876D01*
X138456844Y-87102723D01*
X138555779Y-87287818D01*
X138555783Y-87287825D01*
X138688932Y-87450067D01*
X138851174Y-87583216D01*
X138851181Y-87583220D01*
X139036276Y-87682155D01*
X139036278Y-87682156D01*
X139237126Y-87743083D01*
X139446000Y-87763655D01*
X139654874Y-87743083D01*
X139855722Y-87682156D01*
X140040824Y-87583217D01*
X140203067Y-87450067D01*
X140336217Y-87287824D01*
X140435156Y-87102722D01*
X140496083Y-86901874D01*
X140516655Y-86693000D01*
X140496083Y-86484126D01*
X140435156Y-86283278D01*
X140336217Y-86098176D01*
X140336216Y-86098174D01*
X140321428Y-86080155D01*
X140921000Y-86080155D01*
X140921000Y-86443000D01*
X141719811Y-86443000D01*
X141693927Y-86468884D01*
X141645874Y-86552115D01*
X141621000Y-86644947D01*
X141621000Y-86741053D01*
X141645874Y-86833885D01*
X141693927Y-86917116D01*
X141719811Y-86943000D01*
X140921000Y-86943000D01*
X140921000Y-87305844D01*
X140927401Y-87365372D01*
X140927403Y-87365379D01*
X140977645Y-87500086D01*
X140977649Y-87500093D01*
X141063809Y-87615187D01*
X141063812Y-87615190D01*
X141178906Y-87701350D01*
X141178913Y-87701354D01*
X141313620Y-87751596D01*
X141313627Y-87751598D01*
X141373155Y-87757999D01*
X141373172Y-87758000D01*
X141736000Y-87758000D01*
X141736000Y-86959189D01*
X141761884Y-86985073D01*
X141845115Y-87033126D01*
X141937947Y-87058000D01*
X142034053Y-87058000D01*
X142126885Y-87033126D01*
X142210116Y-86985073D01*
X142236000Y-86959189D01*
X142236000Y-87758000D01*
X142598828Y-87758000D01*
X142598844Y-87757999D01*
X142658372Y-87751598D01*
X142658379Y-87751596D01*
X142793086Y-87701354D01*
X142793093Y-87701350D01*
X142908187Y-87615190D01*
X142908190Y-87615187D01*
X142994350Y-87500093D01*
X142994354Y-87500086D01*
X143044596Y-87365379D01*
X143044598Y-87365372D01*
X143050999Y-87305844D01*
X143051000Y-87305827D01*
X143051000Y-86943000D01*
X142252189Y-86943000D01*
X142278073Y-86917116D01*
X142326126Y-86833885D01*
X142351000Y-86741053D01*
X142351000Y-86644947D01*
X142326126Y-86552115D01*
X142278073Y-86468884D01*
X142252189Y-86443000D01*
X143051000Y-86443000D01*
X143051000Y-86080172D01*
X143050999Y-86080155D01*
X143044598Y-86020627D01*
X143044596Y-86020620D01*
X142994354Y-85885913D01*
X142994350Y-85885906D01*
X142908190Y-85770812D01*
X142908187Y-85770809D01*
X142793093Y-85684649D01*
X142793086Y-85684645D01*
X142658379Y-85634403D01*
X142658372Y-85634401D01*
X142598844Y-85628000D01*
X142236000Y-85628000D01*
X142236000Y-86426811D01*
X142210116Y-86400927D01*
X142126885Y-86352874D01*
X142034053Y-86328000D01*
X141937947Y-86328000D01*
X141845115Y-86352874D01*
X141761884Y-86400927D01*
X141736000Y-86426811D01*
X141736000Y-85628000D01*
X141373155Y-85628000D01*
X141313627Y-85634401D01*
X141313620Y-85634403D01*
X141178913Y-85684645D01*
X141178906Y-85684649D01*
X141063812Y-85770809D01*
X141063809Y-85770812D01*
X140977649Y-85885906D01*
X140977645Y-85885913D01*
X140927403Y-86020620D01*
X140927401Y-86020627D01*
X140921000Y-86080155D01*
X140321428Y-86080155D01*
X140203067Y-85935932D01*
X140040825Y-85802783D01*
X140040818Y-85802779D01*
X139855723Y-85703844D01*
X139654876Y-85642917D01*
X139446000Y-85622345D01*
X139237123Y-85642917D01*
X139036276Y-85703844D01*
X138851181Y-85802779D01*
X138851174Y-85802783D01*
X138688932Y-85935932D01*
X138555783Y-86098174D01*
X138555779Y-86098181D01*
X138456844Y-86283276D01*
X138395917Y-86484123D01*
X138375345Y-86693000D01*
X137976655Y-86693000D01*
X137956083Y-86484126D01*
X137895156Y-86283278D01*
X137796217Y-86098176D01*
X137796216Y-86098174D01*
X137663067Y-85935932D01*
X137500825Y-85802783D01*
X137500818Y-85802779D01*
X137315723Y-85703844D01*
X137114876Y-85642917D01*
X136906000Y-85622345D01*
X136697123Y-85642917D01*
X136496276Y-85703844D01*
X136311181Y-85802779D01*
X136311174Y-85802783D01*
X136148932Y-85935932D01*
X136015783Y-86098174D01*
X136015779Y-86098181D01*
X135916844Y-86283276D01*
X135855917Y-86484123D01*
X135835345Y-86693000D01*
X130536234Y-86693000D01*
X131773251Y-85455983D01*
X156002500Y-85455983D01*
X156002500Y-86756001D01*
X156002501Y-86756018D01*
X156013000Y-86858796D01*
X156013001Y-86858799D01*
X156054845Y-86985073D01*
X156068186Y-87025334D01*
X156160288Y-87174656D01*
X156284344Y-87298712D01*
X156433666Y-87390814D01*
X156600203Y-87445999D01*
X156702991Y-87456500D01*
X158003008Y-87456499D01*
X158105797Y-87445999D01*
X158272334Y-87390814D01*
X158421656Y-87298712D01*
X158545712Y-87174656D01*
X158637814Y-87025334D01*
X158692999Y-86858797D01*
X158703500Y-86756009D01*
X158703499Y-85455992D01*
X158692999Y-85353203D01*
X158637814Y-85186666D01*
X158545712Y-85037344D01*
X158421656Y-84913288D01*
X158272334Y-84821186D01*
X158105797Y-84766001D01*
X158105795Y-84766000D01*
X158003010Y-84755500D01*
X156702998Y-84755500D01*
X156702981Y-84755501D01*
X156600203Y-84766000D01*
X156600200Y-84766001D01*
X156433668Y-84821185D01*
X156433663Y-84821187D01*
X156284342Y-84913289D01*
X156160289Y-85037342D01*
X156068187Y-85186663D01*
X156068186Y-85186666D01*
X156013001Y-85353203D01*
X156013001Y-85353204D01*
X156013000Y-85353204D01*
X156002500Y-85455983D01*
X131773251Y-85455983D01*
X135689234Y-81540000D01*
X145304345Y-81540000D01*
X145324917Y-81748876D01*
X145385844Y-81949723D01*
X145484779Y-82134818D01*
X145484783Y-82134825D01*
X145617932Y-82297067D01*
X145780174Y-82430216D01*
X145780181Y-82430220D01*
X145839993Y-82462190D01*
X145965278Y-82529156D01*
X146166126Y-82590083D01*
X146375000Y-82610655D01*
X146583874Y-82590083D01*
X146784722Y-82529156D01*
X146969824Y-82430217D01*
X147132067Y-82297067D01*
X147265217Y-82134824D01*
X147364156Y-81949722D01*
X147425083Y-81748874D01*
X147445655Y-81540000D01*
X156554345Y-81540000D01*
X156574917Y-81748876D01*
X156635844Y-81949723D01*
X156734779Y-82134818D01*
X156734783Y-82134825D01*
X156867932Y-82297067D01*
X157030174Y-82430216D01*
X157030181Y-82430220D01*
X157089993Y-82462190D01*
X157215278Y-82529156D01*
X157416126Y-82590083D01*
X157625000Y-82610655D01*
X157833874Y-82590083D01*
X158034722Y-82529156D01*
X158219824Y-82430217D01*
X158382067Y-82297067D01*
X158515217Y-82134824D01*
X158614156Y-81949722D01*
X158675083Y-81748874D01*
X158695655Y-81540000D01*
X158675083Y-81331126D01*
X158614156Y-81130278D01*
X158515217Y-80945176D01*
X158515216Y-80945174D01*
X158382067Y-80782932D01*
X158219825Y-80649783D01*
X158219818Y-80649779D01*
X158034723Y-80550844D01*
X157833876Y-80489917D01*
X157625000Y-80469345D01*
X157416123Y-80489917D01*
X157215276Y-80550844D01*
X157030181Y-80649779D01*
X157030174Y-80649783D01*
X156867932Y-80782932D01*
X156734783Y-80945174D01*
X156734779Y-80945181D01*
X156635844Y-81130276D01*
X156574917Y-81331123D01*
X156554345Y-81540000D01*
X147445655Y-81540000D01*
X147425083Y-81331126D01*
X147364156Y-81130278D01*
X147265217Y-80945176D01*
X147265216Y-80945174D01*
X147132067Y-80782932D01*
X146969825Y-80649783D01*
X146969818Y-80649779D01*
X146784723Y-80550844D01*
X146583876Y-80489917D01*
X146375000Y-80469345D01*
X146166123Y-80489917D01*
X145965276Y-80550844D01*
X145780181Y-80649779D01*
X145780174Y-80649783D01*
X145617932Y-80782932D01*
X145484783Y-80945174D01*
X145484779Y-80945181D01*
X145385844Y-81130276D01*
X145324917Y-81331123D01*
X145304345Y-81540000D01*
X135689234Y-81540000D01*
X138229234Y-79000000D01*
X145304345Y-79000000D01*
X145324917Y-79208876D01*
X145385844Y-79409723D01*
X145484779Y-79594818D01*
X145484783Y-79594825D01*
X145617932Y-79757067D01*
X145780174Y-79890216D01*
X145780181Y-79890220D01*
X145914222Y-79961866D01*
X145965278Y-79989156D01*
X146166126Y-80050083D01*
X146375000Y-80070655D01*
X146583874Y-80050083D01*
X146784722Y-79989156D01*
X146969824Y-79890217D01*
X147132067Y-79757067D01*
X147265217Y-79594824D01*
X147364156Y-79409722D01*
X147425083Y-79208874D01*
X147445655Y-79000000D01*
X156554345Y-79000000D01*
X156574917Y-79208876D01*
X156635844Y-79409723D01*
X156734779Y-79594818D01*
X156734783Y-79594825D01*
X156867932Y-79757067D01*
X157030174Y-79890216D01*
X157030181Y-79890220D01*
X157164222Y-79961866D01*
X157215278Y-79989156D01*
X157416126Y-80050083D01*
X157625000Y-80070655D01*
X157833874Y-80050083D01*
X158034722Y-79989156D01*
X158219824Y-79890217D01*
X158382067Y-79757067D01*
X158515217Y-79594824D01*
X158614156Y-79409722D01*
X158675083Y-79208874D01*
X158695655Y-79000000D01*
X158675083Y-78791126D01*
X158614156Y-78590278D01*
X158515217Y-78405176D01*
X158515216Y-78405174D01*
X158382067Y-78242932D01*
X158219825Y-78109783D01*
X158219818Y-78109779D01*
X158034723Y-78010844D01*
X157833876Y-77949917D01*
X157625000Y-77929345D01*
X157416123Y-77949917D01*
X157215276Y-78010844D01*
X157030181Y-78109779D01*
X157030174Y-78109783D01*
X156867932Y-78242932D01*
X156734783Y-78405174D01*
X156734779Y-78405181D01*
X156635844Y-78590276D01*
X156574917Y-78791123D01*
X156554345Y-79000000D01*
X147445655Y-79000000D01*
X147425083Y-78791126D01*
X147364156Y-78590278D01*
X147265217Y-78405176D01*
X147265216Y-78405174D01*
X147132067Y-78242932D01*
X146969825Y-78109783D01*
X146969818Y-78109779D01*
X146784723Y-78010844D01*
X146583876Y-77949917D01*
X146375000Y-77929345D01*
X146166123Y-77949917D01*
X145965276Y-78010844D01*
X145780181Y-78109779D01*
X145780174Y-78109783D01*
X145617932Y-78242932D01*
X145484783Y-78405174D01*
X145484779Y-78405181D01*
X145385844Y-78590276D01*
X145324917Y-78791123D01*
X145304345Y-79000000D01*
X138229234Y-79000000D01*
X139435163Y-77794071D01*
X151849499Y-77794071D01*
X151874497Y-77919738D01*
X151874499Y-77919744D01*
X151923533Y-78038124D01*
X151923538Y-78038133D01*
X151994723Y-78144668D01*
X151994726Y-78144672D01*
X152085327Y-78235273D01*
X152085331Y-78235276D01*
X152191866Y-78306461D01*
X152191872Y-78306464D01*
X152191873Y-78306465D01*
X152310256Y-78355501D01*
X152310260Y-78355501D01*
X152310261Y-78355502D01*
X152435928Y-78380500D01*
X152435931Y-78380500D01*
X152564071Y-78380500D01*
X152648615Y-78363682D01*
X152689744Y-78355501D01*
X152808127Y-78306465D01*
X152914669Y-78235276D01*
X153005276Y-78144669D01*
X153076465Y-78038127D01*
X153125501Y-77919744D01*
X153150500Y-77794069D01*
X153150500Y-77665931D01*
X153150500Y-77665928D01*
X153125502Y-77540261D01*
X153125501Y-77540260D01*
X153125501Y-77540256D01*
X153076465Y-77421873D01*
X153076464Y-77421872D01*
X153076461Y-77421866D01*
X153005276Y-77315331D01*
X153005273Y-77315327D01*
X152914672Y-77224726D01*
X152914668Y-77224723D01*
X152808133Y-77153538D01*
X152808124Y-77153533D01*
X152689744Y-77104499D01*
X152689738Y-77104497D01*
X152564071Y-77079500D01*
X152564069Y-77079500D01*
X152435931Y-77079500D01*
X152435929Y-77079500D01*
X152310261Y-77104497D01*
X152310255Y-77104499D01*
X152191875Y-77153533D01*
X152191866Y-77153538D01*
X152085331Y-77224723D01*
X152085327Y-77224726D01*
X151994726Y-77315327D01*
X151994723Y-77315331D01*
X151923538Y-77421866D01*
X151923533Y-77421875D01*
X151874499Y-77540255D01*
X151874497Y-77540261D01*
X151849500Y-77665928D01*
X151849500Y-77665931D01*
X151849500Y-77794069D01*
X151849500Y-77794071D01*
X151849499Y-77794071D01*
X139435163Y-77794071D01*
X141382079Y-75847155D01*
X145310000Y-75847155D01*
X145310000Y-76210000D01*
X146108811Y-76210000D01*
X146082927Y-76235884D01*
X146034874Y-76319115D01*
X146010000Y-76411947D01*
X146010000Y-76508053D01*
X146034874Y-76600885D01*
X146082927Y-76684116D01*
X146108811Y-76710000D01*
X145310000Y-76710000D01*
X145310000Y-77072844D01*
X145316401Y-77132372D01*
X145316403Y-77132379D01*
X145366645Y-77267086D01*
X145366649Y-77267093D01*
X145452809Y-77382187D01*
X145452812Y-77382190D01*
X145567906Y-77468350D01*
X145567913Y-77468354D01*
X145702620Y-77518596D01*
X145702627Y-77518598D01*
X145762155Y-77524999D01*
X145762172Y-77525000D01*
X146125000Y-77525000D01*
X146125000Y-76726189D01*
X146150884Y-76752073D01*
X146234115Y-76800126D01*
X146326947Y-76825000D01*
X146423053Y-76825000D01*
X146515885Y-76800126D01*
X146599116Y-76752073D01*
X146625000Y-76726189D01*
X146625000Y-77525000D01*
X146987828Y-77525000D01*
X146987844Y-77524999D01*
X147047372Y-77518598D01*
X147047379Y-77518596D01*
X147182086Y-77468354D01*
X147182093Y-77468350D01*
X147297187Y-77382190D01*
X147297190Y-77382187D01*
X147383350Y-77267093D01*
X147383354Y-77267086D01*
X147433596Y-77132379D01*
X147433598Y-77132372D01*
X147439999Y-77072844D01*
X147440000Y-77072827D01*
X147440000Y-76710000D01*
X146641189Y-76710000D01*
X146667073Y-76684116D01*
X146715126Y-76600885D01*
X146740000Y-76508053D01*
X146740000Y-76460000D01*
X156554345Y-76460000D01*
X156574917Y-76668876D01*
X156635844Y-76869723D01*
X156734779Y-77054818D01*
X156734783Y-77054825D01*
X156867932Y-77217067D01*
X157030174Y-77350216D01*
X157030181Y-77350220D01*
X157089993Y-77382190D01*
X157215278Y-77449156D01*
X157416126Y-77510083D01*
X157625000Y-77530655D01*
X157833874Y-77510083D01*
X158034722Y-77449156D01*
X158219824Y-77350217D01*
X158382067Y-77217067D01*
X158515217Y-77054824D01*
X158614156Y-76869722D01*
X158675083Y-76668874D01*
X158695655Y-76460000D01*
X158675083Y-76251126D01*
X158614156Y-76050278D01*
X158515217Y-75865176D01*
X158515216Y-75865174D01*
X158382067Y-75702932D01*
X158219825Y-75569783D01*
X158219818Y-75569779D01*
X158034723Y-75470844D01*
X157833876Y-75409917D01*
X157625000Y-75389345D01*
X157416123Y-75409917D01*
X157215276Y-75470844D01*
X157030181Y-75569779D01*
X157030174Y-75569783D01*
X156867932Y-75702932D01*
X156734783Y-75865174D01*
X156734779Y-75865181D01*
X156635844Y-76050276D01*
X156574917Y-76251123D01*
X156554345Y-76460000D01*
X146740000Y-76460000D01*
X146740000Y-76411947D01*
X146715126Y-76319115D01*
X146667073Y-76235884D01*
X146641189Y-76210000D01*
X147440000Y-76210000D01*
X147440000Y-75847172D01*
X147439999Y-75847155D01*
X147433598Y-75787627D01*
X147433596Y-75787620D01*
X147383354Y-75652913D01*
X147383350Y-75652906D01*
X147297190Y-75537812D01*
X147297187Y-75537809D01*
X147182093Y-75451649D01*
X147182086Y-75451645D01*
X147047379Y-75401403D01*
X147047372Y-75401401D01*
X146987844Y-75395000D01*
X146625000Y-75395000D01*
X146625000Y-76193811D01*
X146599116Y-76167927D01*
X146515885Y-76119874D01*
X146423053Y-76095000D01*
X146326947Y-76095000D01*
X146234115Y-76119874D01*
X146150884Y-76167927D01*
X146125000Y-76193811D01*
X146125000Y-75395000D01*
X145762155Y-75395000D01*
X145702627Y-75401401D01*
X145702620Y-75401403D01*
X145567913Y-75451645D01*
X145567906Y-75451649D01*
X145452812Y-75537809D01*
X145452809Y-75537812D01*
X145366649Y-75652906D01*
X145366645Y-75652913D01*
X145316403Y-75787620D01*
X145316401Y-75787627D01*
X145310000Y-75847155D01*
X141382079Y-75847155D01*
X143713506Y-73515728D01*
X143713511Y-73515724D01*
X143723714Y-73505520D01*
X143723716Y-73505520D01*
X143835520Y-73393716D01*
X143835520Y-73393714D01*
X143845724Y-73383511D01*
X143845728Y-73383506D01*
X145462416Y-71766818D01*
X145523739Y-71733333D01*
X145550097Y-71730499D01*
X146897871Y-71730499D01*
X146897872Y-71730499D01*
X146957483Y-71724091D01*
X147092331Y-71673796D01*
X147207546Y-71587546D01*
X147293796Y-71472331D01*
X147344091Y-71337483D01*
X147350500Y-71277873D01*
X147350500Y-71261902D01*
X150999500Y-71261902D01*
X150999500Y-71498097D01*
X151036446Y-71731368D01*
X151109433Y-71955996D01*
X151179439Y-72093389D01*
X151216657Y-72166433D01*
X151355483Y-72357510D01*
X151522490Y-72524517D01*
X151713567Y-72663343D01*
X151812991Y-72714002D01*
X151924003Y-72770566D01*
X151924005Y-72770566D01*
X151924008Y-72770568D01*
X152044412Y-72809689D01*
X152148631Y-72843553D01*
X152381903Y-72880500D01*
X152381908Y-72880500D01*
X152618097Y-72880500D01*
X152851368Y-72843553D01*
X153075992Y-72770568D01*
X153286433Y-72663343D01*
X153477510Y-72524517D01*
X153644517Y-72357510D01*
X153783343Y-72166433D01*
X153890568Y-71955992D01*
X153963553Y-71731368D01*
X153972671Y-71673797D01*
X154000500Y-71498097D01*
X154000500Y-71261902D01*
X153963553Y-71028631D01*
X153907621Y-70856493D01*
X153890568Y-70804008D01*
X153890566Y-70804005D01*
X153890566Y-70804003D01*
X153802034Y-70630250D01*
X153783343Y-70593567D01*
X153644517Y-70402490D01*
X153477510Y-70235483D01*
X153286433Y-70096657D01*
X153239990Y-70072993D01*
X153075996Y-69989433D01*
X152851368Y-69916446D01*
X152618097Y-69879500D01*
X152618092Y-69879500D01*
X152381908Y-69879500D01*
X152381903Y-69879500D01*
X152148631Y-69916446D01*
X151924003Y-69989433D01*
X151713566Y-70096657D01*
X151667674Y-70130000D01*
X151522490Y-70235483D01*
X151522488Y-70235485D01*
X151522487Y-70235485D01*
X151355485Y-70402487D01*
X151355485Y-70402488D01*
X151355483Y-70402490D01*
X151318769Y-70453023D01*
X151216657Y-70593566D01*
X151109433Y-70804003D01*
X151036446Y-71028631D01*
X150999500Y-71261902D01*
X147350500Y-71261902D01*
X147350499Y-69482128D01*
X147345238Y-69433183D01*
X147344091Y-69422516D01*
X147293797Y-69287671D01*
X147293793Y-69287664D01*
X147207547Y-69172455D01*
X147207544Y-69172452D01*
X147092335Y-69086206D01*
X147092328Y-69086202D01*
X146957482Y-69035908D01*
X146957483Y-69035908D01*
X146897883Y-69029501D01*
X146897881Y-69029500D01*
X146897873Y-69029500D01*
X146897864Y-69029500D01*
X145102129Y-69029500D01*
X145102123Y-69029501D01*
X145042516Y-69035908D01*
X144907671Y-69086202D01*
X144907664Y-69086206D01*
X144792455Y-69172452D01*
X144792452Y-69172455D01*
X144706206Y-69287664D01*
X144706202Y-69287671D01*
X144656997Y-69419598D01*
X144615126Y-69475532D01*
X144549661Y-69499949D01*
X144481388Y-69485097D01*
X144453134Y-69463946D01*
X144331082Y-69341894D01*
X144137578Y-69206399D01*
X143923492Y-69106570D01*
X143923486Y-69106567D01*
X143710000Y-69049364D01*
X143710000Y-69946988D01*
X143652993Y-69914075D01*
X143525826Y-69880000D01*
X143394174Y-69880000D01*
X143267007Y-69914075D01*
X143210000Y-69946988D01*
X143210000Y-69049364D01*
X143209999Y-69049364D01*
X142996513Y-69106567D01*
X142996507Y-69106570D01*
X142782422Y-69206399D01*
X142782420Y-69206400D01*
X142588926Y-69341886D01*
X142588920Y-69341891D01*
X142421891Y-69508920D01*
X142421886Y-69508926D01*
X142286400Y-69702420D01*
X142286399Y-69702422D01*
X142186570Y-69916507D01*
X142186567Y-69916513D01*
X142129364Y-70129999D01*
X142129364Y-70130000D01*
X143026988Y-70130000D01*
X142994075Y-70187007D01*
X142960000Y-70314174D01*
X142960000Y-70445826D01*
X142994075Y-70572993D01*
X143026988Y-70630000D01*
X142129364Y-70630000D01*
X142186567Y-70843486D01*
X142186570Y-70843492D01*
X142286399Y-71057578D01*
X142421894Y-71251082D01*
X142588917Y-71418105D01*
X142782421Y-71553600D01*
X142996507Y-71653429D01*
X142996516Y-71653433D01*
X143210000Y-71710634D01*
X143210000Y-70813012D01*
X143267007Y-70845925D01*
X143394174Y-70880000D01*
X143525826Y-70880000D01*
X143652993Y-70845925D01*
X143710000Y-70813012D01*
X143710000Y-71769401D01*
X143690315Y-71836440D01*
X143673681Y-71857082D01*
X143142584Y-72388181D01*
X143081261Y-72421666D01*
X143054903Y-72424500D01*
X124760099Y-72424500D01*
X124693060Y-72404815D01*
X124672418Y-72388181D01*
X124655700Y-72371463D01*
X124622215Y-72310140D01*
X124620161Y-72297664D01*
X124610369Y-72210747D01*
X124550789Y-72040478D01*
X124454815Y-71887737D01*
X124327262Y-71760184D01*
X124174523Y-71664211D01*
X124004254Y-71604631D01*
X124004249Y-71604630D01*
X123825004Y-71584435D01*
X123824996Y-71584435D01*
X123645750Y-71604630D01*
X123645745Y-71604631D01*
X123475476Y-71664211D01*
X123322737Y-71760184D01*
X123195184Y-71887737D01*
X123099211Y-72040476D01*
X123039631Y-72210745D01*
X123039630Y-72210750D01*
X123019435Y-72389996D01*
X104612031Y-72389996D01*
X104644517Y-72357510D01*
X104783343Y-72166433D01*
X104890568Y-71955992D01*
X104963553Y-71731368D01*
X104972671Y-71673797D01*
X105000500Y-71498097D01*
X105000500Y-71261902D01*
X104963553Y-71028631D01*
X104907621Y-70856493D01*
X104890568Y-70804008D01*
X104890566Y-70804005D01*
X104890566Y-70804003D01*
X104802034Y-70630250D01*
X104783343Y-70593567D01*
X104644517Y-70402490D01*
X104477510Y-70235483D01*
X104286433Y-70096657D01*
X104239990Y-70072993D01*
X104075996Y-69989433D01*
X103851368Y-69916446D01*
X103618097Y-69879500D01*
X103618092Y-69879500D01*
X103381908Y-69879500D01*
X103381903Y-69879500D01*
X103148631Y-69916446D01*
X102924003Y-69989433D01*
X102713566Y-70096657D01*
X102667674Y-70130000D01*
X102522490Y-70235483D01*
X102522488Y-70235485D01*
X102522487Y-70235485D01*
X102355485Y-70402487D01*
X102355485Y-70402488D01*
X102355483Y-70402490D01*
X102318769Y-70453023D01*
X102216657Y-70593566D01*
X102109433Y-70804003D01*
X102036446Y-71028631D01*
X101999500Y-71261902D01*
X96804649Y-71261902D01*
X96920003Y-70983412D01*
X96924561Y-70973638D01*
X97100822Y-70635045D01*
X97106217Y-70625700D01*
X97311325Y-70303744D01*
X97317515Y-70294905D01*
X97549896Y-69992060D01*
X97556834Y-69983791D01*
X97814726Y-69702352D01*
X97822352Y-69694726D01*
X98103791Y-69436834D01*
X98112060Y-69429896D01*
X98414905Y-69197515D01*
X98423744Y-69191325D01*
X98745700Y-68986217D01*
X98755045Y-68980822D01*
X99093638Y-68804561D01*
X99103412Y-68800003D01*
X99456095Y-68653917D01*
X99466227Y-68650230D01*
X99830295Y-68535440D01*
X99840709Y-68532649D01*
X100213405Y-68450025D01*
X100224025Y-68448152D01*
X100602495Y-68398326D01*
X100613226Y-68397386D01*
X100997297Y-68380617D01*
X101002706Y-68380500D01*
X101065892Y-68380500D01*
X116739076Y-68380500D01*
X116806115Y-68400185D01*
G37*
G04 #@! TD.AperFunction*
G04 #@! TD*
M02*
