G04 #@! TF.GenerationSoftware,KiCad,Pcbnew,8.0.6*
G04 #@! TF.CreationDate,2026-02-10T22:38:48-07:00*
G04 #@! TF.ProjectId,pneumatic Backpack v3.0,706e6575-6d61-4746-9963-204261636b70,rev?*
G04 #@! TF.SameCoordinates,Original*
G04 #@! TF.FileFunction,Legend,Bot*
G04 #@! TF.FilePolarity,Positive*
%FSLAX46Y46*%
G04 Gerber Fmt 4.6, Leading zero omitted, Abs format (unit mm)*
G04 Created by KiCad (PCBNEW 8.0.6) date 2026-02-10 22:38:48*
%MOMM*%
%LPD*%
G01*
G04 APERTURE LIST*
%ADD10C,0.200000*%
G04 APERTURE END LIST*
D10*
G04 #@! TO.C,U9*
X157500000Y-116000000D02*
X157500000Y-115395000D01*
X146500000Y-115395000D02*
X146500000Y-116000000D01*
X146500000Y-116000000D02*
X157500000Y-116000000D01*
X148100000Y-108460000D02*
G75*
G02*
X147900000Y-108460000I-100000J0D01*
G01*
X147900000Y-108460000D02*
G75*
G02*
X148100000Y-108460000I100000J0D01*
G01*
G04 #@! TO.C,U10*
X157500000Y-90000000D02*
X146500000Y-90000000D01*
X157500000Y-90605000D02*
X157500000Y-90000000D01*
X146500000Y-90000000D02*
X146500000Y-90605000D01*
X148100000Y-92460000D02*
G75*
G02*
X147900000Y-92460000I-100000J0D01*
G01*
X147900000Y-92460000D02*
G75*
G02*
X148100000Y-92460000I100000J0D01*
G01*
G04 #@! TO.C,U5*
X98500000Y-100000000D02*
X109500000Y-100000000D01*
X98500000Y-99395000D02*
X98500000Y-100000000D01*
X109500000Y-100000000D02*
X109500000Y-99395000D01*
X98500000Y-90000000D02*
X98500000Y-90605000D01*
X109500000Y-90605000D02*
X109500000Y-90000000D01*
X109500000Y-90000000D02*
X98500000Y-90000000D01*
X108100000Y-97540000D02*
G75*
G02*
X107900000Y-97540000I-100000J0D01*
G01*
X107900000Y-97540000D02*
G75*
G02*
X108100000Y-97540000I100000J0D01*
G01*
G04 #@! TO.C,U1*
X98500000Y-84000000D02*
X109500000Y-84000000D01*
X98500000Y-83395000D02*
X98500000Y-84000000D01*
X109500000Y-84000000D02*
X109500000Y-83395000D01*
X98500000Y-74000000D02*
X98500000Y-74605000D01*
X109500000Y-74605000D02*
X109500000Y-74000000D01*
X109500000Y-74000000D02*
X98500000Y-74000000D01*
X108100000Y-81540000D02*
G75*
G02*
X107900000Y-81540000I-100000J0D01*
G01*
X107900000Y-81540000D02*
G75*
G02*
X108100000Y-81540000I100000J0D01*
G01*
G04 #@! TO.C,U6*
X98500000Y-116000000D02*
X109500000Y-116000000D01*
X98500000Y-115395000D02*
X98500000Y-116000000D01*
X109500000Y-116000000D02*
X109500000Y-115395000D01*
X98500000Y-106000000D02*
X98500000Y-106605000D01*
X109500000Y-106605000D02*
X109500000Y-106000000D01*
X109500000Y-106000000D02*
X98500000Y-106000000D01*
X108100000Y-113540000D02*
G75*
G02*
X107900000Y-113540000I-100000J0D01*
G01*
X107900000Y-113540000D02*
G75*
G02*
X108100000Y-113540000I100000J0D01*
G01*
G04 #@! TO.C,U11*
X157500000Y-74000000D02*
X146500000Y-74000000D01*
X157500000Y-74605000D02*
X157500000Y-74000000D01*
X146500000Y-74000000D02*
X146500000Y-74605000D01*
X157500000Y-84000000D02*
X157500000Y-83395000D01*
X146500000Y-83395000D02*
X146500000Y-84000000D01*
X146500000Y-84000000D02*
X157500000Y-84000000D01*
X148100000Y-76460000D02*
G75*
G02*
X147900000Y-76460000I-100000J0D01*
G01*
X147900000Y-76460000D02*
G75*
G02*
X148100000Y-76460000I100000J0D01*
G01*
G04 #@! TO.C,U7*
X98500000Y-132000000D02*
X109500000Y-132000000D01*
X98500000Y-131395000D02*
X98500000Y-132000000D01*
X109500000Y-132000000D02*
X109500000Y-131395000D01*
X98500000Y-122000000D02*
X98500000Y-122605000D01*
X109500000Y-122605000D02*
X109500000Y-122000000D01*
X109500000Y-122000000D02*
X98500000Y-122000000D01*
X108100000Y-129540000D02*
G75*
G02*
X107900000Y-129540000I-100000J0D01*
G01*
X107900000Y-129540000D02*
G75*
G02*
X108100000Y-129540000I100000J0D01*
G01*
G04 #@! TO.C,U12*
X144446000Y-97818000D02*
X144446000Y-86818000D01*
X143841000Y-97818000D02*
X144446000Y-97818000D01*
X144446000Y-86818000D02*
X143841000Y-86818000D01*
X134446000Y-97818000D02*
X135051000Y-97818000D01*
X135051000Y-86818000D02*
X134446000Y-86818000D01*
X134446000Y-86818000D02*
X134446000Y-97818000D01*
X142086000Y-88318000D02*
G75*
G02*
X141886000Y-88318000I-100000J0D01*
G01*
X141886000Y-88318000D02*
G75*
G02*
X142086000Y-88318000I100000J0D01*
G01*
G04 #@! TO.C,U8*
X157500000Y-122000000D02*
X146500000Y-122000000D01*
X157500000Y-122605000D02*
X157500000Y-122000000D01*
X146500000Y-122000000D02*
X146500000Y-122605000D01*
X157500000Y-132000000D02*
X157500000Y-131395000D01*
X146500000Y-131395000D02*
X146500000Y-132000000D01*
X146500000Y-132000000D02*
X157500000Y-132000000D01*
X148100000Y-124460000D02*
G75*
G02*
X147900000Y-124460000I-100000J0D01*
G01*
X147900000Y-124460000D02*
G75*
G02*
X148100000Y-124460000I100000J0D01*
G01*
G04 #@! TD*
M02*
