M48
; DRILL file {KiCad 8.0.6} date 2026-02-10T22:38:44-0700
; FORMAT={-:-/ absolute / metric / decimal}
; #@! TF.CreationDate,2026-02-10T22:38:44-07:00
; #@! TF.GenerationSoftware,Kicad,Pcbnew,8.0.6
; #@! TF.FileFunction,Plated,1,2,PTH
FMAT,2
METRIC
; #@! TA.AperFunction,Plated,PTH,ViaDrill
T1C0.300
; #@! TA.AperFunction,Plated,PTH,ComponentDrill
T2C0.700
; #@! TA.AperFunction,Plated,PTH,ComponentDrill
T3C0.730
; #@! TA.AperFunction,Plated,PTH,ComponentDrill
T4C1.000
%
G90
G05
T1
X117.729Y-116.84
X121.793Y-80.264
X121.92Y-76.073
X122.936Y-78.128
X123.825Y-72.39
X124.079Y-76.073
X124.079Y-80.264
X124.46Y-87.299
X127.0Y-77.978
X128.413Y-93.345
X133.223Y-108.331
X136.652Y-78.658
X137.042Y-77.556
T2
X157.353Y-86.106
T3
X98.375Y-76.46
X98.375Y-79.0
X98.375Y-81.54
X98.375Y-92.46
X98.375Y-95.0
X98.375Y-97.54
X98.375Y-108.46
X98.375Y-111.0
X98.375Y-113.54
X98.375Y-124.46
X98.375Y-127.0
X98.375Y-129.54
X109.625Y-76.46
X109.625Y-79.0
X109.625Y-81.54
X109.625Y-92.46
X109.625Y-95.0
X109.625Y-97.54
X109.625Y-108.46
X109.625Y-111.0
X109.625Y-113.54
X109.625Y-124.46
X109.625Y-127.0
X109.625Y-129.54
X136.906Y-86.693
X136.906Y-97.943
X139.446Y-86.693
X139.446Y-97.943
X141.986Y-86.693
X141.986Y-97.943
X146.375Y-76.46
X146.375Y-79.0
X146.375Y-81.54
X146.375Y-92.46
X146.375Y-95.0
X146.375Y-97.54
X146.375Y-108.46
X146.375Y-111.0
X146.375Y-113.54
X146.375Y-124.46
X146.375Y-127.0
X146.375Y-129.54
X155.194Y-101.6
X155.194Y-103.1
X155.194Y-104.6
X157.625Y-76.46
X157.625Y-79.0
X157.625Y-81.54
X157.625Y-92.46
X157.625Y-95.0
X157.625Y-97.54
X157.625Y-108.46
X157.625Y-111.0
X157.625Y-113.54
X157.625Y-124.46
X157.625Y-127.0
X157.625Y-129.54
T4
X118.012Y-69.818
X120.552Y-69.818
X122.555Y-103.124
X122.555Y-105.664
X122.555Y-108.204
X123.092Y-69.818
X125.632Y-69.818
X127.713Y-116.806
X127.713Y-119.346
X127.713Y-121.886
X136.0Y-135.88
X136.0Y-138.42
X140.0Y-135.88
X140.0Y-138.42
X143.46Y-70.38
X145.415Y-104.267
X146.0Y-70.38
X147.955Y-104.267
X150.495Y-104.267
T4
X116.855Y-123.365G85X118.855Y-123.365
G05
X116.855Y-129.365G85X118.855Y-129.365
G05
X122.555Y-127.365G85X122.555Y-125.365
G05
M30
