M48
; DRILL file {KiCad 8.0.6} date 2026-02-18T12:36:38-0700
; FORMAT={-:-/ absolute / metric / decimal}
; #@! TF.CreationDate,2026-02-18T12:36:38-07:00
; #@! TF.GenerationSoftware,Kicad,Pcbnew,8.0.6
; #@! TF.FileFunction,Plated,1,2,PTH
FMAT,2
METRIC
; #@! TA.AperFunction,Plated,PTH,ViaDrill
T1C0.300
; #@! TA.AperFunction,Plated,PTH,ComponentDrill
T2C0.700
; #@! TA.AperFunction,Plated,PTH,ComponentDrill
T3C0.730
; #@! TA.AperFunction,Plated,PTH,ComponentDrill
T4C1.000
; #@! TA.AperFunction,Plated,PTH,ComponentDrill
T5C1.020
%
G90
G05
T1
X113.665Y-70.358
X118.745Y-113.284
X118.999Y-74.295
X121.539Y-121.92
X121.666Y-120.396
X121.666Y-124.714
X121.793Y-94.107
X121.793Y-96.139
X122.047Y-69.596
X123.825Y-95.123
X123.825Y-99.314
X124.079Y-108.077
X124.127Y-90.758
X124.269Y-83.629
X125.012Y-85.471
X125.857Y-87.884
X125.857Y-93.98
X125.857Y-96.266
X126.492Y-118.237
X126.492Y-120.523
X126.492Y-122.555
X128.27Y-118.237
X128.27Y-122.555
X128.346Y-120.43
X128.905Y-85.725
X128.905Y-87.757
X128.905Y-94.107
X128.944Y-100.457
X129.159Y-90.297
X129.54Y-96.647
X129.984Y-92.011
X130.048Y-118.237
X130.048Y-122.809
X130.175Y-95.123
X130.302Y-120.523
X130.683Y-82.804
X130.683Y-125.349
X130.81Y-86.741
X131.953Y-71.247
X132.801Y-71.247
X132.842Y-85.598
X132.842Y-87.757
X134.62Y-113.618
X136.525Y-122.047
T2
X157.734Y-106.426
T3
X103.505Y-115.618
X103.505Y-117.118
X103.505Y-118.618
X103.505Y-120.118
X103.505Y-121.618
X103.505Y-123.118
X103.505Y-124.618
X103.505Y-126.118
X103.505Y-127.618
X103.505Y-129.118
X103.505Y-130.618
X103.505Y-132.118
X152.534Y-115.34
X152.534Y-116.84
X152.534Y-118.34
X152.534Y-119.84
X152.534Y-121.34
X152.534Y-122.84
X152.534Y-124.34
X152.534Y-125.84
X152.534Y-127.34
X152.534Y-128.84
X152.534Y-130.34
X152.534Y-131.84
T4
X107.696Y-73.533
X107.696Y-76.073
X107.696Y-78.613
X107.696Y-81.153
X107.696Y-83.693
X107.696Y-86.233
X107.696Y-88.773
X107.696Y-91.313
X107.696Y-93.853
X107.696Y-96.393
X107.696Y-98.933
X107.696Y-101.473
X107.696Y-104.013
X107.696Y-106.553
X107.696Y-109.093
X107.696Y-111.633
X110.236Y-73.533
X110.236Y-76.073
X110.236Y-78.613
X110.236Y-81.153
X110.236Y-83.693
X110.236Y-86.233
X110.236Y-88.773
X110.236Y-91.313
X110.236Y-93.853
X110.236Y-96.393
X110.236Y-98.933
X110.236Y-101.473
X110.236Y-104.013
X110.236Y-106.553
X110.236Y-109.093
X110.236Y-111.633
X118.012Y-67.024
X120.552Y-67.024
X123.092Y-67.024
X124.166Y-133.014
X125.632Y-67.024
X126.706Y-133.014
X129.246Y-133.014
X131.786Y-133.014
X136.0Y-133.0
X136.0Y-135.54
X140.0Y-133.0
X140.0Y-135.54
X143.46Y-67.5
X145.415Y-73.406
X145.415Y-75.946
X145.415Y-78.486
X145.415Y-81.026
X145.415Y-83.566
X145.415Y-86.106
X145.415Y-88.646
X145.415Y-91.186
X145.415Y-93.726
X145.415Y-96.266
X145.415Y-98.806
X145.415Y-101.346
X145.415Y-103.886
X145.415Y-106.426
X145.415Y-108.966
X145.415Y-111.506
X146.0Y-67.5
X147.955Y-73.406
X147.955Y-75.946
X147.955Y-78.486
X147.955Y-81.026
X147.955Y-83.566
X147.955Y-86.106
X147.955Y-88.646
X147.955Y-91.186
X147.955Y-93.726
X147.955Y-96.266
X147.955Y-98.806
X147.955Y-101.346
X147.955Y-103.886
X147.955Y-106.426
X147.955Y-108.966
X147.955Y-111.506
T5
X116.57Y-73.53
X116.57Y-76.07
X116.57Y-78.61
X116.57Y-81.15
X116.57Y-83.69
X116.57Y-86.23
X116.57Y-88.77
X116.57Y-91.31
X116.57Y-93.85
X116.57Y-96.39
X116.57Y-98.93
X116.57Y-101.47
X116.57Y-104.01
X116.57Y-106.55
X116.57Y-109.09
X116.57Y-111.63
X116.57Y-114.17
X116.57Y-116.71
X116.57Y-119.25
X116.57Y-121.79
X116.57Y-124.33
X116.57Y-126.87
X139.43Y-73.53
X139.43Y-76.07
X139.43Y-78.61
X139.43Y-81.15
X139.43Y-83.69
X139.43Y-86.23
X139.43Y-88.77
X139.43Y-91.31
X139.43Y-93.85
X139.43Y-96.39
X139.43Y-98.93
X139.43Y-101.47
X139.43Y-104.01
X139.43Y-106.55
X139.43Y-109.09
X139.43Y-111.63
X139.43Y-114.17
X139.43Y-116.71
X139.43Y-119.25
X139.43Y-121.79
X139.43Y-124.33
X139.43Y-126.87
M30
