%TF.GenerationSoftware,KiCad,Pcbnew,8.0.6*%
%TF.CreationDate,2026-02-18T12:36:39-07:00*%
%TF.ProjectId,pneumatic Backpack v3.1,706e6575-6d61-4746-9963-204261636b70,rev?*%
%TF.SameCoordinates,Original*%
%TF.FileFunction,Drillmap*%
%TF.FilePolarity,Positive*%
%FSLAX45Y45*%
G04 Gerber Fmt 4.5, Leading zero omitted, Abs format (unit mm)*
G04 Created by KiCad (PCBNEW 8.0.6) date 2026-02-18 12:36:39*
%MOMM*%
%LPD*%
G01*
G04 APERTURE LIST*
%ADD10C,0.050000*%
%ADD11C,0.200000*%
%ADD12C,0.250000*%
G04 APERTURE END LIST*
D10*
X10100000Y-13800000D02*
G75*
G02*
X9600000Y-13300000I0J500000D01*
G01*
X9600000Y-13300000D02*
X9600000Y-7000000D01*
X16000000Y-13300000D02*
G75*
G02*
X15500000Y-13800000I-500000J0D01*
G01*
X15500000Y-13800000D02*
X10100000Y-13800000D01*
X9600000Y-7000000D02*
G75*
G02*
X10100000Y-6500000I500000J0D01*
G01*
X16000000Y-7000000D02*
X16000000Y-13300000D01*
X10100000Y-6500000D02*
X15500000Y-6500000D01*
X15500000Y-6500000D02*
G75*
G02*
X16000000Y-7000000I0J-500000D01*
G01*
D11*
D12*
X10225000Y-6725000D02*
X10475000Y-6975000D01*
X10475000Y-6725000D02*
X10225000Y-6975000D01*
X10725000Y-13325000D02*
X10975000Y-13575000D01*
X10975000Y-13325000D02*
X10725000Y-13575000D01*
X14625000Y-13325000D02*
X14875000Y-13575000D01*
X14875000Y-13325000D02*
X14625000Y-13575000D01*
X15125000Y-6725000D02*
X15375000Y-6975000D01*
X15375000Y-6725000D02*
X15125000Y-6975000D01*
D11*
X9858277Y-14113984D02*
X9858277Y-13913984D01*
X9858277Y-13913984D02*
X9905896Y-13913984D01*
X9905896Y-13913984D02*
X9934467Y-13923508D01*
X9934467Y-13923508D02*
X9953515Y-13942555D01*
X9953515Y-13942555D02*
X9963039Y-13961603D01*
X9963039Y-13961603D02*
X9972563Y-13999698D01*
X9972563Y-13999698D02*
X9972563Y-14028269D01*
X9972563Y-14028269D02*
X9963039Y-14066365D01*
X9963039Y-14066365D02*
X9953515Y-14085412D01*
X9953515Y-14085412D02*
X9934467Y-14104460D01*
X9934467Y-14104460D02*
X9905896Y-14113984D01*
X9905896Y-14113984D02*
X9858277Y-14113984D01*
X10058277Y-14113984D02*
X10058277Y-13980650D01*
X10058277Y-14018746D02*
X10067801Y-13999698D01*
X10067801Y-13999698D02*
X10077324Y-13990174D01*
X10077324Y-13990174D02*
X10096372Y-13980650D01*
X10096372Y-13980650D02*
X10115420Y-13980650D01*
X10182086Y-14113984D02*
X10182086Y-13980650D01*
X10182086Y-13913984D02*
X10172563Y-13923508D01*
X10172563Y-13923508D02*
X10182086Y-13933031D01*
X10182086Y-13933031D02*
X10191610Y-13923508D01*
X10191610Y-13923508D02*
X10182086Y-13913984D01*
X10182086Y-13913984D02*
X10182086Y-13933031D01*
X10305896Y-14113984D02*
X10286848Y-14104460D01*
X10286848Y-14104460D02*
X10277324Y-14085412D01*
X10277324Y-14085412D02*
X10277324Y-13913984D01*
X10410658Y-14113984D02*
X10391610Y-14104460D01*
X10391610Y-14104460D02*
X10382086Y-14085412D01*
X10382086Y-14085412D02*
X10382086Y-13913984D01*
X10639229Y-14113984D02*
X10639229Y-13913984D01*
X10639229Y-13913984D02*
X10705896Y-14056841D01*
X10705896Y-14056841D02*
X10772563Y-13913984D01*
X10772563Y-13913984D02*
X10772563Y-14113984D01*
X10953515Y-14113984D02*
X10953515Y-14009222D01*
X10953515Y-14009222D02*
X10943991Y-13990174D01*
X10943991Y-13990174D02*
X10924944Y-13980650D01*
X10924944Y-13980650D02*
X10886848Y-13980650D01*
X10886848Y-13980650D02*
X10867801Y-13990174D01*
X10953515Y-14104460D02*
X10934467Y-14113984D01*
X10934467Y-14113984D02*
X10886848Y-14113984D01*
X10886848Y-14113984D02*
X10867801Y-14104460D01*
X10867801Y-14104460D02*
X10858277Y-14085412D01*
X10858277Y-14085412D02*
X10858277Y-14066365D01*
X10858277Y-14066365D02*
X10867801Y-14047317D01*
X10867801Y-14047317D02*
X10886848Y-14037793D01*
X10886848Y-14037793D02*
X10934467Y-14037793D01*
X10934467Y-14037793D02*
X10953515Y-14028269D01*
X11048753Y-13980650D02*
X11048753Y-14180650D01*
X11048753Y-13990174D02*
X11067801Y-13980650D01*
X11067801Y-13980650D02*
X11105896Y-13980650D01*
X11105896Y-13980650D02*
X11124944Y-13990174D01*
X11124944Y-13990174D02*
X11134467Y-13999698D01*
X11134467Y-13999698D02*
X11143991Y-14018746D01*
X11143991Y-14018746D02*
X11143991Y-14075888D01*
X11143991Y-14075888D02*
X11134467Y-14094936D01*
X11134467Y-14094936D02*
X11124944Y-14104460D01*
X11124944Y-14104460D02*
X11105896Y-14113984D01*
X11105896Y-14113984D02*
X11067801Y-14113984D01*
X11067801Y-14113984D02*
X11048753Y-14104460D01*
X11229705Y-14094936D02*
X11239229Y-14104460D01*
X11239229Y-14104460D02*
X11229705Y-14113984D01*
X11229705Y-14113984D02*
X11220182Y-14104460D01*
X11220182Y-14104460D02*
X11229705Y-14094936D01*
X11229705Y-14094936D02*
X11229705Y-14113984D01*
X11229705Y-13990174D02*
X11239229Y-13999698D01*
X11239229Y-13999698D02*
X11229705Y-14009222D01*
X11229705Y-14009222D02*
X11220182Y-13999698D01*
X11220182Y-13999698D02*
X11229705Y-13990174D01*
X11229705Y-13990174D02*
X11229705Y-14009222D01*
X9397500Y-14342500D02*
X9597500Y-14542500D01*
X9597500Y-14342500D02*
X9397500Y-14542500D01*
X9848753Y-14353031D02*
X9858277Y-14343508D01*
X9858277Y-14343508D02*
X9877324Y-14333984D01*
X9877324Y-14333984D02*
X9924944Y-14333984D01*
X9924944Y-14333984D02*
X9943991Y-14343508D01*
X9943991Y-14343508D02*
X9953515Y-14353031D01*
X9953515Y-14353031D02*
X9963039Y-14372079D01*
X9963039Y-14372079D02*
X9963039Y-14391127D01*
X9963039Y-14391127D02*
X9953515Y-14419698D01*
X9953515Y-14419698D02*
X9839229Y-14533984D01*
X9839229Y-14533984D02*
X9963039Y-14533984D01*
X10048753Y-14514936D02*
X10058277Y-14524460D01*
X10058277Y-14524460D02*
X10048753Y-14533984D01*
X10048753Y-14533984D02*
X10039229Y-14524460D01*
X10039229Y-14524460D02*
X10048753Y-14514936D01*
X10048753Y-14514936D02*
X10048753Y-14533984D01*
X10239229Y-14333984D02*
X10143991Y-14333984D01*
X10143991Y-14333984D02*
X10134467Y-14429222D01*
X10134467Y-14429222D02*
X10143991Y-14419698D01*
X10143991Y-14419698D02*
X10163039Y-14410174D01*
X10163039Y-14410174D02*
X10210658Y-14410174D01*
X10210658Y-14410174D02*
X10229705Y-14419698D01*
X10229705Y-14419698D02*
X10239229Y-14429222D01*
X10239229Y-14429222D02*
X10248753Y-14448269D01*
X10248753Y-14448269D02*
X10248753Y-14495888D01*
X10248753Y-14495888D02*
X10239229Y-14514936D01*
X10239229Y-14514936D02*
X10229705Y-14524460D01*
X10229705Y-14524460D02*
X10210658Y-14533984D01*
X10210658Y-14533984D02*
X10163039Y-14533984D01*
X10163039Y-14533984D02*
X10143991Y-14524460D01*
X10143991Y-14524460D02*
X10134467Y-14514936D01*
X10372563Y-14333984D02*
X10391610Y-14333984D01*
X10391610Y-14333984D02*
X10410658Y-14343508D01*
X10410658Y-14343508D02*
X10420182Y-14353031D01*
X10420182Y-14353031D02*
X10429705Y-14372079D01*
X10429705Y-14372079D02*
X10439229Y-14410174D01*
X10439229Y-14410174D02*
X10439229Y-14457793D01*
X10439229Y-14457793D02*
X10429705Y-14495888D01*
X10429705Y-14495888D02*
X10420182Y-14514936D01*
X10420182Y-14514936D02*
X10410658Y-14524460D01*
X10410658Y-14524460D02*
X10391610Y-14533984D01*
X10391610Y-14533984D02*
X10372563Y-14533984D01*
X10372563Y-14533984D02*
X10353515Y-14524460D01*
X10353515Y-14524460D02*
X10343991Y-14514936D01*
X10343991Y-14514936D02*
X10334467Y-14495888D01*
X10334467Y-14495888D02*
X10324944Y-14457793D01*
X10324944Y-14457793D02*
X10324944Y-14410174D01*
X10324944Y-14410174D02*
X10334467Y-14372079D01*
X10334467Y-14372079D02*
X10343991Y-14353031D01*
X10343991Y-14353031D02*
X10353515Y-14343508D01*
X10353515Y-14343508D02*
X10372563Y-14333984D01*
X10563039Y-14333984D02*
X10582086Y-14333984D01*
X10582086Y-14333984D02*
X10601134Y-14343508D01*
X10601134Y-14343508D02*
X10610658Y-14353031D01*
X10610658Y-14353031D02*
X10620182Y-14372079D01*
X10620182Y-14372079D02*
X10629705Y-14410174D01*
X10629705Y-14410174D02*
X10629705Y-14457793D01*
X10629705Y-14457793D02*
X10620182Y-14495888D01*
X10620182Y-14495888D02*
X10610658Y-14514936D01*
X10610658Y-14514936D02*
X10601134Y-14524460D01*
X10601134Y-14524460D02*
X10582086Y-14533984D01*
X10582086Y-14533984D02*
X10563039Y-14533984D01*
X10563039Y-14533984D02*
X10543991Y-14524460D01*
X10543991Y-14524460D02*
X10534467Y-14514936D01*
X10534467Y-14514936D02*
X10524944Y-14495888D01*
X10524944Y-14495888D02*
X10515420Y-14457793D01*
X10515420Y-14457793D02*
X10515420Y-14410174D01*
X10515420Y-14410174D02*
X10524944Y-14372079D01*
X10524944Y-14372079D02*
X10534467Y-14353031D01*
X10534467Y-14353031D02*
X10543991Y-14343508D01*
X10543991Y-14343508D02*
X10563039Y-14333984D01*
X10715420Y-14533984D02*
X10715420Y-14400650D01*
X10715420Y-14419698D02*
X10724944Y-14410174D01*
X10724944Y-14410174D02*
X10743991Y-14400650D01*
X10743991Y-14400650D02*
X10772563Y-14400650D01*
X10772563Y-14400650D02*
X10791610Y-14410174D01*
X10791610Y-14410174D02*
X10801134Y-14429222D01*
X10801134Y-14429222D02*
X10801134Y-14533984D01*
X10801134Y-14429222D02*
X10810658Y-14410174D01*
X10810658Y-14410174D02*
X10829705Y-14400650D01*
X10829705Y-14400650D02*
X10858277Y-14400650D01*
X10858277Y-14400650D02*
X10877325Y-14410174D01*
X10877325Y-14410174D02*
X10886848Y-14429222D01*
X10886848Y-14429222D02*
X10886848Y-14533984D01*
X10982086Y-14533984D02*
X10982086Y-14400650D01*
X10982086Y-14419698D02*
X10991610Y-14410174D01*
X10991610Y-14410174D02*
X11010658Y-14400650D01*
X11010658Y-14400650D02*
X11039229Y-14400650D01*
X11039229Y-14400650D02*
X11058277Y-14410174D01*
X11058277Y-14410174D02*
X11067801Y-14429222D01*
X11067801Y-14429222D02*
X11067801Y-14533984D01*
X11067801Y-14429222D02*
X11077325Y-14410174D01*
X11077325Y-14410174D02*
X11096372Y-14400650D01*
X11096372Y-14400650D02*
X11124944Y-14400650D01*
X11124944Y-14400650D02*
X11143991Y-14410174D01*
X11143991Y-14410174D02*
X11153515Y-14429222D01*
X11153515Y-14429222D02*
X11153515Y-14533984D01*
X11543991Y-14324460D02*
X11372563Y-14581603D01*
X11801134Y-14333984D02*
X11820182Y-14333984D01*
X11820182Y-14333984D02*
X11839229Y-14343508D01*
X11839229Y-14343508D02*
X11848753Y-14353031D01*
X11848753Y-14353031D02*
X11858277Y-14372079D01*
X11858277Y-14372079D02*
X11867801Y-14410174D01*
X11867801Y-14410174D02*
X11867801Y-14457793D01*
X11867801Y-14457793D02*
X11858277Y-14495888D01*
X11858277Y-14495888D02*
X11848753Y-14514936D01*
X11848753Y-14514936D02*
X11839229Y-14524460D01*
X11839229Y-14524460D02*
X11820182Y-14533984D01*
X11820182Y-14533984D02*
X11801134Y-14533984D01*
X11801134Y-14533984D02*
X11782086Y-14524460D01*
X11782086Y-14524460D02*
X11772563Y-14514936D01*
X11772563Y-14514936D02*
X11763039Y-14495888D01*
X11763039Y-14495888D02*
X11753515Y-14457793D01*
X11753515Y-14457793D02*
X11753515Y-14410174D01*
X11753515Y-14410174D02*
X11763039Y-14372079D01*
X11763039Y-14372079D02*
X11772563Y-14353031D01*
X11772563Y-14353031D02*
X11782086Y-14343508D01*
X11782086Y-14343508D02*
X11801134Y-14333984D01*
X11953515Y-14514936D02*
X11963039Y-14524460D01*
X11963039Y-14524460D02*
X11953515Y-14533984D01*
X11953515Y-14533984D02*
X11943991Y-14524460D01*
X11943991Y-14524460D02*
X11953515Y-14514936D01*
X11953515Y-14514936D02*
X11953515Y-14533984D01*
X12086848Y-14333984D02*
X12105896Y-14333984D01*
X12105896Y-14333984D02*
X12124944Y-14343508D01*
X12124944Y-14343508D02*
X12134467Y-14353031D01*
X12134467Y-14353031D02*
X12143991Y-14372079D01*
X12143991Y-14372079D02*
X12153515Y-14410174D01*
X12153515Y-14410174D02*
X12153515Y-14457793D01*
X12153515Y-14457793D02*
X12143991Y-14495888D01*
X12143991Y-14495888D02*
X12134467Y-14514936D01*
X12134467Y-14514936D02*
X12124944Y-14524460D01*
X12124944Y-14524460D02*
X12105896Y-14533984D01*
X12105896Y-14533984D02*
X12086848Y-14533984D01*
X12086848Y-14533984D02*
X12067801Y-14524460D01*
X12067801Y-14524460D02*
X12058277Y-14514936D01*
X12058277Y-14514936D02*
X12048753Y-14495888D01*
X12048753Y-14495888D02*
X12039229Y-14457793D01*
X12039229Y-14457793D02*
X12039229Y-14410174D01*
X12039229Y-14410174D02*
X12048753Y-14372079D01*
X12048753Y-14372079D02*
X12058277Y-14353031D01*
X12058277Y-14353031D02*
X12067801Y-14343508D01*
X12067801Y-14343508D02*
X12086848Y-14333984D01*
X12248753Y-14533984D02*
X12286848Y-14533984D01*
X12286848Y-14533984D02*
X12305896Y-14524460D01*
X12305896Y-14524460D02*
X12315420Y-14514936D01*
X12315420Y-14514936D02*
X12334467Y-14486365D01*
X12334467Y-14486365D02*
X12343991Y-14448269D01*
X12343991Y-14448269D02*
X12343991Y-14372079D01*
X12343991Y-14372079D02*
X12334467Y-14353031D01*
X12334467Y-14353031D02*
X12324944Y-14343508D01*
X12324944Y-14343508D02*
X12305896Y-14333984D01*
X12305896Y-14333984D02*
X12267801Y-14333984D01*
X12267801Y-14333984D02*
X12248753Y-14343508D01*
X12248753Y-14343508D02*
X12239229Y-14353031D01*
X12239229Y-14353031D02*
X12229706Y-14372079D01*
X12229706Y-14372079D02*
X12229706Y-14419698D01*
X12229706Y-14419698D02*
X12239229Y-14438746D01*
X12239229Y-14438746D02*
X12248753Y-14448269D01*
X12248753Y-14448269D02*
X12267801Y-14457793D01*
X12267801Y-14457793D02*
X12305896Y-14457793D01*
X12305896Y-14457793D02*
X12324944Y-14448269D01*
X12324944Y-14448269D02*
X12334467Y-14438746D01*
X12334467Y-14438746D02*
X12343991Y-14419698D01*
X12458277Y-14419698D02*
X12439229Y-14410174D01*
X12439229Y-14410174D02*
X12429706Y-14400650D01*
X12429706Y-14400650D02*
X12420182Y-14381603D01*
X12420182Y-14381603D02*
X12420182Y-14372079D01*
X12420182Y-14372079D02*
X12429706Y-14353031D01*
X12429706Y-14353031D02*
X12439229Y-14343508D01*
X12439229Y-14343508D02*
X12458277Y-14333984D01*
X12458277Y-14333984D02*
X12496372Y-14333984D01*
X12496372Y-14333984D02*
X12515420Y-14343508D01*
X12515420Y-14343508D02*
X12524944Y-14353031D01*
X12524944Y-14353031D02*
X12534467Y-14372079D01*
X12534467Y-14372079D02*
X12534467Y-14381603D01*
X12534467Y-14381603D02*
X12524944Y-14400650D01*
X12524944Y-14400650D02*
X12515420Y-14410174D01*
X12515420Y-14410174D02*
X12496372Y-14419698D01*
X12496372Y-14419698D02*
X12458277Y-14419698D01*
X12458277Y-14419698D02*
X12439229Y-14429222D01*
X12439229Y-14429222D02*
X12429706Y-14438746D01*
X12429706Y-14438746D02*
X12420182Y-14457793D01*
X12420182Y-14457793D02*
X12420182Y-14495888D01*
X12420182Y-14495888D02*
X12429706Y-14514936D01*
X12429706Y-14514936D02*
X12439229Y-14524460D01*
X12439229Y-14524460D02*
X12458277Y-14533984D01*
X12458277Y-14533984D02*
X12496372Y-14533984D01*
X12496372Y-14533984D02*
X12515420Y-14524460D01*
X12515420Y-14524460D02*
X12524944Y-14514936D01*
X12524944Y-14514936D02*
X12534467Y-14495888D01*
X12534467Y-14495888D02*
X12534467Y-14457793D01*
X12534467Y-14457793D02*
X12524944Y-14438746D01*
X12524944Y-14438746D02*
X12515420Y-14429222D01*
X12515420Y-14429222D02*
X12496372Y-14419698D01*
X12705896Y-14400650D02*
X12705896Y-14533984D01*
X12658277Y-14324460D02*
X12610658Y-14467317D01*
X12610658Y-14467317D02*
X12734467Y-14467317D01*
X12801134Y-14333984D02*
X12801134Y-14372079D01*
X12877325Y-14333984D02*
X12877325Y-14372079D01*
X13172563Y-14610174D02*
X13163039Y-14600650D01*
X13163039Y-14600650D02*
X13143991Y-14572079D01*
X13143991Y-14572079D02*
X13134468Y-14553031D01*
X13134468Y-14553031D02*
X13124944Y-14524460D01*
X13124944Y-14524460D02*
X13115420Y-14476841D01*
X13115420Y-14476841D02*
X13115420Y-14438746D01*
X13115420Y-14438746D02*
X13124944Y-14391127D01*
X13124944Y-14391127D02*
X13134468Y-14362555D01*
X13134468Y-14362555D02*
X13143991Y-14343508D01*
X13143991Y-14343508D02*
X13163039Y-14314936D01*
X13163039Y-14314936D02*
X13172563Y-14305412D01*
X13334468Y-14400650D02*
X13334468Y-14533984D01*
X13286848Y-14324460D02*
X13239229Y-14467317D01*
X13239229Y-14467317D02*
X13363039Y-14467317D01*
X13591610Y-14533984D02*
X13591610Y-14333984D01*
X13677325Y-14533984D02*
X13677325Y-14429222D01*
X13677325Y-14429222D02*
X13667801Y-14410174D01*
X13667801Y-14410174D02*
X13648753Y-14400650D01*
X13648753Y-14400650D02*
X13620182Y-14400650D01*
X13620182Y-14400650D02*
X13601134Y-14410174D01*
X13601134Y-14410174D02*
X13591610Y-14419698D01*
X13801134Y-14533984D02*
X13782087Y-14524460D01*
X13782087Y-14524460D02*
X13772563Y-14514936D01*
X13772563Y-14514936D02*
X13763039Y-14495888D01*
X13763039Y-14495888D02*
X13763039Y-14438746D01*
X13763039Y-14438746D02*
X13772563Y-14419698D01*
X13772563Y-14419698D02*
X13782087Y-14410174D01*
X13782087Y-14410174D02*
X13801134Y-14400650D01*
X13801134Y-14400650D02*
X13829706Y-14400650D01*
X13829706Y-14400650D02*
X13848753Y-14410174D01*
X13848753Y-14410174D02*
X13858277Y-14419698D01*
X13858277Y-14419698D02*
X13867801Y-14438746D01*
X13867801Y-14438746D02*
X13867801Y-14495888D01*
X13867801Y-14495888D02*
X13858277Y-14514936D01*
X13858277Y-14514936D02*
X13848753Y-14524460D01*
X13848753Y-14524460D02*
X13829706Y-14533984D01*
X13829706Y-14533984D02*
X13801134Y-14533984D01*
X13982087Y-14533984D02*
X13963039Y-14524460D01*
X13963039Y-14524460D02*
X13953515Y-14505412D01*
X13953515Y-14505412D02*
X13953515Y-14333984D01*
X14134468Y-14524460D02*
X14115420Y-14533984D01*
X14115420Y-14533984D02*
X14077325Y-14533984D01*
X14077325Y-14533984D02*
X14058277Y-14524460D01*
X14058277Y-14524460D02*
X14048753Y-14505412D01*
X14048753Y-14505412D02*
X14048753Y-14429222D01*
X14048753Y-14429222D02*
X14058277Y-14410174D01*
X14058277Y-14410174D02*
X14077325Y-14400650D01*
X14077325Y-14400650D02*
X14115420Y-14400650D01*
X14115420Y-14400650D02*
X14134468Y-14410174D01*
X14134468Y-14410174D02*
X14143991Y-14429222D01*
X14143991Y-14429222D02*
X14143991Y-14448269D01*
X14143991Y-14448269D02*
X14048753Y-14467317D01*
X14220182Y-14524460D02*
X14239230Y-14533984D01*
X14239230Y-14533984D02*
X14277325Y-14533984D01*
X14277325Y-14533984D02*
X14296372Y-14524460D01*
X14296372Y-14524460D02*
X14305896Y-14505412D01*
X14305896Y-14505412D02*
X14305896Y-14495888D01*
X14305896Y-14495888D02*
X14296372Y-14476841D01*
X14296372Y-14476841D02*
X14277325Y-14467317D01*
X14277325Y-14467317D02*
X14248753Y-14467317D01*
X14248753Y-14467317D02*
X14229706Y-14457793D01*
X14229706Y-14457793D02*
X14220182Y-14438746D01*
X14220182Y-14438746D02*
X14220182Y-14429222D01*
X14220182Y-14429222D02*
X14229706Y-14410174D01*
X14229706Y-14410174D02*
X14248753Y-14400650D01*
X14248753Y-14400650D02*
X14277325Y-14400650D01*
X14277325Y-14400650D02*
X14296372Y-14410174D01*
X14372563Y-14610174D02*
X14382087Y-14600650D01*
X14382087Y-14600650D02*
X14401134Y-14572079D01*
X14401134Y-14572079D02*
X14410658Y-14553031D01*
X14410658Y-14553031D02*
X14420182Y-14524460D01*
X14420182Y-14524460D02*
X14429706Y-14476841D01*
X14429706Y-14476841D02*
X14429706Y-14438746D01*
X14429706Y-14438746D02*
X14420182Y-14391127D01*
X14420182Y-14391127D02*
X14410658Y-14362555D01*
X14410658Y-14362555D02*
X14401134Y-14343508D01*
X14401134Y-14343508D02*
X14382087Y-14314936D01*
X14382087Y-14314936D02*
X14372563Y-14305412D01*
X14734468Y-14610174D02*
X14724944Y-14600650D01*
X14724944Y-14600650D02*
X14705896Y-14572079D01*
X14705896Y-14572079D02*
X14696372Y-14553031D01*
X14696372Y-14553031D02*
X14686849Y-14524460D01*
X14686849Y-14524460D02*
X14677325Y-14476841D01*
X14677325Y-14476841D02*
X14677325Y-14438746D01*
X14677325Y-14438746D02*
X14686849Y-14391127D01*
X14686849Y-14391127D02*
X14696372Y-14362555D01*
X14696372Y-14362555D02*
X14705896Y-14343508D01*
X14705896Y-14343508D02*
X14724944Y-14314936D01*
X14724944Y-14314936D02*
X14734468Y-14305412D01*
X14810658Y-14400650D02*
X14810658Y-14533984D01*
X14810658Y-14419698D02*
X14820182Y-14410174D01*
X14820182Y-14410174D02*
X14839230Y-14400650D01*
X14839230Y-14400650D02*
X14867801Y-14400650D01*
X14867801Y-14400650D02*
X14886849Y-14410174D01*
X14886849Y-14410174D02*
X14896372Y-14429222D01*
X14896372Y-14429222D02*
X14896372Y-14533984D01*
X15020182Y-14533984D02*
X15001134Y-14524460D01*
X15001134Y-14524460D02*
X14991611Y-14514936D01*
X14991611Y-14514936D02*
X14982087Y-14495888D01*
X14982087Y-14495888D02*
X14982087Y-14438746D01*
X14982087Y-14438746D02*
X14991611Y-14419698D01*
X14991611Y-14419698D02*
X15001134Y-14410174D01*
X15001134Y-14410174D02*
X15020182Y-14400650D01*
X15020182Y-14400650D02*
X15048753Y-14400650D01*
X15048753Y-14400650D02*
X15067801Y-14410174D01*
X15067801Y-14410174D02*
X15077325Y-14419698D01*
X15077325Y-14419698D02*
X15086849Y-14438746D01*
X15086849Y-14438746D02*
X15086849Y-14495888D01*
X15086849Y-14495888D02*
X15077325Y-14514936D01*
X15077325Y-14514936D02*
X15067801Y-14524460D01*
X15067801Y-14524460D02*
X15048753Y-14533984D01*
X15048753Y-14533984D02*
X15020182Y-14533984D01*
X15143992Y-14400650D02*
X15220182Y-14400650D01*
X15172563Y-14333984D02*
X15172563Y-14505412D01*
X15172563Y-14505412D02*
X15182087Y-14524460D01*
X15182087Y-14524460D02*
X15201134Y-14533984D01*
X15201134Y-14533984D02*
X15220182Y-14533984D01*
X15439230Y-14400650D02*
X15439230Y-14600650D01*
X15439230Y-14410174D02*
X15458277Y-14400650D01*
X15458277Y-14400650D02*
X15496373Y-14400650D01*
X15496373Y-14400650D02*
X15515420Y-14410174D01*
X15515420Y-14410174D02*
X15524944Y-14419698D01*
X15524944Y-14419698D02*
X15534468Y-14438746D01*
X15534468Y-14438746D02*
X15534468Y-14495888D01*
X15534468Y-14495888D02*
X15524944Y-14514936D01*
X15524944Y-14514936D02*
X15515420Y-14524460D01*
X15515420Y-14524460D02*
X15496373Y-14533984D01*
X15496373Y-14533984D02*
X15458277Y-14533984D01*
X15458277Y-14533984D02*
X15439230Y-14524460D01*
X15648753Y-14533984D02*
X15629706Y-14524460D01*
X15629706Y-14524460D02*
X15620182Y-14505412D01*
X15620182Y-14505412D02*
X15620182Y-14333984D01*
X15810658Y-14533984D02*
X15810658Y-14429222D01*
X15810658Y-14429222D02*
X15801134Y-14410174D01*
X15801134Y-14410174D02*
X15782087Y-14400650D01*
X15782087Y-14400650D02*
X15743992Y-14400650D01*
X15743992Y-14400650D02*
X15724944Y-14410174D01*
X15810658Y-14524460D02*
X15791611Y-14533984D01*
X15791611Y-14533984D02*
X15743992Y-14533984D01*
X15743992Y-14533984D02*
X15724944Y-14524460D01*
X15724944Y-14524460D02*
X15715420Y-14505412D01*
X15715420Y-14505412D02*
X15715420Y-14486365D01*
X15715420Y-14486365D02*
X15724944Y-14467317D01*
X15724944Y-14467317D02*
X15743992Y-14457793D01*
X15743992Y-14457793D02*
X15791611Y-14457793D01*
X15791611Y-14457793D02*
X15810658Y-14448269D01*
X15877325Y-14400650D02*
X15953515Y-14400650D01*
X15905896Y-14333984D02*
X15905896Y-14505412D01*
X15905896Y-14505412D02*
X15915420Y-14524460D01*
X15915420Y-14524460D02*
X15934468Y-14533984D01*
X15934468Y-14533984D02*
X15953515Y-14533984D01*
X16096373Y-14524460D02*
X16077325Y-14533984D01*
X16077325Y-14533984D02*
X16039230Y-14533984D01*
X16039230Y-14533984D02*
X16020182Y-14524460D01*
X16020182Y-14524460D02*
X16010658Y-14505412D01*
X16010658Y-14505412D02*
X16010658Y-14429222D01*
X16010658Y-14429222D02*
X16020182Y-14410174D01*
X16020182Y-14410174D02*
X16039230Y-14400650D01*
X16039230Y-14400650D02*
X16077325Y-14400650D01*
X16077325Y-14400650D02*
X16096373Y-14410174D01*
X16096373Y-14410174D02*
X16105896Y-14429222D01*
X16105896Y-14429222D02*
X16105896Y-14448269D01*
X16105896Y-14448269D02*
X16010658Y-14467317D01*
X16277325Y-14533984D02*
X16277325Y-14333984D01*
X16277325Y-14524460D02*
X16258277Y-14533984D01*
X16258277Y-14533984D02*
X16220182Y-14533984D01*
X16220182Y-14533984D02*
X16201134Y-14524460D01*
X16201134Y-14524460D02*
X16191611Y-14514936D01*
X16191611Y-14514936D02*
X16182087Y-14495888D01*
X16182087Y-14495888D02*
X16182087Y-14438746D01*
X16182087Y-14438746D02*
X16191611Y-14419698D01*
X16191611Y-14419698D02*
X16201134Y-14410174D01*
X16201134Y-14410174D02*
X16220182Y-14400650D01*
X16220182Y-14400650D02*
X16258277Y-14400650D01*
X16258277Y-14400650D02*
X16277325Y-14410174D01*
X16353515Y-14610174D02*
X16363039Y-14600650D01*
X16363039Y-14600650D02*
X16382087Y-14572079D01*
X16382087Y-14572079D02*
X16391611Y-14553031D01*
X16391611Y-14553031D02*
X16401134Y-14524460D01*
X16401134Y-14524460D02*
X16410658Y-14476841D01*
X16410658Y-14476841D02*
X16410658Y-14438746D01*
X16410658Y-14438746D02*
X16401134Y-14391127D01*
X16401134Y-14391127D02*
X16391611Y-14362555D01*
X16391611Y-14362555D02*
X16382087Y-14343508D01*
X16382087Y-14343508D02*
X16363039Y-14314936D01*
X16363039Y-14314936D02*
X16353515Y-14305412D01*
M02*
