G04 #@! TF.GenerationSoftware,KiCad,Pcbnew,8.0.6*
G04 #@! TF.CreationDate,2026-02-18T12:36:34-07:00*
G04 #@! TF.ProjectId,pneumatic Backpack v3.1,706e6575-6d61-4746-9963-204261636b70,rev?*
G04 #@! TF.SameCoordinates,Original*
G04 #@! TF.FileFunction,Copper,L2,Bot*
G04 #@! TF.FilePolarity,Positive*
%FSLAX46Y46*%
G04 Gerber Fmt 4.6, Leading zero omitted, Abs format (unit mm)*
G04 Created by KiCad (PCBNEW 8.0.6) date 2026-02-18 12:36:34*
%MOMM*%
%LPD*%
G01*
G04 APERTURE LIST*
G04 Aperture macros list*
%AMRoundRect*
0 Rectangle with rounded corners*
0 $1 Rounding radius*
0 $2 $3 $4 $5 $6 $7 $8 $9 X,Y pos of 4 corners*
0 Add a 4 corners polygon primitive as box body*
4,1,4,$2,$3,$4,$5,$6,$7,$8,$9,$2,$3,0*
0 Add four circle primitives for the rounded corners*
1,1,$1+$1,$2,$3*
1,1,$1+$1,$4,$5*
1,1,$1+$1,$6,$7*
1,1,$1+$1,$8,$9*
0 Add four rect primitives between the rounded corners*
20,1,$1+$1,$2,$3,$4,$5,0*
20,1,$1+$1,$4,$5,$6,$7,0*
20,1,$1+$1,$6,$7,$8,$9,0*
20,1,$1+$1,$8,$9,$2,$3,0*%
G04 Aperture macros list end*
G04 #@! TA.AperFunction,ComponentPad*
%ADD10R,1.530000X1.530000*%
G04 #@! TD*
G04 #@! TA.AperFunction,ComponentPad*
%ADD11C,1.530000*%
G04 #@! TD*
G04 #@! TA.AperFunction,ComponentPad*
%ADD12O,1.730000X1.030000*%
G04 #@! TD*
G04 #@! TA.AperFunction,ComponentPad*
%ADD13RoundRect,0.250000X-0.615000X0.265000X-0.615000X-0.265000X0.615000X-0.265000X0.615000X0.265000X0*%
G04 #@! TD*
G04 #@! TA.AperFunction,ComponentPad*
%ADD14RoundRect,0.250000X0.615000X-0.265000X0.615000X0.265000X-0.615000X0.265000X-0.615000X-0.265000X0*%
G04 #@! TD*
G04 #@! TA.AperFunction,SMDPad,CuDef*
%ADD15RoundRect,0.250000X0.412500X0.650000X-0.412500X0.650000X-0.412500X-0.650000X0.412500X-0.650000X0*%
G04 #@! TD*
G04 #@! TA.AperFunction,ComponentPad*
%ADD16R,1.700000X1.700000*%
G04 #@! TD*
G04 #@! TA.AperFunction,ComponentPad*
%ADD17O,1.700000X1.700000*%
G04 #@! TD*
G04 #@! TA.AperFunction,ComponentPad*
%ADD18RoundRect,0.250000X-0.600000X-0.600000X0.600000X-0.600000X0.600000X0.600000X-0.600000X0.600000X0*%
G04 #@! TD*
G04 #@! TA.AperFunction,ViaPad*
%ADD19C,0.600000*%
G04 #@! TD*
G04 #@! TA.AperFunction,Conductor*
%ADD20C,0.508000*%
G04 #@! TD*
G04 #@! TA.AperFunction,Conductor*
%ADD21C,0.200000*%
G04 #@! TD*
G04 APERTURE END LIST*
D10*
X116570000Y-73530000D03*
D11*
X116570000Y-76070000D03*
X116570000Y-78610000D03*
X116570000Y-81150000D03*
X116570000Y-83690000D03*
X116570000Y-86230000D03*
X116570000Y-88770000D03*
X116570000Y-91310000D03*
X116570000Y-93850000D03*
X116570000Y-96390000D03*
X116570000Y-98930000D03*
X116570000Y-101470000D03*
X116570000Y-104010000D03*
X116570000Y-106550000D03*
X116570000Y-109090000D03*
X116570000Y-111630000D03*
X116570000Y-114170000D03*
X116570000Y-116710000D03*
X116570000Y-119250000D03*
X116570000Y-121790000D03*
X116570000Y-124330000D03*
X116570000Y-126870000D03*
X139430000Y-73530000D03*
X139430000Y-76070000D03*
X139430000Y-78610000D03*
X139430000Y-81150000D03*
X139430000Y-83690000D03*
X139430000Y-86230000D03*
X139430000Y-88770000D03*
X139430000Y-91310000D03*
X139430000Y-93850000D03*
X139430000Y-96390000D03*
X139430000Y-98930000D03*
X139430000Y-101470000D03*
X139430000Y-104010000D03*
X139430000Y-106550000D03*
X139430000Y-109090000D03*
X139430000Y-111630000D03*
X139430000Y-114170000D03*
X139430000Y-116710000D03*
X139430000Y-119250000D03*
X139430000Y-121790000D03*
X139430000Y-124330000D03*
X139430000Y-126870000D03*
D12*
X103505000Y-132118000D03*
X103505000Y-130618000D03*
X103505000Y-129118000D03*
X103505000Y-127618000D03*
X103505000Y-126118000D03*
X103505000Y-124618000D03*
X103505000Y-123118000D03*
X103505000Y-121618000D03*
X103505000Y-120118000D03*
X103505000Y-118618000D03*
X103505000Y-117118000D03*
D13*
X103505000Y-115618000D03*
D14*
X152534000Y-131840000D03*
D12*
X152534000Y-130340000D03*
X152534000Y-128840000D03*
X152534000Y-127340000D03*
X152534000Y-125840000D03*
X152534000Y-124340000D03*
X152534000Y-122840000D03*
X152534000Y-121340000D03*
X152534000Y-119840000D03*
X152534000Y-118340000D03*
X152534000Y-116840000D03*
X152534000Y-115340000D03*
D15*
X124879500Y-120269000D03*
X121754500Y-120269000D03*
D16*
X124166000Y-133014000D03*
D17*
X126706000Y-133014000D03*
X129246000Y-133014000D03*
X131786000Y-133014000D03*
D18*
X157734000Y-106426000D03*
D16*
X147955000Y-111506000D03*
D17*
X145415000Y-111506000D03*
X147955000Y-108966000D03*
X145415000Y-108966000D03*
X147955000Y-106426000D03*
X145415000Y-106426000D03*
X147955000Y-103886000D03*
X145415000Y-103886000D03*
X147955000Y-101346000D03*
X145415000Y-101346000D03*
X147955000Y-98806000D03*
X145415000Y-98806000D03*
X147955000Y-96266000D03*
X145415000Y-96266000D03*
X147955000Y-93726000D03*
X145415000Y-93726000D03*
X147955000Y-91186000D03*
X145415000Y-91186000D03*
X147955000Y-88646000D03*
X145415000Y-88646000D03*
X147955000Y-86106000D03*
X145415000Y-86106000D03*
X147955000Y-83566000D03*
X145415000Y-83566000D03*
X147955000Y-81026000D03*
X145415000Y-81026000D03*
X147955000Y-78486000D03*
X145415000Y-78486000D03*
X147955000Y-75946000D03*
X145415000Y-75946000D03*
X147955000Y-73406000D03*
X145415000Y-73406000D03*
D16*
X107696000Y-73533000D03*
D17*
X110236000Y-73533000D03*
X107696000Y-76073000D03*
X110236000Y-76073000D03*
X107696000Y-78613000D03*
X110236000Y-78613000D03*
X107696000Y-81153000D03*
X110236000Y-81153000D03*
X107696000Y-83693000D03*
X110236000Y-83693000D03*
X107696000Y-86233000D03*
X110236000Y-86233000D03*
X107696000Y-88773000D03*
X110236000Y-88773000D03*
X107696000Y-91313000D03*
X110236000Y-91313000D03*
X107696000Y-93853000D03*
X110236000Y-93853000D03*
X107696000Y-96393000D03*
X110236000Y-96393000D03*
X107696000Y-98933000D03*
X110236000Y-98933000D03*
X107696000Y-101473000D03*
X110236000Y-101473000D03*
X107696000Y-104013000D03*
X110236000Y-104013000D03*
X107696000Y-106553000D03*
X110236000Y-106553000D03*
X107696000Y-109093000D03*
X110236000Y-109093000D03*
X107696000Y-111633000D03*
X110236000Y-111633000D03*
D16*
X118012000Y-67024000D03*
D17*
X120552000Y-67024000D03*
X123092000Y-67024000D03*
X125632000Y-67024000D03*
D16*
X136000000Y-133000000D03*
D17*
X136000000Y-135540000D03*
D16*
X146000000Y-67500000D03*
D17*
X143460000Y-67500000D03*
D16*
X140000000Y-133000000D03*
D17*
X140000000Y-135540000D03*
D19*
X128943500Y-100457000D03*
X118745000Y-113284000D03*
X134620000Y-113617600D03*
X130810000Y-86741000D03*
X125857000Y-93980000D03*
X121793000Y-96139000D03*
X123825000Y-95123000D03*
X132842000Y-85598000D03*
X126492000Y-120523000D03*
X130302000Y-120523000D03*
X132801000Y-71247000D03*
X128346000Y-120430000D03*
X130048000Y-118237000D03*
X125857000Y-96266000D03*
X128270000Y-118237000D03*
X128905000Y-87757000D03*
X121793000Y-94107000D03*
X126492000Y-122555000D03*
X132842000Y-87757000D03*
X126492000Y-118237000D03*
X130048000Y-122809000D03*
X128905000Y-85725000D03*
X128270000Y-122555000D03*
X125012400Y-85471000D03*
X130175000Y-95123000D03*
X124269500Y-83629500D03*
X118999000Y-74295000D03*
X129540000Y-96647000D03*
X129984500Y-92011500D03*
X125857000Y-87884000D03*
X129159000Y-90297000D03*
X122047000Y-69596000D03*
X124079000Y-108077000D03*
X123825000Y-99314000D03*
X131953000Y-71247000D03*
X130683000Y-82804000D03*
X128905000Y-94107000D03*
X113665000Y-70358000D03*
X124127400Y-90757600D03*
X121666000Y-120396000D03*
X136525000Y-122047000D03*
X121666000Y-124714000D03*
X130683000Y-125349000D03*
X121539000Y-121920000D03*
D20*
X152511000Y-130429000D02*
X152567000Y-130373000D01*
X142494000Y-130429000D02*
X152511000Y-130429000D01*
X138622000Y-130618000D02*
X138811000Y-130429000D01*
X103505000Y-130618000D02*
X138622000Y-130618000D01*
D21*
X126746000Y-70231000D02*
X126746000Y-87884000D01*
X126111000Y-69596000D02*
X126746000Y-70231000D01*
X126746000Y-87884000D02*
X129159000Y-90297000D01*
X122047000Y-69596000D02*
X126111000Y-69596000D01*
X139430000Y-111649000D02*
X139430000Y-111630000D01*
X137461400Y-113617600D02*
X139430000Y-111649000D01*
X134620000Y-113617600D02*
X137461400Y-113617600D01*
X115319000Y-83690000D02*
X116570000Y-83690000D01*
X115189000Y-123063000D02*
X113665000Y-121539000D01*
X113665000Y-85344000D02*
X115319000Y-83690000D01*
X120015000Y-123063000D02*
X115189000Y-123063000D01*
X121666000Y-124714000D02*
X120015000Y-123063000D01*
X113665000Y-121539000D02*
X113665000Y-85344000D01*
X118999000Y-78359000D02*
X124269500Y-83629500D01*
X118999000Y-74295000D02*
X118999000Y-78359000D01*
X115186000Y-81150000D02*
X116570000Y-81150000D01*
X113665000Y-79629000D02*
X115186000Y-81150000D01*
X113665000Y-70358000D02*
X113665000Y-79629000D01*
X129540000Y-93599000D02*
X129540000Y-96647000D01*
X124269500Y-88328500D02*
X129540000Y-93599000D01*
X124269500Y-83629500D02*
X124269500Y-88328500D01*
X116573000Y-88773000D02*
X116570000Y-88770000D01*
X122142800Y-88773000D02*
X116573000Y-88773000D01*
X124127400Y-90757600D02*
X122142800Y-88773000D01*
X130683000Y-72517000D02*
X131953000Y-71247000D01*
X130683000Y-82804000D02*
X130683000Y-72517000D01*
X134363000Y-98930000D02*
X139430000Y-98930000D01*
X130937000Y-95504000D02*
X134363000Y-98930000D01*
X130937000Y-92964000D02*
X130937000Y-95504000D01*
X129984500Y-92011500D02*
X130937000Y-92964000D01*
X125012400Y-87928400D02*
X125012400Y-85471000D01*
X130175000Y-93091000D02*
X125012400Y-87928400D01*
X130175000Y-95123000D02*
X130175000Y-93091000D01*
X146000000Y-69138000D02*
X146000000Y-67500000D01*
X142748000Y-72390000D02*
X146000000Y-69138000D01*
X136779000Y-102743000D02*
X140843000Y-102743000D01*
X130175000Y-95123000D02*
X130175000Y-96139000D01*
X142748000Y-100838000D02*
X142748000Y-72390000D01*
X130175000Y-96139000D02*
X136779000Y-102743000D01*
X140843000Y-102743000D02*
X142748000Y-100838000D01*
X136903000Y-104010000D02*
X139430000Y-104010000D01*
X129540000Y-96647000D02*
X136903000Y-104010000D01*
X120523000Y-73152000D02*
X120523000Y-67053000D01*
X125857000Y-78486000D02*
X120523000Y-73152000D01*
X120523000Y-67053000D02*
X120552000Y-67024000D01*
X125857000Y-87884000D02*
X125857000Y-78486000D01*
X141732000Y-99168000D02*
X139430000Y-101470000D01*
X141732000Y-94107000D02*
X141732000Y-99168000D01*
X129159000Y-90297000D02*
X131445000Y-92583000D01*
X140208000Y-92583000D02*
X141732000Y-94107000D01*
X131445000Y-92583000D02*
X140208000Y-92583000D01*
X125857000Y-87884000D02*
X129984500Y-92011500D01*
X117091000Y-111630000D02*
X116570000Y-111630000D01*
X118745000Y-113284000D02*
X117091000Y-111630000D01*
X116570000Y-116951000D02*
X116570000Y-116710000D01*
X121539000Y-121920000D02*
X116570000Y-116951000D01*
X121666000Y-124714000D02*
X121666000Y-124625200D01*
X121666000Y-124625200D02*
X121583400Y-124542600D01*
X116570000Y-73530000D02*
X116570000Y-76070000D01*
X128905000Y-94107000D02*
X126108000Y-91310000D01*
X126108000Y-91310000D02*
X116570000Y-91310000D01*
X140000000Y-130429000D02*
X142494000Y-130429000D01*
D20*
X131572000Y-116586000D02*
X123825000Y-116586000D01*
X103505000Y-130618000D02*
X103505000Y-132118000D01*
X152567000Y-130373000D02*
X152567000Y-127570000D01*
X137287000Y-129921000D02*
X137795000Y-130429000D01*
X140000000Y-133000000D02*
X140000000Y-130429000D01*
D21*
X103505000Y-130618000D02*
X103567000Y-130556000D01*
D20*
X121666000Y-118745000D02*
X121666000Y-120396000D01*
X137795000Y-130429000D02*
X142494000Y-130429000D01*
X103505000Y-127618000D02*
X103505000Y-130618000D01*
X152534000Y-130340000D02*
X152534000Y-131840000D01*
X135255000Y-127889000D02*
X135255000Y-120269000D01*
D21*
X152496000Y-130302000D02*
X152567000Y-130373000D01*
D20*
X137287000Y-129921000D02*
X135255000Y-127889000D01*
X135255000Y-120269000D02*
X131572000Y-116586000D01*
X123825000Y-116586000D02*
X121666000Y-118745000D01*
D21*
X132077000Y-114170000D02*
X116570000Y-114170000D01*
X136525000Y-122047000D02*
X136525000Y-118618000D01*
X136525000Y-118618000D02*
X132077000Y-114170000D01*
X117599000Y-119250000D02*
X116570000Y-119250000D01*
X123698000Y-125349000D02*
X117599000Y-119250000D01*
X130683000Y-125349000D02*
X123698000Y-125349000D01*
X139433000Y-114173000D02*
X149987000Y-114173000D01*
X139430000Y-114170000D02*
X139433000Y-114173000D01*
X149987000Y-114173000D02*
X157734000Y-106426000D01*
X123825000Y-107823000D02*
X124079000Y-108077000D01*
X123825000Y-99314000D02*
X123825000Y-107823000D01*
G04 #@! TA.AperFunction,Conductor*
G36*
X110486000Y-111199988D02*
G01*
X110428993Y-111167075D01*
X110301826Y-111133000D01*
X110170174Y-111133000D01*
X110043007Y-111167075D01*
X109986000Y-111199988D01*
X109986000Y-109526012D01*
X110043007Y-109558925D01*
X110170174Y-109593000D01*
X110301826Y-109593000D01*
X110428993Y-109558925D01*
X110486000Y-109526012D01*
X110486000Y-111199988D01*
G37*
G04 #@! TD.AperFunction*
G04 #@! TA.AperFunction,Conductor*
G36*
X110486000Y-108659988D02*
G01*
X110428993Y-108627075D01*
X110301826Y-108593000D01*
X110170174Y-108593000D01*
X110043007Y-108627075D01*
X109986000Y-108659988D01*
X109986000Y-106986012D01*
X110043007Y-107018925D01*
X110170174Y-107053000D01*
X110301826Y-107053000D01*
X110428993Y-107018925D01*
X110486000Y-106986012D01*
X110486000Y-108659988D01*
G37*
G04 #@! TD.AperFunction*
G04 #@! TA.AperFunction,Conductor*
G36*
X110486000Y-106119988D02*
G01*
X110428993Y-106087075D01*
X110301826Y-106053000D01*
X110170174Y-106053000D01*
X110043007Y-106087075D01*
X109986000Y-106119988D01*
X109986000Y-104446012D01*
X110043007Y-104478925D01*
X110170174Y-104513000D01*
X110301826Y-104513000D01*
X110428993Y-104478925D01*
X110486000Y-104446012D01*
X110486000Y-106119988D01*
G37*
G04 #@! TD.AperFunction*
G04 #@! TA.AperFunction,Conductor*
G36*
X110486000Y-103579988D02*
G01*
X110428993Y-103547075D01*
X110301826Y-103513000D01*
X110170174Y-103513000D01*
X110043007Y-103547075D01*
X109986000Y-103579988D01*
X109986000Y-101906012D01*
X110043007Y-101938925D01*
X110170174Y-101973000D01*
X110301826Y-101973000D01*
X110428993Y-101938925D01*
X110486000Y-101906012D01*
X110486000Y-103579988D01*
G37*
G04 #@! TD.AperFunction*
G04 #@! TA.AperFunction,Conductor*
G36*
X110486000Y-101039988D02*
G01*
X110428993Y-101007075D01*
X110301826Y-100973000D01*
X110170174Y-100973000D01*
X110043007Y-101007075D01*
X109986000Y-101039988D01*
X109986000Y-99366012D01*
X110043007Y-99398925D01*
X110170174Y-99433000D01*
X110301826Y-99433000D01*
X110428993Y-99398925D01*
X110486000Y-99366012D01*
X110486000Y-101039988D01*
G37*
G04 #@! TD.AperFunction*
G04 #@! TA.AperFunction,Conductor*
G36*
X110486000Y-98499988D02*
G01*
X110428993Y-98467075D01*
X110301826Y-98433000D01*
X110170174Y-98433000D01*
X110043007Y-98467075D01*
X109986000Y-98499988D01*
X109986000Y-96826012D01*
X110043007Y-96858925D01*
X110170174Y-96893000D01*
X110301826Y-96893000D01*
X110428993Y-96858925D01*
X110486000Y-96826012D01*
X110486000Y-98499988D01*
G37*
G04 #@! TD.AperFunction*
G04 #@! TA.AperFunction,Conductor*
G36*
X110486000Y-95959988D02*
G01*
X110428993Y-95927075D01*
X110301826Y-95893000D01*
X110170174Y-95893000D01*
X110043007Y-95927075D01*
X109986000Y-95959988D01*
X109986000Y-94286012D01*
X110043007Y-94318925D01*
X110170174Y-94353000D01*
X110301826Y-94353000D01*
X110428993Y-94318925D01*
X110486000Y-94286012D01*
X110486000Y-95959988D01*
G37*
G04 #@! TD.AperFunction*
G04 #@! TA.AperFunction,Conductor*
G36*
X110486000Y-93419988D02*
G01*
X110428993Y-93387075D01*
X110301826Y-93353000D01*
X110170174Y-93353000D01*
X110043007Y-93387075D01*
X109986000Y-93419988D01*
X109986000Y-91746012D01*
X110043007Y-91778925D01*
X110170174Y-91813000D01*
X110301826Y-91813000D01*
X110428993Y-91778925D01*
X110486000Y-91746012D01*
X110486000Y-93419988D01*
G37*
G04 #@! TD.AperFunction*
G04 #@! TA.AperFunction,Conductor*
G36*
X110486000Y-90879988D02*
G01*
X110428993Y-90847075D01*
X110301826Y-90813000D01*
X110170174Y-90813000D01*
X110043007Y-90847075D01*
X109986000Y-90879988D01*
X109986000Y-89206012D01*
X110043007Y-89238925D01*
X110170174Y-89273000D01*
X110301826Y-89273000D01*
X110428993Y-89238925D01*
X110486000Y-89206012D01*
X110486000Y-90879988D01*
G37*
G04 #@! TD.AperFunction*
G04 #@! TA.AperFunction,Conductor*
G36*
X110486000Y-88339988D02*
G01*
X110428993Y-88307075D01*
X110301826Y-88273000D01*
X110170174Y-88273000D01*
X110043007Y-88307075D01*
X109986000Y-88339988D01*
X109986000Y-86666012D01*
X110043007Y-86698925D01*
X110170174Y-86733000D01*
X110301826Y-86733000D01*
X110428993Y-86698925D01*
X110486000Y-86666012D01*
X110486000Y-88339988D01*
G37*
G04 #@! TD.AperFunction*
G04 #@! TA.AperFunction,Conductor*
G36*
X110486000Y-85799988D02*
G01*
X110428993Y-85767075D01*
X110301826Y-85733000D01*
X110170174Y-85733000D01*
X110043007Y-85767075D01*
X109986000Y-85799988D01*
X109986000Y-84126012D01*
X110043007Y-84158925D01*
X110170174Y-84193000D01*
X110301826Y-84193000D01*
X110428993Y-84158925D01*
X110486000Y-84126012D01*
X110486000Y-85799988D01*
G37*
G04 #@! TD.AperFunction*
G04 #@! TA.AperFunction,Conductor*
G36*
X110486000Y-83259988D02*
G01*
X110428993Y-83227075D01*
X110301826Y-83193000D01*
X110170174Y-83193000D01*
X110043007Y-83227075D01*
X109986000Y-83259988D01*
X109986000Y-81586012D01*
X110043007Y-81618925D01*
X110170174Y-81653000D01*
X110301826Y-81653000D01*
X110428993Y-81618925D01*
X110486000Y-81586012D01*
X110486000Y-83259988D01*
G37*
G04 #@! TD.AperFunction*
G04 #@! TA.AperFunction,Conductor*
G36*
X110486000Y-80719988D02*
G01*
X110428993Y-80687075D01*
X110301826Y-80653000D01*
X110170174Y-80653000D01*
X110043007Y-80687075D01*
X109986000Y-80719988D01*
X109986000Y-79046012D01*
X110043007Y-79078925D01*
X110170174Y-79113000D01*
X110301826Y-79113000D01*
X110428993Y-79078925D01*
X110486000Y-79046012D01*
X110486000Y-80719988D01*
G37*
G04 #@! TD.AperFunction*
G04 #@! TA.AperFunction,Conductor*
G36*
X110486000Y-78179988D02*
G01*
X110428993Y-78147075D01*
X110301826Y-78113000D01*
X110170174Y-78113000D01*
X110043007Y-78147075D01*
X109986000Y-78179988D01*
X109986000Y-76506012D01*
X110043007Y-76538925D01*
X110170174Y-76573000D01*
X110301826Y-76573000D01*
X110428993Y-76538925D01*
X110486000Y-76506012D01*
X110486000Y-78179988D01*
G37*
G04 #@! TD.AperFunction*
G04 #@! TA.AperFunction,Conductor*
G36*
X110486000Y-75639988D02*
G01*
X110428993Y-75607075D01*
X110301826Y-75573000D01*
X110170174Y-75573000D01*
X110043007Y-75607075D01*
X109986000Y-75639988D01*
X109986000Y-73966012D01*
X110043007Y-73998925D01*
X110170174Y-74033000D01*
X110301826Y-74033000D01*
X110428993Y-73998925D01*
X110486000Y-73966012D01*
X110486000Y-75639988D01*
G37*
G04 #@! TD.AperFunction*
G04 #@! TA.AperFunction,Conductor*
G36*
X145665000Y-111072988D02*
G01*
X145607993Y-111040075D01*
X145480826Y-111006000D01*
X145349174Y-111006000D01*
X145222007Y-111040075D01*
X145165000Y-111072988D01*
X145165000Y-109399012D01*
X145222007Y-109431925D01*
X145349174Y-109466000D01*
X145480826Y-109466000D01*
X145607993Y-109431925D01*
X145665000Y-109399012D01*
X145665000Y-111072988D01*
G37*
G04 #@! TD.AperFunction*
G04 #@! TA.AperFunction,Conductor*
G36*
X145665000Y-108532988D02*
G01*
X145607993Y-108500075D01*
X145480826Y-108466000D01*
X145349174Y-108466000D01*
X145222007Y-108500075D01*
X145165000Y-108532988D01*
X145165000Y-106859012D01*
X145222007Y-106891925D01*
X145349174Y-106926000D01*
X145480826Y-106926000D01*
X145607993Y-106891925D01*
X145665000Y-106859012D01*
X145665000Y-108532988D01*
G37*
G04 #@! TD.AperFunction*
G04 #@! TA.AperFunction,Conductor*
G36*
X145665000Y-105992988D02*
G01*
X145607993Y-105960075D01*
X145480826Y-105926000D01*
X145349174Y-105926000D01*
X145222007Y-105960075D01*
X145165000Y-105992988D01*
X145165000Y-104319012D01*
X145222007Y-104351925D01*
X145349174Y-104386000D01*
X145480826Y-104386000D01*
X145607993Y-104351925D01*
X145665000Y-104319012D01*
X145665000Y-105992988D01*
G37*
G04 #@! TD.AperFunction*
G04 #@! TA.AperFunction,Conductor*
G36*
X145665000Y-103452988D02*
G01*
X145607993Y-103420075D01*
X145480826Y-103386000D01*
X145349174Y-103386000D01*
X145222007Y-103420075D01*
X145165000Y-103452988D01*
X145165000Y-101779012D01*
X145222007Y-101811925D01*
X145349174Y-101846000D01*
X145480826Y-101846000D01*
X145607993Y-101811925D01*
X145665000Y-101779012D01*
X145665000Y-103452988D01*
G37*
G04 #@! TD.AperFunction*
G04 #@! TA.AperFunction,Conductor*
G36*
X145665000Y-100912988D02*
G01*
X145607993Y-100880075D01*
X145480826Y-100846000D01*
X145349174Y-100846000D01*
X145222007Y-100880075D01*
X145165000Y-100912988D01*
X145165000Y-99239012D01*
X145222007Y-99271925D01*
X145349174Y-99306000D01*
X145480826Y-99306000D01*
X145607993Y-99271925D01*
X145665000Y-99239012D01*
X145665000Y-100912988D01*
G37*
G04 #@! TD.AperFunction*
G04 #@! TA.AperFunction,Conductor*
G36*
X145665000Y-98372988D02*
G01*
X145607993Y-98340075D01*
X145480826Y-98306000D01*
X145349174Y-98306000D01*
X145222007Y-98340075D01*
X145165000Y-98372988D01*
X145165000Y-96699012D01*
X145222007Y-96731925D01*
X145349174Y-96766000D01*
X145480826Y-96766000D01*
X145607993Y-96731925D01*
X145665000Y-96699012D01*
X145665000Y-98372988D01*
G37*
G04 #@! TD.AperFunction*
G04 #@! TA.AperFunction,Conductor*
G36*
X145665000Y-95832988D02*
G01*
X145607993Y-95800075D01*
X145480826Y-95766000D01*
X145349174Y-95766000D01*
X145222007Y-95800075D01*
X145165000Y-95832988D01*
X145165000Y-94159012D01*
X145222007Y-94191925D01*
X145349174Y-94226000D01*
X145480826Y-94226000D01*
X145607993Y-94191925D01*
X145665000Y-94159012D01*
X145665000Y-95832988D01*
G37*
G04 #@! TD.AperFunction*
G04 #@! TA.AperFunction,Conductor*
G36*
X145665000Y-93292988D02*
G01*
X145607993Y-93260075D01*
X145480826Y-93226000D01*
X145349174Y-93226000D01*
X145222007Y-93260075D01*
X145165000Y-93292988D01*
X145165000Y-91619012D01*
X145222007Y-91651925D01*
X145349174Y-91686000D01*
X145480826Y-91686000D01*
X145607993Y-91651925D01*
X145665000Y-91619012D01*
X145665000Y-93292988D01*
G37*
G04 #@! TD.AperFunction*
G04 #@! TA.AperFunction,Conductor*
G36*
X145665000Y-90752988D02*
G01*
X145607993Y-90720075D01*
X145480826Y-90686000D01*
X145349174Y-90686000D01*
X145222007Y-90720075D01*
X145165000Y-90752988D01*
X145165000Y-89079012D01*
X145222007Y-89111925D01*
X145349174Y-89146000D01*
X145480826Y-89146000D01*
X145607993Y-89111925D01*
X145665000Y-89079012D01*
X145665000Y-90752988D01*
G37*
G04 #@! TD.AperFunction*
G04 #@! TA.AperFunction,Conductor*
G36*
X145665000Y-88212988D02*
G01*
X145607993Y-88180075D01*
X145480826Y-88146000D01*
X145349174Y-88146000D01*
X145222007Y-88180075D01*
X145165000Y-88212988D01*
X145165000Y-86539012D01*
X145222007Y-86571925D01*
X145349174Y-86606000D01*
X145480826Y-86606000D01*
X145607993Y-86571925D01*
X145665000Y-86539012D01*
X145665000Y-88212988D01*
G37*
G04 #@! TD.AperFunction*
G04 #@! TA.AperFunction,Conductor*
G36*
X145665000Y-85672988D02*
G01*
X145607993Y-85640075D01*
X145480826Y-85606000D01*
X145349174Y-85606000D01*
X145222007Y-85640075D01*
X145165000Y-85672988D01*
X145165000Y-83999012D01*
X145222007Y-84031925D01*
X145349174Y-84066000D01*
X145480826Y-84066000D01*
X145607993Y-84031925D01*
X145665000Y-83999012D01*
X145665000Y-85672988D01*
G37*
G04 #@! TD.AperFunction*
G04 #@! TA.AperFunction,Conductor*
G36*
X145665000Y-83132988D02*
G01*
X145607993Y-83100075D01*
X145480826Y-83066000D01*
X145349174Y-83066000D01*
X145222007Y-83100075D01*
X145165000Y-83132988D01*
X145165000Y-81459012D01*
X145222007Y-81491925D01*
X145349174Y-81526000D01*
X145480826Y-81526000D01*
X145607993Y-81491925D01*
X145665000Y-81459012D01*
X145665000Y-83132988D01*
G37*
G04 #@! TD.AperFunction*
G04 #@! TA.AperFunction,Conductor*
G36*
X145665000Y-80592988D02*
G01*
X145607993Y-80560075D01*
X145480826Y-80526000D01*
X145349174Y-80526000D01*
X145222007Y-80560075D01*
X145165000Y-80592988D01*
X145165000Y-78919012D01*
X145222007Y-78951925D01*
X145349174Y-78986000D01*
X145480826Y-78986000D01*
X145607993Y-78951925D01*
X145665000Y-78919012D01*
X145665000Y-80592988D01*
G37*
G04 #@! TD.AperFunction*
G04 #@! TA.AperFunction,Conductor*
G36*
X145665000Y-78052988D02*
G01*
X145607993Y-78020075D01*
X145480826Y-77986000D01*
X145349174Y-77986000D01*
X145222007Y-78020075D01*
X145165000Y-78052988D01*
X145165000Y-76379012D01*
X145222007Y-76411925D01*
X145349174Y-76446000D01*
X145480826Y-76446000D01*
X145607993Y-76411925D01*
X145665000Y-76379012D01*
X145665000Y-78052988D01*
G37*
G04 #@! TD.AperFunction*
G04 #@! TA.AperFunction,Conductor*
G36*
X145665000Y-75512988D02*
G01*
X145607993Y-75480075D01*
X145480826Y-75446000D01*
X145349174Y-75446000D01*
X145222007Y-75480075D01*
X145165000Y-75512988D01*
X145165000Y-73839012D01*
X145222007Y-73871925D01*
X145349174Y-73906000D01*
X145480826Y-73906000D01*
X145607993Y-73871925D01*
X145665000Y-73839012D01*
X145665000Y-75512988D01*
G37*
G04 #@! TD.AperFunction*
G04 #@! TA.AperFunction,Conductor*
G36*
X116921552Y-65520185D02*
G01*
X116967307Y-65572989D01*
X116977251Y-65642147D01*
X116948226Y-65705703D01*
X116925884Y-65723706D01*
X116926769Y-65724888D01*
X116804455Y-65816452D01*
X116804452Y-65816455D01*
X116718206Y-65931664D01*
X116718202Y-65931671D01*
X116667908Y-66066517D01*
X116661501Y-66126116D01*
X116661500Y-66126135D01*
X116661500Y-67921870D01*
X116661501Y-67921876D01*
X116667908Y-67981483D01*
X116718202Y-68116328D01*
X116718206Y-68116335D01*
X116804452Y-68231544D01*
X116804455Y-68231547D01*
X116919664Y-68317793D01*
X116919671Y-68317797D01*
X117054517Y-68368091D01*
X117054516Y-68368091D01*
X117061444Y-68368835D01*
X117114127Y-68374500D01*
X118909872Y-68374499D01*
X118969483Y-68368091D01*
X119104331Y-68317796D01*
X119219546Y-68231546D01*
X119305796Y-68116331D01*
X119354810Y-67984916D01*
X119396681Y-67928984D01*
X119462145Y-67904566D01*
X119530418Y-67919417D01*
X119558673Y-67940569D01*
X119680599Y-68062495D01*
X119869625Y-68194852D01*
X119913248Y-68249426D01*
X119922500Y-68296425D01*
X119922500Y-73065330D01*
X119922499Y-73065348D01*
X119922499Y-73231054D01*
X119922498Y-73231054D01*
X119963423Y-73383785D01*
X119976249Y-73406000D01*
X120042477Y-73520712D01*
X120042481Y-73520717D01*
X120161349Y-73639585D01*
X120161355Y-73639590D01*
X125220181Y-78698416D01*
X125253666Y-78759739D01*
X125256500Y-78786097D01*
X125256500Y-83296662D01*
X125236815Y-83363701D01*
X125184011Y-83409456D01*
X125114853Y-83419400D01*
X125051297Y-83390375D01*
X125015459Y-83337617D01*
X124995290Y-83279980D01*
X124982103Y-83258993D01*
X124899316Y-83127238D01*
X124771762Y-82999684D01*
X124619021Y-82903710D01*
X124448749Y-82844130D01*
X124361831Y-82834337D01*
X124297417Y-82807270D01*
X124288034Y-82798798D01*
X119635819Y-78146583D01*
X119602334Y-78085260D01*
X119599500Y-78058902D01*
X119599500Y-74877412D01*
X119619185Y-74810373D01*
X119626555Y-74800097D01*
X119628810Y-74797267D01*
X119628816Y-74797262D01*
X119724789Y-74644522D01*
X119784368Y-74474255D01*
X119787721Y-74444495D01*
X119804565Y-74295003D01*
X119804565Y-74294996D01*
X119784369Y-74115750D01*
X119784368Y-74115745D01*
X119743491Y-73998925D01*
X119724789Y-73945478D01*
X119720154Y-73938102D01*
X119685582Y-73883080D01*
X119628816Y-73792738D01*
X119501262Y-73665184D01*
X119463415Y-73641403D01*
X119348523Y-73569211D01*
X119178254Y-73509631D01*
X119178249Y-73509630D01*
X118999004Y-73489435D01*
X118998996Y-73489435D01*
X118819750Y-73509630D01*
X118819745Y-73509631D01*
X118649476Y-73569211D01*
X118496737Y-73665184D01*
X118369184Y-73792737D01*
X118273211Y-73945476D01*
X118213631Y-74115745D01*
X118213630Y-74115750D01*
X118193435Y-74294996D01*
X118193435Y-74295003D01*
X118213630Y-74474249D01*
X118213631Y-74474254D01*
X118273211Y-74644523D01*
X118329128Y-74733514D01*
X118368076Y-74795499D01*
X118369185Y-74797263D01*
X118371445Y-74800097D01*
X118372334Y-74802275D01*
X118372889Y-74803158D01*
X118372734Y-74803255D01*
X118397855Y-74864783D01*
X118398500Y-74877412D01*
X118398500Y-78272330D01*
X118398499Y-78272348D01*
X118398499Y-78438054D01*
X118398498Y-78438054D01*
X118439423Y-78590784D01*
X118439424Y-78590787D01*
X118450514Y-78609997D01*
X118450517Y-78610000D01*
X118518477Y-78727712D01*
X118518481Y-78727717D01*
X118637349Y-78846585D01*
X118637355Y-78846590D01*
X123438798Y-83648034D01*
X123472283Y-83709357D01*
X123474337Y-83721831D01*
X123484130Y-83808749D01*
X123543710Y-83979021D01*
X123576952Y-84031925D01*
X123635112Y-84124486D01*
X123639685Y-84131763D01*
X123641945Y-84134597D01*
X123642834Y-84136775D01*
X123643389Y-84137658D01*
X123643234Y-84137755D01*
X123668355Y-84199283D01*
X123669000Y-84211912D01*
X123669000Y-88241830D01*
X123668999Y-88241848D01*
X123668999Y-88407554D01*
X123668998Y-88407554D01*
X123709923Y-88560286D01*
X123709924Y-88560287D01*
X123738504Y-88609789D01*
X123788980Y-88697216D01*
X123788982Y-88697218D01*
X123907849Y-88816085D01*
X123907855Y-88816090D01*
X125589584Y-90497819D01*
X125623069Y-90559142D01*
X125618085Y-90628834D01*
X125576213Y-90684767D01*
X125510749Y-90709184D01*
X125501903Y-90709500D01*
X125038359Y-90709500D01*
X124971320Y-90689815D01*
X124925565Y-90637011D01*
X124915139Y-90599383D01*
X124912769Y-90578350D01*
X124912768Y-90578345D01*
X124865033Y-90441926D01*
X124853189Y-90408078D01*
X124757216Y-90255338D01*
X124629662Y-90127784D01*
X124569526Y-90089998D01*
X124476921Y-90031810D01*
X124329249Y-89980138D01*
X124306655Y-89972232D01*
X124306654Y-89972231D01*
X124306649Y-89972230D01*
X124219730Y-89962437D01*
X124155316Y-89935370D01*
X124145933Y-89926898D01*
X122630390Y-88411355D01*
X122630388Y-88411352D01*
X122511517Y-88292481D01*
X122511516Y-88292480D01*
X122409397Y-88233522D01*
X122374585Y-88213423D01*
X122221857Y-88172499D01*
X122063743Y-88172499D01*
X122056147Y-88172499D01*
X122056131Y-88172500D01*
X117761067Y-88172500D01*
X117694028Y-88152815D01*
X117659492Y-88119624D01*
X117642544Y-88095420D01*
X117543132Y-87953445D01*
X117386555Y-87796868D01*
X117205167Y-87669858D01*
X117081907Y-87612381D01*
X117029468Y-87566210D01*
X117010316Y-87499017D01*
X117030531Y-87432136D01*
X117081908Y-87387618D01*
X117106823Y-87376000D01*
X117205167Y-87330142D01*
X117386555Y-87203132D01*
X117543132Y-87046555D01*
X117670142Y-86865167D01*
X117763723Y-86664480D01*
X117821035Y-86450591D01*
X117840334Y-86230000D01*
X117835244Y-86171826D01*
X117834820Y-86166974D01*
X117821035Y-86009409D01*
X117763723Y-85795520D01*
X117670142Y-85594833D01*
X117543132Y-85413445D01*
X117386555Y-85256868D01*
X117205167Y-85129858D01*
X117081907Y-85072381D01*
X117029468Y-85026210D01*
X117010316Y-84959017D01*
X117030531Y-84892136D01*
X117081908Y-84847618D01*
X117106823Y-84836000D01*
X117205167Y-84790142D01*
X117386555Y-84663132D01*
X117543132Y-84506555D01*
X117670142Y-84325167D01*
X117763723Y-84124480D01*
X117821035Y-83910591D01*
X117840334Y-83690000D01*
X117836662Y-83648034D01*
X117831530Y-83589368D01*
X117821035Y-83469409D01*
X117763723Y-83255520D01*
X117742254Y-83209480D01*
X117716161Y-83153522D01*
X117670142Y-83054833D01*
X117543132Y-82873445D01*
X117386555Y-82716868D01*
X117205167Y-82589858D01*
X117081907Y-82532381D01*
X117029468Y-82486210D01*
X117010316Y-82419017D01*
X117030531Y-82352136D01*
X117081908Y-82307618D01*
X117094518Y-82301738D01*
X117205167Y-82250142D01*
X117386555Y-82123132D01*
X117543132Y-81966555D01*
X117670142Y-81785167D01*
X117763723Y-81584480D01*
X117821035Y-81370591D01*
X117840334Y-81150000D01*
X117835244Y-81091826D01*
X117834820Y-81086974D01*
X117821035Y-80929409D01*
X117763723Y-80715520D01*
X117670142Y-80514833D01*
X117543132Y-80333445D01*
X117386555Y-80176868D01*
X117205167Y-80049858D01*
X117081907Y-79992381D01*
X117029468Y-79946210D01*
X117010316Y-79879017D01*
X117030531Y-79812136D01*
X117081908Y-79767618D01*
X117106823Y-79756000D01*
X117205167Y-79710142D01*
X117386555Y-79583132D01*
X117543132Y-79426555D01*
X117670142Y-79245167D01*
X117763723Y-79044480D01*
X117821035Y-78830591D01*
X117840334Y-78610000D01*
X117835244Y-78551826D01*
X117834820Y-78546974D01*
X117821035Y-78389409D01*
X117763723Y-78175520D01*
X117670142Y-77974833D01*
X117543132Y-77793445D01*
X117386555Y-77636868D01*
X117205167Y-77509858D01*
X117081907Y-77452381D01*
X117029468Y-77406210D01*
X117010316Y-77339017D01*
X117030531Y-77272136D01*
X117081908Y-77227618D01*
X117106823Y-77216000D01*
X117205167Y-77170142D01*
X117386555Y-77043132D01*
X117543132Y-76886555D01*
X117670142Y-76705167D01*
X117763723Y-76504480D01*
X117821035Y-76290591D01*
X117840334Y-76070000D01*
X117835244Y-76011826D01*
X117834820Y-76006974D01*
X117821035Y-75849409D01*
X117763723Y-75635520D01*
X117670142Y-75434833D01*
X117543132Y-75253445D01*
X117386555Y-75096868D01*
X117278309Y-75021073D01*
X117234685Y-74966497D01*
X117227493Y-74896998D01*
X117259015Y-74834644D01*
X117319245Y-74799230D01*
X117349434Y-74795499D01*
X117382871Y-74795499D01*
X117382872Y-74795499D01*
X117442483Y-74789091D01*
X117577331Y-74738796D01*
X117692546Y-74652546D01*
X117778796Y-74537331D01*
X117829091Y-74402483D01*
X117835500Y-74342873D01*
X117835499Y-72717128D01*
X117829091Y-72657517D01*
X117824589Y-72645447D01*
X117778797Y-72522671D01*
X117778793Y-72522664D01*
X117692547Y-72407455D01*
X117692544Y-72407452D01*
X117577335Y-72321206D01*
X117577328Y-72321202D01*
X117442482Y-72270908D01*
X117442483Y-72270908D01*
X117382883Y-72264501D01*
X117382881Y-72264500D01*
X117382873Y-72264500D01*
X117382864Y-72264500D01*
X115757129Y-72264500D01*
X115757123Y-72264501D01*
X115697516Y-72270908D01*
X115562671Y-72321202D01*
X115562664Y-72321206D01*
X115447455Y-72407452D01*
X115447452Y-72407455D01*
X115361206Y-72522664D01*
X115361202Y-72522671D01*
X115310908Y-72657517D01*
X115307406Y-72690097D01*
X115304501Y-72717123D01*
X115304500Y-72717135D01*
X115304500Y-74342870D01*
X115304501Y-74342876D01*
X115310908Y-74402483D01*
X115361202Y-74537328D01*
X115361206Y-74537335D01*
X115447452Y-74652544D01*
X115447455Y-74652547D01*
X115562664Y-74738793D01*
X115562671Y-74738797D01*
X115607618Y-74755561D01*
X115697517Y-74789091D01*
X115757127Y-74795500D01*
X115790563Y-74795499D01*
X115857601Y-74815182D01*
X115903357Y-74867984D01*
X115913302Y-74937143D01*
X115884279Y-75000699D01*
X115861689Y-75021073D01*
X115753447Y-75096866D01*
X115753441Y-75096871D01*
X115596868Y-75253444D01*
X115469857Y-75434834D01*
X115469856Y-75434836D01*
X115376279Y-75635513D01*
X115376275Y-75635524D01*
X115318965Y-75849407D01*
X115318964Y-75849414D01*
X115299666Y-76069998D01*
X115299666Y-76070001D01*
X115318964Y-76290585D01*
X115318965Y-76290592D01*
X115376275Y-76504475D01*
X115376279Y-76504486D01*
X115469856Y-76705163D01*
X115469858Y-76705167D01*
X115596868Y-76886555D01*
X115753445Y-77043132D01*
X115934833Y-77170142D01*
X115984923Y-77193499D01*
X116058091Y-77227618D01*
X116110531Y-77273790D01*
X116129683Y-77340983D01*
X116109467Y-77407865D01*
X116058091Y-77452382D01*
X115934836Y-77509856D01*
X115934834Y-77509857D01*
X115753444Y-77636868D01*
X115596868Y-77793444D01*
X115469857Y-77974834D01*
X115469856Y-77974836D01*
X115376279Y-78175513D01*
X115376275Y-78175524D01*
X115318965Y-78389407D01*
X115318964Y-78389414D01*
X115299666Y-78609998D01*
X115299666Y-78610000D01*
X115318964Y-78830585D01*
X115318965Y-78830592D01*
X115376275Y-79044475D01*
X115376279Y-79044486D01*
X115469856Y-79245163D01*
X115469858Y-79245167D01*
X115596868Y-79426555D01*
X115753445Y-79583132D01*
X115934833Y-79710142D01*
X115984923Y-79733499D01*
X116058091Y-79767618D01*
X116110531Y-79813790D01*
X116129683Y-79880983D01*
X116109467Y-79947865D01*
X116058091Y-79992382D01*
X115934836Y-80049856D01*
X115934834Y-80049857D01*
X115753444Y-80176868D01*
X115596871Y-80333441D01*
X115596866Y-80333447D01*
X115525876Y-80434830D01*
X115471299Y-80478454D01*
X115401800Y-80485646D01*
X115339446Y-80454123D01*
X115336621Y-80451386D01*
X114301819Y-79416584D01*
X114268334Y-79355261D01*
X114265500Y-79328903D01*
X114265500Y-70940412D01*
X114285185Y-70873373D01*
X114292555Y-70863097D01*
X114294810Y-70860267D01*
X114294816Y-70860262D01*
X114390789Y-70707522D01*
X114450368Y-70537255D01*
X114460941Y-70443416D01*
X114470565Y-70358003D01*
X114470565Y-70357996D01*
X114450369Y-70178750D01*
X114450368Y-70178745D01*
X114390788Y-70008476D01*
X114294815Y-69855737D01*
X114167262Y-69728184D01*
X114014523Y-69632211D01*
X113844254Y-69572631D01*
X113844249Y-69572630D01*
X113665004Y-69552435D01*
X113664996Y-69552435D01*
X113485750Y-69572630D01*
X113485745Y-69572631D01*
X113315476Y-69632211D01*
X113162737Y-69728184D01*
X113035184Y-69855737D01*
X112939211Y-70008476D01*
X112879631Y-70178745D01*
X112879630Y-70178750D01*
X112859435Y-70357996D01*
X112859435Y-70358003D01*
X112879630Y-70537249D01*
X112879631Y-70537254D01*
X112939211Y-70707523D01*
X113035185Y-70860263D01*
X113037445Y-70863097D01*
X113038334Y-70865275D01*
X113038889Y-70866158D01*
X113038734Y-70866255D01*
X113063855Y-70927783D01*
X113064500Y-70940412D01*
X113064500Y-79542330D01*
X113064499Y-79542348D01*
X113064499Y-79708054D01*
X113064498Y-79708054D01*
X113098782Y-79836002D01*
X113105423Y-79860785D01*
X113131240Y-79905501D01*
X113134358Y-79910900D01*
X113134359Y-79910904D01*
X113134360Y-79910904D01*
X113181400Y-79992382D01*
X113184479Y-79997714D01*
X113184481Y-79997717D01*
X113303349Y-80116585D01*
X113303355Y-80116590D01*
X114701139Y-81514374D01*
X114701149Y-81514385D01*
X114705479Y-81518715D01*
X114705480Y-81518716D01*
X114817284Y-81630520D01*
X114856222Y-81653000D01*
X114904095Y-81680639D01*
X114904097Y-81680641D01*
X114942151Y-81702611D01*
X114954215Y-81709577D01*
X115106943Y-81750501D01*
X115106946Y-81750501D01*
X115272653Y-81750501D01*
X115272669Y-81750500D01*
X115381034Y-81750500D01*
X115448073Y-81770185D01*
X115482606Y-81803373D01*
X115596868Y-81966555D01*
X115753445Y-82123132D01*
X115934833Y-82250142D01*
X115982613Y-82272422D01*
X116058091Y-82307618D01*
X116110531Y-82353790D01*
X116129683Y-82420983D01*
X116109467Y-82487865D01*
X116058091Y-82532382D01*
X115934836Y-82589856D01*
X115934834Y-82589857D01*
X115753444Y-82716868D01*
X115596868Y-82873444D01*
X115575676Y-82903710D01*
X115482607Y-83036625D01*
X115428032Y-83080248D01*
X115381034Y-83089500D01*
X115239942Y-83089500D01*
X115087215Y-83130423D01*
X115061865Y-83145058D01*
X115055072Y-83148981D01*
X115055071Y-83148980D01*
X114950287Y-83209477D01*
X114950282Y-83209481D01*
X113184481Y-84975282D01*
X113184479Y-84975285D01*
X113178582Y-84985500D01*
X113149266Y-85036277D01*
X113105423Y-85112215D01*
X113064499Y-85264943D01*
X113064499Y-85264945D01*
X113064499Y-85433046D01*
X113064500Y-85433059D01*
X113064500Y-121452330D01*
X113064499Y-121452348D01*
X113064499Y-121618054D01*
X113064498Y-121618054D01*
X113105423Y-121770784D01*
X113105424Y-121770787D01*
X113116514Y-121789997D01*
X113116517Y-121790000D01*
X113184477Y-121907712D01*
X113184481Y-121907717D01*
X113303349Y-122026585D01*
X113303355Y-122026590D01*
X114704139Y-123427374D01*
X114704149Y-123427385D01*
X114708479Y-123431715D01*
X114708480Y-123431716D01*
X114820284Y-123543520D01*
X114820286Y-123543521D01*
X114820290Y-123543524D01*
X114916424Y-123599026D01*
X114957216Y-123622577D01*
X115069019Y-123652534D01*
X115109942Y-123663500D01*
X115109943Y-123663500D01*
X115289829Y-123663500D01*
X115356868Y-123683185D01*
X115402623Y-123735989D01*
X115412567Y-123805147D01*
X115402211Y-123839901D01*
X115376278Y-123895518D01*
X115376275Y-123895524D01*
X115318965Y-124109407D01*
X115318964Y-124109414D01*
X115299666Y-124329998D01*
X115299666Y-124330001D01*
X115318964Y-124550585D01*
X115318965Y-124550592D01*
X115376275Y-124764475D01*
X115376279Y-124764486D01*
X115469740Y-124964915D01*
X115469858Y-124965167D01*
X115596868Y-125146555D01*
X115753445Y-125303132D01*
X115934833Y-125430142D01*
X116058682Y-125487893D01*
X116111122Y-125534065D01*
X116130274Y-125601258D01*
X116110059Y-125668139D01*
X116058683Y-125712657D01*
X115935084Y-125770293D01*
X115869657Y-125816104D01*
X116432424Y-126378871D01*
X116373147Y-126394755D01*
X116256853Y-126461898D01*
X116161898Y-126556853D01*
X116094755Y-126673147D01*
X116078871Y-126732424D01*
X115516104Y-126169657D01*
X115470293Y-126235084D01*
X115376749Y-126435690D01*
X115376745Y-126435699D01*
X115319461Y-126649490D01*
X115319459Y-126649500D01*
X115300168Y-126869999D01*
X115300168Y-126870000D01*
X115319459Y-127090499D01*
X115319461Y-127090509D01*
X115376745Y-127304300D01*
X115376749Y-127304309D01*
X115470295Y-127504919D01*
X115516103Y-127570341D01*
X115516105Y-127570342D01*
X116078871Y-127007575D01*
X116094755Y-127066853D01*
X116161898Y-127183147D01*
X116256853Y-127278102D01*
X116373147Y-127345245D01*
X116432424Y-127361128D01*
X115869656Y-127923894D01*
X115935083Y-127969706D01*
X115935085Y-127969707D01*
X116135690Y-128063250D01*
X116135699Y-128063254D01*
X116349490Y-128120538D01*
X116349500Y-128120540D01*
X116569999Y-128139832D01*
X116570001Y-128139832D01*
X116790499Y-128120540D01*
X116790509Y-128120538D01*
X117004300Y-128063254D01*
X117004309Y-128063250D01*
X117204915Y-127969706D01*
X117270342Y-127923894D01*
X116707575Y-127361127D01*
X116766853Y-127345245D01*
X116883147Y-127278102D01*
X116978102Y-127183147D01*
X117045245Y-127066853D01*
X117061128Y-127007575D01*
X117623894Y-127570342D01*
X117669706Y-127504915D01*
X117763250Y-127304309D01*
X117763254Y-127304300D01*
X117820538Y-127090509D01*
X117820540Y-127090499D01*
X117839832Y-126870000D01*
X117839832Y-126869999D01*
X117820540Y-126649500D01*
X117820538Y-126649490D01*
X117763254Y-126435699D01*
X117763250Y-126435690D01*
X117669707Y-126235085D01*
X117669706Y-126235083D01*
X117623894Y-126169657D01*
X117623894Y-126169656D01*
X117061127Y-126732423D01*
X117045245Y-126673147D01*
X116978102Y-126556853D01*
X116883147Y-126461898D01*
X116766853Y-126394755D01*
X116707575Y-126378872D01*
X117270342Y-125816105D01*
X117270341Y-125816103D01*
X117204919Y-125770295D01*
X117081316Y-125712657D01*
X117028877Y-125666484D01*
X117009725Y-125599291D01*
X117029941Y-125532410D01*
X117081312Y-125487895D01*
X117205167Y-125430142D01*
X117386555Y-125303132D01*
X117543132Y-125146555D01*
X117670142Y-124965167D01*
X117763723Y-124764480D01*
X117821035Y-124550591D01*
X117840334Y-124330000D01*
X117821035Y-124109409D01*
X117763723Y-123895520D01*
X117737788Y-123839903D01*
X117727297Y-123770827D01*
X117755817Y-123707043D01*
X117814293Y-123668804D01*
X117850171Y-123663500D01*
X119714903Y-123663500D01*
X119781942Y-123683185D01*
X119802584Y-123699819D01*
X120835298Y-124732534D01*
X120868783Y-124793857D01*
X120870837Y-124806331D01*
X120880630Y-124893249D01*
X120940210Y-125063521D01*
X121011942Y-125177681D01*
X121036184Y-125216262D01*
X121163738Y-125343816D01*
X121187881Y-125358986D01*
X121301121Y-125430140D01*
X121316478Y-125439789D01*
X121453951Y-125487893D01*
X121486745Y-125499368D01*
X121486750Y-125499369D01*
X121665996Y-125519565D01*
X121666000Y-125519565D01*
X121666004Y-125519565D01*
X121845249Y-125499369D01*
X121845252Y-125499368D01*
X121845255Y-125499368D01*
X122015522Y-125439789D01*
X122168262Y-125343816D01*
X122295816Y-125216262D01*
X122375240Y-125089858D01*
X122427573Y-125043568D01*
X122496627Y-125032919D01*
X122560475Y-125061294D01*
X122567914Y-125068150D01*
X123329284Y-125829520D01*
X123329286Y-125829521D01*
X123329290Y-125829524D01*
X123466209Y-125908573D01*
X123466216Y-125908577D01*
X123618943Y-125949501D01*
X123618945Y-125949501D01*
X123784654Y-125949501D01*
X123784670Y-125949500D01*
X130100588Y-125949500D01*
X130167627Y-125969185D01*
X130177903Y-125976555D01*
X130180736Y-125978814D01*
X130180738Y-125978816D01*
X130333478Y-126074789D01*
X130503745Y-126134368D01*
X130503750Y-126134369D01*
X130682996Y-126154565D01*
X130683000Y-126154565D01*
X130683004Y-126154565D01*
X130862249Y-126134369D01*
X130862252Y-126134368D01*
X130862255Y-126134368D01*
X131032522Y-126074789D01*
X131185262Y-125978816D01*
X131312816Y-125851262D01*
X131408789Y-125698522D01*
X131468368Y-125528255D01*
X131474858Y-125470656D01*
X131488565Y-125349003D01*
X131488565Y-125348996D01*
X131468369Y-125169750D01*
X131468368Y-125169745D01*
X131431199Y-125063522D01*
X131408789Y-124999478D01*
X131401163Y-124987342D01*
X131355207Y-124914203D01*
X131312816Y-124846738D01*
X131185262Y-124719184D01*
X131128556Y-124683553D01*
X131032523Y-124623211D01*
X130862254Y-124563631D01*
X130862249Y-124563630D01*
X130683004Y-124543435D01*
X130682996Y-124543435D01*
X130503750Y-124563630D01*
X130503745Y-124563631D01*
X130333476Y-124623211D01*
X130180736Y-124719185D01*
X130177903Y-124721445D01*
X130175724Y-124722334D01*
X130174842Y-124722889D01*
X130174744Y-124722734D01*
X130113217Y-124747855D01*
X130100588Y-124748500D01*
X123998098Y-124748500D01*
X123931059Y-124728815D01*
X123910417Y-124712181D01*
X122963578Y-123765342D01*
X121971142Y-122772907D01*
X121937658Y-122711585D01*
X121942642Y-122641893D01*
X121984514Y-122585960D01*
X121992845Y-122580237D01*
X122041262Y-122549816D01*
X122168816Y-122422262D01*
X122264789Y-122269522D01*
X122324368Y-122099255D01*
X122324394Y-122099026D01*
X122344565Y-121920003D01*
X122344565Y-121919997D01*
X122327753Y-121770785D01*
X122326586Y-121760431D01*
X122338640Y-121691610D01*
X122385989Y-121640230D01*
X122410798Y-121628843D01*
X122486334Y-121603814D01*
X122635656Y-121511712D01*
X122759712Y-121387656D01*
X122851814Y-121238334D01*
X122906999Y-121071797D01*
X122917500Y-120969009D01*
X122917500Y-120968986D01*
X123717001Y-120968986D01*
X123727494Y-121071697D01*
X123782641Y-121238119D01*
X123782643Y-121238124D01*
X123874684Y-121387345D01*
X123998654Y-121511315D01*
X124147875Y-121603356D01*
X124147880Y-121603358D01*
X124314302Y-121658505D01*
X124314309Y-121658506D01*
X124417019Y-121668999D01*
X124629499Y-121668999D01*
X125129500Y-121668999D01*
X125341972Y-121668999D01*
X125341986Y-121668998D01*
X125444697Y-121658505D01*
X125611119Y-121603358D01*
X125611124Y-121603356D01*
X125760345Y-121511315D01*
X125884315Y-121387345D01*
X125976356Y-121238124D01*
X125976358Y-121238119D01*
X126031505Y-121071697D01*
X126031506Y-121071690D01*
X126041999Y-120968986D01*
X126042000Y-120968973D01*
X126042000Y-120519000D01*
X125129500Y-120519000D01*
X125129500Y-121668999D01*
X124629499Y-121668999D01*
X124629500Y-121668998D01*
X124629500Y-120519000D01*
X123717001Y-120519000D01*
X123717001Y-120968986D01*
X122917500Y-120968986D01*
X122917499Y-119569013D01*
X123717000Y-119569013D01*
X123717000Y-120019000D01*
X124629500Y-120019000D01*
X125129500Y-120019000D01*
X126041999Y-120019000D01*
X126041999Y-119569028D01*
X126041998Y-119569013D01*
X126031505Y-119466302D01*
X125976358Y-119299880D01*
X125976356Y-119299875D01*
X125884315Y-119150654D01*
X125760345Y-119026684D01*
X125611124Y-118934643D01*
X125611119Y-118934641D01*
X125444697Y-118879494D01*
X125444690Y-118879493D01*
X125341986Y-118869000D01*
X125129500Y-118869000D01*
X125129500Y-120019000D01*
X124629500Y-120019000D01*
X124629500Y-118869000D01*
X124417029Y-118869000D01*
X124417012Y-118869001D01*
X124314302Y-118879494D01*
X124147880Y-118934641D01*
X124147875Y-118934643D01*
X123998654Y-119026684D01*
X123874684Y-119150654D01*
X123782643Y-119299875D01*
X123782641Y-119299880D01*
X123727494Y-119466302D01*
X123727493Y-119466309D01*
X123717000Y-119569013D01*
X122917499Y-119569013D01*
X122917499Y-119568992D01*
X122914924Y-119543789D01*
X122906999Y-119466203D01*
X122906998Y-119466200D01*
X122883193Y-119394361D01*
X122851814Y-119299666D01*
X122759712Y-119150344D01*
X122635656Y-119026288D01*
X122631377Y-119022009D01*
X122597892Y-118960686D01*
X122602876Y-118890994D01*
X122631377Y-118846647D01*
X123340545Y-118137480D01*
X124101206Y-117376819D01*
X124162529Y-117343334D01*
X124188887Y-117340500D01*
X131208113Y-117340500D01*
X131275152Y-117360185D01*
X131295794Y-117376819D01*
X134464181Y-120545205D01*
X134497666Y-120606528D01*
X134500500Y-120632886D01*
X134500500Y-127809552D01*
X134500499Y-127809578D01*
X134500499Y-127963314D01*
X134522318Y-128073001D01*
X134522318Y-128073004D01*
X134522319Y-128073004D01*
X134529077Y-128106979D01*
X134529495Y-128109081D01*
X134586368Y-128246385D01*
X134586372Y-128246392D01*
X134668942Y-128369968D01*
X134668943Y-128369969D01*
X135950794Y-129651819D01*
X135984279Y-129713142D01*
X135979295Y-129782834D01*
X135937423Y-129838767D01*
X135871959Y-129863184D01*
X135863113Y-129863500D01*
X104810193Y-129863500D01*
X104743154Y-129843815D01*
X104697399Y-129791011D01*
X104687455Y-129721853D01*
X104707091Y-129670609D01*
X104754921Y-129599026D01*
X104754921Y-129599025D01*
X104754925Y-129599020D01*
X104831475Y-129414211D01*
X104870500Y-129218018D01*
X104870500Y-129017982D01*
X104831475Y-128821789D01*
X104797588Y-128739977D01*
X104754928Y-128636986D01*
X104754921Y-128636973D01*
X104643792Y-128470657D01*
X104643787Y-128470652D01*
X104628816Y-128455681D01*
X104595331Y-128394361D01*
X104600314Y-128324669D01*
X104628816Y-128280318D01*
X104643791Y-128265344D01*
X104754925Y-128099020D01*
X104831475Y-127914211D01*
X104870500Y-127718018D01*
X104870500Y-127517982D01*
X104831475Y-127321789D01*
X104824231Y-127304300D01*
X104754928Y-127136986D01*
X104754921Y-127136973D01*
X104643792Y-126970657D01*
X104643787Y-126970652D01*
X104628816Y-126955681D01*
X104595331Y-126894361D01*
X104600314Y-126824669D01*
X104628816Y-126780318D01*
X104643791Y-126765344D01*
X104754925Y-126599020D01*
X104831475Y-126414211D01*
X104870500Y-126218018D01*
X104870500Y-126017982D01*
X104831475Y-125821789D01*
X104797588Y-125739977D01*
X104754928Y-125636986D01*
X104754921Y-125636973D01*
X104643792Y-125470657D01*
X104643787Y-125470652D01*
X104628816Y-125455681D01*
X104595331Y-125394361D01*
X104600314Y-125324669D01*
X104628816Y-125280318D01*
X104643791Y-125265344D01*
X104754925Y-125099020D01*
X104831475Y-124914211D01*
X104870500Y-124718018D01*
X104870500Y-124517982D01*
X104831475Y-124321789D01*
X104797588Y-124239977D01*
X104754928Y-124136986D01*
X104754921Y-124136973D01*
X104643792Y-123970657D01*
X104643787Y-123970652D01*
X104628816Y-123955681D01*
X104595331Y-123894361D01*
X104600314Y-123824669D01*
X104628816Y-123780318D01*
X104643791Y-123765344D01*
X104754925Y-123599020D01*
X104831475Y-123414211D01*
X104870500Y-123218018D01*
X104870500Y-123017982D01*
X104831475Y-122821789D01*
X104811178Y-122772788D01*
X104754928Y-122636986D01*
X104754921Y-122636973D01*
X104643792Y-122470657D01*
X104643787Y-122470652D01*
X104628816Y-122455681D01*
X104595331Y-122394361D01*
X104600314Y-122324669D01*
X104628816Y-122280318D01*
X104643791Y-122265344D01*
X104754925Y-122099020D01*
X104831475Y-121914211D01*
X104870500Y-121718018D01*
X104870500Y-121517982D01*
X104831475Y-121321789D01*
X104831473Y-121321784D01*
X104754928Y-121136986D01*
X104754921Y-121136973D01*
X104643792Y-120970657D01*
X104642108Y-120968973D01*
X104628816Y-120955681D01*
X104595331Y-120894361D01*
X104600314Y-120824669D01*
X104628816Y-120780318D01*
X104643791Y-120765344D01*
X104754925Y-120599020D01*
X104831475Y-120414211D01*
X104870500Y-120218018D01*
X104870500Y-120017982D01*
X104831475Y-119821789D01*
X104773962Y-119682939D01*
X104754928Y-119636986D01*
X104754921Y-119636973D01*
X104643792Y-119470657D01*
X104639335Y-119466200D01*
X104628816Y-119455681D01*
X104595331Y-119394361D01*
X104600314Y-119324669D01*
X104628816Y-119280318D01*
X104643791Y-119265344D01*
X104754925Y-119099020D01*
X104831475Y-118914211D01*
X104870500Y-118718018D01*
X104870500Y-118517982D01*
X104831475Y-118321789D01*
X104797588Y-118239977D01*
X104754928Y-118136986D01*
X104754921Y-118136973D01*
X104643792Y-117970657D01*
X104638980Y-117965845D01*
X104628816Y-117955681D01*
X104595331Y-117894361D01*
X104600314Y-117824669D01*
X104628816Y-117780318D01*
X104643791Y-117765344D01*
X104754925Y-117599020D01*
X104831475Y-117414211D01*
X104870500Y-117218018D01*
X104870500Y-117017982D01*
X104831475Y-116821789D01*
X104785170Y-116709998D01*
X104754928Y-116636986D01*
X104754921Y-116636973D01*
X104680269Y-116525249D01*
X104659391Y-116458572D01*
X104677875Y-116391191D01*
X104695690Y-116368676D01*
X104712712Y-116351656D01*
X104804814Y-116202334D01*
X104859999Y-116035797D01*
X104870500Y-115933009D01*
X104870499Y-115302992D01*
X104867143Y-115270143D01*
X104859999Y-115200203D01*
X104859998Y-115200200D01*
X104804814Y-115033666D01*
X104712712Y-114884344D01*
X104588656Y-114760288D01*
X104495888Y-114703069D01*
X104439336Y-114668187D01*
X104439331Y-114668185D01*
X104395075Y-114653520D01*
X104272797Y-114613001D01*
X104272795Y-114613000D01*
X104170010Y-114602500D01*
X102839998Y-114602500D01*
X102839981Y-114602501D01*
X102737203Y-114613000D01*
X102737200Y-114613001D01*
X102570668Y-114668185D01*
X102570663Y-114668187D01*
X102421342Y-114760289D01*
X102297289Y-114884342D01*
X102205187Y-115033663D01*
X102205185Y-115033668D01*
X102201829Y-115043796D01*
X102150001Y-115200203D01*
X102150001Y-115200204D01*
X102150000Y-115200204D01*
X102139500Y-115302983D01*
X102139500Y-115933001D01*
X102139501Y-115933019D01*
X102150000Y-116035796D01*
X102150001Y-116035799D01*
X102205185Y-116202331D01*
X102205187Y-116202336D01*
X102297289Y-116351657D01*
X102314309Y-116368677D01*
X102347794Y-116430000D01*
X102342810Y-116499692D01*
X102329730Y-116525248D01*
X102255081Y-116636968D01*
X102255071Y-116636986D01*
X102178526Y-116821784D01*
X102178523Y-116821796D01*
X102139500Y-117017977D01*
X102139500Y-117218022D01*
X102178523Y-117414203D01*
X102178526Y-117414215D01*
X102255071Y-117599013D01*
X102255078Y-117599026D01*
X102366208Y-117765343D01*
X102366211Y-117765347D01*
X102381183Y-117780319D01*
X102414668Y-117841642D01*
X102409684Y-117911334D01*
X102381183Y-117955681D01*
X102366211Y-117970652D01*
X102366208Y-117970656D01*
X102255078Y-118136973D01*
X102255071Y-118136986D01*
X102178526Y-118321784D01*
X102178523Y-118321796D01*
X102139500Y-118517977D01*
X102139500Y-118718022D01*
X102178523Y-118914203D01*
X102178526Y-118914215D01*
X102255071Y-119099013D01*
X102255078Y-119099026D01*
X102366208Y-119265343D01*
X102366211Y-119265347D01*
X102381183Y-119280319D01*
X102414668Y-119341642D01*
X102409684Y-119411334D01*
X102381183Y-119455681D01*
X102366211Y-119470652D01*
X102366208Y-119470656D01*
X102255078Y-119636973D01*
X102255071Y-119636986D01*
X102178526Y-119821784D01*
X102178523Y-119821796D01*
X102139500Y-120017977D01*
X102139500Y-120218022D01*
X102178523Y-120414203D01*
X102178526Y-120414215D01*
X102255071Y-120599013D01*
X102255078Y-120599026D01*
X102366208Y-120765343D01*
X102366211Y-120765347D01*
X102381183Y-120780319D01*
X102414668Y-120841642D01*
X102409684Y-120911334D01*
X102381183Y-120955681D01*
X102366211Y-120970652D01*
X102366208Y-120970656D01*
X102255078Y-121136973D01*
X102255071Y-121136986D01*
X102178526Y-121321784D01*
X102178523Y-121321796D01*
X102139500Y-121517977D01*
X102139500Y-121718022D01*
X102178523Y-121914203D01*
X102178526Y-121914215D01*
X102255071Y-122099013D01*
X102255078Y-122099026D01*
X102366208Y-122265343D01*
X102366211Y-122265347D01*
X102381183Y-122280319D01*
X102414668Y-122341642D01*
X102409684Y-122411334D01*
X102381183Y-122455681D01*
X102366211Y-122470652D01*
X102366208Y-122470656D01*
X102255078Y-122636973D01*
X102255071Y-122636986D01*
X102178526Y-122821784D01*
X102178523Y-122821796D01*
X102139500Y-123017977D01*
X102139500Y-123218022D01*
X102178523Y-123414203D01*
X102178526Y-123414215D01*
X102255071Y-123599013D01*
X102255078Y-123599026D01*
X102366208Y-123765343D01*
X102366211Y-123765347D01*
X102381183Y-123780319D01*
X102414668Y-123841642D01*
X102409684Y-123911334D01*
X102381183Y-123955681D01*
X102366211Y-123970652D01*
X102366208Y-123970656D01*
X102255078Y-124136973D01*
X102255071Y-124136986D01*
X102178526Y-124321784D01*
X102178523Y-124321796D01*
X102139500Y-124517977D01*
X102139500Y-124718022D01*
X102178523Y-124914203D01*
X102178526Y-124914215D01*
X102255071Y-125099013D01*
X102255078Y-125099026D01*
X102366208Y-125265343D01*
X102366211Y-125265347D01*
X102381183Y-125280319D01*
X102414668Y-125341642D01*
X102409684Y-125411334D01*
X102381183Y-125455681D01*
X102366211Y-125470652D01*
X102366208Y-125470656D01*
X102255078Y-125636973D01*
X102255071Y-125636986D01*
X102178526Y-125821784D01*
X102178523Y-125821796D01*
X102139500Y-126017977D01*
X102139500Y-126218022D01*
X102178523Y-126414203D01*
X102178526Y-126414215D01*
X102255071Y-126599013D01*
X102255078Y-126599026D01*
X102366208Y-126765343D01*
X102366211Y-126765347D01*
X102381183Y-126780319D01*
X102414668Y-126841642D01*
X102409684Y-126911334D01*
X102381183Y-126955681D01*
X102366211Y-126970652D01*
X102366208Y-126970656D01*
X102255078Y-127136973D01*
X102255071Y-127136986D01*
X102178526Y-127321784D01*
X102178523Y-127321796D01*
X102139500Y-127517977D01*
X102139500Y-127718022D01*
X102178523Y-127914203D01*
X102178526Y-127914215D01*
X102255071Y-128099013D01*
X102255078Y-128099026D01*
X102366208Y-128265343D01*
X102366211Y-128265347D01*
X102381183Y-128280319D01*
X102414668Y-128341642D01*
X102409684Y-128411334D01*
X102381183Y-128455681D01*
X102366211Y-128470652D01*
X102366208Y-128470656D01*
X102255078Y-128636973D01*
X102255071Y-128636986D01*
X102178526Y-128821784D01*
X102178523Y-128821796D01*
X102139500Y-129017977D01*
X102139500Y-129218022D01*
X102178523Y-129414203D01*
X102178526Y-129414215D01*
X102255071Y-129599013D01*
X102255078Y-129599026D01*
X102366208Y-129765343D01*
X102366211Y-129765347D01*
X102381183Y-129780319D01*
X102414668Y-129841642D01*
X102409684Y-129911334D01*
X102381183Y-129955681D01*
X102366211Y-129970652D01*
X102366208Y-129970656D01*
X102255078Y-130136973D01*
X102255071Y-130136986D01*
X102178526Y-130321784D01*
X102178523Y-130321796D01*
X102139500Y-130517977D01*
X102139500Y-130718022D01*
X102178523Y-130914203D01*
X102178526Y-130914215D01*
X102255071Y-131099013D01*
X102255078Y-131099026D01*
X102366208Y-131265343D01*
X102366211Y-131265347D01*
X102381183Y-131280319D01*
X102414668Y-131341642D01*
X102409684Y-131411334D01*
X102381183Y-131455681D01*
X102366211Y-131470652D01*
X102366208Y-131470656D01*
X102255078Y-131636973D01*
X102255071Y-131636986D01*
X102178526Y-131821784D01*
X102178523Y-131821796D01*
X102139500Y-132017977D01*
X102139500Y-132218022D01*
X102178523Y-132414203D01*
X102178526Y-132414215D01*
X102255071Y-132599013D01*
X102255078Y-132599026D01*
X102366208Y-132765343D01*
X102366211Y-132765347D01*
X102507652Y-132906788D01*
X102507656Y-132906791D01*
X102673973Y-133017921D01*
X102673986Y-133017928D01*
X102858784Y-133094473D01*
X102858789Y-133094475D01*
X103054977Y-133133499D01*
X103054981Y-133133500D01*
X103054982Y-133133500D01*
X103955019Y-133133500D01*
X103955020Y-133133499D01*
X104151211Y-133094475D01*
X104336020Y-133017925D01*
X104502344Y-132906791D01*
X104643791Y-132765344D01*
X104754925Y-132599020D01*
X104831475Y-132414211D01*
X104870500Y-132218018D01*
X104870500Y-132116135D01*
X122815500Y-132116135D01*
X122815500Y-133911870D01*
X122815501Y-133911876D01*
X122821908Y-133971483D01*
X122872202Y-134106328D01*
X122872206Y-134106335D01*
X122958452Y-134221544D01*
X122958455Y-134221547D01*
X123073664Y-134307793D01*
X123073671Y-134307797D01*
X123208517Y-134358091D01*
X123208516Y-134358091D01*
X123215444Y-134358835D01*
X123268127Y-134364500D01*
X125063872Y-134364499D01*
X125123483Y-134358091D01*
X125258331Y-134307796D01*
X125373546Y-134221546D01*
X125459796Y-134106331D01*
X125508810Y-133974916D01*
X125550681Y-133918984D01*
X125616145Y-133894566D01*
X125684418Y-133909417D01*
X125712673Y-133930569D01*
X125834599Y-134052495D01*
X125931384Y-134120265D01*
X126028165Y-134188032D01*
X126028167Y-134188033D01*
X126028170Y-134188035D01*
X126242337Y-134287903D01*
X126242343Y-134287904D01*
X126242344Y-134287905D01*
X126297285Y-134302626D01*
X126470592Y-134349063D01*
X126647034Y-134364500D01*
X126705999Y-134369659D01*
X126706000Y-134369659D01*
X126706001Y-134369659D01*
X126764966Y-134364500D01*
X126941408Y-134349063D01*
X127169663Y-134287903D01*
X127383830Y-134188035D01*
X127577401Y-134052495D01*
X127744495Y-133885401D01*
X127874425Y-133699842D01*
X127929002Y-133656217D01*
X127998500Y-133649023D01*
X128060855Y-133680546D01*
X128077575Y-133699842D01*
X128207500Y-133885395D01*
X128207505Y-133885401D01*
X128374599Y-134052495D01*
X128471384Y-134120265D01*
X128568165Y-134188032D01*
X128568167Y-134188033D01*
X128568170Y-134188035D01*
X128782337Y-134287903D01*
X128782343Y-134287904D01*
X128782344Y-134287905D01*
X128837285Y-134302626D01*
X129010592Y-134349063D01*
X129187034Y-134364500D01*
X129245999Y-134369659D01*
X129246000Y-134369659D01*
X129246001Y-134369659D01*
X129304966Y-134364500D01*
X129481408Y-134349063D01*
X129709663Y-134287903D01*
X129923830Y-134188035D01*
X130117401Y-134052495D01*
X130284495Y-133885401D01*
X130414425Y-133699842D01*
X130469002Y-133656217D01*
X130538500Y-133649023D01*
X130600855Y-133680546D01*
X130617575Y-133699842D01*
X130747500Y-133885395D01*
X130747505Y-133885401D01*
X130914599Y-134052495D01*
X131011384Y-134120265D01*
X131108165Y-134188032D01*
X131108167Y-134188033D01*
X131108170Y-134188035D01*
X131322337Y-134287903D01*
X131322343Y-134287904D01*
X131322344Y-134287905D01*
X131377285Y-134302626D01*
X131550592Y-134349063D01*
X131727034Y-134364500D01*
X131785999Y-134369659D01*
X131786000Y-134369659D01*
X131786001Y-134369659D01*
X131844966Y-134364500D01*
X132021408Y-134349063D01*
X132249663Y-134287903D01*
X132463830Y-134188035D01*
X132657401Y-134052495D01*
X132824495Y-133885401D01*
X132960035Y-133691830D01*
X133059903Y-133477663D01*
X133121063Y-133249408D01*
X133141659Y-133014000D01*
X133121063Y-132778592D01*
X133072946Y-132599013D01*
X133059905Y-132550344D01*
X133059904Y-132550343D01*
X133059903Y-132550337D01*
X132960035Y-132336171D01*
X132954425Y-132328158D01*
X132824494Y-132142597D01*
X132784032Y-132102135D01*
X134649500Y-132102135D01*
X134649500Y-133897870D01*
X134649501Y-133897876D01*
X134655908Y-133957483D01*
X134706202Y-134092328D01*
X134706206Y-134092335D01*
X134792452Y-134207544D01*
X134792455Y-134207547D01*
X134907664Y-134293793D01*
X134907671Y-134293797D01*
X134969902Y-134317007D01*
X135039598Y-134343002D01*
X135095531Y-134384873D01*
X135119949Y-134450337D01*
X135105098Y-134518610D01*
X135083947Y-134546865D01*
X134961886Y-134668926D01*
X134826400Y-134862420D01*
X134826399Y-134862422D01*
X134726570Y-135076507D01*
X134726567Y-135076513D01*
X134669364Y-135289999D01*
X134669364Y-135290000D01*
X135566988Y-135290000D01*
X135534075Y-135347007D01*
X135500000Y-135474174D01*
X135500000Y-135605826D01*
X135534075Y-135732993D01*
X135566988Y-135790000D01*
X134669364Y-135790000D01*
X134726567Y-136003486D01*
X134726570Y-136003492D01*
X134826399Y-136217578D01*
X134961894Y-136411082D01*
X135128917Y-136578105D01*
X135322421Y-136713600D01*
X135536507Y-136813429D01*
X135536516Y-136813433D01*
X135750000Y-136870634D01*
X135750000Y-135973012D01*
X135807007Y-136005925D01*
X135934174Y-136040000D01*
X136065826Y-136040000D01*
X136192993Y-136005925D01*
X136250000Y-135973012D01*
X136250000Y-136870633D01*
X136463483Y-136813433D01*
X136463492Y-136813429D01*
X136677578Y-136713600D01*
X136871082Y-136578105D01*
X137038105Y-136411082D01*
X137173600Y-136217578D01*
X137273429Y-136003492D01*
X137273432Y-136003486D01*
X137330636Y-135790000D01*
X136433012Y-135790000D01*
X136465925Y-135732993D01*
X136500000Y-135605826D01*
X136500000Y-135474174D01*
X136465925Y-135347007D01*
X136433012Y-135290000D01*
X137330636Y-135290000D01*
X137330635Y-135289999D01*
X137273432Y-135076513D01*
X137273429Y-135076507D01*
X137173600Y-134862422D01*
X137173599Y-134862420D01*
X137038113Y-134668926D01*
X137038108Y-134668920D01*
X136916053Y-134546865D01*
X136882568Y-134485542D01*
X136887552Y-134415850D01*
X136929424Y-134359917D01*
X136960400Y-134343002D01*
X137092331Y-134293796D01*
X137207546Y-134207546D01*
X137293796Y-134092331D01*
X137344091Y-133957483D01*
X137350500Y-133897873D01*
X137350499Y-132102128D01*
X137344091Y-132042517D01*
X137334938Y-132017977D01*
X137293797Y-131907671D01*
X137293793Y-131907664D01*
X137207547Y-131792455D01*
X137207544Y-131792452D01*
X137092335Y-131706206D01*
X137092328Y-131706202D01*
X136957482Y-131655908D01*
X136957483Y-131655908D01*
X136897883Y-131649501D01*
X136897881Y-131649500D01*
X136897873Y-131649500D01*
X136897864Y-131649500D01*
X135102129Y-131649500D01*
X135102123Y-131649501D01*
X135042516Y-131655908D01*
X134907671Y-131706202D01*
X134907664Y-131706206D01*
X134792455Y-131792452D01*
X134792452Y-131792455D01*
X134706206Y-131907664D01*
X134706202Y-131907671D01*
X134655908Y-132042517D01*
X134650005Y-132097430D01*
X134649501Y-132102123D01*
X134649500Y-132102135D01*
X132784032Y-132102135D01*
X132657402Y-131975506D01*
X132657395Y-131975501D01*
X132463834Y-131839967D01*
X132463830Y-131839965D01*
X132463828Y-131839964D01*
X132249663Y-131740097D01*
X132249659Y-131740096D01*
X132249655Y-131740094D01*
X132021413Y-131678938D01*
X132021403Y-131678936D01*
X131786001Y-131658341D01*
X131785999Y-131658341D01*
X131550596Y-131678936D01*
X131550586Y-131678938D01*
X131322344Y-131740094D01*
X131322335Y-131740098D01*
X131108171Y-131839964D01*
X131108169Y-131839965D01*
X130914597Y-131975505D01*
X130747505Y-132142597D01*
X130617575Y-132328158D01*
X130562998Y-132371783D01*
X130493500Y-132378977D01*
X130431145Y-132347454D01*
X130414425Y-132328158D01*
X130284494Y-132142597D01*
X130117402Y-131975506D01*
X130117395Y-131975501D01*
X129923834Y-131839967D01*
X129923830Y-131839965D01*
X129923828Y-131839964D01*
X129709663Y-131740097D01*
X129709659Y-131740096D01*
X129709655Y-131740094D01*
X129481413Y-131678938D01*
X129481403Y-131678936D01*
X129246001Y-131658341D01*
X129245999Y-131658341D01*
X129010596Y-131678936D01*
X129010586Y-131678938D01*
X128782344Y-131740094D01*
X128782335Y-131740098D01*
X128568171Y-131839964D01*
X128568169Y-131839965D01*
X128374597Y-131975505D01*
X128207505Y-132142597D01*
X128077575Y-132328158D01*
X128022998Y-132371783D01*
X127953500Y-132378977D01*
X127891145Y-132347454D01*
X127874425Y-132328158D01*
X127744494Y-132142597D01*
X127577402Y-131975506D01*
X127577395Y-131975501D01*
X127383834Y-131839967D01*
X127383830Y-131839965D01*
X127383828Y-131839964D01*
X127169663Y-131740097D01*
X127169659Y-131740096D01*
X127169655Y-131740094D01*
X126941413Y-131678938D01*
X126941403Y-131678936D01*
X126706001Y-131658341D01*
X126705999Y-131658341D01*
X126470596Y-131678936D01*
X126470586Y-131678938D01*
X126242344Y-131740094D01*
X126242335Y-131740098D01*
X126028171Y-131839964D01*
X126028169Y-131839965D01*
X125834600Y-131975503D01*
X125712673Y-132097430D01*
X125651350Y-132130914D01*
X125581658Y-132125930D01*
X125525725Y-132084058D01*
X125508810Y-132053081D01*
X125459797Y-131921671D01*
X125459793Y-131921664D01*
X125373547Y-131806455D01*
X125373544Y-131806452D01*
X125258335Y-131720206D01*
X125258328Y-131720202D01*
X125123482Y-131669908D01*
X125123483Y-131669908D01*
X125063883Y-131663501D01*
X125063881Y-131663500D01*
X125063873Y-131663500D01*
X125063864Y-131663500D01*
X123268129Y-131663500D01*
X123268123Y-131663501D01*
X123208516Y-131669908D01*
X123073671Y-131720202D01*
X123073664Y-131720206D01*
X122958455Y-131806452D01*
X122958452Y-131806455D01*
X122872206Y-131921664D01*
X122872202Y-131921671D01*
X122821908Y-132056517D01*
X122815501Y-132116116D01*
X122815500Y-132116135D01*
X104870500Y-132116135D01*
X104870500Y-132017982D01*
X104831475Y-131821789D01*
X104831473Y-131821784D01*
X104754928Y-131636986D01*
X104754921Y-131636973D01*
X104707091Y-131565391D01*
X104686213Y-131498714D01*
X104704697Y-131431334D01*
X104756676Y-131384643D01*
X104810193Y-131372500D01*
X138541554Y-131372500D01*
X138541574Y-131372501D01*
X138547688Y-131372501D01*
X138696314Y-131372501D01*
X138817894Y-131348315D01*
X138817894Y-131348316D01*
X138817900Y-131348313D01*
X138842080Y-131343505D01*
X138907336Y-131316475D01*
X138979389Y-131286630D01*
X139052609Y-131237705D01*
X139119287Y-131216828D01*
X139186667Y-131235313D01*
X139233357Y-131287292D01*
X139245500Y-131340808D01*
X139245500Y-131525500D01*
X139225815Y-131592539D01*
X139173011Y-131638294D01*
X139121505Y-131649500D01*
X139102132Y-131649500D01*
X139102123Y-131649501D01*
X139042516Y-131655908D01*
X138907671Y-131706202D01*
X138907664Y-131706206D01*
X138792455Y-131792452D01*
X138792452Y-131792455D01*
X138706206Y-131907664D01*
X138706202Y-131907671D01*
X138655908Y-132042517D01*
X138650005Y-132097430D01*
X138649501Y-132102123D01*
X138649500Y-132102135D01*
X138649500Y-133897870D01*
X138649501Y-133897876D01*
X138655908Y-133957483D01*
X138706202Y-134092328D01*
X138706206Y-134092335D01*
X138792452Y-134207544D01*
X138792455Y-134207547D01*
X138907664Y-134293793D01*
X138907671Y-134293797D01*
X138969902Y-134317007D01*
X139039598Y-134343002D01*
X139095531Y-134384873D01*
X139119949Y-134450337D01*
X139105098Y-134518610D01*
X139083947Y-134546865D01*
X138961886Y-134668926D01*
X138826400Y-134862420D01*
X138826399Y-134862422D01*
X138726570Y-135076507D01*
X138726567Y-135076513D01*
X138669364Y-135289999D01*
X138669364Y-135290000D01*
X139566988Y-135290000D01*
X139534075Y-135347007D01*
X139500000Y-135474174D01*
X139500000Y-135605826D01*
X139534075Y-135732993D01*
X139566988Y-135790000D01*
X138669364Y-135790000D01*
X138726567Y-136003486D01*
X138726570Y-136003492D01*
X138826399Y-136217578D01*
X138961894Y-136411082D01*
X139128917Y-136578105D01*
X139322421Y-136713600D01*
X139536507Y-136813429D01*
X139536516Y-136813433D01*
X139750000Y-136870634D01*
X139750000Y-135973012D01*
X139807007Y-136005925D01*
X139934174Y-136040000D01*
X140065826Y-136040000D01*
X140192993Y-136005925D01*
X140250000Y-135973012D01*
X140250000Y-136870633D01*
X140463483Y-136813433D01*
X140463492Y-136813429D01*
X140677578Y-136713600D01*
X140871082Y-136578105D01*
X141038105Y-136411082D01*
X141173600Y-136217578D01*
X141273429Y-136003492D01*
X141273432Y-136003486D01*
X141330636Y-135790000D01*
X140433012Y-135790000D01*
X140465925Y-135732993D01*
X140500000Y-135605826D01*
X140500000Y-135474174D01*
X140465925Y-135347007D01*
X140433012Y-135290000D01*
X141330636Y-135290000D01*
X141330635Y-135289999D01*
X141273432Y-135076513D01*
X141273429Y-135076507D01*
X141173600Y-134862422D01*
X141173599Y-134862420D01*
X141038113Y-134668926D01*
X141038108Y-134668920D01*
X140916053Y-134546865D01*
X140882568Y-134485542D01*
X140887552Y-134415850D01*
X140912966Y-134381902D01*
X145999500Y-134381902D01*
X145999500Y-134618097D01*
X146036446Y-134851368D01*
X146109433Y-135075996D01*
X146216657Y-135286433D01*
X146355483Y-135477510D01*
X146522490Y-135644517D01*
X146713567Y-135783343D01*
X146781646Y-135818031D01*
X146924003Y-135890566D01*
X146924005Y-135890566D01*
X146924008Y-135890568D01*
X147044412Y-135929689D01*
X147148631Y-135963553D01*
X147381903Y-136000500D01*
X147381908Y-136000500D01*
X147618097Y-136000500D01*
X147851368Y-135963553D01*
X148075992Y-135890568D01*
X148286433Y-135783343D01*
X148477510Y-135644517D01*
X148644517Y-135477510D01*
X148783343Y-135286433D01*
X148890568Y-135075992D01*
X148963553Y-134851368D01*
X148992450Y-134668920D01*
X149000500Y-134618097D01*
X149000500Y-134381902D01*
X148963553Y-134148631D01*
X148907109Y-133974917D01*
X148890568Y-133924008D01*
X148890566Y-133924005D01*
X148890566Y-133924003D01*
X148783342Y-133713566D01*
X148759647Y-133680953D01*
X148644517Y-133522490D01*
X148477510Y-133355483D01*
X148286433Y-133216657D01*
X148075996Y-133109433D01*
X147851368Y-133036446D01*
X147618097Y-132999500D01*
X147618092Y-132999500D01*
X147381908Y-132999500D01*
X147381903Y-132999500D01*
X147148631Y-133036446D01*
X146924003Y-133109433D01*
X146713566Y-133216657D01*
X146668496Y-133249403D01*
X146522490Y-133355483D01*
X146522488Y-133355485D01*
X146522487Y-133355485D01*
X146355485Y-133522487D01*
X146355485Y-133522488D01*
X146355483Y-133522490D01*
X146295862Y-133604550D01*
X146216657Y-133713566D01*
X146109433Y-133924003D01*
X146036446Y-134148631D01*
X145999500Y-134381902D01*
X140912966Y-134381902D01*
X140929424Y-134359917D01*
X140960400Y-134343002D01*
X141092331Y-134293796D01*
X141207546Y-134207546D01*
X141293796Y-134092331D01*
X141344091Y-133957483D01*
X141350500Y-133897873D01*
X141350499Y-132102128D01*
X141344091Y-132042517D01*
X141334938Y-132017977D01*
X141293797Y-131907671D01*
X141293793Y-131907664D01*
X141207547Y-131792455D01*
X141207544Y-131792452D01*
X141092335Y-131706206D01*
X141092328Y-131706202D01*
X140957482Y-131655908D01*
X140957483Y-131655908D01*
X140897883Y-131649501D01*
X140897881Y-131649500D01*
X140897873Y-131649500D01*
X140897865Y-131649500D01*
X140878500Y-131649500D01*
X140811461Y-131629815D01*
X140765706Y-131577011D01*
X140754500Y-131525500D01*
X140754500Y-131307500D01*
X140774185Y-131240461D01*
X140826989Y-131194706D01*
X140878500Y-131183500D01*
X142419688Y-131183500D01*
X151086380Y-131183500D01*
X151153419Y-131203185D01*
X151199174Y-131255989D01*
X151209118Y-131325147D01*
X151204088Y-131346493D01*
X151182603Y-131411334D01*
X151179000Y-131422206D01*
X151168500Y-131524983D01*
X151168500Y-132155001D01*
X151168501Y-132155019D01*
X151179000Y-132257796D01*
X151179001Y-132257799D01*
X151208710Y-132347454D01*
X151234186Y-132424334D01*
X151326288Y-132573656D01*
X151450344Y-132697712D01*
X151599666Y-132789814D01*
X151766203Y-132844999D01*
X151868991Y-132855500D01*
X153199008Y-132855499D01*
X153301797Y-132844999D01*
X153468334Y-132789814D01*
X153617656Y-132697712D01*
X153741712Y-132573656D01*
X153833814Y-132424334D01*
X153888999Y-132257797D01*
X153899500Y-132155009D01*
X153899499Y-131524992D01*
X153888999Y-131422203D01*
X153833814Y-131255666D01*
X153741712Y-131106344D01*
X153724690Y-131089322D01*
X153691205Y-131027999D01*
X153696189Y-130958307D01*
X153709269Y-130932750D01*
X153721654Y-130914215D01*
X153783925Y-130821020D01*
X153860475Y-130636211D01*
X153899500Y-130440018D01*
X153899500Y-130239982D01*
X153860475Y-130043789D01*
X153860473Y-130043784D01*
X153783928Y-129858986D01*
X153783921Y-129858973D01*
X153672792Y-129692657D01*
X153672791Y-129692656D01*
X153657816Y-129677681D01*
X153624331Y-129616361D01*
X153629314Y-129546669D01*
X153657816Y-129502318D01*
X153672791Y-129487344D01*
X153783925Y-129321020D01*
X153860475Y-129136211D01*
X153899500Y-128940018D01*
X153899500Y-128739982D01*
X153860475Y-128543789D01*
X153830183Y-128470657D01*
X153783928Y-128358986D01*
X153783921Y-128358973D01*
X153672792Y-128192657D01*
X153672787Y-128192652D01*
X153657816Y-128177681D01*
X153624331Y-128116361D01*
X153629314Y-128046669D01*
X153657816Y-128002318D01*
X153672791Y-127987344D01*
X153783925Y-127821020D01*
X153860475Y-127636211D01*
X153899500Y-127440018D01*
X153899500Y-127239982D01*
X153860475Y-127043789D01*
X153830183Y-126970657D01*
X153783928Y-126858986D01*
X153783921Y-126858973D01*
X153672792Y-126692657D01*
X153672787Y-126692652D01*
X153657816Y-126677681D01*
X153624331Y-126616361D01*
X153629314Y-126546669D01*
X153657816Y-126502318D01*
X153672791Y-126487344D01*
X153783925Y-126321020D01*
X153860475Y-126136211D01*
X153899500Y-125940018D01*
X153899500Y-125739982D01*
X153860475Y-125543789D01*
X153854038Y-125528249D01*
X153783928Y-125358986D01*
X153783921Y-125358973D01*
X153672792Y-125192657D01*
X153672787Y-125192652D01*
X153657816Y-125177681D01*
X153624331Y-125116361D01*
X153629314Y-125046669D01*
X153657816Y-125002318D01*
X153672791Y-124987344D01*
X153783925Y-124821020D01*
X153860475Y-124636211D01*
X153899500Y-124440018D01*
X153899500Y-124239982D01*
X153860475Y-124043789D01*
X153830183Y-123970657D01*
X153783928Y-123858986D01*
X153783921Y-123858973D01*
X153672792Y-123692657D01*
X153672787Y-123692652D01*
X153657816Y-123677681D01*
X153624331Y-123616361D01*
X153629314Y-123546669D01*
X153657816Y-123502318D01*
X153672791Y-123487344D01*
X153783925Y-123321020D01*
X153860475Y-123136211D01*
X153899500Y-122940018D01*
X153899500Y-122739982D01*
X153860475Y-122543789D01*
X153830183Y-122470657D01*
X153783928Y-122358986D01*
X153783921Y-122358973D01*
X153672792Y-122192657D01*
X153672787Y-122192652D01*
X153657816Y-122177681D01*
X153624331Y-122116361D01*
X153629314Y-122046669D01*
X153657816Y-122002318D01*
X153672791Y-121987344D01*
X153783925Y-121821020D01*
X153860475Y-121636211D01*
X153899500Y-121440018D01*
X153899500Y-121239982D01*
X153860475Y-121043789D01*
X153831338Y-120973445D01*
X153783928Y-120858986D01*
X153783921Y-120858973D01*
X153672792Y-120692657D01*
X153669991Y-120689856D01*
X153657816Y-120677681D01*
X153624331Y-120616361D01*
X153629314Y-120546669D01*
X153657816Y-120502318D01*
X153672791Y-120487344D01*
X153783925Y-120321020D01*
X153860475Y-120136211D01*
X153899500Y-119940018D01*
X153899500Y-119739982D01*
X153860475Y-119543789D01*
X153830183Y-119470657D01*
X153783928Y-119358986D01*
X153783921Y-119358973D01*
X153672792Y-119192657D01*
X153672787Y-119192652D01*
X153657816Y-119177681D01*
X153624331Y-119116361D01*
X153629314Y-119046669D01*
X153657816Y-119002318D01*
X153672791Y-118987344D01*
X153783925Y-118821020D01*
X153784633Y-118819312D01*
X153826589Y-118718019D01*
X153860475Y-118636211D01*
X153899500Y-118440018D01*
X153899500Y-118239982D01*
X153860475Y-118043789D01*
X153860473Y-118043784D01*
X153783928Y-117858986D01*
X153783921Y-117858973D01*
X153672792Y-117692657D01*
X153672787Y-117692652D01*
X153657816Y-117677681D01*
X153624331Y-117616361D01*
X153629314Y-117546669D01*
X153657816Y-117502318D01*
X153672791Y-117487344D01*
X153783925Y-117321020D01*
X153860475Y-117136211D01*
X153899500Y-116940018D01*
X153899500Y-116739982D01*
X153860475Y-116543789D01*
X153837950Y-116489409D01*
X153783928Y-116358986D01*
X153783921Y-116358973D01*
X153672792Y-116192657D01*
X153672787Y-116192652D01*
X153657816Y-116177681D01*
X153624331Y-116116361D01*
X153629314Y-116046669D01*
X153657816Y-116002318D01*
X153672791Y-115987344D01*
X153783925Y-115821020D01*
X153860475Y-115636211D01*
X153899500Y-115440018D01*
X153899500Y-115239982D01*
X153860475Y-115043789D01*
X153836766Y-114986550D01*
X153783928Y-114858986D01*
X153783921Y-114858973D01*
X153672791Y-114692656D01*
X153672788Y-114692652D01*
X153531347Y-114551211D01*
X153531343Y-114551208D01*
X153365026Y-114440078D01*
X153365013Y-114440071D01*
X153180215Y-114363526D01*
X153180203Y-114363523D01*
X152984022Y-114324500D01*
X152984018Y-114324500D01*
X152083982Y-114324500D01*
X152083977Y-114324500D01*
X151887796Y-114363523D01*
X151887784Y-114363526D01*
X151702986Y-114440071D01*
X151702973Y-114440078D01*
X151536656Y-114551208D01*
X151536652Y-114551211D01*
X151395211Y-114692652D01*
X151395208Y-114692656D01*
X151284078Y-114858973D01*
X151284071Y-114858986D01*
X151207526Y-115043784D01*
X151207523Y-115043796D01*
X151168500Y-115239977D01*
X151168500Y-115440022D01*
X151207523Y-115636203D01*
X151207526Y-115636215D01*
X151284071Y-115821013D01*
X151284078Y-115821026D01*
X151395208Y-115987343D01*
X151395211Y-115987347D01*
X151410183Y-116002319D01*
X151443668Y-116063642D01*
X151438684Y-116133334D01*
X151410183Y-116177681D01*
X151395211Y-116192652D01*
X151395208Y-116192656D01*
X151284078Y-116358973D01*
X151284071Y-116358986D01*
X151207526Y-116543784D01*
X151207523Y-116543796D01*
X151168500Y-116739977D01*
X151168500Y-116940022D01*
X151207523Y-117136203D01*
X151207526Y-117136215D01*
X151284071Y-117321013D01*
X151284078Y-117321026D01*
X151395208Y-117487343D01*
X151395211Y-117487347D01*
X151410183Y-117502319D01*
X151443668Y-117563642D01*
X151438684Y-117633334D01*
X151410183Y-117677681D01*
X151395211Y-117692652D01*
X151395208Y-117692656D01*
X151284078Y-117858973D01*
X151284071Y-117858986D01*
X151207526Y-118043784D01*
X151207523Y-118043796D01*
X151168500Y-118239977D01*
X151168500Y-118440022D01*
X151207523Y-118636203D01*
X151207526Y-118636215D01*
X151284071Y-118821013D01*
X151284078Y-118821026D01*
X151395208Y-118987343D01*
X151395211Y-118987347D01*
X151410183Y-119002319D01*
X151443668Y-119063642D01*
X151438684Y-119133334D01*
X151410183Y-119177681D01*
X151395211Y-119192652D01*
X151395208Y-119192656D01*
X151284078Y-119358973D01*
X151284071Y-119358986D01*
X151207526Y-119543784D01*
X151207523Y-119543796D01*
X151168500Y-119739977D01*
X151168500Y-119940022D01*
X151207523Y-120136203D01*
X151207526Y-120136215D01*
X151284071Y-120321013D01*
X151284078Y-120321026D01*
X151395208Y-120487343D01*
X151395211Y-120487347D01*
X151410183Y-120502319D01*
X151443668Y-120563642D01*
X151438684Y-120633334D01*
X151410183Y-120677681D01*
X151395211Y-120692652D01*
X151395208Y-120692656D01*
X151284078Y-120858973D01*
X151284071Y-120858986D01*
X151207526Y-121043784D01*
X151207523Y-121043796D01*
X151168500Y-121239977D01*
X151168500Y-121440022D01*
X151207523Y-121636203D01*
X151207526Y-121636215D01*
X151284071Y-121821013D01*
X151284078Y-121821026D01*
X151395208Y-121987343D01*
X151395211Y-121987347D01*
X151410183Y-122002319D01*
X151443668Y-122063642D01*
X151438684Y-122133334D01*
X151410183Y-122177681D01*
X151395211Y-122192652D01*
X151395208Y-122192656D01*
X151284078Y-122358973D01*
X151284071Y-122358986D01*
X151207526Y-122543784D01*
X151207523Y-122543796D01*
X151168500Y-122739977D01*
X151168500Y-122940022D01*
X151207523Y-123136203D01*
X151207526Y-123136215D01*
X151284071Y-123321013D01*
X151284078Y-123321026D01*
X151395208Y-123487343D01*
X151395211Y-123487347D01*
X151410183Y-123502319D01*
X151443668Y-123563642D01*
X151438684Y-123633334D01*
X151410183Y-123677681D01*
X151395211Y-123692652D01*
X151395208Y-123692656D01*
X151284078Y-123858973D01*
X151284071Y-123858986D01*
X151207526Y-124043784D01*
X151207523Y-124043796D01*
X151168500Y-124239977D01*
X151168500Y-124440022D01*
X151207523Y-124636203D01*
X151207526Y-124636215D01*
X151284071Y-124821013D01*
X151284078Y-124821026D01*
X151395208Y-124987343D01*
X151395211Y-124987347D01*
X151410183Y-125002319D01*
X151443668Y-125063642D01*
X151438684Y-125133334D01*
X151410183Y-125177681D01*
X151395211Y-125192652D01*
X151395208Y-125192656D01*
X151284078Y-125358973D01*
X151284071Y-125358986D01*
X151207526Y-125543784D01*
X151207523Y-125543796D01*
X151168500Y-125739977D01*
X151168500Y-125940022D01*
X151207523Y-126136203D01*
X151207526Y-126136215D01*
X151284071Y-126321013D01*
X151284078Y-126321026D01*
X151395208Y-126487343D01*
X151395211Y-126487347D01*
X151410183Y-126502319D01*
X151443668Y-126563642D01*
X151438684Y-126633334D01*
X151410183Y-126677681D01*
X151395211Y-126692652D01*
X151395208Y-126692656D01*
X151284078Y-126858973D01*
X151284071Y-126858986D01*
X151207526Y-127043784D01*
X151207523Y-127043796D01*
X151168500Y-127239977D01*
X151168500Y-127440022D01*
X151207523Y-127636203D01*
X151207526Y-127636215D01*
X151284071Y-127821013D01*
X151284078Y-127821026D01*
X151395208Y-127987343D01*
X151395211Y-127987347D01*
X151410183Y-128002319D01*
X151443668Y-128063642D01*
X151438684Y-128133334D01*
X151410183Y-128177681D01*
X151395211Y-128192652D01*
X151395208Y-128192656D01*
X151284078Y-128358973D01*
X151284071Y-128358986D01*
X151207526Y-128543784D01*
X151207523Y-128543796D01*
X151168500Y-128739977D01*
X151168500Y-128940022D01*
X151207523Y-129136203D01*
X151207526Y-129136215D01*
X151284071Y-129321013D01*
X151284078Y-129321026D01*
X151391377Y-129481609D01*
X151412255Y-129548286D01*
X151393771Y-129615667D01*
X151341792Y-129662357D01*
X151288275Y-129674500D01*
X138158886Y-129674500D01*
X138091847Y-129654815D01*
X138071205Y-129638181D01*
X137935340Y-129502316D01*
X137767966Y-129334941D01*
X136045819Y-127612794D01*
X136012334Y-127551471D01*
X136009500Y-127525113D01*
X136009500Y-122889473D01*
X136029185Y-122822434D01*
X136081989Y-122776679D01*
X136151147Y-122766735D01*
X136174455Y-122772431D01*
X136345745Y-122832368D01*
X136345750Y-122832369D01*
X136524996Y-122852565D01*
X136525000Y-122852565D01*
X136525004Y-122852565D01*
X136704249Y-122832369D01*
X136704252Y-122832368D01*
X136704255Y-122832368D01*
X136874522Y-122772789D01*
X137027262Y-122676816D01*
X137154816Y-122549262D01*
X137250789Y-122396522D01*
X137310368Y-122226255D01*
X137310369Y-122226249D01*
X137330565Y-122047003D01*
X137330565Y-122046996D01*
X137310369Y-121867750D01*
X137310368Y-121867745D01*
X137276440Y-121770784D01*
X137250789Y-121697478D01*
X137232894Y-121668999D01*
X137200885Y-121618057D01*
X137154816Y-121544738D01*
X137154814Y-121544736D01*
X137154813Y-121544734D01*
X137152550Y-121541896D01*
X137151659Y-121539715D01*
X137151111Y-121538842D01*
X137151264Y-121538745D01*
X137126144Y-121477209D01*
X137125500Y-121464587D01*
X137125500Y-118707059D01*
X137125501Y-118707046D01*
X137125501Y-118538945D01*
X137125501Y-118538943D01*
X137084577Y-118386215D01*
X137021445Y-118276868D01*
X137005520Y-118249284D01*
X137005518Y-118249282D01*
X137005517Y-118249280D01*
X136889397Y-118133160D01*
X136889374Y-118133139D01*
X132564590Y-113808355D01*
X132564588Y-113808352D01*
X132445717Y-113689481D01*
X132445716Y-113689480D01*
X132348793Y-113633522D01*
X132308785Y-113610423D01*
X132156057Y-113569499D01*
X131997943Y-113569499D01*
X131990347Y-113569499D01*
X131990331Y-113569500D01*
X119657153Y-113569500D01*
X119590114Y-113549815D01*
X119544359Y-113497011D01*
X119533933Y-113431616D01*
X119550565Y-113284002D01*
X119550565Y-113283996D01*
X119530369Y-113104750D01*
X119530368Y-113104745D01*
X119470789Y-112934478D01*
X119453462Y-112906903D01*
X119407522Y-112833790D01*
X119374816Y-112781738D01*
X119247262Y-112654184D01*
X119094521Y-112558210D01*
X118940742Y-112504401D01*
X118924255Y-112498632D01*
X118924254Y-112498631D01*
X118924249Y-112498630D01*
X118837330Y-112488837D01*
X118772916Y-112461770D01*
X118763533Y-112453298D01*
X117862668Y-111552433D01*
X117829183Y-111491110D01*
X117826822Y-111475566D01*
X117821035Y-111409409D01*
X117763723Y-111195520D01*
X117670142Y-110994833D01*
X117543132Y-110813445D01*
X117386555Y-110656868D01*
X117205167Y-110529858D01*
X117081907Y-110472381D01*
X117029468Y-110426210D01*
X117010316Y-110359017D01*
X117030531Y-110292136D01*
X117081908Y-110247618D01*
X117205167Y-110190142D01*
X117386555Y-110063132D01*
X117543132Y-109906555D01*
X117670142Y-109725167D01*
X117763723Y-109524480D01*
X117821035Y-109310591D01*
X117840334Y-109090000D01*
X117835244Y-109031826D01*
X117834820Y-109026974D01*
X117821035Y-108869409D01*
X117763723Y-108655520D01*
X117670142Y-108454833D01*
X117543132Y-108273445D01*
X117386555Y-108116868D01*
X117205167Y-107989858D01*
X117081907Y-107932381D01*
X117029468Y-107886210D01*
X117010316Y-107819017D01*
X117030531Y-107752136D01*
X117081908Y-107707618D01*
X117106823Y-107696000D01*
X117205167Y-107650142D01*
X117386555Y-107523132D01*
X117543132Y-107366555D01*
X117670142Y-107185167D01*
X117763723Y-106984480D01*
X117821035Y-106770591D01*
X117840334Y-106550000D01*
X117835244Y-106491826D01*
X117834820Y-106486974D01*
X117821035Y-106329409D01*
X117763723Y-106115520D01*
X117670142Y-105914833D01*
X117543132Y-105733445D01*
X117386555Y-105576868D01*
X117205167Y-105449858D01*
X117081907Y-105392381D01*
X117029468Y-105346210D01*
X117010316Y-105279017D01*
X117030531Y-105212136D01*
X117081908Y-105167618D01*
X117106823Y-105156000D01*
X117205167Y-105110142D01*
X117386555Y-104983132D01*
X117543132Y-104826555D01*
X117670142Y-104645167D01*
X117763723Y-104444480D01*
X117821035Y-104230591D01*
X117840334Y-104010000D01*
X117835244Y-103951826D01*
X117834820Y-103946974D01*
X117821035Y-103789409D01*
X117763723Y-103575520D01*
X117670142Y-103374833D01*
X117543132Y-103193445D01*
X117386555Y-103036868D01*
X117205167Y-102909858D01*
X117081907Y-102852381D01*
X117029468Y-102806210D01*
X117010316Y-102739017D01*
X117030531Y-102672136D01*
X117081908Y-102627618D01*
X117106823Y-102616000D01*
X117205167Y-102570142D01*
X117386555Y-102443132D01*
X117543132Y-102286555D01*
X117670142Y-102105167D01*
X117763723Y-101904480D01*
X117821035Y-101690591D01*
X117840334Y-101470000D01*
X117835244Y-101411826D01*
X117834820Y-101406974D01*
X117821035Y-101249409D01*
X117763723Y-101035520D01*
X117670142Y-100834833D01*
X117543132Y-100653445D01*
X117386555Y-100496868D01*
X117205167Y-100369858D01*
X117081907Y-100312381D01*
X117029468Y-100266210D01*
X117010316Y-100199017D01*
X117030531Y-100132136D01*
X117081908Y-100087618D01*
X117106823Y-100076000D01*
X117205167Y-100030142D01*
X117386555Y-99903132D01*
X117543132Y-99746555D01*
X117670142Y-99565167D01*
X117763723Y-99364480D01*
X117777250Y-99313996D01*
X123019435Y-99313996D01*
X123019435Y-99314003D01*
X123039630Y-99493249D01*
X123039631Y-99493254D01*
X123099211Y-99663523D01*
X123148636Y-99742181D01*
X123187731Y-99804401D01*
X123195185Y-99816263D01*
X123197445Y-99819097D01*
X123198334Y-99821275D01*
X123198889Y-99822158D01*
X123198734Y-99822255D01*
X123223855Y-99883783D01*
X123224500Y-99896412D01*
X123224500Y-107736330D01*
X123224499Y-107736348D01*
X123224499Y-107902054D01*
X123224498Y-107902054D01*
X123230533Y-107924575D01*
X123265348Y-108054506D01*
X123265423Y-108054784D01*
X123266290Y-108056877D01*
X123274950Y-108090450D01*
X123293630Y-108256249D01*
X123293631Y-108256254D01*
X123353211Y-108426523D01*
X123400959Y-108502513D01*
X123449184Y-108579262D01*
X123576738Y-108706816D01*
X123729478Y-108802789D01*
X123886079Y-108857586D01*
X123899745Y-108862368D01*
X123899750Y-108862369D01*
X124078996Y-108882565D01*
X124079000Y-108882565D01*
X124079004Y-108882565D01*
X124258249Y-108862369D01*
X124258252Y-108862368D01*
X124258255Y-108862368D01*
X124428522Y-108802789D01*
X124581262Y-108706816D01*
X124708816Y-108579262D01*
X124804789Y-108426522D01*
X124864368Y-108256255D01*
X124868236Y-108221926D01*
X124884565Y-108077003D01*
X124884565Y-108076996D01*
X124864369Y-107897750D01*
X124864368Y-107897745D01*
X124843800Y-107838965D01*
X124804789Y-107727478D01*
X124799148Y-107718501D01*
X124756196Y-107650143D01*
X124708816Y-107574738D01*
X124581262Y-107447184D01*
X124581260Y-107447182D01*
X124483527Y-107385772D01*
X124437237Y-107333438D01*
X124425500Y-107280779D01*
X124425500Y-99896412D01*
X124445185Y-99829373D01*
X124452555Y-99819097D01*
X124454810Y-99816267D01*
X124454816Y-99816262D01*
X124550789Y-99663522D01*
X124610368Y-99493255D01*
X124610369Y-99493249D01*
X124630565Y-99314003D01*
X124630565Y-99313996D01*
X124610369Y-99134750D01*
X124610368Y-99134745D01*
X124550788Y-98964476D01*
X124492572Y-98871826D01*
X124454816Y-98811738D01*
X124327262Y-98684184D01*
X124213985Y-98613007D01*
X124174523Y-98588211D01*
X124004254Y-98528631D01*
X124004249Y-98528630D01*
X123825004Y-98508435D01*
X123824996Y-98508435D01*
X123645750Y-98528630D01*
X123645745Y-98528631D01*
X123475476Y-98588211D01*
X123322737Y-98684184D01*
X123195184Y-98811737D01*
X123099211Y-98964476D01*
X123039631Y-99134745D01*
X123039630Y-99134750D01*
X123019435Y-99313996D01*
X117777250Y-99313996D01*
X117821035Y-99150591D01*
X117840334Y-98930000D01*
X117835244Y-98871826D01*
X117834820Y-98866974D01*
X117821035Y-98709409D01*
X117763723Y-98495520D01*
X117670142Y-98294833D01*
X117543132Y-98113445D01*
X117386555Y-97956868D01*
X117205167Y-97829858D01*
X117081907Y-97772381D01*
X117029468Y-97726210D01*
X117010316Y-97659017D01*
X117030531Y-97592136D01*
X117081908Y-97547618D01*
X117106823Y-97536000D01*
X117205167Y-97490142D01*
X117386555Y-97363132D01*
X117543132Y-97206555D01*
X117670142Y-97025167D01*
X117763723Y-96824480D01*
X117821035Y-96610591D01*
X117840334Y-96390000D01*
X117835244Y-96331826D01*
X117832239Y-96297476D01*
X117821035Y-96169409D01*
X117763723Y-95955520D01*
X117670142Y-95754833D01*
X117543132Y-95573445D01*
X117386555Y-95416868D01*
X117205167Y-95289858D01*
X117081907Y-95232381D01*
X117029468Y-95186210D01*
X117010316Y-95119017D01*
X117030531Y-95052136D01*
X117081908Y-95007618D01*
X117106823Y-94996000D01*
X117205167Y-94950142D01*
X117386555Y-94823132D01*
X117543132Y-94666555D01*
X117670142Y-94485167D01*
X117763723Y-94284480D01*
X117821035Y-94070591D01*
X117840334Y-93850000D01*
X117835244Y-93791826D01*
X117834820Y-93786974D01*
X117821035Y-93629409D01*
X117763723Y-93415520D01*
X117670142Y-93214833D01*
X117543132Y-93033445D01*
X117386555Y-92876868D01*
X117205167Y-92749858D01*
X117081907Y-92692381D01*
X117029468Y-92646210D01*
X117010316Y-92579017D01*
X117030531Y-92512136D01*
X117081908Y-92467618D01*
X117106823Y-92456000D01*
X117205167Y-92410142D01*
X117386555Y-92283132D01*
X117543132Y-92126555D01*
X117657392Y-91963374D01*
X117711968Y-91919752D01*
X117758966Y-91910500D01*
X125807903Y-91910500D01*
X125874942Y-91930185D01*
X125895584Y-91946819D01*
X128074298Y-94125533D01*
X128107783Y-94186856D01*
X128109837Y-94199330D01*
X128119630Y-94286249D01*
X128179210Y-94456521D01*
X128230662Y-94538406D01*
X128275184Y-94609262D01*
X128402738Y-94736816D01*
X128555478Y-94832789D01*
X128722136Y-94891105D01*
X128725745Y-94892368D01*
X128725749Y-94892369D01*
X128814857Y-94902408D01*
X128829383Y-94904045D01*
X128893797Y-94931111D01*
X128933352Y-94988705D01*
X128939500Y-95027265D01*
X128939500Y-96064587D01*
X128919815Y-96131626D01*
X128912450Y-96141896D01*
X128910186Y-96144734D01*
X128814211Y-96297476D01*
X128754631Y-96467745D01*
X128754630Y-96467750D01*
X128734435Y-96646996D01*
X128734435Y-96647003D01*
X128754630Y-96826249D01*
X128754631Y-96826254D01*
X128814211Y-96996523D01*
X128865662Y-97078406D01*
X128910184Y-97149262D01*
X129037738Y-97276816D01*
X129190478Y-97372789D01*
X129360745Y-97432368D01*
X129447669Y-97442161D01*
X129512080Y-97469226D01*
X129521465Y-97477700D01*
X136418139Y-104374374D01*
X136418149Y-104374385D01*
X136422479Y-104378715D01*
X136422480Y-104378716D01*
X136534284Y-104490520D01*
X136534286Y-104490521D01*
X136534290Y-104490524D01*
X136640962Y-104552110D01*
X136671216Y-104569577D01*
X136783019Y-104599534D01*
X136823942Y-104610500D01*
X136823943Y-104610500D01*
X138241034Y-104610500D01*
X138308073Y-104630185D01*
X138342606Y-104663373D01*
X138456868Y-104826555D01*
X138613445Y-104983132D01*
X138794833Y-105110142D01*
X138844923Y-105133499D01*
X138918091Y-105167618D01*
X138970531Y-105213790D01*
X138989683Y-105280983D01*
X138969467Y-105347865D01*
X138918091Y-105392382D01*
X138794836Y-105449856D01*
X138794834Y-105449857D01*
X138613444Y-105576868D01*
X138456868Y-105733444D01*
X138329857Y-105914834D01*
X138329856Y-105914836D01*
X138236279Y-106115513D01*
X138236275Y-106115524D01*
X138178965Y-106329407D01*
X138178964Y-106329414D01*
X138159666Y-106549998D01*
X138159666Y-106550001D01*
X138178964Y-106770585D01*
X138178965Y-106770592D01*
X138236275Y-106984475D01*
X138236279Y-106984486D01*
X138329856Y-107185163D01*
X138329858Y-107185167D01*
X138456868Y-107366555D01*
X138613445Y-107523132D01*
X138794833Y-107650142D01*
X138844923Y-107673499D01*
X138918091Y-107707618D01*
X138970531Y-107753790D01*
X138989683Y-107820983D01*
X138969467Y-107887865D01*
X138918091Y-107932382D01*
X138794836Y-107989856D01*
X138794834Y-107989857D01*
X138613444Y-108116868D01*
X138456868Y-108273444D01*
X138329857Y-108454834D01*
X138329856Y-108454836D01*
X138236279Y-108655513D01*
X138236275Y-108655524D01*
X138178965Y-108869407D01*
X138178964Y-108869414D01*
X138159666Y-109089998D01*
X138159666Y-109090001D01*
X138178964Y-109310585D01*
X138178965Y-109310592D01*
X138236275Y-109524475D01*
X138236279Y-109524486D01*
X138329856Y-109725163D01*
X138329858Y-109725167D01*
X138456868Y-109906555D01*
X138613445Y-110063132D01*
X138794833Y-110190142D01*
X138842146Y-110212204D01*
X138918091Y-110247618D01*
X138970531Y-110293790D01*
X138989683Y-110360983D01*
X138969467Y-110427865D01*
X138918091Y-110472382D01*
X138794836Y-110529856D01*
X138794834Y-110529857D01*
X138613444Y-110656868D01*
X138456868Y-110813444D01*
X138329857Y-110994834D01*
X138329856Y-110994836D01*
X138236279Y-111195513D01*
X138236275Y-111195524D01*
X138178965Y-111409407D01*
X138178964Y-111409414D01*
X138159666Y-111629998D01*
X138159666Y-111630001D01*
X138178964Y-111850585D01*
X138178967Y-111850599D01*
X138202744Y-111939340D01*
X138201081Y-112009190D01*
X138170650Y-112059113D01*
X137248984Y-112980781D01*
X137187661Y-113014266D01*
X137161303Y-113017100D01*
X135202412Y-113017100D01*
X135135373Y-112997415D01*
X135125097Y-112990045D01*
X135122263Y-112987785D01*
X135122262Y-112987784D01*
X135037423Y-112934476D01*
X134969523Y-112891811D01*
X134799254Y-112832231D01*
X134799249Y-112832230D01*
X134620004Y-112812035D01*
X134619996Y-112812035D01*
X134440750Y-112832230D01*
X134440745Y-112832231D01*
X134270476Y-112891811D01*
X134117737Y-112987784D01*
X133990184Y-113115337D01*
X133894211Y-113268076D01*
X133834631Y-113438345D01*
X133834630Y-113438350D01*
X133814435Y-113617596D01*
X133814435Y-113617603D01*
X133834630Y-113796849D01*
X133834631Y-113796854D01*
X133894211Y-113967123D01*
X133990184Y-114119862D01*
X134117738Y-114247416D01*
X134270478Y-114343389D01*
X134440745Y-114402968D01*
X134440750Y-114402969D01*
X134619996Y-114423165D01*
X134620000Y-114423165D01*
X134620004Y-114423165D01*
X134799249Y-114402969D01*
X134799252Y-114402968D01*
X134799255Y-114402968D01*
X134969522Y-114343389D01*
X135122262Y-114247416D01*
X135122267Y-114247410D01*
X135125097Y-114245155D01*
X135127275Y-114244265D01*
X135128158Y-114243711D01*
X135128255Y-114243865D01*
X135189783Y-114218745D01*
X135202412Y-114218100D01*
X137374731Y-114218100D01*
X137374747Y-114218101D01*
X137382343Y-114218101D01*
X137540454Y-114218101D01*
X137540457Y-114218101D01*
X137693185Y-114177177D01*
X137743304Y-114148239D01*
X137830116Y-114098120D01*
X137941920Y-113986316D01*
X137941920Y-113986314D01*
X137952128Y-113976107D01*
X137952130Y-113976104D01*
X137957254Y-113970979D01*
X138018575Y-113937496D01*
X138088267Y-113942480D01*
X138144200Y-113984352D01*
X138168617Y-114049816D01*
X138168461Y-114069469D01*
X138159666Y-114169997D01*
X138159666Y-114170001D01*
X138178964Y-114390585D01*
X138178965Y-114390592D01*
X138236275Y-114604475D01*
X138236279Y-114604486D01*
X138315092Y-114773501D01*
X138329858Y-114805167D01*
X138456868Y-114986555D01*
X138613445Y-115143132D01*
X138794833Y-115270142D01*
X138856828Y-115299050D01*
X138918091Y-115327618D01*
X138970531Y-115373790D01*
X138989683Y-115440983D01*
X138969467Y-115507865D01*
X138918091Y-115552382D01*
X138794836Y-115609856D01*
X138794834Y-115609857D01*
X138613444Y-115736868D01*
X138456868Y-115893444D01*
X138329857Y-116074834D01*
X138329856Y-116074836D01*
X138236279Y-116275513D01*
X138236275Y-116275524D01*
X138178965Y-116489407D01*
X138178964Y-116489414D01*
X138159666Y-116709998D01*
X138159666Y-116710001D01*
X138178964Y-116930585D01*
X138178965Y-116930592D01*
X138236275Y-117144475D01*
X138236279Y-117144486D01*
X138312928Y-117308860D01*
X138329858Y-117345167D01*
X138456868Y-117526555D01*
X138613445Y-117683132D01*
X138794833Y-117810142D01*
X138825987Y-117824669D01*
X138918091Y-117867618D01*
X138970531Y-117913790D01*
X138989683Y-117980983D01*
X138969467Y-118047865D01*
X138918091Y-118092382D01*
X138794836Y-118149856D01*
X138794834Y-118149857D01*
X138794833Y-118149858D01*
X138613445Y-118276868D01*
X138613444Y-118276869D01*
X138456871Y-118433441D01*
X138456868Y-118433444D01*
X138329857Y-118614834D01*
X138329856Y-118614836D01*
X138236279Y-118815513D01*
X138236275Y-118815524D01*
X138178965Y-119029407D01*
X138178964Y-119029414D01*
X138159666Y-119249998D01*
X138159666Y-119250001D01*
X138178964Y-119470585D01*
X138178965Y-119470592D01*
X138236275Y-119684475D01*
X138236279Y-119684486D01*
X138300308Y-119821796D01*
X138329858Y-119885167D01*
X138456868Y-120066555D01*
X138613445Y-120223132D01*
X138794833Y-120350142D01*
X138856828Y-120379050D01*
X138918091Y-120407618D01*
X138970531Y-120453790D01*
X138989683Y-120520983D01*
X138969467Y-120587865D01*
X138918091Y-120632382D01*
X138794836Y-120689856D01*
X138794834Y-120689857D01*
X138613444Y-120816868D01*
X138456868Y-120973444D01*
X138329857Y-121154834D01*
X138329856Y-121154836D01*
X138236279Y-121355513D01*
X138236275Y-121355524D01*
X138178965Y-121569407D01*
X138178964Y-121569414D01*
X138159666Y-121789998D01*
X138159666Y-121790000D01*
X138178964Y-122010585D01*
X138178965Y-122010592D01*
X138236275Y-122224475D01*
X138236279Y-122224486D01*
X138328503Y-122422262D01*
X138329858Y-122425167D01*
X138456868Y-122606555D01*
X138613445Y-122763132D01*
X138794833Y-122890142D01*
X138918682Y-122947893D01*
X138971122Y-122994065D01*
X138990274Y-123061258D01*
X138970059Y-123128139D01*
X138918683Y-123172657D01*
X138795084Y-123230293D01*
X138729657Y-123276104D01*
X139292424Y-123838871D01*
X139233147Y-123854755D01*
X139116853Y-123921898D01*
X139021898Y-124016853D01*
X138954755Y-124133147D01*
X138938871Y-124192424D01*
X138376104Y-123629657D01*
X138330293Y-123695084D01*
X138236749Y-123895690D01*
X138236745Y-123895699D01*
X138179461Y-124109490D01*
X138179459Y-124109500D01*
X138160168Y-124329999D01*
X138160168Y-124330000D01*
X138179459Y-124550499D01*
X138179461Y-124550509D01*
X138236745Y-124764300D01*
X138236749Y-124764309D01*
X138330295Y-124964919D01*
X138376103Y-125030341D01*
X138376105Y-125030342D01*
X138938871Y-124467575D01*
X138954755Y-124526853D01*
X139021898Y-124643147D01*
X139116853Y-124738102D01*
X139233147Y-124805245D01*
X139292424Y-124821128D01*
X138729656Y-125383894D01*
X138795083Y-125429706D01*
X138795085Y-125429707D01*
X138919275Y-125487618D01*
X138971714Y-125533790D01*
X138990866Y-125600984D01*
X138970650Y-125667865D01*
X138919275Y-125712382D01*
X138795084Y-125770293D01*
X138729657Y-125816104D01*
X139292424Y-126378871D01*
X139233147Y-126394755D01*
X139116853Y-126461898D01*
X139021898Y-126556853D01*
X138954755Y-126673147D01*
X138938871Y-126732424D01*
X138376104Y-126169657D01*
X138330293Y-126235084D01*
X138236749Y-126435690D01*
X138236745Y-126435699D01*
X138179461Y-126649490D01*
X138179459Y-126649500D01*
X138160168Y-126869999D01*
X138160168Y-126870000D01*
X138179459Y-127090499D01*
X138179461Y-127090509D01*
X138236745Y-127304300D01*
X138236749Y-127304309D01*
X138330295Y-127504919D01*
X138376103Y-127570341D01*
X138376105Y-127570342D01*
X138938871Y-127007575D01*
X138954755Y-127066853D01*
X139021898Y-127183147D01*
X139116853Y-127278102D01*
X139233147Y-127345245D01*
X139292424Y-127361128D01*
X138729656Y-127923894D01*
X138795083Y-127969706D01*
X138795085Y-127969707D01*
X138995690Y-128063250D01*
X138995699Y-128063254D01*
X139209490Y-128120538D01*
X139209500Y-128120540D01*
X139429999Y-128139832D01*
X139430001Y-128139832D01*
X139650499Y-128120540D01*
X139650509Y-128120538D01*
X139864300Y-128063254D01*
X139864309Y-128063250D01*
X140064915Y-127969706D01*
X140130342Y-127923894D01*
X139567575Y-127361127D01*
X139626853Y-127345245D01*
X139743147Y-127278102D01*
X139838102Y-127183147D01*
X139905245Y-127066853D01*
X139921128Y-127007575D01*
X140483894Y-127570342D01*
X140529706Y-127504915D01*
X140623250Y-127304309D01*
X140623254Y-127304300D01*
X140680538Y-127090509D01*
X140680540Y-127090499D01*
X140699832Y-126870000D01*
X140699832Y-126869999D01*
X140680540Y-126649500D01*
X140680538Y-126649490D01*
X140623254Y-126435699D01*
X140623250Y-126435690D01*
X140529707Y-126235085D01*
X140529706Y-126235083D01*
X140483894Y-126169657D01*
X140483894Y-126169656D01*
X139921127Y-126732423D01*
X139905245Y-126673147D01*
X139838102Y-126556853D01*
X139743147Y-126461898D01*
X139626853Y-126394755D01*
X139567575Y-126378872D01*
X140130342Y-125816105D01*
X140130341Y-125816103D01*
X140064918Y-125770294D01*
X140064916Y-125770293D01*
X139940725Y-125712382D01*
X139888285Y-125666210D01*
X139869133Y-125599017D01*
X139889349Y-125532135D01*
X139940725Y-125487618D01*
X140064912Y-125429708D01*
X140064914Y-125429707D01*
X140130342Y-125383894D01*
X139567575Y-124821127D01*
X139626853Y-124805245D01*
X139743147Y-124738102D01*
X139838102Y-124643147D01*
X139905245Y-124526853D01*
X139921128Y-124467575D01*
X140483894Y-125030342D01*
X140529706Y-124964915D01*
X140623250Y-124764309D01*
X140623254Y-124764300D01*
X140680538Y-124550509D01*
X140680540Y-124550499D01*
X140699832Y-124330000D01*
X140699832Y-124329999D01*
X140680540Y-124109500D01*
X140680538Y-124109490D01*
X140623254Y-123895699D01*
X140623250Y-123895690D01*
X140529707Y-123695085D01*
X140529706Y-123695083D01*
X140483894Y-123629657D01*
X140483894Y-123629656D01*
X139921127Y-124192423D01*
X139905245Y-124133147D01*
X139838102Y-124016853D01*
X139743147Y-123921898D01*
X139626853Y-123854755D01*
X139567575Y-123838872D01*
X140130342Y-123276105D01*
X140130341Y-123276103D01*
X140064919Y-123230295D01*
X139941316Y-123172657D01*
X139888877Y-123126484D01*
X139869725Y-123059291D01*
X139889941Y-122992410D01*
X139941312Y-122947895D01*
X140065167Y-122890142D01*
X140246555Y-122763132D01*
X140403132Y-122606555D01*
X140530142Y-122425167D01*
X140623723Y-122224480D01*
X140681035Y-122010591D01*
X140700334Y-121790000D01*
X140681035Y-121569409D01*
X140623723Y-121355520D01*
X140607997Y-121321796D01*
X140568981Y-121238124D01*
X140530142Y-121154833D01*
X140403132Y-120973445D01*
X140246555Y-120816868D01*
X140065167Y-120689858D01*
X139941907Y-120632381D01*
X139889468Y-120586210D01*
X139870316Y-120519017D01*
X139890531Y-120452136D01*
X139941908Y-120407618D01*
X140065167Y-120350142D01*
X140246555Y-120223132D01*
X140403132Y-120066555D01*
X140530142Y-119885167D01*
X140623723Y-119684480D01*
X140681035Y-119470591D01*
X140700334Y-119250000D01*
X140681035Y-119029409D01*
X140623723Y-118815520D01*
X140530142Y-118614833D01*
X140403132Y-118433445D01*
X140246555Y-118276868D01*
X140065167Y-118149858D01*
X139941907Y-118092381D01*
X139889468Y-118046210D01*
X139870316Y-117979017D01*
X139890531Y-117912136D01*
X139941908Y-117867618D01*
X140065167Y-117810142D01*
X140246555Y-117683132D01*
X140403132Y-117526555D01*
X140530142Y-117345167D01*
X140623723Y-117144480D01*
X140681035Y-116930591D01*
X140700334Y-116710000D01*
X140681035Y-116489409D01*
X140623723Y-116275520D01*
X140530142Y-116074833D01*
X140403132Y-115893445D01*
X140246555Y-115736868D01*
X140065167Y-115609858D01*
X139941907Y-115552381D01*
X139889468Y-115506210D01*
X139870316Y-115439017D01*
X139890531Y-115372136D01*
X139941908Y-115327618D01*
X139994706Y-115302998D01*
X140065167Y-115270142D01*
X140246555Y-115143132D01*
X140403132Y-114986555D01*
X140515291Y-114826376D01*
X140569867Y-114782752D01*
X140616865Y-114773500D01*
X149900331Y-114773500D01*
X149900347Y-114773501D01*
X149907943Y-114773501D01*
X150066054Y-114773501D01*
X150066057Y-114773501D01*
X150218785Y-114732577D01*
X150268904Y-114703639D01*
X150355716Y-114653520D01*
X150467520Y-114541716D01*
X150467520Y-114541714D01*
X150477728Y-114531507D01*
X150477730Y-114531504D01*
X157196416Y-107812818D01*
X157257739Y-107779333D01*
X157284097Y-107776499D01*
X158384002Y-107776499D01*
X158384008Y-107776499D01*
X158486797Y-107765999D01*
X158653334Y-107710814D01*
X158802656Y-107618712D01*
X158926712Y-107494656D01*
X159018814Y-107345334D01*
X159073999Y-107178797D01*
X159084500Y-107076009D01*
X159084499Y-105775992D01*
X159081682Y-105748420D01*
X159073999Y-105673203D01*
X159073998Y-105673200D01*
X159018814Y-105506666D01*
X158926712Y-105357344D01*
X158802656Y-105233288D01*
X158696187Y-105167618D01*
X158653336Y-105141187D01*
X158653331Y-105141185D01*
X158630136Y-105133499D01*
X158486797Y-105086001D01*
X158486795Y-105086000D01*
X158384010Y-105075500D01*
X157083998Y-105075500D01*
X157083981Y-105075501D01*
X156981203Y-105086000D01*
X156981200Y-105086001D01*
X156814668Y-105141185D01*
X156814663Y-105141187D01*
X156665342Y-105233289D01*
X156541289Y-105357342D01*
X156449187Y-105506663D01*
X156449185Y-105506668D01*
X156433196Y-105554920D01*
X156394001Y-105673203D01*
X156394001Y-105673204D01*
X156394000Y-105673204D01*
X156383500Y-105775983D01*
X156383500Y-106875902D01*
X156363815Y-106942941D01*
X156347181Y-106963583D01*
X149774584Y-113536181D01*
X149713261Y-113569666D01*
X149686903Y-113572500D01*
X140621067Y-113572500D01*
X140554028Y-113552815D01*
X140519492Y-113519624D01*
X140517391Y-113516624D01*
X140403132Y-113353445D01*
X140246555Y-113196868D01*
X140065167Y-113069858D01*
X139941907Y-113012381D01*
X139889468Y-112966210D01*
X139870316Y-112899017D01*
X139890531Y-112832136D01*
X139941908Y-112787618D01*
X139959461Y-112779433D01*
X140065167Y-112730142D01*
X140246555Y-112603132D01*
X140403132Y-112446555D01*
X140530142Y-112265167D01*
X140623723Y-112064480D01*
X140681035Y-111850591D01*
X140700334Y-111630000D01*
X140695244Y-111571826D01*
X140686822Y-111475557D01*
X140681035Y-111409409D01*
X140623723Y-111195520D01*
X140530142Y-110994833D01*
X140403132Y-110813445D01*
X140246555Y-110656868D01*
X140065167Y-110529858D01*
X139941907Y-110472381D01*
X139889468Y-110426210D01*
X139870316Y-110359017D01*
X139890531Y-110292136D01*
X139941908Y-110247618D01*
X140065167Y-110190142D01*
X140246555Y-110063132D01*
X140403132Y-109906555D01*
X140530142Y-109725167D01*
X140623723Y-109524480D01*
X140681035Y-109310591D01*
X140700334Y-109090000D01*
X140695244Y-109031826D01*
X140694820Y-109026974D01*
X140681035Y-108869409D01*
X140623723Y-108655520D01*
X140530142Y-108454833D01*
X140403132Y-108273445D01*
X140246555Y-108116868D01*
X140065167Y-107989858D01*
X139941907Y-107932381D01*
X139889468Y-107886210D01*
X139870316Y-107819017D01*
X139890531Y-107752136D01*
X139941908Y-107707618D01*
X139966823Y-107696000D01*
X140065167Y-107650142D01*
X140246555Y-107523132D01*
X140403132Y-107366555D01*
X140530142Y-107185167D01*
X140623723Y-106984480D01*
X140681035Y-106770591D01*
X140700334Y-106550000D01*
X140695244Y-106491826D01*
X140694820Y-106486974D01*
X140681035Y-106329409D01*
X140623723Y-106115520D01*
X140530142Y-105914833D01*
X140403132Y-105733445D01*
X140246555Y-105576868D01*
X140065167Y-105449858D01*
X139941907Y-105392381D01*
X139889468Y-105346210D01*
X139870316Y-105279017D01*
X139890531Y-105212136D01*
X139941908Y-105167618D01*
X139966823Y-105156000D01*
X140065167Y-105110142D01*
X140246555Y-104983132D01*
X140403132Y-104826555D01*
X140530142Y-104645167D01*
X140623723Y-104444480D01*
X140681035Y-104230591D01*
X140700334Y-104010000D01*
X140695244Y-103951826D01*
X140694820Y-103946974D01*
X140681035Y-103789409D01*
X140623723Y-103575520D01*
X140597788Y-103519903D01*
X140587297Y-103450827D01*
X140615817Y-103387043D01*
X140674293Y-103348804D01*
X140710171Y-103343500D01*
X140756331Y-103343500D01*
X140756347Y-103343501D01*
X140763943Y-103343501D01*
X140922054Y-103343501D01*
X140922057Y-103343501D01*
X141074785Y-103302577D01*
X141168937Y-103248218D01*
X141211716Y-103223520D01*
X141323520Y-103111716D01*
X141323520Y-103111714D01*
X141333724Y-103101511D01*
X141333728Y-103101506D01*
X143106506Y-101328728D01*
X143106511Y-101328724D01*
X143116714Y-101318520D01*
X143116716Y-101318520D01*
X143228520Y-101206716D01*
X143289391Y-101101284D01*
X143292443Y-101095999D01*
X143307574Y-101069790D01*
X143307575Y-101069789D01*
X143307575Y-101069787D01*
X143307577Y-101069785D01*
X143348501Y-100917057D01*
X143348501Y-100758943D01*
X143348501Y-100751348D01*
X143348500Y-100751330D01*
X143348500Y-73155999D01*
X144084364Y-73155999D01*
X144084364Y-73156000D01*
X144981988Y-73156000D01*
X144949075Y-73213007D01*
X144915000Y-73340174D01*
X144915000Y-73471826D01*
X144949075Y-73598993D01*
X144981988Y-73656000D01*
X144084364Y-73656000D01*
X144141567Y-73869486D01*
X144141570Y-73869492D01*
X144241399Y-74083578D01*
X144376894Y-74277082D01*
X144543917Y-74444105D01*
X144730031Y-74574425D01*
X144773656Y-74629003D01*
X144780848Y-74698501D01*
X144749326Y-74760856D01*
X144730031Y-74777575D01*
X144543922Y-74907890D01*
X144543920Y-74907891D01*
X144376891Y-75074920D01*
X144376886Y-75074926D01*
X144241400Y-75268420D01*
X144241399Y-75268422D01*
X144141570Y-75482507D01*
X144141567Y-75482513D01*
X144084364Y-75695999D01*
X144084364Y-75696000D01*
X144981988Y-75696000D01*
X144949075Y-75753007D01*
X144915000Y-75880174D01*
X144915000Y-76011826D01*
X144949075Y-76138993D01*
X144981988Y-76196000D01*
X144084364Y-76196000D01*
X144141567Y-76409486D01*
X144141570Y-76409492D01*
X144241399Y-76623578D01*
X144376894Y-76817082D01*
X144543917Y-76984105D01*
X144730031Y-77114425D01*
X144773656Y-77169003D01*
X144780848Y-77238501D01*
X144749326Y-77300856D01*
X144730031Y-77317575D01*
X144543922Y-77447890D01*
X144543920Y-77447891D01*
X144376891Y-77614920D01*
X144376886Y-77614926D01*
X144241400Y-77808420D01*
X144241399Y-77808422D01*
X144141570Y-78022507D01*
X144141567Y-78022513D01*
X144084364Y-78235999D01*
X144084364Y-78236000D01*
X144981988Y-78236000D01*
X144949075Y-78293007D01*
X144915000Y-78420174D01*
X144915000Y-78551826D01*
X144949075Y-78678993D01*
X144981988Y-78736000D01*
X144084364Y-78736000D01*
X144141567Y-78949486D01*
X144141570Y-78949492D01*
X144241399Y-79163578D01*
X144376894Y-79357082D01*
X144543917Y-79524105D01*
X144730031Y-79654425D01*
X144773656Y-79709003D01*
X144780848Y-79778501D01*
X144749326Y-79840856D01*
X144730031Y-79857575D01*
X144543922Y-79987890D01*
X144543920Y-79987891D01*
X144376891Y-80154920D01*
X144376886Y-80154926D01*
X144241400Y-80348420D01*
X144241399Y-80348422D01*
X144141570Y-80562507D01*
X144141567Y-80562513D01*
X144084364Y-80775999D01*
X144084364Y-80776000D01*
X144981988Y-80776000D01*
X144949075Y-80833007D01*
X144915000Y-80960174D01*
X144915000Y-81091826D01*
X144949075Y-81218993D01*
X144981988Y-81276000D01*
X144084364Y-81276000D01*
X144141567Y-81489486D01*
X144141570Y-81489492D01*
X144241399Y-81703578D01*
X144376894Y-81897082D01*
X144543917Y-82064105D01*
X144730031Y-82194425D01*
X144773656Y-82249003D01*
X144780848Y-82318501D01*
X144749326Y-82380856D01*
X144730031Y-82397575D01*
X144543922Y-82527890D01*
X144543920Y-82527891D01*
X144376891Y-82694920D01*
X144376886Y-82694926D01*
X144241400Y-82888420D01*
X144241399Y-82888422D01*
X144141570Y-83102507D01*
X144141567Y-83102513D01*
X144084364Y-83315999D01*
X144084364Y-83316000D01*
X144981988Y-83316000D01*
X144949075Y-83373007D01*
X144915000Y-83500174D01*
X144915000Y-83631826D01*
X144949075Y-83758993D01*
X144981988Y-83816000D01*
X144084364Y-83816000D01*
X144141567Y-84029486D01*
X144141570Y-84029492D01*
X144241399Y-84243578D01*
X144376894Y-84437082D01*
X144543917Y-84604105D01*
X144730031Y-84734425D01*
X144773656Y-84789003D01*
X144780848Y-84858501D01*
X144749326Y-84920856D01*
X144730031Y-84937575D01*
X144543922Y-85067890D01*
X144543920Y-85067891D01*
X144376891Y-85234920D01*
X144376886Y-85234926D01*
X144241400Y-85428420D01*
X144241399Y-85428422D01*
X144141570Y-85642507D01*
X144141567Y-85642513D01*
X144084364Y-85855999D01*
X144084364Y-85856000D01*
X144981988Y-85856000D01*
X144949075Y-85913007D01*
X144915000Y-86040174D01*
X144915000Y-86171826D01*
X144949075Y-86298993D01*
X144981988Y-86356000D01*
X144084364Y-86356000D01*
X144141567Y-86569486D01*
X144141570Y-86569492D01*
X144241399Y-86783578D01*
X144376894Y-86977082D01*
X144543917Y-87144105D01*
X144730031Y-87274425D01*
X144773656Y-87329003D01*
X144780848Y-87398501D01*
X144749326Y-87460856D01*
X144730031Y-87477575D01*
X144543922Y-87607890D01*
X144543920Y-87607891D01*
X144376891Y-87774920D01*
X144376886Y-87774926D01*
X144241400Y-87968420D01*
X144241399Y-87968422D01*
X144141570Y-88182507D01*
X144141567Y-88182513D01*
X144084364Y-88395999D01*
X144084364Y-88396000D01*
X144981988Y-88396000D01*
X144949075Y-88453007D01*
X144915000Y-88580174D01*
X144915000Y-88711826D01*
X144949075Y-88838993D01*
X144981988Y-88896000D01*
X144084364Y-88896000D01*
X144141567Y-89109486D01*
X144141570Y-89109492D01*
X144241399Y-89323578D01*
X144376894Y-89517082D01*
X144543917Y-89684105D01*
X144730031Y-89814425D01*
X144773656Y-89869003D01*
X144780848Y-89938501D01*
X144749326Y-90000856D01*
X144730031Y-90017575D01*
X144543922Y-90147890D01*
X144543920Y-90147891D01*
X144376891Y-90314920D01*
X144376886Y-90314926D01*
X144241400Y-90508420D01*
X144241399Y-90508422D01*
X144141570Y-90722507D01*
X144141567Y-90722513D01*
X144084364Y-90935999D01*
X144084364Y-90936000D01*
X144981988Y-90936000D01*
X144949075Y-90993007D01*
X144915000Y-91120174D01*
X144915000Y-91251826D01*
X144949075Y-91378993D01*
X144981988Y-91436000D01*
X144084364Y-91436000D01*
X144141567Y-91649486D01*
X144141570Y-91649492D01*
X144241399Y-91863578D01*
X144376894Y-92057082D01*
X144543917Y-92224105D01*
X144730031Y-92354425D01*
X144773656Y-92409003D01*
X144780848Y-92478501D01*
X144749326Y-92540856D01*
X144730031Y-92557575D01*
X144543922Y-92687890D01*
X144543920Y-92687891D01*
X144376891Y-92854920D01*
X144376886Y-92854926D01*
X144241400Y-93048420D01*
X144241399Y-93048422D01*
X144141570Y-93262507D01*
X144141567Y-93262513D01*
X144084364Y-93475999D01*
X144084364Y-93476000D01*
X144981988Y-93476000D01*
X144949075Y-93533007D01*
X144915000Y-93660174D01*
X144915000Y-93791826D01*
X144949075Y-93918993D01*
X144981988Y-93976000D01*
X144084364Y-93976000D01*
X144141567Y-94189486D01*
X144141570Y-94189492D01*
X144241399Y-94403578D01*
X144376894Y-94597082D01*
X144543917Y-94764105D01*
X144730031Y-94894425D01*
X144773656Y-94949003D01*
X144780848Y-95018501D01*
X144749326Y-95080856D01*
X144730031Y-95097575D01*
X144543922Y-95227890D01*
X144543920Y-95227891D01*
X144376891Y-95394920D01*
X144376886Y-95394926D01*
X144241400Y-95588420D01*
X144241399Y-95588422D01*
X144141570Y-95802507D01*
X144141567Y-95802513D01*
X144084364Y-96015999D01*
X144084364Y-96016000D01*
X144981988Y-96016000D01*
X144949075Y-96073007D01*
X144915000Y-96200174D01*
X144915000Y-96331826D01*
X144949075Y-96458993D01*
X144981988Y-96516000D01*
X144084364Y-96516000D01*
X144141567Y-96729486D01*
X144141570Y-96729492D01*
X144241399Y-96943578D01*
X144376894Y-97137082D01*
X144543917Y-97304105D01*
X144730031Y-97434425D01*
X144773656Y-97489003D01*
X144780848Y-97558501D01*
X144749326Y-97620856D01*
X144730031Y-97637575D01*
X144543922Y-97767890D01*
X144543920Y-97767891D01*
X144376891Y-97934920D01*
X144376886Y-97934926D01*
X144241400Y-98128420D01*
X144241399Y-98128422D01*
X144141570Y-98342507D01*
X144141567Y-98342513D01*
X144084364Y-98555999D01*
X144084364Y-98556000D01*
X144981988Y-98556000D01*
X144949075Y-98613007D01*
X144915000Y-98740174D01*
X144915000Y-98871826D01*
X144949075Y-98998993D01*
X144981988Y-99056000D01*
X144084364Y-99056000D01*
X144141567Y-99269486D01*
X144141570Y-99269492D01*
X144241399Y-99483578D01*
X144376894Y-99677082D01*
X144543917Y-99844105D01*
X144730031Y-99974425D01*
X144773656Y-100029003D01*
X144780848Y-100098501D01*
X144749326Y-100160856D01*
X144730031Y-100177575D01*
X144543922Y-100307890D01*
X144543920Y-100307891D01*
X144376891Y-100474920D01*
X144376886Y-100474926D01*
X144241400Y-100668420D01*
X144241399Y-100668422D01*
X144141570Y-100882507D01*
X144141567Y-100882513D01*
X144084364Y-101095999D01*
X144084364Y-101096000D01*
X144981988Y-101096000D01*
X144949075Y-101153007D01*
X144915000Y-101280174D01*
X144915000Y-101411826D01*
X144949075Y-101538993D01*
X144981988Y-101596000D01*
X144084364Y-101596000D01*
X144141567Y-101809486D01*
X144141570Y-101809492D01*
X144241399Y-102023578D01*
X144376894Y-102217082D01*
X144543917Y-102384105D01*
X144730031Y-102514425D01*
X144773656Y-102569003D01*
X144780848Y-102638501D01*
X144749326Y-102700856D01*
X144730031Y-102717575D01*
X144543922Y-102847890D01*
X144543920Y-102847891D01*
X144376891Y-103014920D01*
X144376886Y-103014926D01*
X144241400Y-103208420D01*
X144241399Y-103208422D01*
X144141570Y-103422507D01*
X144141567Y-103422513D01*
X144084364Y-103635999D01*
X144084364Y-103636000D01*
X144981988Y-103636000D01*
X144949075Y-103693007D01*
X144915000Y-103820174D01*
X144915000Y-103951826D01*
X144949075Y-104078993D01*
X144981988Y-104136000D01*
X144084364Y-104136000D01*
X144141567Y-104349486D01*
X144141570Y-104349492D01*
X144241399Y-104563578D01*
X144376894Y-104757082D01*
X144543917Y-104924105D01*
X144730031Y-105054425D01*
X144773656Y-105109003D01*
X144780848Y-105178501D01*
X144749326Y-105240856D01*
X144730031Y-105257575D01*
X144543922Y-105387890D01*
X144543920Y-105387891D01*
X144376891Y-105554920D01*
X144376886Y-105554926D01*
X144241400Y-105748420D01*
X144241399Y-105748422D01*
X144141570Y-105962507D01*
X144141567Y-105962513D01*
X144084364Y-106175999D01*
X144084364Y-106176000D01*
X144981988Y-106176000D01*
X144949075Y-106233007D01*
X144915000Y-106360174D01*
X144915000Y-106491826D01*
X144949075Y-106618993D01*
X144981988Y-106676000D01*
X144084364Y-106676000D01*
X144141567Y-106889486D01*
X144141570Y-106889492D01*
X144241399Y-107103578D01*
X144376894Y-107297082D01*
X144543917Y-107464105D01*
X144730031Y-107594425D01*
X144773656Y-107649003D01*
X144780848Y-107718501D01*
X144749326Y-107780856D01*
X144730031Y-107797575D01*
X144543922Y-107927890D01*
X144543920Y-107927891D01*
X144376891Y-108094920D01*
X144376886Y-108094926D01*
X144241400Y-108288420D01*
X144241399Y-108288422D01*
X144141570Y-108502507D01*
X144141567Y-108502513D01*
X144084364Y-108715999D01*
X144084364Y-108716000D01*
X144981988Y-108716000D01*
X144949075Y-108773007D01*
X144915000Y-108900174D01*
X144915000Y-109031826D01*
X144949075Y-109158993D01*
X144981988Y-109216000D01*
X144084364Y-109216000D01*
X144141567Y-109429486D01*
X144141570Y-109429492D01*
X144241399Y-109643578D01*
X144376894Y-109837082D01*
X144543917Y-110004105D01*
X144730031Y-110134425D01*
X144773656Y-110189003D01*
X144780848Y-110258501D01*
X144749326Y-110320856D01*
X144730031Y-110337575D01*
X144543922Y-110467890D01*
X144543920Y-110467891D01*
X144376891Y-110634920D01*
X144376886Y-110634926D01*
X144241400Y-110828420D01*
X144241399Y-110828422D01*
X144141570Y-111042507D01*
X144141567Y-111042513D01*
X144084364Y-111255999D01*
X144084364Y-111256000D01*
X144981988Y-111256000D01*
X144949075Y-111313007D01*
X144915000Y-111440174D01*
X144915000Y-111571826D01*
X144949075Y-111698993D01*
X144981988Y-111756000D01*
X144084364Y-111756000D01*
X144141567Y-111969486D01*
X144141570Y-111969492D01*
X144241399Y-112183578D01*
X144376894Y-112377082D01*
X144543917Y-112544105D01*
X144737421Y-112679600D01*
X144951507Y-112779429D01*
X144951516Y-112779433D01*
X145165000Y-112836634D01*
X145165000Y-111939012D01*
X145222007Y-111971925D01*
X145349174Y-112006000D01*
X145480826Y-112006000D01*
X145607993Y-111971925D01*
X145665000Y-111939012D01*
X145665000Y-112836633D01*
X145878483Y-112779433D01*
X145878492Y-112779429D01*
X146092578Y-112679600D01*
X146286078Y-112544108D01*
X146408133Y-112422053D01*
X146469456Y-112388568D01*
X146539148Y-112393552D01*
X146595082Y-112435423D01*
X146611997Y-112466401D01*
X146661202Y-112598328D01*
X146661206Y-112598335D01*
X146747452Y-112713544D01*
X146747455Y-112713547D01*
X146862664Y-112799793D01*
X146862671Y-112799797D01*
X146997517Y-112850091D01*
X146997516Y-112850091D01*
X147004444Y-112850835D01*
X147057127Y-112856500D01*
X148852872Y-112856499D01*
X148912483Y-112850091D01*
X149047331Y-112799796D01*
X149162546Y-112713546D01*
X149248796Y-112598331D01*
X149299091Y-112463483D01*
X149305500Y-112403873D01*
X149305499Y-110608128D01*
X149299091Y-110548517D01*
X149298002Y-110545598D01*
X149248797Y-110413671D01*
X149248793Y-110413664D01*
X149162547Y-110298455D01*
X149162544Y-110298452D01*
X149047335Y-110212206D01*
X149047328Y-110212202D01*
X148915917Y-110163189D01*
X148859983Y-110121318D01*
X148835566Y-110055853D01*
X148850418Y-109987580D01*
X148871563Y-109959332D01*
X148993495Y-109837401D01*
X149129035Y-109643830D01*
X149228903Y-109429663D01*
X149290063Y-109201408D01*
X149310659Y-108966000D01*
X149290063Y-108730592D01*
X149228903Y-108502337D01*
X149129035Y-108288171D01*
X149123731Y-108280595D01*
X148993494Y-108094597D01*
X148826402Y-107927506D01*
X148826396Y-107927501D01*
X148640842Y-107797575D01*
X148597217Y-107742998D01*
X148590023Y-107673500D01*
X148621546Y-107611145D01*
X148640842Y-107594425D01*
X148668959Y-107574737D01*
X148826401Y-107464495D01*
X148993495Y-107297401D01*
X149129035Y-107103830D01*
X149228903Y-106889663D01*
X149290063Y-106661408D01*
X149310659Y-106426000D01*
X149290063Y-106190592D01*
X149228903Y-105962337D01*
X149129035Y-105748171D01*
X149123731Y-105740595D01*
X148993494Y-105554597D01*
X148826402Y-105387506D01*
X148826396Y-105387501D01*
X148640842Y-105257575D01*
X148597217Y-105202998D01*
X148590023Y-105133500D01*
X148621546Y-105071145D01*
X148640842Y-105054425D01*
X148663026Y-105038891D01*
X148826401Y-104924495D01*
X148993495Y-104757401D01*
X149129035Y-104563830D01*
X149228903Y-104349663D01*
X149290063Y-104121408D01*
X149310659Y-103886000D01*
X149290063Y-103650592D01*
X149228903Y-103422337D01*
X149129035Y-103208171D01*
X149123731Y-103200595D01*
X148993494Y-103014597D01*
X148826402Y-102847506D01*
X148826396Y-102847501D01*
X148640842Y-102717575D01*
X148597217Y-102662998D01*
X148590023Y-102593500D01*
X148621546Y-102531145D01*
X148640842Y-102514425D01*
X148663026Y-102498891D01*
X148826401Y-102384495D01*
X148993495Y-102217401D01*
X149129035Y-102023830D01*
X149228903Y-101809663D01*
X149290063Y-101581408D01*
X149310659Y-101346000D01*
X149290063Y-101110592D01*
X149228903Y-100882337D01*
X149129035Y-100668171D01*
X149123731Y-100660595D01*
X148993494Y-100474597D01*
X148826402Y-100307506D01*
X148826396Y-100307501D01*
X148640842Y-100177575D01*
X148597217Y-100122998D01*
X148590023Y-100053500D01*
X148621546Y-99991145D01*
X148640842Y-99974425D01*
X148663026Y-99958891D01*
X148826401Y-99844495D01*
X148993495Y-99677401D01*
X149129035Y-99483830D01*
X149228903Y-99269663D01*
X149290063Y-99041408D01*
X149310659Y-98806000D01*
X149290063Y-98570592D01*
X149228903Y-98342337D01*
X149129035Y-98128171D01*
X149123731Y-98120595D01*
X148993494Y-97934597D01*
X148826402Y-97767506D01*
X148826396Y-97767501D01*
X148640842Y-97637575D01*
X148597217Y-97582998D01*
X148590023Y-97513500D01*
X148621546Y-97451145D01*
X148640842Y-97434425D01*
X148728867Y-97372789D01*
X148826401Y-97304495D01*
X148993495Y-97137401D01*
X149129035Y-96943830D01*
X149228903Y-96729663D01*
X149290063Y-96501408D01*
X149310659Y-96266000D01*
X149290063Y-96030592D01*
X149228903Y-95802337D01*
X149129035Y-95588171D01*
X149123731Y-95580595D01*
X148993494Y-95394597D01*
X148826402Y-95227506D01*
X148826396Y-95227501D01*
X148640842Y-95097575D01*
X148597217Y-95042998D01*
X148590023Y-94973500D01*
X148621546Y-94911145D01*
X148640842Y-94894425D01*
X148728867Y-94832789D01*
X148826401Y-94764495D01*
X148993495Y-94597401D01*
X149129035Y-94403830D01*
X149228903Y-94189663D01*
X149290063Y-93961408D01*
X149310659Y-93726000D01*
X149290063Y-93490592D01*
X149228903Y-93262337D01*
X149129035Y-93048171D01*
X149123731Y-93040595D01*
X148993494Y-92854597D01*
X148826402Y-92687506D01*
X148826396Y-92687501D01*
X148640842Y-92557575D01*
X148597217Y-92502998D01*
X148590023Y-92433500D01*
X148621546Y-92371145D01*
X148640842Y-92354425D01*
X148663026Y-92338891D01*
X148826401Y-92224495D01*
X148993495Y-92057401D01*
X149129035Y-91863830D01*
X149228903Y-91649663D01*
X149290063Y-91421408D01*
X149310659Y-91186000D01*
X149290063Y-90950592D01*
X149228903Y-90722337D01*
X149129035Y-90508171D01*
X149123731Y-90500595D01*
X148993494Y-90314597D01*
X148826402Y-90147506D01*
X148826396Y-90147501D01*
X148640842Y-90017575D01*
X148597217Y-89962998D01*
X148590023Y-89893500D01*
X148621546Y-89831145D01*
X148640842Y-89814425D01*
X148668959Y-89794737D01*
X148826401Y-89684495D01*
X148993495Y-89517401D01*
X149129035Y-89323830D01*
X149228903Y-89109663D01*
X149290063Y-88881408D01*
X149310659Y-88646000D01*
X149290063Y-88410592D01*
X149228903Y-88182337D01*
X149129035Y-87968171D01*
X149123731Y-87960595D01*
X148993494Y-87774597D01*
X148826402Y-87607506D01*
X148826396Y-87607501D01*
X148640842Y-87477575D01*
X148597217Y-87422998D01*
X148590023Y-87353500D01*
X148621546Y-87291145D01*
X148640842Y-87274425D01*
X148663026Y-87258891D01*
X148826401Y-87144495D01*
X148993495Y-86977401D01*
X149129035Y-86783830D01*
X149228903Y-86569663D01*
X149290063Y-86341408D01*
X149310659Y-86106000D01*
X149290063Y-85870592D01*
X149228903Y-85642337D01*
X149129035Y-85428171D01*
X149125457Y-85423060D01*
X148993494Y-85234597D01*
X148826402Y-85067506D01*
X148826396Y-85067501D01*
X148640842Y-84937575D01*
X148597217Y-84882998D01*
X148590023Y-84813500D01*
X148621546Y-84751145D01*
X148640842Y-84734425D01*
X148710525Y-84685632D01*
X148826401Y-84604495D01*
X148993495Y-84437401D01*
X149129035Y-84243830D01*
X149228903Y-84029663D01*
X149290063Y-83801408D01*
X149310659Y-83566000D01*
X149290063Y-83330592D01*
X149228903Y-83102337D01*
X149129035Y-82888171D01*
X149123731Y-82880595D01*
X148993494Y-82694597D01*
X148826402Y-82527506D01*
X148826396Y-82527501D01*
X148640842Y-82397575D01*
X148597217Y-82342998D01*
X148590023Y-82273500D01*
X148621546Y-82211145D01*
X148640842Y-82194425D01*
X148663026Y-82178891D01*
X148826401Y-82064495D01*
X148993495Y-81897401D01*
X149129035Y-81703830D01*
X149228903Y-81489663D01*
X149290063Y-81261408D01*
X149310659Y-81026000D01*
X149290063Y-80790592D01*
X149228903Y-80562337D01*
X149129035Y-80348171D01*
X149123731Y-80340595D01*
X148993494Y-80154597D01*
X148826402Y-79987506D01*
X148826396Y-79987501D01*
X148640842Y-79857575D01*
X148597217Y-79802998D01*
X148590023Y-79733500D01*
X148621546Y-79671145D01*
X148640842Y-79654425D01*
X148663026Y-79638891D01*
X148826401Y-79524495D01*
X148993495Y-79357401D01*
X149129035Y-79163830D01*
X149228903Y-78949663D01*
X149290063Y-78721408D01*
X149310659Y-78486000D01*
X149290063Y-78250592D01*
X149228903Y-78022337D01*
X149129035Y-77808171D01*
X149123731Y-77800595D01*
X148993494Y-77614597D01*
X148826402Y-77447506D01*
X148826396Y-77447501D01*
X148640842Y-77317575D01*
X148597217Y-77262998D01*
X148590023Y-77193500D01*
X148621546Y-77131145D01*
X148640842Y-77114425D01*
X148663026Y-77098891D01*
X148826401Y-76984495D01*
X148993495Y-76817401D01*
X149129035Y-76623830D01*
X149228903Y-76409663D01*
X149290063Y-76181408D01*
X149310659Y-75946000D01*
X149290063Y-75710592D01*
X149228903Y-75482337D01*
X149129035Y-75268171D01*
X149123731Y-75260595D01*
X148993494Y-75074597D01*
X148826402Y-74907506D01*
X148826396Y-74907501D01*
X148640842Y-74777575D01*
X148597217Y-74722998D01*
X148590023Y-74653500D01*
X148621546Y-74591145D01*
X148640842Y-74574425D01*
X148693812Y-74537335D01*
X148826401Y-74444495D01*
X148993495Y-74277401D01*
X149129035Y-74083830D01*
X149228903Y-73869663D01*
X149290063Y-73641408D01*
X149310659Y-73406000D01*
X149290063Y-73170592D01*
X149228903Y-72942337D01*
X149129035Y-72728171D01*
X149123731Y-72720595D01*
X148993494Y-72534597D01*
X148826402Y-72367506D01*
X148826395Y-72367501D01*
X148632834Y-72231967D01*
X148632830Y-72231965D01*
X148632828Y-72231964D01*
X148418663Y-72132097D01*
X148418659Y-72132096D01*
X148418655Y-72132094D01*
X148190413Y-72070938D01*
X148190403Y-72070936D01*
X147955001Y-72050341D01*
X147954999Y-72050341D01*
X147719596Y-72070936D01*
X147719586Y-72070938D01*
X147491344Y-72132094D01*
X147491335Y-72132098D01*
X147277170Y-72231965D01*
X147083597Y-72367505D01*
X146916508Y-72534594D01*
X146786269Y-72720595D01*
X146731692Y-72764219D01*
X146662193Y-72771412D01*
X146599839Y-72739890D01*
X146583119Y-72720594D01*
X146453113Y-72534926D01*
X146453108Y-72534920D01*
X146286082Y-72367894D01*
X146092578Y-72232399D01*
X145878492Y-72132570D01*
X145878486Y-72132567D01*
X145665000Y-72075364D01*
X145665000Y-72972988D01*
X145607993Y-72940075D01*
X145480826Y-72906000D01*
X145349174Y-72906000D01*
X145222007Y-72940075D01*
X145165000Y-72972988D01*
X145165000Y-72075364D01*
X145164999Y-72075364D01*
X144951513Y-72132567D01*
X144951507Y-72132570D01*
X144737422Y-72232399D01*
X144737420Y-72232400D01*
X144543926Y-72367886D01*
X144543920Y-72367891D01*
X144376891Y-72534920D01*
X144376886Y-72534926D01*
X144241400Y-72728420D01*
X144241399Y-72728422D01*
X144141570Y-72942507D01*
X144141567Y-72942513D01*
X144084364Y-73155999D01*
X143348500Y-73155999D01*
X143348500Y-72690097D01*
X143368185Y-72623058D01*
X143384819Y-72602416D01*
X144832567Y-71154668D01*
X146480520Y-69506716D01*
X146559577Y-69369784D01*
X146600501Y-69217057D01*
X146600501Y-69058942D01*
X146600501Y-69051347D01*
X146600500Y-69051329D01*
X146600500Y-68974499D01*
X146620185Y-68907460D01*
X146672989Y-68861705D01*
X146724500Y-68850499D01*
X146897871Y-68850499D01*
X146897872Y-68850499D01*
X146957483Y-68844091D01*
X147092331Y-68793796D01*
X147207546Y-68707546D01*
X147293796Y-68592331D01*
X147344091Y-68457483D01*
X147350500Y-68397873D01*
X147350500Y-68381902D01*
X150999500Y-68381902D01*
X150999500Y-68618097D01*
X151036446Y-68851368D01*
X151109433Y-69075996D01*
X151196299Y-69246478D01*
X151216657Y-69286433D01*
X151355483Y-69477510D01*
X151522490Y-69644517D01*
X151713567Y-69783343D01*
X151812991Y-69834002D01*
X151924003Y-69890566D01*
X151924005Y-69890566D01*
X151924008Y-69890568D01*
X152044412Y-69929689D01*
X152148631Y-69963553D01*
X152381903Y-70000500D01*
X152381908Y-70000500D01*
X152618097Y-70000500D01*
X152851368Y-69963553D01*
X152897739Y-69948486D01*
X153075992Y-69890568D01*
X153286433Y-69783343D01*
X153477510Y-69644517D01*
X153644517Y-69477510D01*
X153783343Y-69286433D01*
X153890568Y-69075992D01*
X153963553Y-68851368D01*
X153972671Y-68793797D01*
X154000500Y-68618097D01*
X154000500Y-68381902D01*
X153963553Y-68148631D01*
X153914874Y-67998815D01*
X153890568Y-67924008D01*
X153890566Y-67924005D01*
X153890566Y-67924003D01*
X153802034Y-67750250D01*
X153783343Y-67713567D01*
X153644517Y-67522490D01*
X153477510Y-67355483D01*
X153286433Y-67216657D01*
X153239990Y-67192993D01*
X153075996Y-67109433D01*
X152851368Y-67036446D01*
X152618097Y-66999500D01*
X152618092Y-66999500D01*
X152381908Y-66999500D01*
X152381903Y-66999500D01*
X152148631Y-67036446D01*
X151924003Y-67109433D01*
X151713566Y-67216657D01*
X151604550Y-67295862D01*
X151522490Y-67355483D01*
X151522488Y-67355485D01*
X151522487Y-67355485D01*
X151355485Y-67522487D01*
X151355485Y-67522488D01*
X151355483Y-67522490D01*
X151312149Y-67582134D01*
X151216657Y-67713566D01*
X151109433Y-67924003D01*
X151036446Y-68148631D01*
X150999500Y-68381902D01*
X147350500Y-68381902D01*
X147350499Y-66602128D01*
X147345107Y-66551967D01*
X147344091Y-66542516D01*
X147293797Y-66407671D01*
X147293793Y-66407664D01*
X147207547Y-66292455D01*
X147207544Y-66292452D01*
X147092335Y-66206206D01*
X147092328Y-66206202D01*
X146957482Y-66155908D01*
X146957483Y-66155908D01*
X146897883Y-66149501D01*
X146897881Y-66149500D01*
X146897873Y-66149500D01*
X146897864Y-66149500D01*
X145102129Y-66149500D01*
X145102123Y-66149501D01*
X145042516Y-66155908D01*
X144907671Y-66206202D01*
X144907664Y-66206206D01*
X144792455Y-66292452D01*
X144792452Y-66292455D01*
X144706206Y-66407664D01*
X144706202Y-66407671D01*
X144656997Y-66539598D01*
X144615126Y-66595532D01*
X144549661Y-66619949D01*
X144481388Y-66605097D01*
X144453134Y-66583946D01*
X144331082Y-66461894D01*
X144137578Y-66326399D01*
X143923492Y-66226570D01*
X143923486Y-66226567D01*
X143710000Y-66169364D01*
X143710000Y-67066988D01*
X143652993Y-67034075D01*
X143525826Y-67000000D01*
X143394174Y-67000000D01*
X143267007Y-67034075D01*
X143210000Y-67066988D01*
X143210000Y-66169364D01*
X143209999Y-66169364D01*
X142996513Y-66226567D01*
X142996507Y-66226570D01*
X142782422Y-66326399D01*
X142782420Y-66326400D01*
X142588926Y-66461886D01*
X142588920Y-66461891D01*
X142421891Y-66628920D01*
X142421886Y-66628926D01*
X142286400Y-66822420D01*
X142286399Y-66822422D01*
X142186570Y-67036507D01*
X142186567Y-67036513D01*
X142129364Y-67249999D01*
X142129364Y-67250000D01*
X143026988Y-67250000D01*
X142994075Y-67307007D01*
X142960000Y-67434174D01*
X142960000Y-67565826D01*
X142994075Y-67692993D01*
X143026988Y-67750000D01*
X142129364Y-67750000D01*
X142186567Y-67963486D01*
X142186570Y-67963492D01*
X142286399Y-68177578D01*
X142421894Y-68371082D01*
X142588917Y-68538105D01*
X142782421Y-68673600D01*
X142996507Y-68773429D01*
X142996516Y-68773433D01*
X143210000Y-68830634D01*
X143210000Y-67933012D01*
X143267007Y-67965925D01*
X143394174Y-68000000D01*
X143525826Y-68000000D01*
X143652993Y-67965925D01*
X143710000Y-67933012D01*
X143710000Y-68830633D01*
X143923483Y-68773433D01*
X143923492Y-68773429D01*
X144137578Y-68673600D01*
X144331078Y-68538108D01*
X144453133Y-68416053D01*
X144514456Y-68382568D01*
X144584148Y-68387552D01*
X144640082Y-68429423D01*
X144656997Y-68460401D01*
X144706202Y-68592328D01*
X144706206Y-68592335D01*
X144792452Y-68707544D01*
X144792455Y-68707547D01*
X144907664Y-68793793D01*
X144907671Y-68793797D01*
X144952618Y-68810561D01*
X145042517Y-68844091D01*
X145102127Y-68850500D01*
X145138901Y-68850499D01*
X145205939Y-68870182D01*
X145251695Y-68922985D01*
X145261640Y-68992143D01*
X145232617Y-69055699D01*
X145226583Y-69062180D01*
X142379286Y-71909478D01*
X142267481Y-72021282D01*
X142267479Y-72021285D01*
X142255427Y-72042160D01*
X142234909Y-72077700D01*
X142217361Y-72108094D01*
X142217359Y-72108096D01*
X142188425Y-72158209D01*
X142188424Y-72158210D01*
X142188423Y-72158215D01*
X142147499Y-72310943D01*
X142147499Y-72310945D01*
X142147499Y-72479046D01*
X142147500Y-72479059D01*
X142147500Y-93373903D01*
X142127815Y-93440942D01*
X142075011Y-93486697D01*
X142005853Y-93496641D01*
X141942297Y-93467616D01*
X141935819Y-93461584D01*
X140695590Y-92221355D01*
X140695588Y-92221352D01*
X140576717Y-92102481D01*
X140570265Y-92097530D01*
X140571820Y-92095502D01*
X140532410Y-92054169D01*
X140519188Y-91985562D01*
X140530241Y-91944952D01*
X140623723Y-91744480D01*
X140681035Y-91530591D01*
X140700334Y-91310000D01*
X140695244Y-91251826D01*
X140694820Y-91246974D01*
X140681035Y-91089409D01*
X140623723Y-90875520D01*
X140530142Y-90674833D01*
X140403132Y-90493445D01*
X140246555Y-90336868D01*
X140065167Y-90209858D01*
X139941907Y-90152381D01*
X139889468Y-90106210D01*
X139870316Y-90039017D01*
X139890531Y-89972136D01*
X139941908Y-89927618D01*
X139966823Y-89916000D01*
X140065167Y-89870142D01*
X140246555Y-89743132D01*
X140403132Y-89586555D01*
X140530142Y-89405167D01*
X140623723Y-89204480D01*
X140681035Y-88990591D01*
X140700334Y-88770000D01*
X140695244Y-88711826D01*
X140693966Y-88697212D01*
X140681035Y-88549409D01*
X140623723Y-88335520D01*
X140530142Y-88134833D01*
X140403132Y-87953445D01*
X140246555Y-87796868D01*
X140065167Y-87669858D01*
X139941907Y-87612381D01*
X139889468Y-87566210D01*
X139870316Y-87499017D01*
X139890531Y-87432136D01*
X139941908Y-87387618D01*
X139966823Y-87376000D01*
X140065167Y-87330142D01*
X140246555Y-87203132D01*
X140403132Y-87046555D01*
X140530142Y-86865167D01*
X140623723Y-86664480D01*
X140681035Y-86450591D01*
X140700334Y-86230000D01*
X140695244Y-86171826D01*
X140694820Y-86166974D01*
X140681035Y-86009409D01*
X140623723Y-85795520D01*
X140530142Y-85594833D01*
X140403132Y-85413445D01*
X140246555Y-85256868D01*
X140065167Y-85129858D01*
X139941907Y-85072381D01*
X139889468Y-85026210D01*
X139870316Y-84959017D01*
X139890531Y-84892136D01*
X139941908Y-84847618D01*
X139966823Y-84836000D01*
X140065167Y-84790142D01*
X140246555Y-84663132D01*
X140403132Y-84506555D01*
X140530142Y-84325167D01*
X140623723Y-84124480D01*
X140681035Y-83910591D01*
X140700334Y-83690000D01*
X140696662Y-83648034D01*
X140691530Y-83589368D01*
X140681035Y-83469409D01*
X140623723Y-83255520D01*
X140602254Y-83209480D01*
X140576161Y-83153522D01*
X140530142Y-83054833D01*
X140403132Y-82873445D01*
X140246555Y-82716868D01*
X140065167Y-82589858D01*
X139941907Y-82532381D01*
X139889468Y-82486210D01*
X139870316Y-82419017D01*
X139890531Y-82352136D01*
X139941908Y-82307618D01*
X139954518Y-82301738D01*
X140065167Y-82250142D01*
X140246555Y-82123132D01*
X140403132Y-81966555D01*
X140530142Y-81785167D01*
X140623723Y-81584480D01*
X140681035Y-81370591D01*
X140700334Y-81150000D01*
X140695244Y-81091826D01*
X140694820Y-81086974D01*
X140681035Y-80929409D01*
X140623723Y-80715520D01*
X140530142Y-80514833D01*
X140403132Y-80333445D01*
X140246555Y-80176868D01*
X140065167Y-80049858D01*
X139941907Y-79992381D01*
X139889468Y-79946210D01*
X139870316Y-79879017D01*
X139890531Y-79812136D01*
X139941908Y-79767618D01*
X139966823Y-79756000D01*
X140065167Y-79710142D01*
X140246555Y-79583132D01*
X140403132Y-79426555D01*
X140530142Y-79245167D01*
X140623723Y-79044480D01*
X140681035Y-78830591D01*
X140700334Y-78610000D01*
X140695244Y-78551826D01*
X140694820Y-78546974D01*
X140681035Y-78389409D01*
X140623723Y-78175520D01*
X140530142Y-77974833D01*
X140403132Y-77793445D01*
X140246555Y-77636868D01*
X140065167Y-77509858D01*
X139941907Y-77452381D01*
X139889468Y-77406210D01*
X139870316Y-77339017D01*
X139890531Y-77272136D01*
X139941908Y-77227618D01*
X139966823Y-77216000D01*
X140065167Y-77170142D01*
X140246555Y-77043132D01*
X140403132Y-76886555D01*
X140530142Y-76705167D01*
X140623723Y-76504480D01*
X140681035Y-76290591D01*
X140700334Y-76070000D01*
X140695244Y-76011826D01*
X140694820Y-76006974D01*
X140681035Y-75849409D01*
X140623723Y-75635520D01*
X140530142Y-75434833D01*
X140403132Y-75253445D01*
X140246555Y-75096868D01*
X140065167Y-74969858D01*
X140065163Y-74969856D01*
X139941317Y-74912106D01*
X139888877Y-74865934D01*
X139869725Y-74798741D01*
X139889941Y-74731859D01*
X139941317Y-74687342D01*
X140064912Y-74629708D01*
X140064914Y-74629707D01*
X140130342Y-74583894D01*
X139567575Y-74021127D01*
X139626853Y-74005245D01*
X139743147Y-73938102D01*
X139838102Y-73843147D01*
X139905245Y-73726853D01*
X139921128Y-73667575D01*
X140483894Y-74230342D01*
X140529706Y-74164915D01*
X140623250Y-73964309D01*
X140623254Y-73964300D01*
X140680538Y-73750509D01*
X140680540Y-73750499D01*
X140699832Y-73530000D01*
X140699832Y-73529999D01*
X140680540Y-73309500D01*
X140680538Y-73309490D01*
X140623254Y-73095699D01*
X140623250Y-73095690D01*
X140529707Y-72895085D01*
X140529706Y-72895083D01*
X140483894Y-72829657D01*
X140483894Y-72829656D01*
X139921127Y-73392423D01*
X139905245Y-73333147D01*
X139838102Y-73216853D01*
X139743147Y-73121898D01*
X139626853Y-73054755D01*
X139567575Y-73038872D01*
X140130342Y-72476105D01*
X140130341Y-72476103D01*
X140064919Y-72430295D01*
X139864309Y-72336749D01*
X139864300Y-72336745D01*
X139650509Y-72279461D01*
X139650499Y-72279459D01*
X139430001Y-72260168D01*
X139429999Y-72260168D01*
X139209500Y-72279459D01*
X139209490Y-72279461D01*
X138995699Y-72336745D01*
X138995690Y-72336749D01*
X138795084Y-72430293D01*
X138729657Y-72476104D01*
X139292424Y-73038871D01*
X139233147Y-73054755D01*
X139116853Y-73121898D01*
X139021898Y-73216853D01*
X138954755Y-73333147D01*
X138938871Y-73392424D01*
X138376104Y-72829657D01*
X138330293Y-72895084D01*
X138236749Y-73095690D01*
X138236745Y-73095699D01*
X138179461Y-73309490D01*
X138179459Y-73309500D01*
X138160168Y-73529999D01*
X138160168Y-73530000D01*
X138179459Y-73750499D01*
X138179461Y-73750509D01*
X138236745Y-73964300D01*
X138236749Y-73964309D01*
X138330295Y-74164919D01*
X138376103Y-74230341D01*
X138376105Y-74230342D01*
X138938871Y-73667575D01*
X138954755Y-73726853D01*
X139021898Y-73843147D01*
X139116853Y-73938102D01*
X139233147Y-74005245D01*
X139292424Y-74021128D01*
X138729656Y-74583894D01*
X138795083Y-74629706D01*
X138795085Y-74629707D01*
X138918683Y-74687342D01*
X138971122Y-74733514D01*
X138990274Y-74800708D01*
X138970058Y-74867589D01*
X138918683Y-74912106D01*
X138794833Y-74969857D01*
X138613444Y-75096868D01*
X138456868Y-75253444D01*
X138329857Y-75434834D01*
X138329856Y-75434836D01*
X138236279Y-75635513D01*
X138236275Y-75635524D01*
X138178965Y-75849407D01*
X138178964Y-75849414D01*
X138159666Y-76069998D01*
X138159666Y-76070001D01*
X138178964Y-76290585D01*
X138178965Y-76290592D01*
X138236275Y-76504475D01*
X138236279Y-76504486D01*
X138329856Y-76705163D01*
X138329858Y-76705167D01*
X138456868Y-76886555D01*
X138613445Y-77043132D01*
X138794833Y-77170142D01*
X138844923Y-77193499D01*
X138918091Y-77227618D01*
X138970531Y-77273790D01*
X138989683Y-77340983D01*
X138969467Y-77407865D01*
X138918091Y-77452382D01*
X138794836Y-77509856D01*
X138794834Y-77509857D01*
X138613444Y-77636868D01*
X138456868Y-77793444D01*
X138329857Y-77974834D01*
X138329856Y-77974836D01*
X138236279Y-78175513D01*
X138236275Y-78175524D01*
X138178965Y-78389407D01*
X138178964Y-78389414D01*
X138159666Y-78609998D01*
X138159666Y-78610000D01*
X138178964Y-78830585D01*
X138178965Y-78830592D01*
X138236275Y-79044475D01*
X138236279Y-79044486D01*
X138329856Y-79245163D01*
X138329858Y-79245167D01*
X138456868Y-79426555D01*
X138613445Y-79583132D01*
X138794833Y-79710142D01*
X138844923Y-79733499D01*
X138918091Y-79767618D01*
X138970531Y-79813790D01*
X138989683Y-79880983D01*
X138969467Y-79947865D01*
X138918091Y-79992382D01*
X138794836Y-80049856D01*
X138794834Y-80049857D01*
X138613444Y-80176868D01*
X138456868Y-80333444D01*
X138329857Y-80514834D01*
X138329856Y-80514836D01*
X138236279Y-80715513D01*
X138236275Y-80715524D01*
X138178965Y-80929407D01*
X138178964Y-80929414D01*
X138159666Y-81149998D01*
X138159666Y-81150001D01*
X138178964Y-81370585D01*
X138178965Y-81370592D01*
X138236275Y-81584475D01*
X138236279Y-81584486D01*
X138313693Y-81750501D01*
X138329858Y-81785167D01*
X138456868Y-81966555D01*
X138613445Y-82123132D01*
X138794833Y-82250142D01*
X138842613Y-82272422D01*
X138918091Y-82307618D01*
X138970531Y-82353790D01*
X138989683Y-82420983D01*
X138969467Y-82487865D01*
X138918091Y-82532382D01*
X138794836Y-82589856D01*
X138794834Y-82589857D01*
X138613444Y-82716868D01*
X138456868Y-82873444D01*
X138329857Y-83054834D01*
X138329856Y-83054836D01*
X138236279Y-83255513D01*
X138236275Y-83255524D01*
X138178965Y-83469407D01*
X138178964Y-83469414D01*
X138159666Y-83689998D01*
X138159666Y-83690001D01*
X138178964Y-83910585D01*
X138178965Y-83910592D01*
X138236275Y-84124475D01*
X138236279Y-84124486D01*
X138329856Y-84325163D01*
X138329858Y-84325167D01*
X138456868Y-84506555D01*
X138613445Y-84663132D01*
X138794833Y-84790142D01*
X138844923Y-84813499D01*
X138918091Y-84847618D01*
X138970531Y-84893790D01*
X138989683Y-84960983D01*
X138969467Y-85027865D01*
X138918091Y-85072382D01*
X138794836Y-85129856D01*
X138794834Y-85129857D01*
X138613444Y-85256868D01*
X138456868Y-85413444D01*
X138329857Y-85594834D01*
X138329856Y-85594836D01*
X138236279Y-85795513D01*
X138236275Y-85795524D01*
X138178965Y-86009407D01*
X138178964Y-86009414D01*
X138159666Y-86229998D01*
X138159666Y-86230001D01*
X138178964Y-86450585D01*
X138178965Y-86450592D01*
X138236275Y-86664475D01*
X138236279Y-86664486D01*
X138329856Y-86865163D01*
X138329858Y-86865167D01*
X138456868Y-87046555D01*
X138613445Y-87203132D01*
X138794833Y-87330142D01*
X138844923Y-87353499D01*
X138918091Y-87387618D01*
X138970531Y-87433790D01*
X138989683Y-87500983D01*
X138969467Y-87567865D01*
X138918091Y-87612382D01*
X138794836Y-87669856D01*
X138794834Y-87669857D01*
X138613444Y-87796868D01*
X138456868Y-87953444D01*
X138329857Y-88134834D01*
X138329856Y-88134836D01*
X138236279Y-88335513D01*
X138236275Y-88335524D01*
X138178965Y-88549407D01*
X138178964Y-88549414D01*
X138159666Y-88769998D01*
X138159666Y-88770001D01*
X138178964Y-88990585D01*
X138178965Y-88990592D01*
X138236275Y-89204475D01*
X138236279Y-89204486D01*
X138319406Y-89382752D01*
X138329858Y-89405167D01*
X138456868Y-89586555D01*
X138613445Y-89743132D01*
X138794833Y-89870142D01*
X138844923Y-89893499D01*
X138918091Y-89927618D01*
X138970531Y-89973790D01*
X138989683Y-90040983D01*
X138969467Y-90107865D01*
X138918091Y-90152382D01*
X138794836Y-90209856D01*
X138794834Y-90209857D01*
X138613444Y-90336868D01*
X138456868Y-90493444D01*
X138329857Y-90674834D01*
X138329856Y-90674836D01*
X138236279Y-90875513D01*
X138236275Y-90875524D01*
X138178965Y-91089407D01*
X138178964Y-91089414D01*
X138159666Y-91309998D01*
X138159666Y-91310001D01*
X138178964Y-91530585D01*
X138178965Y-91530592D01*
X138236275Y-91744475D01*
X138236276Y-91744477D01*
X138236277Y-91744480D01*
X138251284Y-91776663D01*
X138265009Y-91806096D01*
X138275500Y-91875174D01*
X138246979Y-91938958D01*
X138188503Y-91977197D01*
X138152626Y-91982500D01*
X131745097Y-91982500D01*
X131678058Y-91962815D01*
X131657416Y-91946181D01*
X129989700Y-90278465D01*
X129956215Y-90217142D01*
X129954163Y-90204686D01*
X129944368Y-90117745D01*
X129884789Y-89947478D01*
X129788816Y-89794738D01*
X129661262Y-89667184D01*
X129624994Y-89644395D01*
X129508521Y-89571210D01*
X129338249Y-89511630D01*
X129251330Y-89501837D01*
X129186916Y-89474770D01*
X129177533Y-89466298D01*
X127382819Y-87671584D01*
X127349334Y-87610261D01*
X127346500Y-87583903D01*
X127346500Y-82803996D01*
X129877435Y-82803996D01*
X129877435Y-82804003D01*
X129897630Y-82983249D01*
X129897631Y-82983254D01*
X129957211Y-83153523D01*
X130021303Y-83255524D01*
X130053184Y-83306262D01*
X130180738Y-83433816D01*
X130333478Y-83529789D01*
X130436963Y-83566000D01*
X130503745Y-83589368D01*
X130503750Y-83589369D01*
X130682996Y-83609565D01*
X130683000Y-83609565D01*
X130683004Y-83609565D01*
X130862249Y-83589369D01*
X130862252Y-83589368D01*
X130862255Y-83589368D01*
X131032522Y-83529789D01*
X131185262Y-83433816D01*
X131312816Y-83306262D01*
X131408789Y-83153522D01*
X131468368Y-82983255D01*
X131468369Y-82983249D01*
X131488565Y-82804003D01*
X131488565Y-82803996D01*
X131468369Y-82624750D01*
X131468368Y-82624745D01*
X131408789Y-82454478D01*
X131403148Y-82445501D01*
X131362529Y-82380856D01*
X131312816Y-82301738D01*
X131312814Y-82301736D01*
X131312813Y-82301734D01*
X131310550Y-82298896D01*
X131309659Y-82296715D01*
X131309111Y-82295842D01*
X131309264Y-82295745D01*
X131284144Y-82234209D01*
X131283500Y-82221587D01*
X131283500Y-72817096D01*
X131303185Y-72750057D01*
X131319815Y-72729419D01*
X131971535Y-72077698D01*
X132032856Y-72044215D01*
X132045311Y-72042163D01*
X132132255Y-72032368D01*
X132302522Y-71972789D01*
X132455262Y-71876816D01*
X132582816Y-71749262D01*
X132678789Y-71596522D01*
X132738368Y-71426255D01*
X132758565Y-71247000D01*
X132755419Y-71219082D01*
X132738369Y-71067750D01*
X132738368Y-71067745D01*
X132678788Y-70897476D01*
X132582815Y-70744737D01*
X132455262Y-70617184D01*
X132302523Y-70521211D01*
X132132254Y-70461631D01*
X132132249Y-70461630D01*
X131953004Y-70441435D01*
X131952996Y-70441435D01*
X131773750Y-70461630D01*
X131773745Y-70461631D01*
X131603476Y-70521211D01*
X131450737Y-70617184D01*
X131323184Y-70744737D01*
X131227210Y-70897478D01*
X131167630Y-71067750D01*
X131157837Y-71154668D01*
X131130770Y-71219082D01*
X131122298Y-71228465D01*
X130314286Y-72036478D01*
X130202481Y-72148282D01*
X130202475Y-72148290D01*
X130154167Y-72231964D01*
X130154167Y-72231965D01*
X130123423Y-72285215D01*
X130082499Y-72437943D01*
X130082499Y-72437945D01*
X130082499Y-72606046D01*
X130082500Y-72606059D01*
X130082500Y-82221587D01*
X130062815Y-82288626D01*
X130055450Y-82298896D01*
X130053186Y-82301734D01*
X129957211Y-82454476D01*
X129897631Y-82624745D01*
X129897630Y-82624750D01*
X129877435Y-82803996D01*
X127346500Y-82803996D01*
X127346500Y-70320060D01*
X127346501Y-70320047D01*
X127346501Y-70151944D01*
X127322207Y-70061280D01*
X127305577Y-69999216D01*
X127284987Y-69963553D01*
X127226524Y-69862290D01*
X127226518Y-69862282D01*
X126598590Y-69234355D01*
X126598588Y-69234352D01*
X126479717Y-69115481D01*
X126479716Y-69115480D01*
X126392904Y-69065360D01*
X126392904Y-69065359D01*
X126392900Y-69065358D01*
X126342785Y-69036423D01*
X126190057Y-68995499D01*
X126031943Y-68995499D01*
X126024347Y-68995499D01*
X126024331Y-68995500D01*
X122629412Y-68995500D01*
X122562373Y-68975815D01*
X122552097Y-68968445D01*
X122549263Y-68966185D01*
X122549262Y-68966184D01*
X122480511Y-68922985D01*
X122396523Y-68870211D01*
X122226254Y-68810631D01*
X122226249Y-68810630D01*
X122047004Y-68790435D01*
X122046996Y-68790435D01*
X121867750Y-68810630D01*
X121867745Y-68810631D01*
X121697476Y-68870211D01*
X121544737Y-68966184D01*
X121417184Y-69093737D01*
X121352494Y-69196691D01*
X121300159Y-69242982D01*
X121231105Y-69253630D01*
X121167257Y-69225255D01*
X121128885Y-69166865D01*
X121123500Y-69130719D01*
X121123500Y-68326613D01*
X121143185Y-68259574D01*
X121195094Y-68214232D01*
X121229830Y-68198035D01*
X121423401Y-68062495D01*
X121590495Y-67895401D01*
X121720425Y-67709842D01*
X121775002Y-67666217D01*
X121844500Y-67659023D01*
X121906855Y-67690546D01*
X121923575Y-67709842D01*
X122053500Y-67895395D01*
X122053505Y-67895401D01*
X122220599Y-68062495D01*
X122317384Y-68130265D01*
X122414165Y-68198032D01*
X122414167Y-68198033D01*
X122414170Y-68198035D01*
X122628337Y-68297903D01*
X122856592Y-68359063D01*
X123033034Y-68374500D01*
X123091999Y-68379659D01*
X123092000Y-68379659D01*
X123092001Y-68379659D01*
X123150966Y-68374500D01*
X123327408Y-68359063D01*
X123555663Y-68297903D01*
X123769830Y-68198035D01*
X123963401Y-68062495D01*
X124130495Y-67895401D01*
X124260425Y-67709842D01*
X124315002Y-67666217D01*
X124384500Y-67659023D01*
X124446855Y-67690546D01*
X124463575Y-67709842D01*
X124593500Y-67895395D01*
X124593505Y-67895401D01*
X124760599Y-68062495D01*
X124857384Y-68130265D01*
X124954165Y-68198032D01*
X124954167Y-68198033D01*
X124954170Y-68198035D01*
X125168337Y-68297903D01*
X125396592Y-68359063D01*
X125573034Y-68374500D01*
X125631999Y-68379659D01*
X125632000Y-68379659D01*
X125632001Y-68379659D01*
X125690966Y-68374500D01*
X125867408Y-68359063D01*
X126095663Y-68297903D01*
X126309830Y-68198035D01*
X126503401Y-68062495D01*
X126670495Y-67895401D01*
X126806035Y-67701830D01*
X126905903Y-67487663D01*
X126967063Y-67259408D01*
X126987659Y-67024000D01*
X126985515Y-66999500D01*
X126970023Y-66822422D01*
X126967063Y-66788592D01*
X126905903Y-66560337D01*
X126806035Y-66346171D01*
X126800425Y-66338158D01*
X126670494Y-66152597D01*
X126503402Y-65985506D01*
X126503395Y-65985501D01*
X126309834Y-65849967D01*
X126309830Y-65849965D01*
X126309828Y-65849964D01*
X126095663Y-65750097D01*
X126095659Y-65750096D01*
X126095655Y-65750094D01*
X126073936Y-65744275D01*
X126014275Y-65707910D01*
X125983746Y-65645063D01*
X125992041Y-65575688D01*
X126036526Y-65521810D01*
X126103078Y-65500535D01*
X126106029Y-65500500D01*
X154934108Y-65500500D01*
X154997294Y-65500500D01*
X155002702Y-65500617D01*
X155386771Y-65517386D01*
X155397506Y-65518326D01*
X155775971Y-65568152D01*
X155786597Y-65570025D01*
X156159284Y-65652648D01*
X156169710Y-65655442D01*
X156533765Y-65770227D01*
X156543911Y-65773920D01*
X156896578Y-65920000D01*
X156906369Y-65924566D01*
X157023434Y-65985506D01*
X157244942Y-66100816D01*
X157254309Y-66106223D01*
X157308762Y-66140914D01*
X157576244Y-66311318D01*
X157585105Y-66317523D01*
X157887930Y-66549889D01*
X157896217Y-66556843D01*
X158177635Y-66814715D01*
X158185284Y-66822364D01*
X158443156Y-67103782D01*
X158450110Y-67112069D01*
X158682476Y-67414894D01*
X158688681Y-67423755D01*
X158893775Y-67745689D01*
X158899183Y-67755057D01*
X159075430Y-68093623D01*
X159080002Y-68103427D01*
X159226075Y-68456078D01*
X159229775Y-68466244D01*
X159344554Y-68830278D01*
X159347354Y-68840727D01*
X159429971Y-69213389D01*
X159431849Y-69224042D01*
X159481671Y-69602473D01*
X159482614Y-69613249D01*
X159499382Y-69997297D01*
X159499500Y-70002706D01*
X159499500Y-132997293D01*
X159499382Y-133002702D01*
X159482614Y-133386750D01*
X159481671Y-133397526D01*
X159431849Y-133775957D01*
X159429971Y-133786610D01*
X159347354Y-134159272D01*
X159344554Y-134169721D01*
X159229775Y-134533755D01*
X159226075Y-134543921D01*
X159080002Y-134896572D01*
X159075430Y-134906376D01*
X158899183Y-135244942D01*
X158893775Y-135254310D01*
X158688681Y-135576244D01*
X158682476Y-135585105D01*
X158450110Y-135887930D01*
X158443156Y-135896217D01*
X158185284Y-136177635D01*
X158177635Y-136185284D01*
X157896217Y-136443156D01*
X157887930Y-136450110D01*
X157585105Y-136682476D01*
X157576244Y-136688681D01*
X157254310Y-136893775D01*
X157244942Y-136899183D01*
X156906376Y-137075430D01*
X156896572Y-137080002D01*
X156543921Y-137226075D01*
X156533755Y-137229775D01*
X156169721Y-137344554D01*
X156159272Y-137347354D01*
X155786610Y-137429971D01*
X155775957Y-137431849D01*
X155397526Y-137481671D01*
X155386750Y-137482614D01*
X155002703Y-137499382D01*
X154997294Y-137499500D01*
X101002706Y-137499500D01*
X100997297Y-137499382D01*
X100613249Y-137482614D01*
X100602473Y-137481671D01*
X100224042Y-137431849D01*
X100213389Y-137429971D01*
X99840727Y-137347354D01*
X99830278Y-137344554D01*
X99466244Y-137229775D01*
X99456078Y-137226075D01*
X99103427Y-137080002D01*
X99093623Y-137075430D01*
X98755057Y-136899183D01*
X98745689Y-136893775D01*
X98423755Y-136688681D01*
X98414894Y-136682476D01*
X98112069Y-136450110D01*
X98103782Y-136443156D01*
X97822364Y-136185284D01*
X97814715Y-136177635D01*
X97556843Y-135896217D01*
X97549889Y-135887930D01*
X97317523Y-135585105D01*
X97311318Y-135576244D01*
X97106224Y-135254310D01*
X97100816Y-135244942D01*
X96924569Y-134906376D01*
X96919997Y-134896572D01*
X96825703Y-134668926D01*
X96773920Y-134543911D01*
X96770224Y-134533755D01*
X96723282Y-134384873D01*
X96722345Y-134381902D01*
X106999500Y-134381902D01*
X106999500Y-134618097D01*
X107036446Y-134851368D01*
X107109433Y-135075996D01*
X107216657Y-135286433D01*
X107355483Y-135477510D01*
X107522490Y-135644517D01*
X107713567Y-135783343D01*
X107781646Y-135818031D01*
X107924003Y-135890566D01*
X107924005Y-135890566D01*
X107924008Y-135890568D01*
X108044412Y-135929689D01*
X108148631Y-135963553D01*
X108381903Y-136000500D01*
X108381908Y-136000500D01*
X108618097Y-136000500D01*
X108851368Y-135963553D01*
X109075992Y-135890568D01*
X109286433Y-135783343D01*
X109477510Y-135644517D01*
X109644517Y-135477510D01*
X109783343Y-135286433D01*
X109890568Y-135075992D01*
X109963553Y-134851368D01*
X109992450Y-134668920D01*
X110000500Y-134618097D01*
X110000500Y-134381902D01*
X109963553Y-134148631D01*
X109907109Y-133974917D01*
X109890568Y-133924008D01*
X109890566Y-133924005D01*
X109890566Y-133924003D01*
X109783342Y-133713566D01*
X109759647Y-133680953D01*
X109644517Y-133522490D01*
X109477510Y-133355483D01*
X109286433Y-133216657D01*
X109075996Y-133109433D01*
X108851368Y-133036446D01*
X108618097Y-132999500D01*
X108618092Y-132999500D01*
X108381908Y-132999500D01*
X108381903Y-132999500D01*
X108148631Y-133036446D01*
X107924003Y-133109433D01*
X107713566Y-133216657D01*
X107668496Y-133249403D01*
X107522490Y-133355483D01*
X107522488Y-133355485D01*
X107522487Y-133355485D01*
X107355485Y-133522487D01*
X107355485Y-133522488D01*
X107355483Y-133522490D01*
X107295862Y-133604550D01*
X107216657Y-133713566D01*
X107109433Y-133924003D01*
X107036446Y-134148631D01*
X106999500Y-134381902D01*
X96722345Y-134381902D01*
X96655442Y-134169710D01*
X96652648Y-134159284D01*
X96570025Y-133786597D01*
X96568152Y-133775971D01*
X96518326Y-133397506D01*
X96517386Y-133386771D01*
X96500618Y-133002702D01*
X96500500Y-132997293D01*
X96500500Y-76072999D01*
X106340341Y-76072999D01*
X106340341Y-76073000D01*
X106360936Y-76308403D01*
X106360938Y-76308413D01*
X106422094Y-76536655D01*
X106422096Y-76536659D01*
X106422097Y-76536663D01*
X106505155Y-76714781D01*
X106521965Y-76750830D01*
X106521967Y-76750834D01*
X106568579Y-76817402D01*
X106657501Y-76944396D01*
X106657506Y-76944402D01*
X106824597Y-77111493D01*
X106824603Y-77111498D01*
X107010158Y-77241425D01*
X107053783Y-77296002D01*
X107060977Y-77365500D01*
X107029454Y-77427855D01*
X107010158Y-77444575D01*
X106824597Y-77574505D01*
X106657505Y-77741597D01*
X106521965Y-77935169D01*
X106521964Y-77935171D01*
X106422098Y-78149335D01*
X106422094Y-78149344D01*
X106360938Y-78377586D01*
X106360936Y-78377596D01*
X106340341Y-78612999D01*
X106340341Y-78613000D01*
X106360936Y-78848403D01*
X106360938Y-78848413D01*
X106422094Y-79076655D01*
X106422096Y-79076659D01*
X106422097Y-79076663D01*
X106505155Y-79254781D01*
X106521965Y-79290830D01*
X106521967Y-79290834D01*
X106568579Y-79357402D01*
X106657501Y-79484396D01*
X106657506Y-79484402D01*
X106824597Y-79651493D01*
X106824603Y-79651498D01*
X107010158Y-79781425D01*
X107053783Y-79836002D01*
X107060977Y-79905500D01*
X107029454Y-79967855D01*
X107010158Y-79984575D01*
X106824597Y-80114505D01*
X106657505Y-80281597D01*
X106521965Y-80475169D01*
X106521964Y-80475171D01*
X106422098Y-80689335D01*
X106422094Y-80689344D01*
X106360938Y-80917586D01*
X106360936Y-80917596D01*
X106340341Y-81152999D01*
X106340341Y-81153000D01*
X106360936Y-81388403D01*
X106360938Y-81388413D01*
X106422094Y-81616655D01*
X106422096Y-81616659D01*
X106422097Y-81616663D01*
X106505155Y-81794781D01*
X106521965Y-81830830D01*
X106521967Y-81830834D01*
X106568579Y-81897402D01*
X106657501Y-82024396D01*
X106657506Y-82024402D01*
X106824597Y-82191493D01*
X106824603Y-82191498D01*
X107010158Y-82321425D01*
X107053783Y-82376002D01*
X107060977Y-82445500D01*
X107029454Y-82507855D01*
X107010158Y-82524575D01*
X106824597Y-82654505D01*
X106657505Y-82821597D01*
X106521965Y-83015169D01*
X106521964Y-83015171D01*
X106422098Y-83229335D01*
X106422094Y-83229344D01*
X106360938Y-83457586D01*
X106360936Y-83457596D01*
X106340341Y-83692999D01*
X106340341Y-83693000D01*
X106360936Y-83928403D01*
X106360938Y-83928413D01*
X106422094Y-84156655D01*
X106422096Y-84156659D01*
X106422097Y-84156663D01*
X106505155Y-84334781D01*
X106521965Y-84370830D01*
X106521967Y-84370834D01*
X106568579Y-84437402D01*
X106657501Y-84564396D01*
X106657506Y-84564402D01*
X106824597Y-84731493D01*
X106824603Y-84731498D01*
X107010158Y-84861425D01*
X107053783Y-84916002D01*
X107060977Y-84985500D01*
X107029454Y-85047855D01*
X107010158Y-85064575D01*
X106824597Y-85194505D01*
X106657505Y-85361597D01*
X106521965Y-85555169D01*
X106521964Y-85555171D01*
X106422098Y-85769335D01*
X106422094Y-85769344D01*
X106360938Y-85997586D01*
X106360936Y-85997596D01*
X106340341Y-86232999D01*
X106340341Y-86233000D01*
X106360936Y-86468403D01*
X106360938Y-86468413D01*
X106422094Y-86696655D01*
X106422096Y-86696659D01*
X106422097Y-86696663D01*
X106505155Y-86874781D01*
X106521965Y-86910830D01*
X106521967Y-86910834D01*
X106568579Y-86977402D01*
X106657501Y-87104396D01*
X106657506Y-87104402D01*
X106824597Y-87271493D01*
X106824603Y-87271498D01*
X107010158Y-87401425D01*
X107053783Y-87456002D01*
X107060977Y-87525500D01*
X107029454Y-87587855D01*
X107010158Y-87604575D01*
X106824597Y-87734505D01*
X106657505Y-87901597D01*
X106521965Y-88095169D01*
X106521964Y-88095171D01*
X106422098Y-88309335D01*
X106422094Y-88309344D01*
X106360938Y-88537586D01*
X106360936Y-88537596D01*
X106340341Y-88772999D01*
X106340341Y-88773000D01*
X106360936Y-89008403D01*
X106360938Y-89008413D01*
X106422094Y-89236655D01*
X106422096Y-89236659D01*
X106422097Y-89236663D01*
X106502841Y-89409819D01*
X106521965Y-89450830D01*
X106521967Y-89450834D01*
X106568579Y-89517402D01*
X106657501Y-89644396D01*
X106657506Y-89644402D01*
X106824597Y-89811493D01*
X106824603Y-89811498D01*
X107010158Y-89941425D01*
X107053783Y-89996002D01*
X107060977Y-90065500D01*
X107029454Y-90127855D01*
X107010158Y-90144575D01*
X106824597Y-90274505D01*
X106657505Y-90441597D01*
X106521965Y-90635169D01*
X106521964Y-90635171D01*
X106422098Y-90849335D01*
X106422094Y-90849344D01*
X106360938Y-91077586D01*
X106360936Y-91077596D01*
X106340341Y-91312999D01*
X106340341Y-91313000D01*
X106360936Y-91548403D01*
X106360938Y-91548413D01*
X106422094Y-91776655D01*
X106422096Y-91776659D01*
X106422097Y-91776663D01*
X106505155Y-91954781D01*
X106521965Y-91990830D01*
X106521967Y-91990834D01*
X106568579Y-92057402D01*
X106657501Y-92184396D01*
X106657506Y-92184402D01*
X106824597Y-92351493D01*
X106824603Y-92351498D01*
X107010158Y-92481425D01*
X107053783Y-92536002D01*
X107060977Y-92605500D01*
X107029454Y-92667855D01*
X107010158Y-92684575D01*
X106824597Y-92814505D01*
X106657505Y-92981597D01*
X106521965Y-93175169D01*
X106521964Y-93175171D01*
X106422098Y-93389335D01*
X106422094Y-93389344D01*
X106360938Y-93617586D01*
X106360936Y-93617596D01*
X106340341Y-93852999D01*
X106340341Y-93853000D01*
X106360936Y-94088403D01*
X106360938Y-94088413D01*
X106422094Y-94316655D01*
X106422096Y-94316659D01*
X106422097Y-94316663D01*
X106505155Y-94494781D01*
X106521965Y-94530830D01*
X106521967Y-94530834D01*
X106617001Y-94666555D01*
X106657501Y-94724396D01*
X106657506Y-94724402D01*
X106824597Y-94891493D01*
X106824603Y-94891498D01*
X107010158Y-95021425D01*
X107053783Y-95076002D01*
X107060977Y-95145500D01*
X107029454Y-95207855D01*
X107010158Y-95224575D01*
X106824597Y-95354505D01*
X106657505Y-95521597D01*
X106521965Y-95715169D01*
X106521964Y-95715171D01*
X106422098Y-95929335D01*
X106422094Y-95929344D01*
X106360938Y-96157586D01*
X106360936Y-96157596D01*
X106340341Y-96392999D01*
X106340341Y-96393000D01*
X106360936Y-96628403D01*
X106360938Y-96628413D01*
X106422094Y-96856655D01*
X106422096Y-96856659D01*
X106422097Y-96856663D01*
X106505155Y-97034781D01*
X106521965Y-97070830D01*
X106521967Y-97070834D01*
X106617001Y-97206555D01*
X106657501Y-97264396D01*
X106657506Y-97264402D01*
X106824597Y-97431493D01*
X106824603Y-97431498D01*
X107010158Y-97561425D01*
X107053783Y-97616002D01*
X107060977Y-97685500D01*
X107029454Y-97747855D01*
X107010158Y-97764575D01*
X106824597Y-97894505D01*
X106657505Y-98061597D01*
X106521965Y-98255169D01*
X106521964Y-98255171D01*
X106422098Y-98469335D01*
X106422094Y-98469344D01*
X106360938Y-98697586D01*
X106360936Y-98697596D01*
X106340341Y-98932999D01*
X106340341Y-98933000D01*
X106360936Y-99168403D01*
X106360938Y-99168413D01*
X106422094Y-99396655D01*
X106422096Y-99396659D01*
X106422097Y-99396663D01*
X106505155Y-99574781D01*
X106521965Y-99610830D01*
X106521967Y-99610834D01*
X106568579Y-99677402D01*
X106657501Y-99804396D01*
X106657506Y-99804402D01*
X106824597Y-99971493D01*
X106824603Y-99971498D01*
X107010158Y-100101425D01*
X107053783Y-100156002D01*
X107060977Y-100225500D01*
X107029454Y-100287855D01*
X107010158Y-100304575D01*
X106824597Y-100434505D01*
X106657505Y-100601597D01*
X106521965Y-100795169D01*
X106521964Y-100795171D01*
X106422098Y-101009335D01*
X106422094Y-101009344D01*
X106360938Y-101237586D01*
X106360936Y-101237596D01*
X106340341Y-101472999D01*
X106340341Y-101473000D01*
X106360936Y-101708403D01*
X106360938Y-101708413D01*
X106422094Y-101936655D01*
X106422096Y-101936659D01*
X106422097Y-101936663D01*
X106505155Y-102114781D01*
X106521965Y-102150830D01*
X106521967Y-102150834D01*
X106568579Y-102217402D01*
X106657501Y-102344396D01*
X106657506Y-102344402D01*
X106824597Y-102511493D01*
X106824603Y-102511498D01*
X107010158Y-102641425D01*
X107053783Y-102696002D01*
X107060977Y-102765500D01*
X107029454Y-102827855D01*
X107010158Y-102844575D01*
X106824597Y-102974505D01*
X106657505Y-103141597D01*
X106521965Y-103335169D01*
X106521964Y-103335171D01*
X106422098Y-103549335D01*
X106422094Y-103549344D01*
X106360938Y-103777586D01*
X106360936Y-103777596D01*
X106340341Y-104012999D01*
X106340341Y-104013000D01*
X106360936Y-104248403D01*
X106360938Y-104248413D01*
X106422094Y-104476655D01*
X106422096Y-104476659D01*
X106422097Y-104476663D01*
X106505155Y-104654781D01*
X106521965Y-104690830D01*
X106521967Y-104690834D01*
X106568579Y-104757402D01*
X106657501Y-104884396D01*
X106657506Y-104884402D01*
X106824597Y-105051493D01*
X106824603Y-105051498D01*
X107010158Y-105181425D01*
X107053783Y-105236002D01*
X107060977Y-105305500D01*
X107029454Y-105367855D01*
X107010158Y-105384575D01*
X106824597Y-105514505D01*
X106657505Y-105681597D01*
X106521965Y-105875169D01*
X106521964Y-105875171D01*
X106422098Y-106089335D01*
X106422094Y-106089344D01*
X106360938Y-106317586D01*
X106360936Y-106317596D01*
X106340341Y-106552999D01*
X106340341Y-106553000D01*
X106360936Y-106788403D01*
X106360938Y-106788413D01*
X106422094Y-107016655D01*
X106422096Y-107016659D01*
X106422097Y-107016663D01*
X106505155Y-107194781D01*
X106521965Y-107230830D01*
X106521967Y-107230834D01*
X106602143Y-107345336D01*
X106657501Y-107424396D01*
X106657506Y-107424402D01*
X106824597Y-107591493D01*
X106824603Y-107591498D01*
X107010158Y-107721425D01*
X107053783Y-107776002D01*
X107060977Y-107845500D01*
X107029454Y-107907855D01*
X107010158Y-107924575D01*
X106824597Y-108054505D01*
X106657505Y-108221597D01*
X106521965Y-108415169D01*
X106521964Y-108415171D01*
X106422098Y-108629335D01*
X106422094Y-108629344D01*
X106360938Y-108857586D01*
X106360936Y-108857596D01*
X106340341Y-109092999D01*
X106340341Y-109093000D01*
X106360936Y-109328403D01*
X106360938Y-109328413D01*
X106422094Y-109556655D01*
X106422096Y-109556659D01*
X106422097Y-109556663D01*
X106505155Y-109734781D01*
X106521965Y-109770830D01*
X106521967Y-109770834D01*
X106568579Y-109837402D01*
X106657501Y-109964396D01*
X106657506Y-109964402D01*
X106824597Y-110131493D01*
X106824603Y-110131498D01*
X107010158Y-110261425D01*
X107053783Y-110316002D01*
X107060977Y-110385500D01*
X107029454Y-110447855D01*
X107010158Y-110464575D01*
X106824597Y-110594505D01*
X106657505Y-110761597D01*
X106521965Y-110955169D01*
X106521964Y-110955171D01*
X106422098Y-111169335D01*
X106422094Y-111169344D01*
X106360938Y-111397586D01*
X106360936Y-111397596D01*
X106340341Y-111632999D01*
X106340341Y-111633000D01*
X106360936Y-111868403D01*
X106360938Y-111868413D01*
X106422094Y-112096655D01*
X106422096Y-112096659D01*
X106422097Y-112096663D01*
X106505155Y-112274781D01*
X106521965Y-112310830D01*
X106521967Y-112310834D01*
X106587114Y-112403873D01*
X106657505Y-112504401D01*
X106824599Y-112671495D01*
X106904827Y-112727671D01*
X107018165Y-112807032D01*
X107018167Y-112807033D01*
X107018170Y-112807035D01*
X107232337Y-112906903D01*
X107232343Y-112906904D01*
X107232344Y-112906905D01*
X107287285Y-112921626D01*
X107460592Y-112968063D01*
X107648918Y-112984539D01*
X107695999Y-112988659D01*
X107696000Y-112988659D01*
X107696001Y-112988659D01*
X107735234Y-112985226D01*
X107931408Y-112968063D01*
X108159663Y-112906903D01*
X108373830Y-112807035D01*
X108567401Y-112671495D01*
X108734495Y-112504401D01*
X108864730Y-112318405D01*
X108919307Y-112274781D01*
X108988805Y-112267587D01*
X109051160Y-112299110D01*
X109067879Y-112318405D01*
X109197890Y-112504078D01*
X109364917Y-112671105D01*
X109558421Y-112806600D01*
X109772507Y-112906429D01*
X109772516Y-112906433D01*
X109986000Y-112963634D01*
X109986000Y-112066012D01*
X110043007Y-112098925D01*
X110170174Y-112133000D01*
X110301826Y-112133000D01*
X110428993Y-112098925D01*
X110486000Y-112066012D01*
X110486000Y-112963633D01*
X110699483Y-112906433D01*
X110699492Y-112906429D01*
X110913578Y-112806600D01*
X111107082Y-112671105D01*
X111274105Y-112504082D01*
X111409600Y-112310578D01*
X111509429Y-112096492D01*
X111509432Y-112096486D01*
X111566636Y-111883000D01*
X110669012Y-111883000D01*
X110701925Y-111825993D01*
X110736000Y-111698826D01*
X110736000Y-111567174D01*
X110701925Y-111440007D01*
X110669012Y-111383000D01*
X111566636Y-111383000D01*
X111566635Y-111382999D01*
X111509432Y-111169513D01*
X111509429Y-111169507D01*
X111409600Y-110955422D01*
X111409599Y-110955420D01*
X111274113Y-110761926D01*
X111274108Y-110761920D01*
X111107082Y-110594894D01*
X110920968Y-110464575D01*
X110877344Y-110409998D01*
X110870151Y-110340499D01*
X110901673Y-110278145D01*
X110920968Y-110261425D01*
X111107082Y-110131105D01*
X111274105Y-109964082D01*
X111409600Y-109770578D01*
X111509429Y-109556492D01*
X111509432Y-109556486D01*
X111566636Y-109343000D01*
X110669012Y-109343000D01*
X110701925Y-109285993D01*
X110736000Y-109158826D01*
X110736000Y-109027174D01*
X110701925Y-108900007D01*
X110669012Y-108843000D01*
X111566636Y-108843000D01*
X111566635Y-108842999D01*
X111509432Y-108629513D01*
X111509429Y-108629507D01*
X111409600Y-108415422D01*
X111409599Y-108415420D01*
X111274113Y-108221926D01*
X111274108Y-108221920D01*
X111107082Y-108054894D01*
X110920968Y-107924575D01*
X110877344Y-107869998D01*
X110870151Y-107800499D01*
X110901673Y-107738145D01*
X110920968Y-107721425D01*
X111107082Y-107591105D01*
X111274105Y-107424082D01*
X111409600Y-107230578D01*
X111509429Y-107016492D01*
X111509432Y-107016486D01*
X111566636Y-106803000D01*
X110669012Y-106803000D01*
X110701925Y-106745993D01*
X110736000Y-106618826D01*
X110736000Y-106487174D01*
X110701925Y-106360007D01*
X110669012Y-106303000D01*
X111566636Y-106303000D01*
X111566635Y-106302999D01*
X111509432Y-106089513D01*
X111509429Y-106089507D01*
X111409600Y-105875422D01*
X111409599Y-105875420D01*
X111274113Y-105681926D01*
X111274108Y-105681920D01*
X111107082Y-105514894D01*
X110920968Y-105384575D01*
X110877344Y-105329998D01*
X110870151Y-105260499D01*
X110901673Y-105198145D01*
X110920968Y-105181425D01*
X111107082Y-105051105D01*
X111274105Y-104884082D01*
X111409600Y-104690578D01*
X111509429Y-104476492D01*
X111509432Y-104476486D01*
X111566636Y-104263000D01*
X110669012Y-104263000D01*
X110701925Y-104205993D01*
X110736000Y-104078826D01*
X110736000Y-103947174D01*
X110701925Y-103820007D01*
X110669012Y-103763000D01*
X111566636Y-103763000D01*
X111566635Y-103762999D01*
X111509432Y-103549513D01*
X111509429Y-103549507D01*
X111409600Y-103335422D01*
X111409599Y-103335420D01*
X111274113Y-103141926D01*
X111274108Y-103141920D01*
X111107082Y-102974894D01*
X110920968Y-102844575D01*
X110877344Y-102789998D01*
X110870151Y-102720499D01*
X110901673Y-102658145D01*
X110920968Y-102641425D01*
X111107082Y-102511105D01*
X111274105Y-102344082D01*
X111409600Y-102150578D01*
X111509429Y-101936492D01*
X111509432Y-101936486D01*
X111566636Y-101723000D01*
X110669012Y-101723000D01*
X110701925Y-101665993D01*
X110736000Y-101538826D01*
X110736000Y-101407174D01*
X110701925Y-101280007D01*
X110669012Y-101223000D01*
X111566636Y-101223000D01*
X111566635Y-101222999D01*
X111509432Y-101009513D01*
X111509429Y-101009507D01*
X111409600Y-100795422D01*
X111409599Y-100795420D01*
X111274113Y-100601926D01*
X111274108Y-100601920D01*
X111107082Y-100434894D01*
X110920968Y-100304575D01*
X110877344Y-100249998D01*
X110870151Y-100180499D01*
X110901673Y-100118145D01*
X110920968Y-100101425D01*
X111107082Y-99971105D01*
X111274105Y-99804082D01*
X111409600Y-99610578D01*
X111509429Y-99396492D01*
X111509432Y-99396486D01*
X111566636Y-99183000D01*
X110669012Y-99183000D01*
X110701925Y-99125993D01*
X110736000Y-98998826D01*
X110736000Y-98867174D01*
X110701925Y-98740007D01*
X110669012Y-98683000D01*
X111566636Y-98683000D01*
X111566635Y-98682999D01*
X111509432Y-98469513D01*
X111509429Y-98469507D01*
X111409600Y-98255422D01*
X111409599Y-98255420D01*
X111274113Y-98061926D01*
X111274108Y-98061920D01*
X111107082Y-97894894D01*
X110920968Y-97764575D01*
X110877344Y-97709998D01*
X110870151Y-97640499D01*
X110901673Y-97578145D01*
X110920968Y-97561425D01*
X111107082Y-97431105D01*
X111274105Y-97264082D01*
X111409600Y-97070578D01*
X111509429Y-96856492D01*
X111509432Y-96856486D01*
X111566636Y-96643000D01*
X110669012Y-96643000D01*
X110701925Y-96585993D01*
X110736000Y-96458826D01*
X110736000Y-96327174D01*
X110701925Y-96200007D01*
X110669012Y-96143000D01*
X111566636Y-96143000D01*
X111566635Y-96142999D01*
X111509432Y-95929513D01*
X111509429Y-95929507D01*
X111409600Y-95715422D01*
X111409599Y-95715420D01*
X111274113Y-95521926D01*
X111274108Y-95521920D01*
X111107082Y-95354894D01*
X110920968Y-95224575D01*
X110877344Y-95169998D01*
X110870151Y-95100499D01*
X110901673Y-95038145D01*
X110920968Y-95021425D01*
X111107082Y-94891105D01*
X111274105Y-94724082D01*
X111409600Y-94530578D01*
X111509429Y-94316492D01*
X111509432Y-94316486D01*
X111566636Y-94103000D01*
X110669012Y-94103000D01*
X110701925Y-94045993D01*
X110736000Y-93918826D01*
X110736000Y-93787174D01*
X110701925Y-93660007D01*
X110669012Y-93603000D01*
X111566636Y-93603000D01*
X111566635Y-93602999D01*
X111509432Y-93389513D01*
X111509429Y-93389507D01*
X111409600Y-93175422D01*
X111409599Y-93175420D01*
X111274113Y-92981926D01*
X111274108Y-92981920D01*
X111107082Y-92814894D01*
X110920968Y-92684575D01*
X110877344Y-92629998D01*
X110870151Y-92560499D01*
X110901673Y-92498145D01*
X110920968Y-92481425D01*
X111107082Y-92351105D01*
X111274105Y-92184082D01*
X111409600Y-91990578D01*
X111509429Y-91776492D01*
X111509432Y-91776486D01*
X111566636Y-91563000D01*
X110669012Y-91563000D01*
X110701925Y-91505993D01*
X110736000Y-91378826D01*
X110736000Y-91247174D01*
X110701925Y-91120007D01*
X110669012Y-91063000D01*
X111566636Y-91063000D01*
X111566635Y-91062999D01*
X111509432Y-90849513D01*
X111509429Y-90849507D01*
X111409600Y-90635422D01*
X111409599Y-90635420D01*
X111274113Y-90441926D01*
X111274108Y-90441920D01*
X111107082Y-90274894D01*
X110920968Y-90144575D01*
X110877344Y-90089998D01*
X110870151Y-90020499D01*
X110901673Y-89958145D01*
X110920968Y-89941425D01*
X111107082Y-89811105D01*
X111274105Y-89644082D01*
X111409600Y-89450578D01*
X111509429Y-89236492D01*
X111509432Y-89236486D01*
X111566636Y-89023000D01*
X110669012Y-89023000D01*
X110701925Y-88965993D01*
X110736000Y-88838826D01*
X110736000Y-88707174D01*
X110701925Y-88580007D01*
X110669012Y-88523000D01*
X111566636Y-88523000D01*
X111566635Y-88522999D01*
X111509432Y-88309513D01*
X111509429Y-88309507D01*
X111409600Y-88095422D01*
X111409599Y-88095420D01*
X111274113Y-87901926D01*
X111274108Y-87901920D01*
X111107082Y-87734894D01*
X110920968Y-87604575D01*
X110877344Y-87549998D01*
X110870151Y-87480499D01*
X110901673Y-87418145D01*
X110920968Y-87401425D01*
X111107082Y-87271105D01*
X111274105Y-87104082D01*
X111409600Y-86910578D01*
X111509429Y-86696492D01*
X111509432Y-86696486D01*
X111566636Y-86483000D01*
X110669012Y-86483000D01*
X110701925Y-86425993D01*
X110736000Y-86298826D01*
X110736000Y-86167174D01*
X110701925Y-86040007D01*
X110669012Y-85983000D01*
X111566636Y-85983000D01*
X111566635Y-85982999D01*
X111509432Y-85769513D01*
X111509429Y-85769507D01*
X111409600Y-85555422D01*
X111409599Y-85555420D01*
X111274113Y-85361926D01*
X111274108Y-85361920D01*
X111107082Y-85194894D01*
X110920968Y-85064575D01*
X110877344Y-85009998D01*
X110870151Y-84940499D01*
X110901673Y-84878145D01*
X110920968Y-84861425D01*
X111107082Y-84731105D01*
X111274105Y-84564082D01*
X111409600Y-84370578D01*
X111509429Y-84156492D01*
X111509432Y-84156486D01*
X111566636Y-83943000D01*
X110669012Y-83943000D01*
X110701925Y-83885993D01*
X110736000Y-83758826D01*
X110736000Y-83627174D01*
X110701925Y-83500007D01*
X110669012Y-83443000D01*
X111566636Y-83443000D01*
X111566635Y-83442999D01*
X111509432Y-83229513D01*
X111509429Y-83229507D01*
X111409600Y-83015422D01*
X111409599Y-83015420D01*
X111274113Y-82821926D01*
X111274108Y-82821920D01*
X111107082Y-82654894D01*
X110920968Y-82524575D01*
X110877344Y-82469998D01*
X110870151Y-82400499D01*
X110901673Y-82338145D01*
X110920968Y-82321425D01*
X111107082Y-82191105D01*
X111274105Y-82024082D01*
X111409600Y-81830578D01*
X111509429Y-81616492D01*
X111509432Y-81616486D01*
X111566636Y-81403000D01*
X110669012Y-81403000D01*
X110701925Y-81345993D01*
X110736000Y-81218826D01*
X110736000Y-81087174D01*
X110701925Y-80960007D01*
X110669012Y-80903000D01*
X111566636Y-80903000D01*
X111566635Y-80902999D01*
X111509432Y-80689513D01*
X111509429Y-80689507D01*
X111409600Y-80475422D01*
X111409599Y-80475420D01*
X111274113Y-80281926D01*
X111274108Y-80281920D01*
X111107082Y-80114894D01*
X110920968Y-79984575D01*
X110877344Y-79929998D01*
X110870151Y-79860499D01*
X110901673Y-79798145D01*
X110920968Y-79781425D01*
X111107082Y-79651105D01*
X111274105Y-79484082D01*
X111409600Y-79290578D01*
X111509429Y-79076492D01*
X111509432Y-79076486D01*
X111566636Y-78863000D01*
X110669012Y-78863000D01*
X110701925Y-78805993D01*
X110736000Y-78678826D01*
X110736000Y-78547174D01*
X110701925Y-78420007D01*
X110669012Y-78363000D01*
X111566636Y-78363000D01*
X111566635Y-78362999D01*
X111509432Y-78149513D01*
X111509429Y-78149507D01*
X111409600Y-77935422D01*
X111409599Y-77935420D01*
X111274113Y-77741926D01*
X111274108Y-77741920D01*
X111107082Y-77574894D01*
X110920968Y-77444575D01*
X110877344Y-77389998D01*
X110870151Y-77320499D01*
X110901673Y-77258145D01*
X110920968Y-77241425D01*
X111107082Y-77111105D01*
X111274105Y-76944082D01*
X111409600Y-76750578D01*
X111509429Y-76536492D01*
X111509432Y-76536486D01*
X111566636Y-76323000D01*
X110669012Y-76323000D01*
X110701925Y-76265993D01*
X110736000Y-76138826D01*
X110736000Y-76007174D01*
X110701925Y-75880007D01*
X110669012Y-75823000D01*
X111566636Y-75823000D01*
X111566635Y-75822999D01*
X111509432Y-75609513D01*
X111509429Y-75609507D01*
X111409600Y-75395422D01*
X111409599Y-75395420D01*
X111274113Y-75201926D01*
X111274108Y-75201920D01*
X111107082Y-75034894D01*
X110920968Y-74904575D01*
X110877344Y-74849998D01*
X110870151Y-74780499D01*
X110901673Y-74718145D01*
X110920968Y-74701425D01*
X111107082Y-74571105D01*
X111274105Y-74404082D01*
X111409600Y-74210578D01*
X111509429Y-73996492D01*
X111509432Y-73996486D01*
X111566636Y-73783000D01*
X110669012Y-73783000D01*
X110701925Y-73725993D01*
X110736000Y-73598826D01*
X110736000Y-73467174D01*
X110701925Y-73340007D01*
X110669012Y-73283000D01*
X111566636Y-73283000D01*
X111566635Y-73282999D01*
X111509432Y-73069513D01*
X111509429Y-73069507D01*
X111409600Y-72855422D01*
X111409599Y-72855420D01*
X111274113Y-72661926D01*
X111274108Y-72661920D01*
X111107082Y-72494894D01*
X110913578Y-72359399D01*
X110699492Y-72259570D01*
X110699486Y-72259567D01*
X110486000Y-72202364D01*
X110486000Y-73099988D01*
X110428993Y-73067075D01*
X110301826Y-73033000D01*
X110170174Y-73033000D01*
X110043007Y-73067075D01*
X109986000Y-73099988D01*
X109986000Y-72202364D01*
X109985999Y-72202364D01*
X109772513Y-72259567D01*
X109772507Y-72259570D01*
X109558422Y-72359399D01*
X109558420Y-72359400D01*
X109364926Y-72494886D01*
X109242865Y-72616947D01*
X109181542Y-72650431D01*
X109111850Y-72645447D01*
X109055917Y-72603575D01*
X109039002Y-72572598D01*
X109024951Y-72534926D01*
X108989796Y-72440669D01*
X108989795Y-72440668D01*
X108989793Y-72440664D01*
X108903546Y-72325454D01*
X108903544Y-72325452D01*
X108788335Y-72239206D01*
X108788328Y-72239202D01*
X108653482Y-72188908D01*
X108653483Y-72188908D01*
X108593883Y-72182501D01*
X108593881Y-72182500D01*
X108593873Y-72182500D01*
X108593864Y-72182500D01*
X106798129Y-72182500D01*
X106798123Y-72182501D01*
X106738516Y-72188908D01*
X106603671Y-72239202D01*
X106603664Y-72239206D01*
X106488455Y-72325452D01*
X106488454Y-72325454D01*
X106402206Y-72440664D01*
X106402202Y-72440671D01*
X106351908Y-72575517D01*
X106345501Y-72635116D01*
X106345500Y-72635135D01*
X106345500Y-74430870D01*
X106345501Y-74430876D01*
X106351908Y-74490483D01*
X106402202Y-74625328D01*
X106402206Y-74625335D01*
X106488452Y-74740544D01*
X106488455Y-74740547D01*
X106603664Y-74826793D01*
X106603671Y-74826797D01*
X106735081Y-74875810D01*
X106791015Y-74917681D01*
X106815432Y-74983145D01*
X106800580Y-75051418D01*
X106779430Y-75079673D01*
X106657503Y-75201600D01*
X106521965Y-75395169D01*
X106521964Y-75395171D01*
X106422098Y-75609335D01*
X106422094Y-75609344D01*
X106360938Y-75837586D01*
X106360936Y-75837596D01*
X106340341Y-76072999D01*
X96500500Y-76072999D01*
X96500500Y-70002706D01*
X96500618Y-69997297D01*
X96502749Y-69948486D01*
X96517386Y-69613226D01*
X96518326Y-69602495D01*
X96568152Y-69224025D01*
X96570025Y-69213405D01*
X96652649Y-68840709D01*
X96655440Y-68830295D01*
X96770230Y-68466227D01*
X96773917Y-68456095D01*
X96804649Y-68381902D01*
X101999500Y-68381902D01*
X101999500Y-68618097D01*
X102036446Y-68851368D01*
X102109433Y-69075996D01*
X102196299Y-69246478D01*
X102216657Y-69286433D01*
X102355483Y-69477510D01*
X102522490Y-69644517D01*
X102713567Y-69783343D01*
X102812991Y-69834002D01*
X102924003Y-69890566D01*
X102924005Y-69890566D01*
X102924008Y-69890568D01*
X103044412Y-69929689D01*
X103148631Y-69963553D01*
X103381903Y-70000500D01*
X103381908Y-70000500D01*
X103618097Y-70000500D01*
X103851368Y-69963553D01*
X103897739Y-69948486D01*
X104075992Y-69890568D01*
X104286433Y-69783343D01*
X104477510Y-69644517D01*
X104644517Y-69477510D01*
X104783343Y-69286433D01*
X104890568Y-69075992D01*
X104963553Y-68851368D01*
X104972671Y-68793797D01*
X105000500Y-68618097D01*
X105000500Y-68381902D01*
X104963553Y-68148631D01*
X104914874Y-67998815D01*
X104890568Y-67924008D01*
X104890566Y-67924005D01*
X104890566Y-67924003D01*
X104802034Y-67750250D01*
X104783343Y-67713567D01*
X104644517Y-67522490D01*
X104477510Y-67355483D01*
X104286433Y-67216657D01*
X104239990Y-67192993D01*
X104075996Y-67109433D01*
X103851368Y-67036446D01*
X103618097Y-66999500D01*
X103618092Y-66999500D01*
X103381908Y-66999500D01*
X103381903Y-66999500D01*
X103148631Y-67036446D01*
X102924003Y-67109433D01*
X102713566Y-67216657D01*
X102604550Y-67295862D01*
X102522490Y-67355483D01*
X102522488Y-67355485D01*
X102522487Y-67355485D01*
X102355485Y-67522487D01*
X102355485Y-67522488D01*
X102355483Y-67522490D01*
X102312149Y-67582134D01*
X102216657Y-67713566D01*
X102109433Y-67924003D01*
X102036446Y-68148631D01*
X101999500Y-68381902D01*
X96804649Y-68381902D01*
X96920003Y-68103412D01*
X96924561Y-68093638D01*
X97100822Y-67755045D01*
X97106217Y-67745700D01*
X97311325Y-67423744D01*
X97317515Y-67414905D01*
X97549896Y-67112060D01*
X97556834Y-67103791D01*
X97814726Y-66822352D01*
X97822352Y-66814726D01*
X98103791Y-66556834D01*
X98112060Y-66549896D01*
X98414905Y-66317515D01*
X98423744Y-66311325D01*
X98745700Y-66106217D01*
X98755045Y-66100822D01*
X99093638Y-65924561D01*
X99103412Y-65920003D01*
X99456095Y-65773917D01*
X99466227Y-65770230D01*
X99830295Y-65655440D01*
X99840709Y-65652649D01*
X100213405Y-65570025D01*
X100224025Y-65568152D01*
X100602495Y-65518326D01*
X100613226Y-65517386D01*
X100997297Y-65500617D01*
X101002706Y-65500500D01*
X101065892Y-65500500D01*
X116854513Y-65500500D01*
X116921552Y-65520185D01*
G37*
G04 #@! TD.AperFunction*
M02*
