G04 #@! TF.GenerationSoftware,KiCad,Pcbnew,8.0.6*
G04 #@! TF.CreationDate,2026-02-18T12:36:35-07:00*
G04 #@! TF.ProjectId,pneumatic Backpack v3.1,706e6575-6d61-4746-9963-204261636b70,rev?*
G04 #@! TF.SameCoordinates,Original*
G04 #@! TF.FileFunction,Legend,Bot*
G04 #@! TF.FilePolarity,Positive*
%FSLAX46Y46*%
G04 Gerber Fmt 4.6, Leading zero omitted, Abs format (unit mm)*
G04 Created by KiCad (PCBNEW 8.0.6) date 2026-02-18 12:36:35*
%MOMM*%
%LPD*%
G01*
G04 APERTURE LIST*
G04 Aperture macros list*
%AMRoundRect*
0 Rectangle with rounded corners*
0 $1 Rounding radius*
0 $2 $3 $4 $5 $6 $7 $8 $9 X,Y pos of 4 corners*
0 Add a 4 corners polygon primitive as box body*
4,1,4,$2,$3,$4,$5,$6,$7,$8,$9,$2,$3,0*
0 Add four circle primitives for the rounded corners*
1,1,$1+$1,$2,$3*
1,1,$1+$1,$4,$5*
1,1,$1+$1,$6,$7*
1,1,$1+$1,$8,$9*
0 Add four rect primitives between the rounded corners*
20,1,$1+$1,$2,$3,$4,$5,0*
20,1,$1+$1,$4,$5,$6,$7,0*
20,1,$1+$1,$6,$7,$8,$9,0*
20,1,$1+$1,$8,$9,$2,$3,0*%
G04 Aperture macros list end*
%ADD10C,0.150000*%
%ADD11C,0.200000*%
%ADD12RoundRect,0.102000X-0.765000X-0.765000X0.765000X-0.765000X0.765000X0.765000X-0.765000X0.765000X0*%
%ADD13C,1.734000*%
%ADD14O,1.730000X1.030000*%
%ADD15RoundRect,0.250000X-0.615000X0.265000X-0.615000X-0.265000X0.615000X-0.265000X0.615000X0.265000X0*%
%ADD16RoundRect,0.250000X0.615000X-0.265000X0.615000X0.265000X-0.615000X0.265000X-0.615000X-0.265000X0*%
%ADD17RoundRect,0.250000X0.412500X0.650000X-0.412500X0.650000X-0.412500X-0.650000X0.412500X-0.650000X0*%
%ADD18R,1.700000X1.700000*%
%ADD19O,1.700000X1.700000*%
%ADD20RoundRect,0.250000X-0.600000X-0.600000X0.600000X-0.600000X0.600000X0.600000X-0.600000X0.600000X0*%
%ADD21C,2.500000*%
G04 APERTURE END LIST*
D10*
X123483666Y-118778580D02*
X123531285Y-118826200D01*
X123531285Y-118826200D02*
X123674142Y-118873819D01*
X123674142Y-118873819D02*
X123769380Y-118873819D01*
X123769380Y-118873819D02*
X123912237Y-118826200D01*
X123912237Y-118826200D02*
X124007475Y-118730961D01*
X124007475Y-118730961D02*
X124055094Y-118635723D01*
X124055094Y-118635723D02*
X124102713Y-118445247D01*
X124102713Y-118445247D02*
X124102713Y-118302390D01*
X124102713Y-118302390D02*
X124055094Y-118111914D01*
X124055094Y-118111914D02*
X124007475Y-118016676D01*
X124007475Y-118016676D02*
X123912237Y-117921438D01*
X123912237Y-117921438D02*
X123769380Y-117873819D01*
X123769380Y-117873819D02*
X123674142Y-117873819D01*
X123674142Y-117873819D02*
X123531285Y-117921438D01*
X123531285Y-117921438D02*
X123483666Y-117969057D01*
X122626523Y-118207152D02*
X122626523Y-118873819D01*
X122864618Y-117826200D02*
X123102713Y-118540485D01*
X123102713Y-118540485D02*
X122483666Y-118540485D01*
D11*
X122605748Y-119119000D02*
X124028252Y-119119000D01*
X122605748Y-121419000D02*
X124028252Y-121419000D01*
X116682000Y-68354000D02*
X116682000Y-67024000D01*
X118012000Y-68354000D02*
X116682000Y-68354000D01*
X119282000Y-68354000D02*
X119282000Y-65694000D01*
X126962000Y-65694000D02*
X119282000Y-65694000D01*
X126962000Y-68354000D02*
X119282000Y-68354000D01*
X126962000Y-68354000D02*
X126962000Y-65694000D01*
X134670000Y-131670000D02*
X136000000Y-131670000D01*
X134670000Y-133000000D02*
X134670000Y-131670000D01*
X134670000Y-134270000D02*
X137330000Y-134270000D01*
X134670000Y-136870000D02*
X134670000Y-134270000D01*
X134670000Y-136870000D02*
X137330000Y-136870000D01*
X137330000Y-136870000D02*
X137330000Y-134270000D01*
X142130000Y-66170000D02*
X142130000Y-68830000D01*
X142130000Y-66170000D02*
X144730000Y-66170000D01*
X142130000Y-68830000D02*
X144730000Y-68830000D01*
X144730000Y-66170000D02*
X144730000Y-68830000D01*
X146000000Y-66170000D02*
X147330000Y-66170000D01*
X147330000Y-66170000D02*
X147330000Y-67500000D01*
X138670000Y-131670000D02*
X140000000Y-131670000D01*
X138670000Y-133000000D02*
X138670000Y-131670000D01*
X138670000Y-134270000D02*
X141330000Y-134270000D01*
X138670000Y-136870000D02*
X138670000Y-134270000D01*
X138670000Y-136870000D02*
X141330000Y-136870000D01*
X141330000Y-136870000D02*
X141330000Y-134270000D01*
%LPC*%
D12*
X116570000Y-73530000D03*
D13*
X116570000Y-76070000D03*
X116570000Y-78610000D03*
X116570000Y-81150000D03*
X116570000Y-83690000D03*
X116570000Y-86230000D03*
X116570000Y-88770000D03*
X116570000Y-91310000D03*
X116570000Y-93850000D03*
X116570000Y-96390000D03*
X116570000Y-98930000D03*
X116570000Y-101470000D03*
X116570000Y-104010000D03*
X116570000Y-106550000D03*
X116570000Y-109090000D03*
X116570000Y-111630000D03*
X116570000Y-114170000D03*
X116570000Y-116710000D03*
X116570000Y-119250000D03*
X116570000Y-121790000D03*
X116570000Y-124330000D03*
X116570000Y-126870000D03*
X139430000Y-73530000D03*
X139430000Y-76070000D03*
X139430000Y-78610000D03*
X139430000Y-81150000D03*
X139430000Y-83690000D03*
X139430000Y-86230000D03*
X139430000Y-88770000D03*
X139430000Y-91310000D03*
X139430000Y-93850000D03*
X139430000Y-96390000D03*
X139430000Y-98930000D03*
X139430000Y-101470000D03*
X139430000Y-104010000D03*
X139430000Y-106550000D03*
X139430000Y-109090000D03*
X139430000Y-111630000D03*
X139430000Y-114170000D03*
X139430000Y-116710000D03*
X139430000Y-119250000D03*
X139430000Y-121790000D03*
X139430000Y-124330000D03*
X139430000Y-126870000D03*
D14*
X103505000Y-132118000D03*
X103505000Y-130618000D03*
X103505000Y-129118000D03*
X103505000Y-127618000D03*
X103505000Y-126118000D03*
X103505000Y-124618000D03*
X103505000Y-123118000D03*
X103505000Y-121618000D03*
X103505000Y-120118000D03*
X103505000Y-118618000D03*
X103505000Y-117118000D03*
D15*
X103505000Y-115618000D03*
D16*
X152534000Y-131840000D03*
D14*
X152534000Y-130340000D03*
X152534000Y-128840000D03*
X152534000Y-127340000D03*
X152534000Y-125840000D03*
X152534000Y-124340000D03*
X152534000Y-122840000D03*
X152534000Y-121340000D03*
X152534000Y-119840000D03*
X152534000Y-118340000D03*
X152534000Y-116840000D03*
X152534000Y-115340000D03*
D17*
X124879500Y-120269000D03*
X121754500Y-120269000D03*
D18*
X124166000Y-133014000D03*
D19*
X126706000Y-133014000D03*
X129246000Y-133014000D03*
X131786000Y-133014000D03*
D20*
X157734000Y-106426000D03*
D21*
X108500000Y-134500000D03*
X152500000Y-68500000D03*
X103500000Y-68500000D03*
X147500000Y-134500000D03*
D18*
X147955000Y-111506000D03*
D19*
X145415000Y-111506000D03*
X147955000Y-108966000D03*
X145415000Y-108966000D03*
X147955000Y-106426000D03*
X145415000Y-106426000D03*
X147955000Y-103886000D03*
X145415000Y-103886000D03*
X147955000Y-101346000D03*
X145415000Y-101346000D03*
X147955000Y-98806000D03*
X145415000Y-98806000D03*
X147955000Y-96266000D03*
X145415000Y-96266000D03*
X147955000Y-93726000D03*
X145415000Y-93726000D03*
X147955000Y-91186000D03*
X145415000Y-91186000D03*
X147955000Y-88646000D03*
X145415000Y-88646000D03*
X147955000Y-86106000D03*
X145415000Y-86106000D03*
X147955000Y-83566000D03*
X145415000Y-83566000D03*
X147955000Y-81026000D03*
X145415000Y-81026000D03*
X147955000Y-78486000D03*
X145415000Y-78486000D03*
X147955000Y-75946000D03*
X145415000Y-75946000D03*
X147955000Y-73406000D03*
X145415000Y-73406000D03*
D18*
X107696000Y-73533000D03*
D19*
X110236000Y-73533000D03*
X107696000Y-76073000D03*
X110236000Y-76073000D03*
X107696000Y-78613000D03*
X110236000Y-78613000D03*
X107696000Y-81153000D03*
X110236000Y-81153000D03*
X107696000Y-83693000D03*
X110236000Y-83693000D03*
X107696000Y-86233000D03*
X110236000Y-86233000D03*
X107696000Y-88773000D03*
X110236000Y-88773000D03*
X107696000Y-91313000D03*
X110236000Y-91313000D03*
X107696000Y-93853000D03*
X110236000Y-93853000D03*
X107696000Y-96393000D03*
X110236000Y-96393000D03*
X107696000Y-98933000D03*
X110236000Y-98933000D03*
X107696000Y-101473000D03*
X110236000Y-101473000D03*
X107696000Y-104013000D03*
X110236000Y-104013000D03*
X107696000Y-106553000D03*
X110236000Y-106553000D03*
X107696000Y-109093000D03*
X110236000Y-109093000D03*
X107696000Y-111633000D03*
X110236000Y-111633000D03*
D18*
X118012000Y-67024000D03*
D19*
X120552000Y-67024000D03*
X123092000Y-67024000D03*
X125632000Y-67024000D03*
D18*
X136000000Y-133000000D03*
D19*
X136000000Y-135540000D03*
D18*
X146000000Y-67500000D03*
D19*
X143460000Y-67500000D03*
D18*
X140000000Y-133000000D03*
D19*
X140000000Y-135540000D03*
%LPD*%
M02*
